<svg xmlns="http://www.w3.org/2000/svg" xmlns:xlink="http://www.w3.org/1999/xlink" width="980" zoomAndPan="magnify" viewBox="0 0 735 112.499997" height="150" preserveAspectRatio="xMidYMid meet" version="1.0"><defs><g/><clipPath id="504ade6429"><path d="M 1.625 0 L 733.371094 0 L 733.371094 112.003906 L 1.625 112.003906 Z M 1.625 0 " clip-rule="nonzero"/></clipPath><clipPath id="4e53a4d8a2"><path d="M 1.625 0 L 102 0 L 102 112.003906 L 1.625 112.003906 Z M 1.625 0 " clip-rule="nonzero"/></clipPath><clipPath id="d3a38b3fbe"><path d="M 88.726562 153.175781 L -62.28125 98.699219 L -14.898438 -32.644531 L 136.109375 21.832031 Z M 88.726562 153.175781 " clip-rule="nonzero"/></clipPath><clipPath id="3da1404e6d"><path d="M 88.726562 153.175781 L -62.28125 98.699219 L -14.898438 -32.644531 L 136.109375 21.832031 Z M 88.726562 153.175781 " clip-rule="nonzero"/></clipPath><clipPath id="0b63867c2c"><path d="M 630 0 L 733.371094 0 L 733.371094 112.003906 L 630 112.003906 Z M 630 0 " clip-rule="nonzero"/></clipPath><clipPath id="73ebe6daaa"><path d="M 647.433594 139.230469 L 603.589844 -11.320312 L 734.066406 -49.316406 L 777.910156 101.234375 Z M 647.433594 139.230469 " clip-rule="nonzero"/></clipPath><clipPath id="c79ebaaa9a"><path d="M 647.433594 139.230469 L 603.589844 -11.320312 L 734.066406 -49.316406 L 777.910156 101.234375 Z M 647.433594 139.230469 " clip-rule="nonzero"/></clipPath></defs><g clip-path="url(#504ade6429)"><path fill="#ffffff" d="M 1.625 0 L 733.375 0 L 733.375 119.46875 L 1.625 119.46875 Z M 1.625 0 " fill-opacity="1" fill-rule="nonzero"/><path fill="#ffffff" d="M 1.625 0 L 733.375 0 L 733.375 112.003906 L 1.625 112.003906 Z M 1.625 0 " fill-opacity="1" fill-rule="nonzero"/><path fill="#000000" d="M 1.625 0 L 733.375 0 L 733.375 112.003906 L 1.625 112.003906 Z M 1.625 0 " fill-opacity="1" fill-rule="nonzero"/></g><g clip-path="url(#4e53a4d8a2)"><g clip-path="url(#d3a38b3fbe)"><g clip-path="url(#3da1404e6d)"><path fill="#00ceff" d="M -31.824219 16.890625 C -32.382812 20.730469 -31.871094 25.105469 -29.175781 28.09375 C -26.8125 30.710938 -23.019531 32.273438 -19.546875 31.136719 C -15.585938 29.835938 -14.019531 25.78125 -13.125 22.066406 C -12.210938 18.292969 -11.320312 14.726562 -9.136719 11.449219 C -7.066406 8.335938 -4.28125 5.65625 -1.035156 3.792969 C 6.492188 -0.53125 16.140625 -0.125 24.191406 2.480469 C 31.765625 4.929688 38.71875 10.390625 40.921875 18.332031 C 41.351562 19.871094 41.578125 21.449219 41.59375 23.042969 C 41.574219 23.042969 41.558594 23.035156 41.539062 23.035156 C 30.414062 22.40625 19.195312 24.433594 8.960938 28.851562 C 3.792969 31.082031 -1.128906 33.9375 -5.621094 37.335938 C -10.484375 41.019531 -14.976562 45.652344 -16.828125 51.609375 C -18.628906 57.394531 -18.054688 63.695312 -15.886719 69.289062 C -13.636719 75.101562 -9.363281 79.445312 -3.578125 81.753906 C 6.875 85.925781 19.398438 84.105469 29.1875 78.996094 C 39.8125 73.445312 47.800781 63.746094 52.152344 52.65625 C 52.453125 51.894531 52.726562 51.125 52.992188 50.351562 C 59.828125 57.238281 64.3125 66.402344 65.757812 75.988281 C 66.09375 78.238281 66.253906 80.5 66.242188 82.765625 C 57.628906 79.917969 48.140625 80.058594 39.605469 83.195312 C 30.882812 86.402344 23.289062 92.886719 18.726562 100.988281 C 16.289062 105.3125 14.4375 110.261719 15.433594 115.28125 C 16.273438 119.519531 18.863281 123.261719 22.25 125.882812 C 30.054688 131.929688 41.019531 130.761719 49.371094 126.535156 C 54.308594 124.03125 58.679688 120.539062 62.738281 116.800781 C 66.824219 113.039062 70.578125 108.9375 73.28125 104.078125 C 77.527344 106.023438 80.324219 110.109375 82.136719 114.308594 C 83.882812 118.347656 85.089844 123.910156 90.050781 125.113281 C 94.976562 126.304688 99.769531 122.503906 100.996094 117.847656 C 102.339844 112.746094 100.636719 107.257812 98.3125 102.703125 C 95.71875 97.625 91.890625 93.226562 87.21875 89.964844 C 86.972656 89.792969 86.722656 89.710938 86.484375 89.691406 C 88.320312 72.207031 82.167969 54.164062 70.464844 41.125 C 67.074219 37.34375 63.207031 33.976562 58.976562 31.167969 C 58.871094 31.101562 58.765625 31.046875 58.664062 31.003906 C 58.878906 30.84375 59.054688 30.597656 59.148438 30.257812 C 61.207031 22.894531 60.367188 15.09375 57.386719 8.105469 C 54.226562 0.699219 48.757812 -5.484375 42.03125 -9.847656 C 34.496094 -14.738281 25.683594 -17.421875 16.800781 -18.410156 C 8.238281 -19.363281 -0.875 -18.980469 -8.503906 -14.5625 C -12.289062 -12.367188 -15.628906 -9.496094 -18.691406 -6.390625 C -21.929688 -3.109375 -24.878906 0.488281 -27.195312 4.484375 C -29.410156 8.300781 -31.183594 12.496094 -31.824219 16.890625 Z M -13.519531 51.96875 C -13.742188 52.390625 -13.945312 52.824219 -14.140625 53.261719 C -13.746094 51.859375 -13.191406 50.53125 -12.507812 49.269531 C -12.886719 50.15625 -13.21875 51.058594 -13.519531 51.96875 Z M -8.195312 43.816406 C -8.203125 43.824219 -8.203125 43.832031 -8.210938 43.84375 C -8.59375 44.238281 -8.96875 44.636719 -9.332031 45.054688 C -9.398438 45.039062 -9.46875 45.027344 -9.535156 45.023438 C -8.691406 44.046875 -7.773438 43.121094 -6.804688 42.246094 C -7.289062 42.75 -7.753906 43.273438 -8.195312 43.816406 Z M -7.300781 52.125 C -7.332031 52.273438 -7.367188 52.421875 -7.402344 52.574219 C -7.511719 52.824219 -7.617188 53.074219 -7.726562 53.320312 C -7.773438 53.222656 -7.832031 53.125 -7.898438 53.035156 C -7.914062 53.019531 -7.929688 53.007812 -7.945312 52.992188 C -7.742188 52.695312 -7.523438 52.40625 -7.300781 52.125 Z M -13.8125 66.015625 C -13.691406 66.234375 -13.554688 66.433594 -13.425781 66.644531 C -13.257812 67.402344 -13.046875 68.152344 -12.78125 68.878906 C -13.183594 67.949219 -13.523438 66.992188 -13.8125 66.015625 Z M 19.015625 107.707031 C 18.757812 109.511719 18.503906 111.316406 18.246094 113.121094 C 18.152344 111.296875 18.460938 109.476562 19.015625 107.707031 Z M 26.4375 96.199219 C 25.613281 96.878906 24.851562 97.640625 24.171875 98.460938 C 24.105469 98.464844 24.042969 98.46875 23.980469 98.484375 C 24.886719 97.289062 25.863281 96.152344 26.910156 95.074219 C 26.765625 95.414062 26.640625 95.765625 26.535156 96.125 C 26.503906 96.148438 26.46875 96.171875 26.4375 96.199219 Z M 19.394531 117.632812 C 19.585938 117.542969 19.742188 117.390625 19.867188 117.199219 C 20.152344 118.253906 20.515625 119.285156 20.96875 120.285156 C 20.355469 119.457031 19.828125 118.566406 19.394531 117.632812 Z M 48.394531 84.121094 C 46.875 84.433594 45.375 84.855469 43.910156 85.371094 C 43.179688 85.433594 42.453125 85.53125 41.734375 85.671875 C 43.902344 84.945312 46.136719 84.429688 48.394531 84.121094 Z M 28.703125 122.394531 C 28.386719 122.125 28.066406 121.863281 27.765625 121.585938 C 27.453125 121.210938 27.117188 120.859375 26.792969 120.5 C 26.660156 120.226562 26.539062 119.953125 26.433594 119.671875 C 27.160156 120.453125 27.886719 121.238281 28.617188 122.019531 C 28.660156 122.121094 28.71875 122.21875 28.761719 122.324219 C 28.742188 122.347656 28.71875 122.367188 28.703125 122.394531 Z M 31.234375 113.410156 C 31.214844 113.167969 31.195312 112.925781 31.171875 112.679688 C 31.488281 113.015625 31.863281 113.300781 32.277344 113.542969 C 31.929688 113.5 31.582031 113.449219 31.234375 113.410156 Z M 33.496094 116.113281 C 32.964844 116.074219 32.433594 116.046875 31.898438 116.042969 C 31.902344 115.960938 31.90625 115.878906 31.910156 115.792969 C 32.675781 115.886719 33.445312 115.980469 34.207031 116.097656 C 33.96875 116.105469 33.734375 116.109375 33.496094 116.113281 Z M 40.972656 114.375 C 40.492188 114.515625 40.011719 114.664062 39.53125 114.828125 C 39.152344 114.738281 38.769531 114.648438 38.386719 114.566406 C 39.414062 114.40625 40.410156 114.097656 41.378906 113.6875 C 41.261719 113.871094 41.214844 114.066406 41.222656 114.253906 C 41.136719 114.292969 41.058594 114.332031 40.972656 114.375 Z M 48.339844 115.382812 C 48.25 115.464844 48.179688 115.554688 48.125 115.640625 C 48.09375 115.652344 48.0625 115.660156 48.03125 115.671875 C 47.894531 115.609375 47.746094 115.578125 47.585938 115.578125 C 48.105469 115.277344 48.621094 114.96875 49.132812 114.65625 C 48.867188 114.898438 48.605469 115.144531 48.339844 115.382812 Z M 48.078125 105.789062 C 45.109375 107.996094 41.882812 110.882812 38.125 111.527344 C 37.253906 111.675781 36.351562 111.699219 35.484375 111.53125 C 34.910156 111.417969 33.605469 111.101562 33.289062 110.539062 C 32.984375 110 33.3125 108.78125 33.46875 108.203125 C 33.726562 107.269531 34.171875 106.429688 34.800781 105.695312 C 37.160156 102.9375 41.304688 101.894531 44.667969 101.019531 C 48.246094 100.089844 51.914062 99.496094 55.601562 99.25 C 53.355469 101.703125 50.746094 103.800781 48.078125 105.789062 Z M 92.742188 120.710938 C 92.746094 121.082031 92.726562 121.457031 92.671875 121.832031 C 92.644531 122.011719 92.730469 122.132812 92.851562 122.1875 C 92.605469 122.234375 92.355469 122.265625 92.105469 122.277344 C 92.507812 122.089844 92.789062 121.6875 92.679688 121.105469 C 92.660156 121.007812 92.636719 120.914062 92.617188 120.816406 C 92.664062 120.785156 92.703125 120.746094 92.742188 120.710938 Z M 91.515625 111.660156 C 91.519531 112.164062 91.515625 112.667969 91.5 113.171875 C 91.476562 113.15625 91.453125 113.136719 91.425781 113.125 C 91.28125 112.628906 91.136719 112.136719 90.992188 111.640625 C 90.933594 111.375 90.863281 111.113281 90.785156 110.847656 C 90.820312 110.675781 90.859375 110.5 90.894531 110.328125 C 91.121094 110.761719 91.328125 111.210938 91.515625 111.660156 Z M 85.710938 114.929688 C 86.171875 115.9375 86.671875 116.925781 87.269531 117.859375 C 87.308594 117.933594 87.347656 118.011719 87.386719 118.089844 C 87.484375 118.515625 87.582031 118.941406 87.695312 119.363281 C 87.820312 119.8125 88.160156 120.101562 88.539062 120.210938 C 88.761719 120.605469 88.996094 120.996094 89.230469 121.386719 C 88.097656 120.507812 87.363281 119.125 86.796875 117.84375 C 86.367188 116.871094 85.988281 115.878906 85.609375 114.886719 C 85.644531 114.902344 85.679688 114.914062 85.710938 114.929688 Z M 83.152344 89.789062 L 83.378906 90.09375 C 83.367188 90.207031 83.355469 90.324219 83.339844 90.4375 C 83.105469 90.253906 82.871094 90.070312 82.628906 89.890625 C 82.628906 89.875 82.628906 89.859375 82.628906 89.84375 C 82.800781 89.859375 82.980469 89.839844 83.152344 89.789062 Z M 65.476562 101.007812 C 65.875 100.449219 66.273438 99.890625 66.671875 99.332031 C 67.121094 98.726562 67.566406 98.121094 68 97.507812 C 68.027344 97.558594 68.058594 97.613281 68.089844 97.664062 C 67.4375 98.476562 66.804688 99.304688 66.195312 100.152344 C 65.933594 100.476562 65.675781 100.800781 65.414062 101.121094 C 65.433594 101.082031 65.457031 101.042969 65.476562 101.007812 Z M 61.5 113.523438 C 61.671875 113.492188 61.839844 113.429688 61.988281 113.304688 C 62.195312 113.121094 62.398438 112.933594 62.601562 112.746094 C 62.417969 112.925781 62.238281 113.105469 62.054688 113.28125 C 61.410156 113.894531 60.753906 114.503906 60.09375 115.105469 C 60.570312 114.585938 61.035156 114.054688 61.5 113.523438 Z M 60.183594 110.863281 C 60.15625 110.90625 60.132812 110.949219 60.113281 110.992188 C 59.839844 111.375 59.5625 111.753906 59.261719 112.113281 C 59.015625 112.273438 58.769531 112.433594 58.523438 112.589844 C 59.085938 112.023438 59.636719 111.449219 60.183594 110.863281 Z M 66.222656 61.691406 C 65.738281 60.984375 65.253906 60.273438 64.769531 59.566406 C 64.777344 59.425781 64.773438 59.289062 64.773438 59.152344 C 65.265625 59.992188 65.753906 60.835938 66.222656 61.691406 Z M 62.945312 56.441406 C 63.007812 56.6875 63.0625 56.929688 63.132812 57.171875 L 62 55.523438 Z M 65.515625 40.394531 C 64.992188 40.089844 64.460938 39.792969 63.925781 39.5 C 64.007812 39.34375 64.039062 39.171875 64.042969 38.996094 C 64.542969 39.453125 65.03125 39.921875 65.515625 40.394531 Z M 21.082031 40.789062 C 20.484375 40.945312 19.886719 41.105469 19.296875 41.292969 C 18.863281 41.425781 18.429688 41.570312 17.996094 41.71875 C 18.660156 41.394531 19.324219 41.066406 19.988281 40.738281 C 20.351562 40.753906 20.71875 40.773438 21.082031 40.789062 Z M 16.246094 29.347656 C 16.28125 29.558594 16.355469 29.757812 16.460938 29.933594 C 16.230469 29.988281 15.996094 30.042969 15.765625 30.09375 C 15.152344 30.121094 14.539062 30.144531 13.925781 30.179688 C 13.796875 30.1875 13.707031 30.273438 13.660156 30.378906 C 13.160156 30.523438 12.660156 30.671875 12.160156 30.824219 C 13.503906 30.289062 14.867188 29.796875 16.246094 29.347656 Z M 2.308594 80.316406 C 1.386719 80.140625 0.472656 79.910156 -0.425781 79.636719 C -0.425781 79.492188 -0.449219 79.347656 -0.5 79.203125 C -0.324219 79.289062 -0.144531 79.375 0.0351562 79.453125 C 0.910156 79.828125 1.804688 80.132812 2.710938 80.382812 C 2.578125 80.359375 2.441406 80.34375 2.308594 80.316406 Z M 8.136719 73.765625 C 8.722656 73.785156 9.3125 73.789062 9.894531 73.75 C 9.875 73.941406 9.882812 74.128906 9.917969 74.3125 C 9.320312 74.152344 8.726562 73.96875 8.136719 73.765625 Z M 18.730469 64.71875 C 18.640625 64.660156 18.542969 64.613281 18.441406 64.574219 C 18.914062 64.324219 19.382812 64.0625 19.839844 63.792969 C 19.46875 64.097656 19.101562 64.410156 18.730469 64.71875 Z M 19.871094 79.445312 C 19.796875 79.367188 19.71875 79.300781 19.625 79.238281 C 19.867188 79.179688 20.109375 79.109375 20.351562 79.050781 C 20.359375 79.128906 20.375 79.203125 20.398438 79.28125 C 20.222656 79.332031 20.050781 79.394531 19.871094 79.445312 Z M 25.394531 56.085938 C 23.023438 58.105469 20.476562 59.941406 17.757812 61.460938 C 15.214844 62.878906 12.359375 64.125 9.390625 64.023438 C 7.03125 63.945312 4.625 62.863281 3.273438 60.863281 C 1.65625 58.464844 2.6875 55.753906 4.371094 53.703125 C 6.203125 51.480469 8.761719 49.691406 11.214844 48.214844 C 13.707031 46.710938 16.359375 45.476562 19.113281 44.53125 C 24.695312 42.605469 30.683594 41.996094 36.542969 42.652344 C 33.605469 47.722656 29.859375 52.28125 25.394531 56.085938 Z M 38.867188 35.265625 C 38.890625 35.054688 38.863281 34.835938 38.796875 34.632812 C 39.324219 34.863281 39.847656 35.09375 40.371094 35.324219 C 39.867188 35.304688 39.367188 35.285156 38.867188 35.265625 Z M 56.820312 25.097656 C 56.828125 24.890625 56.824219 24.683594 56.824219 24.476562 C 56.839844 24.457031 56.855469 24.4375 56.871094 24.417969 C 56.957031 24.304688 57.054688 24.195312 57.15625 24.097656 C 57.167969 24.132812 57.171875 24.171875 57.179688 24.207031 C 57.148438 24.582031 57.109375 24.957031 57.0625 25.328125 C 57 25.238281 56.910156 25.167969 56.820312 25.097656 Z M 57.097656 18.714844 C 57.089844 18.699219 57.082031 18.683594 57.070312 18.667969 C 57.007812 18.453125 56.945312 18.238281 56.882812 18.023438 C 56.867188 17.96875 56.839844 17.929688 56.8125 17.890625 C 56.828125 17.574219 56.839844 17.257812 56.851562 16.941406 C 56.953125 17.53125 57.03125 18.121094 57.097656 18.714844 Z M 55.773438 12.449219 C 55.742188 12.441406 55.714844 12.4375 55.683594 12.433594 C 55.65625 12.355469 55.625 12.28125 55.597656 12.203125 C 55.441406 11.714844 55.269531 11.238281 55.078125 10.765625 C 55.078125 10.667969 55.074219 10.566406 55.074219 10.464844 C 55.324219 11.121094 55.5625 11.777344 55.773438 12.449219 Z M 41.828125 26.011719 C 41.859375 26.023438 41.890625 26.042969 41.921875 26.054688 C 41.792969 26.066406 41.660156 26.078125 41.53125 26.089844 C 40.238281 26.089844 38.949219 26.140625 37.65625 26.238281 C 37.570312 26.128906 37.46875 26.03125 37.351562 25.957031 C 37.375 25.957031 37.394531 25.957031 37.417969 25.957031 C 38.714844 25.957031 40.011719 26 41.304688 26.070312 C 41.496094 26.082031 41.667969 26.054688 41.828125 26.011719 Z M -21.296875 28.4375 C -21.242188 28.304688 -21.207031 28.164062 -21.1875 28.023438 C -20.800781 28.074219 -20.402344 28.085938 -19.992188 28.058594 C -20.417969 28.257812 -20.855469 28.375 -21.296875 28.4375 Z M -4.539062 -13.167969 C -5.179688 -12.71875 -5.816406 -12.257812 -6.441406 -11.789062 C -6.53125 -11.890625 -6.628906 -11.980469 -6.738281 -12.0625 C -6.023438 -12.464844 -5.289062 -12.828125 -4.539062 -13.167969 Z M -23.171875 22.546875 C -23.15625 22.710938 -23.144531 22.871094 -23.117188 23.039062 C -23.042969 23.453125 -22.851562 23.75 -22.601562 23.945312 C -22.609375 24.027344 -22.621094 24.105469 -22.628906 24.1875 C -22.820312 24.035156 -22.996094 23.871094 -23.164062 23.691406 C -23.367188 23.164062 -23.539062 22.625 -23.683594 22.074219 C -23.558594 22.273438 -23.382812 22.433594 -23.171875 22.546875 Z M -24.921875 6.628906 C -24.90625 6.65625 -24.890625 6.683594 -24.871094 6.710938 C -25.679688 8.195312 -26.4375 9.703125 -27.128906 11.246094 C -26.507812 9.65625 -25.757812 8.121094 -24.921875 6.628906 Z M -24.921875 6.628906 " fill-opacity="1" fill-rule="nonzero"/></g></g></g><g fill="#ff00ff" fill-opacity="1"><g transform="translate(173.343879, 95.165867)"><g><path d="M 25.171875 1.6875 C 17.203125 1.6875 11.347656 -0.316406 7.609375 -4.328125 C 3.878906 -8.347656 2.015625 -15.015625 2.015625 -24.328125 C 2.015625 -31.734375 3.265625 -39.703125 5.765625 -48.234375 C 8.265625 -56.765625 12.28125 -64.082031 17.8125 -70.1875 C 23.351562 -76.289062 30.390625 -79.34375 38.921875 -79.34375 C 44.210938 -79.34375 48.476562 -78.175781 51.71875 -75.84375 C 54.96875 -73.519531 56.59375 -69.957031 56.59375 -65.15625 C 56.59375 -62.125 55.992188 -59.742188 54.796875 -58.015625 C 53.597656 -56.285156 51.726562 -55.421875 49.1875 -55.421875 C 46.644531 -55.421875 44.632812 -56.34375 43.15625 -58.1875 C 44.425781 -58.8125 45.554688 -60.078125 46.546875 -61.984375 C 47.535156 -63.890625 48.03125 -65.863281 48.03125 -67.90625 C 48.03125 -69.8125 47.515625 -71.363281 46.484375 -72.5625 C 45.460938 -73.757812 43.828125 -74.359375 41.578125 -74.359375 C 37.835938 -74.359375 34.273438 -71.800781 30.890625 -66.6875 C 27.503906 -61.582031 24.769531 -55.148438 22.6875 -47.390625 C 20.601562 -39.628906 19.5625 -32.15625 19.5625 -24.96875 C 19.5625 -19.601562 20.476562 -15.507812 22.3125 -12.6875 C 24.144531 -9.875 27.460938 -8.46875 32.265625 -8.46875 C 36.421875 -8.46875 40.257812 -9.382812 43.78125 -11.21875 C 47.3125 -13.050781 50.347656 -15.660156 52.890625 -19.046875 L 55.328125 -17.984375 C 53.554688 -13.535156 50.941406 -9.832031 47.484375 -6.875 C 44.035156 -3.914062 40.335938 -1.75 36.390625 -0.375 C 32.441406 1 28.703125 1.6875 25.171875 1.6875 Z M 25.171875 1.6875 "/></g></g></g><g fill="#ff00ff" fill-opacity="1"><g transform="translate(228.032307, 95.165867)"><g><path d="M 12.6875 0.640625 C 8.675781 0.640625 5.328125 -0.734375 2.640625 -3.484375 C -0.0351562 -6.234375 -1.375 -10.535156 -1.375 -16.390625 C -1.375 -21.609375 -0.335938 -27.09375 1.734375 -32.84375 C 3.816406 -38.59375 6.921875 -43.457031 11.046875 -47.4375 C 15.179688 -51.425781 20.101562 -53.421875 25.8125 -53.421875 C 28.695312 -53.421875 30.84375 -52.925781 32.25 -51.9375 C 33.664062 -50.945312 34.375 -49.644531 34.375 -48.03125 L 34.375 -47.28125 L 35.546875 -52.890625 L 50.78125 -52.890625 L 43.15625 -16.921875 C 42.875 -15.867188 42.734375 -14.742188 42.734375 -13.546875 C 42.734375 -10.503906 44.179688 -8.984375 47.078125 -8.984375 C 49.046875 -8.984375 50.753906 -9.898438 52.203125 -11.734375 C 53.648438 -13.566406 54.796875 -15.96875 55.640625 -18.9375 L 60.078125 -18.9375 C 57.472656 -11.320312 54.25 -6.15625 50.40625 -3.4375 C 46.5625 -0.71875 42.703125 0.640625 38.828125 0.640625 C 35.859375 0.640625 33.472656 -0.1875 31.671875 -1.84375 C 29.878906 -3.507812 28.804688 -5.925781 28.453125 -9.09375 C 26.410156 -6.207031 24.132812 -3.863281 21.625 -2.0625 C 19.125 -0.257812 16.144531 0.640625 12.6875 0.640625 Z M 19.5625 -9.625 C 21.332031 -9.625 23.078125 -10.453125 24.796875 -12.109375 C 26.523438 -13.765625 27.707031 -16.039062 28.34375 -18.9375 L 33.421875 -42.84375 C 33.421875 -43.757812 33.066406 -44.65625 32.359375 -45.53125 C 31.660156 -46.414062 30.570312 -46.859375 29.09375 -46.859375 C 26.269531 -46.859375 23.726562 -45.21875 21.46875 -41.9375 C 19.21875 -38.664062 17.457031 -34.71875 16.1875 -30.09375 C 14.914062 -25.476562 14.28125 -21.40625 14.28125 -17.875 C 14.28125 -14.351562 14.789062 -12.097656 15.8125 -11.109375 C 16.832031 -10.117188 18.082031 -9.625 19.5625 -9.625 Z M 19.5625 -9.625 "/></g></g></g><g fill="#ff00ff" fill-opacity="1"><g transform="translate(285.788348, 95.165867)"><g><path d="M 10.46875 0.640625 C 7.082031 0.640625 4.347656 -0.414062 2.265625 -2.53125 C 0.191406 -4.65625 -0.84375 -7.832031 -0.84375 -12.0625 C -0.84375 -13.820312 -0.5625 -16.113281 0 -18.9375 L 11.3125 -71.9375 L 26.96875 -74.046875 L 14.8125 -16.921875 C 14.53125 -15.867188 14.390625 -14.742188 14.390625 -13.546875 C 14.390625 -12.128906 14.722656 -11.117188 15.390625 -10.515625 C 16.054688 -9.921875 17.164062 -9.625 18.71875 -9.625 C 20.769531 -9.625 22.675781 -10.488281 24.4375 -12.21875 C 26.195312 -13.945312 27.46875 -16.1875 28.25 -18.9375 L 32.6875 -18.9375 C 30.070312 -11.320312 26.71875 -6.15625 22.625 -3.4375 C 18.539062 -0.71875 14.488281 0.640625 10.46875 0.640625 Z M 10.46875 0.640625 "/></g></g></g><g fill="#ff00ff" fill-opacity="1"><g transform="translate(316.14738, 95.165867)"><g><path d="M 15.125 0.640625 C 9.90625 0.640625 5.847656 -0.71875 2.953125 -3.4375 C 0.0664062 -6.15625 -1.375 -10.40625 -1.375 -16.1875 C -1.375 -21.050781 -0.421875 -26.410156 1.484375 -32.265625 C 3.390625 -38.117188 6.492188 -43.175781 10.796875 -47.4375 C 15.097656 -51.707031 20.5625 -53.84375 27.1875 -53.84375 C 34.945312 -53.84375 38.828125 -50.457031 38.828125 -43.6875 C 38.828125 -39.738281 37.695312 -36.109375 35.4375 -32.796875 C 33.175781 -29.484375 30.175781 -26.820312 26.4375 -24.8125 C 22.707031 -22.800781 18.722656 -21.65625 14.484375 -21.375 C 14.347656 -19.25 14.28125 -17.835938 14.28125 -17.140625 C 14.28125 -13.679688 14.878906 -11.332031 16.078125 -10.09375 C 17.273438 -8.863281 19.210938 -8.25 21.890625 -8.25 C 25.703125 -8.25 28.960938 -9.128906 31.671875 -10.890625 C 34.390625 -12.660156 37.375 -15.34375 40.625 -18.9375 L 44.21875 -18.9375 C 36.382812 -5.882812 26.6875 0.640625 15.125 0.640625 Z M 15.34375 -26.453125 C 17.945312 -26.585938 20.429688 -27.5 22.796875 -29.1875 C 25.160156 -30.882812 27.0625 -33.035156 28.5 -35.640625 C 29.945312 -38.253906 30.671875 -41.007812 30.671875 -43.90625 C 30.671875 -46.789062 29.789062 -48.234375 28.03125 -48.234375 C 25.488281 -48.234375 23 -46.007812 20.5625 -41.5625 C 18.132812 -37.125 16.394531 -32.085938 15.34375 -26.453125 Z M 15.34375 -26.453125 "/></g></g></g><g fill="#ff00ff" fill-opacity="1"><g transform="translate(358.882679, 95.165867)"><g><path d="M 38.1875 0.640625 C 33.882812 0.640625 30.726562 -0.503906 28.71875 -2.796875 C 26.707031 -5.085938 25.703125 -7.925781 25.703125 -11.3125 C 25.703125 -12.800781 25.878906 -14.476562 26.234375 -16.34375 C 26.585938 -18.207031 26.957031 -20.019531 27.34375 -21.78125 C 27.726562 -23.550781 27.992188 -24.679688 28.140625 -25.171875 C 28.703125 -27.640625 29.226562 -30.070312 29.71875 -32.46875 C 30.21875 -34.875 30.46875 -36.816406 30.46875 -38.296875 C 30.46875 -41.890625 29.195312 -43.6875 26.65625 -43.6875 C 24.820312 -43.6875 23.195312 -42.785156 21.78125 -40.984375 C 20.375 -39.191406 19.25 -36.847656 18.40625 -33.953125 L 11.21875 0 L -4.015625 0 L 7.1875 -52.890625 L 22.421875 -52.890625 L 21.265625 -47.390625 C 24.785156 -51.335938 28.910156 -53.3125 33.640625 -53.3125 C 37.234375 -53.3125 40.085938 -52.320312 42.203125 -50.34375 C 44.316406 -48.375 45.375 -45.378906 45.375 -41.359375 C 45.375 -39.316406 45.128906 -37.039062 44.640625 -34.53125 C 44.148438 -32.03125 43.445312 -28.984375 42.53125 -25.390625 C 41.957031 -23.203125 41.441406 -21.066406 40.984375 -18.984375 C 40.523438 -16.910156 40.296875 -15.269531 40.296875 -14.0625 C 40.296875 -12.65625 40.613281 -11.5625 41.25 -10.78125 C 41.882812 -10.007812 42.976562 -9.625 44.53125 -9.625 C 46.644531 -9.625 48.335938 -10.378906 49.609375 -11.890625 C 50.878906 -13.410156 52.148438 -15.757812 53.421875 -18.9375 L 57.859375 -18.9375 C 55.253906 -11.175781 52.238281 -5.972656 48.8125 -3.328125 C 45.394531 -0.679688 41.851562 0.640625 38.1875 0.640625 Z M 38.1875 0.640625 "/></g></g></g><g fill="#ff00ff" fill-opacity="1"><g transform="translate(414.41735, 95.165867)"><g><path d="M 12.6875 0.640625 C 8.675781 0.640625 5.328125 -0.734375 2.640625 -3.484375 C -0.0351562 -6.234375 -1.375 -10.535156 -1.375 -16.390625 C -1.375 -21.609375 -0.335938 -27.09375 1.734375 -32.84375 C 3.816406 -38.59375 6.921875 -43.457031 11.046875 -47.4375 C 15.179688 -51.425781 20.101562 -53.421875 25.8125 -53.421875 C 28.695312 -53.421875 30.84375 -52.925781 32.25 -51.9375 C 33.664062 -50.945312 34.375 -49.644531 34.375 -48.03125 L 34.375 -47.609375 L 39.5625 -71.9375 L 55.21875 -74.046875 L 43.046875 -16.921875 C 42.765625 -15.867188 42.625 -14.742188 42.625 -13.546875 C 42.625 -12.128906 42.957031 -11.117188 43.625 -10.515625 C 44.300781 -9.921875 45.414062 -9.625 46.96875 -9.625 C 48.9375 -9.625 50.644531 -10.46875 52.09375 -12.15625 C 53.539062 -13.851562 54.6875 -16.113281 55.53125 -18.9375 L 59.984375 -18.9375 C 55.679688 -6.3125 48.59375 0 38.71875 0 C 35.820312 0 33.472656 -0.773438 31.671875 -2.328125 C 29.878906 -3.878906 28.769531 -6.132812 28.34375 -9.09375 C 26.507812 -6.269531 24.304688 -3.941406 21.734375 -2.109375 C 19.160156 -0.273438 16.144531 0.640625 12.6875 0.640625 Z M 19.5625 -9.625 C 21.257812 -9.625 22.972656 -10.398438 24.703125 -11.953125 C 26.429688 -13.503906 27.613281 -15.65625 28.25 -18.40625 L 28.25 -18.9375 L 33.421875 -43.15625 C 32.785156 -45.625 31.34375 -46.859375 29.09375 -46.859375 C 26.269531 -46.859375 23.726562 -45.21875 21.46875 -41.9375 C 19.21875 -38.664062 17.457031 -34.71875 16.1875 -30.09375 C 14.914062 -25.476562 14.28125 -21.40625 14.28125 -17.875 C 14.28125 -14.351562 14.789062 -12.097656 15.8125 -11.109375 C 16.832031 -10.117188 18.082031 -9.625 19.5625 -9.625 Z M 19.5625 -9.625 "/></g></g></g><g fill="#ff00ff" fill-opacity="1"><g transform="translate(472.067602, 95.165867)"><g><path d="M 12.6875 0.640625 C 8.675781 0.640625 5.328125 -0.734375 2.640625 -3.484375 C -0.0351562 -6.234375 -1.375 -10.535156 -1.375 -16.390625 C -1.375 -21.609375 -0.335938 -27.09375 1.734375 -32.84375 C 3.816406 -38.59375 6.921875 -43.457031 11.046875 -47.4375 C 15.179688 -51.425781 20.101562 -53.421875 25.8125 -53.421875 C 28.695312 -53.421875 30.84375 -52.925781 32.25 -51.9375 C 33.664062 -50.945312 34.375 -49.644531 34.375 -48.03125 L 34.375 -47.28125 L 35.546875 -52.890625 L 50.78125 -52.890625 L 43.15625 -16.921875 C 42.875 -15.867188 42.734375 -14.742188 42.734375 -13.546875 C 42.734375 -10.503906 44.179688 -8.984375 47.078125 -8.984375 C 49.046875 -8.984375 50.753906 -9.898438 52.203125 -11.734375 C 53.648438 -13.566406 54.796875 -15.96875 55.640625 -18.9375 L 60.078125 -18.9375 C 57.472656 -11.320312 54.25 -6.15625 50.40625 -3.4375 C 46.5625 -0.71875 42.703125 0.640625 38.828125 0.640625 C 35.859375 0.640625 33.472656 -0.1875 31.671875 -1.84375 C 29.878906 -3.507812 28.804688 -5.925781 28.453125 -9.09375 C 26.410156 -6.207031 24.132812 -3.863281 21.625 -2.0625 C 19.125 -0.257812 16.144531 0.640625 12.6875 0.640625 Z M 19.5625 -9.625 C 21.332031 -9.625 23.078125 -10.453125 24.796875 -12.109375 C 26.523438 -13.765625 27.707031 -16.039062 28.34375 -18.9375 L 33.421875 -42.84375 C 33.421875 -43.757812 33.066406 -44.65625 32.359375 -45.53125 C 31.660156 -46.414062 30.570312 -46.859375 29.09375 -46.859375 C 26.269531 -46.859375 23.726562 -45.21875 21.46875 -41.9375 C 19.21875 -38.664062 17.457031 -34.71875 16.1875 -30.09375 C 14.914062 -25.476562 14.28125 -21.40625 14.28125 -17.875 C 14.28125 -14.351562 14.789062 -12.097656 15.8125 -11.109375 C 16.832031 -10.117188 18.082031 -9.625 19.5625 -9.625 Z M 19.5625 -9.625 "/></g></g></g><g fill="#ff00ff" fill-opacity="1"><g transform="translate(529.823637, 95.165867)"><g><path d="M 7.1875 -52.890625 L 22.421875 -52.890625 L 21.046875 -46.328125 C 23.441406 -48.441406 25.609375 -50.0625 27.546875 -51.1875 C 29.492188 -52.320312 31.59375 -52.890625 33.84375 -52.890625 C 36.101562 -52.890625 37.882812 -52.113281 39.1875 -50.5625 C 40.5 -49.007812 41.15625 -47.140625 41.15625 -44.953125 C 41.15625 -42.910156 40.484375 -41.113281 39.140625 -39.5625 C 37.796875 -38.007812 35.925781 -37.234375 33.53125 -37.234375 C 31.976562 -37.234375 30.9375 -37.601562 30.40625 -38.34375 C 29.882812 -39.082031 29.484375 -40.160156 29.203125 -41.578125 C 28.984375 -42.492188 28.769531 -43.160156 28.5625 -43.578125 C 28.351562 -44.003906 27.960938 -44.21875 27.390625 -44.21875 C 25.910156 -44.21875 24.660156 -43.914062 23.640625 -43.3125 C 22.617188 -42.71875 21.296875 -41.679688 19.671875 -40.203125 L 11.21875 0 L -4.015625 0 Z M 7.1875 -52.890625 "/></g></g></g><g fill="#00ffff" fill-opacity="1"><g transform="translate(165.4096, 95.165867)"><g><path d="M 25.171875 1.6875 C 17.203125 1.6875 11.347656 -0.316406 7.609375 -4.328125 C 3.878906 -8.347656 2.015625 -15.015625 2.015625 -24.328125 C 2.015625 -31.734375 3.265625 -39.703125 5.765625 -48.234375 C 8.265625 -56.765625 12.28125 -64.082031 17.8125 -70.1875 C 23.351562 -76.289062 30.390625 -79.34375 38.921875 -79.34375 C 44.210938 -79.34375 48.476562 -78.175781 51.71875 -75.84375 C 54.96875 -73.519531 56.59375 -69.957031 56.59375 -65.15625 C 56.59375 -62.125 55.992188 -59.742188 54.796875 -58.015625 C 53.597656 -56.285156 51.726562 -55.421875 49.1875 -55.421875 C 46.644531 -55.421875 44.632812 -56.34375 43.15625 -58.1875 C 44.425781 -58.8125 45.554688 -60.078125 46.546875 -61.984375 C 47.535156 -63.890625 48.03125 -65.863281 48.03125 -67.90625 C 48.03125 -69.8125 47.515625 -71.363281 46.484375 -72.5625 C 45.460938 -73.757812 43.828125 -74.359375 41.578125 -74.359375 C 37.835938 -74.359375 34.273438 -71.800781 30.890625 -66.6875 C 27.503906 -61.582031 24.769531 -55.148438 22.6875 -47.390625 C 20.601562 -39.628906 19.5625 -32.15625 19.5625 -24.96875 C 19.5625 -19.601562 20.476562 -15.507812 22.3125 -12.6875 C 24.144531 -9.875 27.460938 -8.46875 32.265625 -8.46875 C 36.421875 -8.46875 40.257812 -9.382812 43.78125 -11.21875 C 47.3125 -13.050781 50.347656 -15.660156 52.890625 -19.046875 L 55.328125 -17.984375 C 53.554688 -13.535156 50.941406 -9.832031 47.484375 -6.875 C 44.035156 -3.914062 40.335938 -1.75 36.390625 -0.375 C 32.441406 1 28.703125 1.6875 25.171875 1.6875 Z M 25.171875 1.6875 "/></g></g></g><g fill="#00ffff" fill-opacity="1"><g transform="translate(220.098028, 95.165867)"><g><path d="M 12.6875 0.640625 C 8.675781 0.640625 5.328125 -0.734375 2.640625 -3.484375 C -0.0351562 -6.234375 -1.375 -10.535156 -1.375 -16.390625 C -1.375 -21.609375 -0.335938 -27.09375 1.734375 -32.84375 C 3.816406 -38.59375 6.921875 -43.457031 11.046875 -47.4375 C 15.179688 -51.425781 20.101562 -53.421875 25.8125 -53.421875 C 28.695312 -53.421875 30.84375 -52.925781 32.25 -51.9375 C 33.664062 -50.945312 34.375 -49.644531 34.375 -48.03125 L 34.375 -47.28125 L 35.546875 -52.890625 L 50.78125 -52.890625 L 43.15625 -16.921875 C 42.875 -15.867188 42.734375 -14.742188 42.734375 -13.546875 C 42.734375 -10.503906 44.179688 -8.984375 47.078125 -8.984375 C 49.046875 -8.984375 50.753906 -9.898438 52.203125 -11.734375 C 53.648438 -13.566406 54.796875 -15.96875 55.640625 -18.9375 L 60.078125 -18.9375 C 57.472656 -11.320312 54.25 -6.15625 50.40625 -3.4375 C 46.5625 -0.71875 42.703125 0.640625 38.828125 0.640625 C 35.859375 0.640625 33.472656 -0.1875 31.671875 -1.84375 C 29.878906 -3.507812 28.804688 -5.925781 28.453125 -9.09375 C 26.410156 -6.207031 24.132812 -3.863281 21.625 -2.0625 C 19.125 -0.257812 16.144531 0.640625 12.6875 0.640625 Z M 19.5625 -9.625 C 21.332031 -9.625 23.078125 -10.453125 24.796875 -12.109375 C 26.523438 -13.765625 27.707031 -16.039062 28.34375 -18.9375 L 33.421875 -42.84375 C 33.421875 -43.757812 33.066406 -44.65625 32.359375 -45.53125 C 31.660156 -46.414062 30.570312 -46.859375 29.09375 -46.859375 C 26.269531 -46.859375 23.726562 -45.21875 21.46875 -41.9375 C 19.21875 -38.664062 17.457031 -34.71875 16.1875 -30.09375 C 14.914062 -25.476562 14.28125 -21.40625 14.28125 -17.875 C 14.28125 -14.351562 14.789062 -12.097656 15.8125 -11.109375 C 16.832031 -10.117188 18.082031 -9.625 19.5625 -9.625 Z M 19.5625 -9.625 "/></g></g></g><g fill="#00ffff" fill-opacity="1"><g transform="translate(277.854069, 95.165867)"><g><path d="M 10.46875 0.640625 C 7.082031 0.640625 4.347656 -0.414062 2.265625 -2.53125 C 0.191406 -4.65625 -0.84375 -7.832031 -0.84375 -12.0625 C -0.84375 -13.820312 -0.5625 -16.113281 0 -18.9375 L 11.3125 -71.9375 L 26.96875 -74.046875 L 14.8125 -16.921875 C 14.53125 -15.867188 14.390625 -14.742188 14.390625 -13.546875 C 14.390625 -12.128906 14.722656 -11.117188 15.390625 -10.515625 C 16.054688 -9.921875 17.164062 -9.625 18.71875 -9.625 C 20.769531 -9.625 22.675781 -10.488281 24.4375 -12.21875 C 26.195312 -13.945312 27.46875 -16.1875 28.25 -18.9375 L 32.6875 -18.9375 C 30.070312 -11.320312 26.71875 -6.15625 22.625 -3.4375 C 18.539062 -0.71875 14.488281 0.640625 10.46875 0.640625 Z M 10.46875 0.640625 "/></g></g></g><g fill="#00ffff" fill-opacity="1"><g transform="translate(308.213101, 95.165867)"><g><path d="M 15.125 0.640625 C 9.90625 0.640625 5.847656 -0.71875 2.953125 -3.4375 C 0.0664062 -6.15625 -1.375 -10.40625 -1.375 -16.1875 C -1.375 -21.050781 -0.421875 -26.410156 1.484375 -32.265625 C 3.390625 -38.117188 6.492188 -43.175781 10.796875 -47.4375 C 15.097656 -51.707031 20.5625 -53.84375 27.1875 -53.84375 C 34.945312 -53.84375 38.828125 -50.457031 38.828125 -43.6875 C 38.828125 -39.738281 37.695312 -36.109375 35.4375 -32.796875 C 33.175781 -29.484375 30.175781 -26.820312 26.4375 -24.8125 C 22.707031 -22.800781 18.722656 -21.65625 14.484375 -21.375 C 14.347656 -19.25 14.28125 -17.835938 14.28125 -17.140625 C 14.28125 -13.679688 14.878906 -11.332031 16.078125 -10.09375 C 17.273438 -8.863281 19.210938 -8.25 21.890625 -8.25 C 25.703125 -8.25 28.960938 -9.128906 31.671875 -10.890625 C 34.390625 -12.660156 37.375 -15.34375 40.625 -18.9375 L 44.21875 -18.9375 C 36.382812 -5.882812 26.6875 0.640625 15.125 0.640625 Z M 15.34375 -26.453125 C 17.945312 -26.585938 20.429688 -27.5 22.796875 -29.1875 C 25.160156 -30.882812 27.0625 -33.035156 28.5 -35.640625 C 29.945312 -38.253906 30.671875 -41.007812 30.671875 -43.90625 C 30.671875 -46.789062 29.789062 -48.234375 28.03125 -48.234375 C 25.488281 -48.234375 23 -46.007812 20.5625 -41.5625 C 18.132812 -37.125 16.394531 -32.085938 15.34375 -26.453125 Z M 15.34375 -26.453125 "/></g></g></g><g fill="#00ffff" fill-opacity="1"><g transform="translate(350.9484, 95.165867)"><g><path d="M 38.1875 0.640625 C 33.882812 0.640625 30.726562 -0.503906 28.71875 -2.796875 C 26.707031 -5.085938 25.703125 -7.925781 25.703125 -11.3125 C 25.703125 -12.800781 25.878906 -14.476562 26.234375 -16.34375 C 26.585938 -18.207031 26.957031 -20.019531 27.34375 -21.78125 C 27.726562 -23.550781 27.992188 -24.679688 28.140625 -25.171875 C 28.703125 -27.640625 29.226562 -30.070312 29.71875 -32.46875 C 30.21875 -34.875 30.46875 -36.816406 30.46875 -38.296875 C 30.46875 -41.890625 29.195312 -43.6875 26.65625 -43.6875 C 24.820312 -43.6875 23.195312 -42.785156 21.78125 -40.984375 C 20.375 -39.191406 19.25 -36.847656 18.40625 -33.953125 L 11.21875 0 L -4.015625 0 L 7.1875 -52.890625 L 22.421875 -52.890625 L 21.265625 -47.390625 C 24.785156 -51.335938 28.910156 -53.3125 33.640625 -53.3125 C 37.234375 -53.3125 40.085938 -52.320312 42.203125 -50.34375 C 44.316406 -48.375 45.375 -45.378906 45.375 -41.359375 C 45.375 -39.316406 45.128906 -37.039062 44.640625 -34.53125 C 44.148438 -32.03125 43.445312 -28.984375 42.53125 -25.390625 C 41.957031 -23.203125 41.441406 -21.066406 40.984375 -18.984375 C 40.523438 -16.910156 40.296875 -15.269531 40.296875 -14.0625 C 40.296875 -12.65625 40.613281 -11.5625 41.25 -10.78125 C 41.882812 -10.007812 42.976562 -9.625 44.53125 -9.625 C 46.644531 -9.625 48.335938 -10.378906 49.609375 -11.890625 C 50.878906 -13.410156 52.148438 -15.757812 53.421875 -18.9375 L 57.859375 -18.9375 C 55.253906 -11.175781 52.238281 -5.972656 48.8125 -3.328125 C 45.394531 -0.679688 41.851562 0.640625 38.1875 0.640625 Z M 38.1875 0.640625 "/></g></g></g><g fill="#00ffff" fill-opacity="1"><g transform="translate(406.483071, 95.165867)"><g><path d="M 12.6875 0.640625 C 8.675781 0.640625 5.328125 -0.734375 2.640625 -3.484375 C -0.0351562 -6.234375 -1.375 -10.535156 -1.375 -16.390625 C -1.375 -21.609375 -0.335938 -27.09375 1.734375 -32.84375 C 3.816406 -38.59375 6.921875 -43.457031 11.046875 -47.4375 C 15.179688 -51.425781 20.101562 -53.421875 25.8125 -53.421875 C 28.695312 -53.421875 30.84375 -52.925781 32.25 -51.9375 C 33.664062 -50.945312 34.375 -49.644531 34.375 -48.03125 L 34.375 -47.609375 L 39.5625 -71.9375 L 55.21875 -74.046875 L 43.046875 -16.921875 C 42.765625 -15.867188 42.625 -14.742188 42.625 -13.546875 C 42.625 -12.128906 42.957031 -11.117188 43.625 -10.515625 C 44.300781 -9.921875 45.414062 -9.625 46.96875 -9.625 C 48.9375 -9.625 50.644531 -10.46875 52.09375 -12.15625 C 53.539062 -13.851562 54.6875 -16.113281 55.53125 -18.9375 L 59.984375 -18.9375 C 55.679688 -6.3125 48.59375 0 38.71875 0 C 35.820312 0 33.472656 -0.773438 31.671875 -2.328125 C 29.878906 -3.878906 28.769531 -6.132812 28.34375 -9.09375 C 26.507812 -6.269531 24.304688 -3.941406 21.734375 -2.109375 C 19.160156 -0.273438 16.144531 0.640625 12.6875 0.640625 Z M 19.5625 -9.625 C 21.257812 -9.625 22.972656 -10.398438 24.703125 -11.953125 C 26.429688 -13.503906 27.613281 -15.65625 28.25 -18.40625 L 28.25 -18.9375 L 33.421875 -43.15625 C 32.785156 -45.625 31.34375 -46.859375 29.09375 -46.859375 C 26.269531 -46.859375 23.726562 -45.21875 21.46875 -41.9375 C 19.21875 -38.664062 17.457031 -34.71875 16.1875 -30.09375 C 14.914062 -25.476562 14.28125 -21.40625 14.28125 -17.875 C 14.28125 -14.351562 14.789062 -12.097656 15.8125 -11.109375 C 16.832031 -10.117188 18.082031 -9.625 19.5625 -9.625 Z M 19.5625 -9.625 "/></g></g></g><g fill="#00ffff" fill-opacity="1"><g transform="translate(464.133322, 95.165867)"><g><path d="M 12.6875 0.640625 C 8.675781 0.640625 5.328125 -0.734375 2.640625 -3.484375 C -0.0351562 -6.234375 -1.375 -10.535156 -1.375 -16.390625 C -1.375 -21.609375 -0.335938 -27.09375 1.734375 -32.84375 C 3.816406 -38.59375 6.921875 -43.457031 11.046875 -47.4375 C 15.179688 -51.425781 20.101562 -53.421875 25.8125 -53.421875 C 28.695312 -53.421875 30.84375 -52.925781 32.25 -51.9375 C 33.664062 -50.945312 34.375 -49.644531 34.375 -48.03125 L 34.375 -47.28125 L 35.546875 -52.890625 L 50.78125 -52.890625 L 43.15625 -16.921875 C 42.875 -15.867188 42.734375 -14.742188 42.734375 -13.546875 C 42.734375 -10.503906 44.179688 -8.984375 47.078125 -8.984375 C 49.046875 -8.984375 50.753906 -9.898438 52.203125 -11.734375 C 53.648438 -13.566406 54.796875 -15.96875 55.640625 -18.9375 L 60.078125 -18.9375 C 57.472656 -11.320312 54.25 -6.15625 50.40625 -3.4375 C 46.5625 -0.71875 42.703125 0.640625 38.828125 0.640625 C 35.859375 0.640625 33.472656 -0.1875 31.671875 -1.84375 C 29.878906 -3.507812 28.804688 -5.925781 28.453125 -9.09375 C 26.410156 -6.207031 24.132812 -3.863281 21.625 -2.0625 C 19.125 -0.257812 16.144531 0.640625 12.6875 0.640625 Z M 19.5625 -9.625 C 21.332031 -9.625 23.078125 -10.453125 24.796875 -12.109375 C 26.523438 -13.765625 27.707031 -16.039062 28.34375 -18.9375 L 33.421875 -42.84375 C 33.421875 -43.757812 33.066406 -44.65625 32.359375 -45.53125 C 31.660156 -46.414062 30.570312 -46.859375 29.09375 -46.859375 C 26.269531 -46.859375 23.726562 -45.21875 21.46875 -41.9375 C 19.21875 -38.664062 17.457031 -34.71875 16.1875 -30.09375 C 14.914062 -25.476562 14.28125 -21.40625 14.28125 -17.875 C 14.28125 -14.351562 14.789062 -12.097656 15.8125 -11.109375 C 16.832031 -10.117188 18.082031 -9.625 19.5625 -9.625 Z M 19.5625 -9.625 "/></g></g></g><g fill="#00ffff" fill-opacity="1"><g transform="translate(521.889358, 95.165867)"><g><path d="M 7.1875 -52.890625 L 22.421875 -52.890625 L 21.046875 -46.328125 C 23.441406 -48.441406 25.609375 -50.0625 27.546875 -51.1875 C 29.492188 -52.320312 31.59375 -52.890625 33.84375 -52.890625 C 36.101562 -52.890625 37.882812 -52.113281 39.1875 -50.5625 C 40.5 -49.007812 41.15625 -47.140625 41.15625 -44.953125 C 41.15625 -42.910156 40.484375 -41.113281 39.140625 -39.5625 C 37.796875 -38.007812 35.925781 -37.234375 33.53125 -37.234375 C 31.976562 -37.234375 30.9375 -37.601562 30.40625 -38.34375 C 29.882812 -39.082031 29.484375 -40.160156 29.203125 -41.578125 C 28.984375 -42.492188 28.769531 -43.160156 28.5625 -43.578125 C 28.351562 -44.003906 27.960938 -44.21875 27.390625 -44.21875 C 25.910156 -44.21875 24.660156 -43.914062 23.640625 -43.3125 C 22.617188 -42.71875 21.296875 -41.679688 19.671875 -40.203125 L 11.21875 0 L -4.015625 0 Z M 7.1875 -52.890625 "/></g></g></g><g fill="#ffffff" fill-opacity="1"><g transform="translate(169.376741, 95.165867)"><g><path d="M 25.171875 1.6875 C 17.203125 1.6875 11.347656 -0.316406 7.609375 -4.328125 C 3.878906 -8.347656 2.015625 -15.015625 2.015625 -24.328125 C 2.015625 -31.734375 3.265625 -39.703125 5.765625 -48.234375 C 8.265625 -56.765625 12.28125 -64.082031 17.8125 -70.1875 C 23.351562 -76.289062 30.390625 -79.34375 38.921875 -79.34375 C 44.210938 -79.34375 48.476562 -78.175781 51.71875 -75.84375 C 54.96875 -73.519531 56.59375 -69.957031 56.59375 -65.15625 C 56.59375 -62.125 55.992188 -59.742188 54.796875 -58.015625 C 53.597656 -56.285156 51.726562 -55.421875 49.1875 -55.421875 C 46.644531 -55.421875 44.632812 -56.34375 43.15625 -58.1875 C 44.425781 -58.8125 45.554688 -60.078125 46.546875 -61.984375 C 47.535156 -63.890625 48.03125 -65.863281 48.03125 -67.90625 C 48.03125 -69.8125 47.515625 -71.363281 46.484375 -72.5625 C 45.460938 -73.757812 43.828125 -74.359375 41.578125 -74.359375 C 37.835938 -74.359375 34.273438 -71.800781 30.890625 -66.6875 C 27.503906 -61.582031 24.769531 -55.148438 22.6875 -47.390625 C 20.601562 -39.628906 19.5625 -32.15625 19.5625 -24.96875 C 19.5625 -19.601562 20.476562 -15.507812 22.3125 -12.6875 C 24.144531 -9.875 27.460938 -8.46875 32.265625 -8.46875 C 36.421875 -8.46875 40.257812 -9.382812 43.78125 -11.21875 C 47.3125 -13.050781 50.347656 -15.660156 52.890625 -19.046875 L 55.328125 -17.984375 C 53.554688 -13.535156 50.941406 -9.832031 47.484375 -6.875 C 44.035156 -3.914062 40.335938 -1.75 36.390625 -0.375 C 32.441406 1 28.703125 1.6875 25.171875 1.6875 Z M 25.171875 1.6875 "/></g></g></g><g fill="#ffffff" fill-opacity="1"><g transform="translate(224.065168, 95.165867)"><g><path d="M 12.6875 0.640625 C 8.675781 0.640625 5.328125 -0.734375 2.640625 -3.484375 C -0.0351562 -6.234375 -1.375 -10.535156 -1.375 -16.390625 C -1.375 -21.609375 -0.335938 -27.09375 1.734375 -32.84375 C 3.816406 -38.59375 6.921875 -43.457031 11.046875 -47.4375 C 15.179688 -51.425781 20.101562 -53.421875 25.8125 -53.421875 C 28.695312 -53.421875 30.84375 -52.925781 32.25 -51.9375 C 33.664062 -50.945312 34.375 -49.644531 34.375 -48.03125 L 34.375 -47.28125 L 35.546875 -52.890625 L 50.78125 -52.890625 L 43.15625 -16.921875 C 42.875 -15.867188 42.734375 -14.742188 42.734375 -13.546875 C 42.734375 -10.503906 44.179688 -8.984375 47.078125 -8.984375 C 49.046875 -8.984375 50.753906 -9.898438 52.203125 -11.734375 C 53.648438 -13.566406 54.796875 -15.96875 55.640625 -18.9375 L 60.078125 -18.9375 C 57.472656 -11.320312 54.25 -6.15625 50.40625 -3.4375 C 46.5625 -0.71875 42.703125 0.640625 38.828125 0.640625 C 35.859375 0.640625 33.472656 -0.1875 31.671875 -1.84375 C 29.878906 -3.507812 28.804688 -5.925781 28.453125 -9.09375 C 26.410156 -6.207031 24.132812 -3.863281 21.625 -2.0625 C 19.125 -0.257812 16.144531 0.640625 12.6875 0.640625 Z M 19.5625 -9.625 C 21.332031 -9.625 23.078125 -10.453125 24.796875 -12.109375 C 26.523438 -13.765625 27.707031 -16.039062 28.34375 -18.9375 L 33.421875 -42.84375 C 33.421875 -43.757812 33.066406 -44.65625 32.359375 -45.53125 C 31.660156 -46.414062 30.570312 -46.859375 29.09375 -46.859375 C 26.269531 -46.859375 23.726562 -45.21875 21.46875 -41.9375 C 19.21875 -38.664062 17.457031 -34.71875 16.1875 -30.09375 C 14.914062 -25.476562 14.28125 -21.40625 14.28125 -17.875 C 14.28125 -14.351562 14.789062 -12.097656 15.8125 -11.109375 C 16.832031 -10.117188 18.082031 -9.625 19.5625 -9.625 Z M 19.5625 -9.625 "/></g></g></g><g fill="#ffffff" fill-opacity="1"><g transform="translate(281.82121, 95.165867)"><g><path d="M 10.46875 0.640625 C 7.082031 0.640625 4.347656 -0.414062 2.265625 -2.53125 C 0.191406 -4.65625 -0.84375 -7.832031 -0.84375 -12.0625 C -0.84375 -13.820312 -0.5625 -16.113281 0 -18.9375 L 11.3125 -71.9375 L 26.96875 -74.046875 L 14.8125 -16.921875 C 14.53125 -15.867188 14.390625 -14.742188 14.390625 -13.546875 C 14.390625 -12.128906 14.722656 -11.117188 15.390625 -10.515625 C 16.054688 -9.921875 17.164062 -9.625 18.71875 -9.625 C 20.769531 -9.625 22.675781 -10.488281 24.4375 -12.21875 C 26.195312 -13.945312 27.46875 -16.1875 28.25 -18.9375 L 32.6875 -18.9375 C 30.070312 -11.320312 26.71875 -6.15625 22.625 -3.4375 C 18.539062 -0.71875 14.488281 0.640625 10.46875 0.640625 Z M 10.46875 0.640625 "/></g></g></g><g fill="#ffffff" fill-opacity="1"><g transform="translate(312.180242, 95.165867)"><g><path d="M 15.125 0.640625 C 9.90625 0.640625 5.847656 -0.71875 2.953125 -3.4375 C 0.0664062 -6.15625 -1.375 -10.40625 -1.375 -16.1875 C -1.375 -21.050781 -0.421875 -26.410156 1.484375 -32.265625 C 3.390625 -38.117188 6.492188 -43.175781 10.796875 -47.4375 C 15.097656 -51.707031 20.5625 -53.84375 27.1875 -53.84375 C 34.945312 -53.84375 38.828125 -50.457031 38.828125 -43.6875 C 38.828125 -39.738281 37.695312 -36.109375 35.4375 -32.796875 C 33.175781 -29.484375 30.175781 -26.820312 26.4375 -24.8125 C 22.707031 -22.800781 18.722656 -21.65625 14.484375 -21.375 C 14.347656 -19.25 14.28125 -17.835938 14.28125 -17.140625 C 14.28125 -13.679688 14.878906 -11.332031 16.078125 -10.09375 C 17.273438 -8.863281 19.210938 -8.25 21.890625 -8.25 C 25.703125 -8.25 28.960938 -9.128906 31.671875 -10.890625 C 34.390625 -12.660156 37.375 -15.34375 40.625 -18.9375 L 44.21875 -18.9375 C 36.382812 -5.882812 26.6875 0.640625 15.125 0.640625 Z M 15.34375 -26.453125 C 17.945312 -26.585938 20.429688 -27.5 22.796875 -29.1875 C 25.160156 -30.882812 27.0625 -33.035156 28.5 -35.640625 C 29.945312 -38.253906 30.671875 -41.007812 30.671875 -43.90625 C 30.671875 -46.789062 29.789062 -48.234375 28.03125 -48.234375 C 25.488281 -48.234375 23 -46.007812 20.5625 -41.5625 C 18.132812 -37.125 16.394531 -32.085938 15.34375 -26.453125 Z M 15.34375 -26.453125 "/></g></g></g><g fill="#ffffff" fill-opacity="1"><g transform="translate(354.91554, 95.165867)"><g><path d="M 38.1875 0.640625 C 33.882812 0.640625 30.726562 -0.503906 28.71875 -2.796875 C 26.707031 -5.085938 25.703125 -7.925781 25.703125 -11.3125 C 25.703125 -12.800781 25.878906 -14.476562 26.234375 -16.34375 C 26.585938 -18.207031 26.957031 -20.019531 27.34375 -21.78125 C 27.726562 -23.550781 27.992188 -24.679688 28.140625 -25.171875 C 28.703125 -27.640625 29.226562 -30.070312 29.71875 -32.46875 C 30.21875 -34.875 30.46875 -36.816406 30.46875 -38.296875 C 30.46875 -41.890625 29.195312 -43.6875 26.65625 -43.6875 C 24.820312 -43.6875 23.195312 -42.785156 21.78125 -40.984375 C 20.375 -39.191406 19.25 -36.847656 18.40625 -33.953125 L 11.21875 0 L -4.015625 0 L 7.1875 -52.890625 L 22.421875 -52.890625 L 21.265625 -47.390625 C 24.785156 -51.335938 28.910156 -53.3125 33.640625 -53.3125 C 37.234375 -53.3125 40.085938 -52.320312 42.203125 -50.34375 C 44.316406 -48.375 45.375 -45.378906 45.375 -41.359375 C 45.375 -39.316406 45.128906 -37.039062 44.640625 -34.53125 C 44.148438 -32.03125 43.445312 -28.984375 42.53125 -25.390625 C 41.957031 -23.203125 41.441406 -21.066406 40.984375 -18.984375 C 40.523438 -16.910156 40.296875 -15.269531 40.296875 -14.0625 C 40.296875 -12.65625 40.613281 -11.5625 41.25 -10.78125 C 41.882812 -10.007812 42.976562 -9.625 44.53125 -9.625 C 46.644531 -9.625 48.335938 -10.378906 49.609375 -11.890625 C 50.878906 -13.410156 52.148438 -15.757812 53.421875 -18.9375 L 57.859375 -18.9375 C 55.253906 -11.175781 52.238281 -5.972656 48.8125 -3.328125 C 45.394531 -0.679688 41.851562 0.640625 38.1875 0.640625 Z M 38.1875 0.640625 "/></g></g></g><g fill="#ffffff" fill-opacity="1"><g transform="translate(410.450212, 95.165867)"><g><path d="M 12.6875 0.640625 C 8.675781 0.640625 5.328125 -0.734375 2.640625 -3.484375 C -0.0351562 -6.234375 -1.375 -10.535156 -1.375 -16.390625 C -1.375 -21.609375 -0.335938 -27.09375 1.734375 -32.84375 C 3.816406 -38.59375 6.921875 -43.457031 11.046875 -47.4375 C 15.179688 -51.425781 20.101562 -53.421875 25.8125 -53.421875 C 28.695312 -53.421875 30.84375 -52.925781 32.25 -51.9375 C 33.664062 -50.945312 34.375 -49.644531 34.375 -48.03125 L 34.375 -47.609375 L 39.5625 -71.9375 L 55.21875 -74.046875 L 43.046875 -16.921875 C 42.765625 -15.867188 42.625 -14.742188 42.625 -13.546875 C 42.625 -12.128906 42.957031 -11.117188 43.625 -10.515625 C 44.300781 -9.921875 45.414062 -9.625 46.96875 -9.625 C 48.9375 -9.625 50.644531 -10.46875 52.09375 -12.15625 C 53.539062 -13.851562 54.6875 -16.113281 55.53125 -18.9375 L 59.984375 -18.9375 C 55.679688 -6.3125 48.59375 0 38.71875 0 C 35.820312 0 33.472656 -0.773438 31.671875 -2.328125 C 29.878906 -3.878906 28.769531 -6.132812 28.34375 -9.09375 C 26.507812 -6.269531 24.304688 -3.941406 21.734375 -2.109375 C 19.160156 -0.273438 16.144531 0.640625 12.6875 0.640625 Z M 19.5625 -9.625 C 21.257812 -9.625 22.972656 -10.398438 24.703125 -11.953125 C 26.429688 -13.503906 27.613281 -15.65625 28.25 -18.40625 L 28.25 -18.9375 L 33.421875 -43.15625 C 32.785156 -45.625 31.34375 -46.859375 29.09375 -46.859375 C 26.269531 -46.859375 23.726562 -45.21875 21.46875 -41.9375 C 19.21875 -38.664062 17.457031 -34.71875 16.1875 -30.09375 C 14.914062 -25.476562 14.28125 -21.40625 14.28125 -17.875 C 14.28125 -14.351562 14.789062 -12.097656 15.8125 -11.109375 C 16.832031 -10.117188 18.082031 -9.625 19.5625 -9.625 Z M 19.5625 -9.625 "/></g></g></g><g fill="#ffffff" fill-opacity="1"><g transform="translate(468.100463, 95.165867)"><g><path d="M 12.6875 0.640625 C 8.675781 0.640625 5.328125 -0.734375 2.640625 -3.484375 C -0.0351562 -6.234375 -1.375 -10.535156 -1.375 -16.390625 C -1.375 -21.609375 -0.335938 -27.09375 1.734375 -32.84375 C 3.816406 -38.59375 6.921875 -43.457031 11.046875 -47.4375 C 15.179688 -51.425781 20.101562 -53.421875 25.8125 -53.421875 C 28.695312 -53.421875 30.84375 -52.925781 32.25 -51.9375 C 33.664062 -50.945312 34.375 -49.644531 34.375 -48.03125 L 34.375 -47.28125 L 35.546875 -52.890625 L 50.78125 -52.890625 L 43.15625 -16.921875 C 42.875 -15.867188 42.734375 -14.742188 42.734375 -13.546875 C 42.734375 -10.503906 44.179688 -8.984375 47.078125 -8.984375 C 49.046875 -8.984375 50.753906 -9.898438 52.203125 -11.734375 C 53.648438 -13.566406 54.796875 -15.96875 55.640625 -18.9375 L 60.078125 -18.9375 C 57.472656 -11.320312 54.25 -6.15625 50.40625 -3.4375 C 46.5625 -0.71875 42.703125 0.640625 38.828125 0.640625 C 35.859375 0.640625 33.472656 -0.1875 31.671875 -1.84375 C 29.878906 -3.507812 28.804688 -5.925781 28.453125 -9.09375 C 26.410156 -6.207031 24.132812 -3.863281 21.625 -2.0625 C 19.125 -0.257812 16.144531 0.640625 12.6875 0.640625 Z M 19.5625 -9.625 C 21.332031 -9.625 23.078125 -10.453125 24.796875 -12.109375 C 26.523438 -13.765625 27.707031 -16.039062 28.34375 -18.9375 L 33.421875 -42.84375 C 33.421875 -43.757812 33.066406 -44.65625 32.359375 -45.53125 C 31.660156 -46.414062 30.570312 -46.859375 29.09375 -46.859375 C 26.269531 -46.859375 23.726562 -45.21875 21.46875 -41.9375 C 19.21875 -38.664062 17.457031 -34.71875 16.1875 -30.09375 C 14.914062 -25.476562 14.28125 -21.40625 14.28125 -17.875 C 14.28125 -14.351562 14.789062 -12.097656 15.8125 -11.109375 C 16.832031 -10.117188 18.082031 -9.625 19.5625 -9.625 Z M 19.5625 -9.625 "/></g></g></g><g fill="#ffffff" fill-opacity="1"><g transform="translate(525.856499, 95.165867)"><g><path d="M 7.1875 -52.890625 L 22.421875 -52.890625 L 21.046875 -46.328125 C 23.441406 -48.441406 25.609375 -50.0625 27.546875 -51.1875 C 29.492188 -52.320312 31.59375 -52.890625 33.84375 -52.890625 C 36.101562 -52.890625 37.882812 -52.113281 39.1875 -50.5625 C 40.5 -49.007812 41.15625 -47.140625 41.15625 -44.953125 C 41.15625 -42.910156 40.484375 -41.113281 39.140625 -39.5625 C 37.796875 -38.007812 35.925781 -37.234375 33.53125 -37.234375 C 31.976562 -37.234375 30.9375 -37.601562 30.40625 -38.34375 C 29.882812 -39.082031 29.484375 -40.160156 29.203125 -41.578125 C 28.984375 -42.492188 28.769531 -43.160156 28.5625 -43.578125 C 28.351562 -44.003906 27.960938 -44.21875 27.390625 -44.21875 C 25.910156 -44.21875 24.660156 -43.914062 23.640625 -43.3125 C 22.617188 -42.71875 21.296875 -41.679688 19.671875 -40.203125 L 11.21875 0 L -4.015625 0 Z M 7.1875 -52.890625 "/></g></g></g><g clip-path="url(#0b63867c2c)"><g clip-path="url(#73ebe6daaa)"><g clip-path="url(#c79ebaaa9a)"><path fill="#00ceff" d="M 685.40625 -34.238281 C 682.0625 -32.476562 678.917969 -29.558594 678.113281 -25.714844 C 677.410156 -22.34375 678.359375 -18.449219 681.25 -16.363281 C 684.546875 -13.980469 688.632812 -15.074219 692.066406 -16.496094 C 695.558594 -17.945312 698.875 -19.285156 702.707031 -19.445312 C 706.34375 -19.597656 710.046875 -18.933594 713.378906 -17.441406 C 721.101562 -13.980469 726.316406 -6.125 728.890625 1.726562 C 731.308594 9.117188 731.007812 17.746094 726.027344 24.042969 C 725.0625 25.265625 723.953125 26.351562 722.707031 27.277344 C 722.699219 27.265625 722.695312 27.25 722.683594 27.234375 C 716.789062 18.085938 708.757812 10.390625 699.410156 4.839844 C 694.6875 2.039062 689.617188 -0.207031 684.367188 -1.804688 C 678.675781 -3.53125 672.457031 -4.414062 666.710938 -2.457031 C 661.128906 -0.558594 656.503906 3.511719 653.347656 8.4375 C 650.070312 13.550781 649.105469 19.421875 650.609375 25.316406 C 653.332031 35.964844 661.949219 44.8125 671.585938 49.609375 C 682.050781 54.8125 694.261719 55.554688 705.480469 52.621094 C 706.253906 52.421875 707.015625 52.199219 707.777344 51.960938 C 706.285156 61.316406 701.652344 70.117188 694.941406 76.765625 C 693.367188 78.324219 691.679688 79.746094 689.890625 81.042969 C 687.1875 72.605469 681.628906 65.1875 674.265625 60.25 C 666.734375 55.203125 657.277344 52.929688 648.289062 53.976562 C 643.488281 54.535156 638.535156 55.914062 635.15625 59.585938 C 632.308594 62.679688 630.851562 66.875 630.730469 71.054688 C 630.460938 80.691406 637.671875 88.679688 645.789062 92.847656 C 650.59375 95.3125 655.847656 96.757812 661.117188 97.816406 C 666.417969 98.886719 671.800781 99.492188 677.171875 98.839844 C 678.078125 103.308594 676.476562 107.863281 674.210938 111.707031 C 672.035156 115.402344 668.351562 119.550781 670.257812 124.164062 C 672.148438 128.734375 677.890625 130.339844 682.253906 128.632812 C 687.035156 126.765625 690.375 122.269531 692.621094 117.820312 C 695.128906 112.855469 696.386719 107.304688 696.273438 101.742188 C 696.265625 101.449219 696.1875 101.207031 696.0625 101.003906 C 710.867188 92.414062 721.527344 77.195312 725.0625 60.464844 C 726.089844 55.613281 726.519531 50.628906 726.296875 45.671875 C 726.289062 45.550781 726.273438 45.4375 726.246094 45.332031 C 726.496094 45.410156 726.789062 45.40625 727.113281 45.285156 C 734.085938 42.6875 739.734375 37.542969 743.519531 31.175781 C 747.53125 24.429688 749.253906 16.558594 748.824219 8.738281 C 748.34375 -0.0195312 745.398438 -8.523438 741.074219 -16.105469 C 736.910156 -23.414062 731.378906 -30.394531 723.523438 -33.878906 C 719.625 -35.609375 715.449219 -36.597656 711.25 -37.234375 C 706.8125 -37.90625 702.289062 -38.171875 697.816406 -37.707031 C 693.542969 -37.265625 689.226562 -36.253906 685.40625 -34.238281 Z M 668.328125 0.359375 C 667.867188 0.425781 667.410156 0.515625 666.953125 0.613281 C 668.285156 0.121094 669.648438 -0.203125 671.027344 -0.386719 C 670.117188 -0.179688 669.214844 0.078125 668.328125 0.359375 Z M 677.792969 -0.117188 C 677.78125 -0.117188 677.777344 -0.113281 677.765625 -0.113281 C 677.234375 -0.1875 676.703125 -0.253906 676.167969 -0.300781 C 676.140625 -0.363281 676.109375 -0.421875 676.074219 -0.480469 C 677.328125 -0.375 678.582031 -0.179688 679.824219 0.0820312 C 679.152344 -0.0078125 678.476562 -0.078125 677.792969 -0.117188 Z M 671.773438 5.359375 C 671.636719 5.421875 671.5 5.480469 671.363281 5.539062 C 671.105469 5.597656 670.847656 5.65625 670.585938 5.714844 C 670.636719 5.617188 670.679688 5.519531 670.710938 5.414062 C 670.71875 5.394531 670.71875 5.371094 670.722656 5.351562 C 671.074219 5.339844 671.421875 5.347656 671.773438 5.359375 Z M 657.109375 8.195312 C 657.007812 8.414062 656.929688 8.640625 656.839844 8.863281 C 656.339844 9.429688 655.871094 10.027344 655.453125 10.65625 C 655.949219 9.804688 656.507812 8.984375 657.109375 8.195312 Z M 643.171875 58.0625 C 641.605469 58.898438 640.039062 59.730469 638.46875 60.566406 C 639.851562 59.445312 641.460938 58.640625 643.171875 58.0625 Z M 656.480469 57.316406 C 655.472656 57.054688 654.4375 56.890625 653.402344 56.824219 C 653.363281 56.777344 653.320312 56.730469 653.273438 56.6875 C 654.730469 56.71875 656.1875 56.835938 657.636719 57.042969 C 657.285156 57.125 656.9375 57.226562 656.59375 57.351562 C 656.558594 57.339844 656.519531 57.328125 656.480469 57.316406 Z M 635.582031 64.0625 C 635.761719 64.160156 635.972656 64.199219 636.191406 64.1875 C 635.527344 65.015625 634.925781 65.898438 634.402344 66.828125 C 634.703125 65.867188 635.097656 64.941406 635.582031 64.0625 Z M 678.582031 67.722656 C 677.460938 66.703125 676.273438 65.761719 675.023438 64.898438 C 674.554688 64.355469 674.0625 63.839844 673.539062 63.351562 C 675.355469 64.648438 677.042969 66.117188 678.582031 67.722656 Z M 637.183594 74.148438 C 637.210938 73.746094 637.234375 73.34375 637.28125 72.941406 C 637.394531 72.484375 637.480469 72.015625 637.574219 71.550781 C 637.710938 71.289062 637.859375 71.039062 638.019531 70.792969 C 637.820312 71.816406 637.625 72.839844 637.425781 73.863281 C 637.371094 73.960938 637.328125 74.058594 637.269531 74.152344 C 637.242188 74.148438 637.210938 74.148438 637.183594 74.148438 Z M 645.699219 70.988281 C 645.878906 70.832031 646.058594 70.679688 646.238281 70.519531 C 646.15625 70.960938 646.148438 71.421875 646.195312 71.886719 C 646.027344 71.589844 645.871094 71.285156 645.699219 70.988281 Z M 644.871094 74.328125 C 644.597656 73.886719 644.3125 73.449219 644.011719 73.023438 C 644.078125 72.980469 644.144531 72.9375 644.214844 72.890625 C 644.582031 73.550781 644.945312 74.210938 645.289062 74.878906 C 645.152344 74.695312 645.011719 74.511719 644.871094 74.328125 Z M 650.53125 79.234375 C 650.144531 78.933594 649.75 78.640625 649.347656 78.355469 C 649.199219 78.003906 649.050781 77.652344 648.894531 77.304688 C 649.609375 78.023438 650.425781 78.628906 651.304688 79.160156 C 651.089844 79.171875 650.910156 79.246094 650.769531 79.363281 C 650.691406 79.316406 650.613281 79.277344 650.53125 79.234375 Z M 653.964844 85.628906 C 653.851562 85.605469 653.742188 85.601562 653.640625 85.609375 C 653.613281 85.589844 653.585938 85.570312 653.5625 85.554688 C 653.53125 85.410156 653.472656 85.273438 653.378906 85.148438 C 653.917969 85.386719 654.453125 85.613281 654.996094 85.839844 C 654.652344 85.769531 654.308594 85.703125 653.964844 85.628906 Z M 661.359375 79.914062 C 657.921875 78.839844 653.796875 77.949219 651.136719 75.347656 C 650.519531 74.746094 649.984375 74.046875 649.617188 73.265625 C 649.375 72.746094 648.875 71.535156 649.136719 70.960938 C 649.386719 70.410156 650.53125 69.972656 651.078125 69.765625 C 651.960938 69.429688 652.875 69.300781 653.816406 69.375 C 657.339844 69.65625 660.535156 72.332031 663.152344 74.484375 C 665.941406 76.777344 668.511719 79.328125 670.824219 82.101562 C 667.601562 81.734375 664.457031 80.882812 661.359375 79.914062 Z M 675.265625 123.757812 C 674.976562 123.972656 674.667969 124.171875 674.34375 124.347656 C 674.1875 124.429688 674.140625 124.566406 674.167969 124.695312 C 673.988281 124.527344 673.820312 124.347656 673.664062 124.15625 C 674.042969 124.367188 674.523438 124.355469 674.917969 123.933594 C 674.984375 123.867188 675.046875 123.792969 675.109375 123.722656 C 675.160156 123.738281 675.214844 123.75 675.265625 123.757812 Z M 681.679688 117.59375 C 681.28125 117.886719 680.882812 118.171875 680.480469 118.449219 C 680.480469 118.421875 680.480469 118.390625 680.476562 118.363281 C 680.78125 117.96875 681.085938 117.570312 681.390625 117.171875 C 681.570312 116.972656 681.734375 116.765625 681.894531 116.550781 C 682.050781 116.476562 682.210938 116.40625 682.371094 116.339844 C 682.15625 116.769531 681.925781 117.1875 681.679688 117.59375 Z M 675.777344 114.886719 C 675.246094 115.828125 674.757812 116.792969 674.363281 117.796875 C 674.328125 117.875 674.292969 117.949219 674.253906 118.023438 C 673.972656 118.34375 673.695312 118.667969 673.425781 119 C 673.144531 119.355469 673.113281 119.789062 673.242188 120.152344 C 673.0625 120.554688 672.890625 120.964844 672.71875 121.375 C 672.757812 119.976562 673.421875 118.601562 674.105469 117.417969 C 674.621094 116.519531 675.1875 115.652344 675.75 114.78125 C 675.757812 114.816406 675.769531 114.851562 675.777344 114.886719 Z M 694.074219 98.425781 L 693.96875 98.78125 C 693.871094 98.839844 693.773438 98.898438 693.671875 98.953125 C 693.683594 98.660156 693.691406 98.367188 693.699219 98.074219 C 693.710938 98.066406 693.722656 98.054688 693.734375 98.046875 C 693.820312 98.195312 693.9375 98.324219 694.074219 98.425781 Z M 675.109375 90.910156 C 675.777344 90.90625 676.445312 90.898438 677.113281 90.890625 C 677.84375 90.902344 678.578125 90.902344 679.308594 90.894531 C 679.285156 90.945312 679.261719 91 679.238281 91.054688 C 678.222656 91.003906 677.207031 90.984375 676.191406 90.988281 C 675.789062 90.96875 675.386719 90.949219 674.984375 90.925781 C 675.023438 90.917969 675.066406 90.917969 675.109375 90.910156 Z M 662.984375 94.957031 C 663.109375 95.074219 663.25 95.175781 663.4375 95.214844 C 663.699219 95.277344 663.964844 95.328125 664.226562 95.382812 C 663.984375 95.339844 663.734375 95.300781 663.492188 95.253906 C 662.640625 95.097656 661.785156 94.929688 660.933594 94.753906 C 661.613281 94.835938 662.296875 94.898438 662.984375 94.957031 Z M 664.320312 92.386719 C 664.269531 92.394531 664.222656 92.398438 664.179688 92.410156 C 663.71875 92.410156 663.261719 92.410156 662.808594 92.378906 C 662.539062 92.277344 662.273438 92.175781 662.007812 92.070312 C 662.777344 92.1875 663.546875 92.296875 664.320312 92.386719 Z M 706.453125 68.925781 C 706.734375 68.136719 707.011719 67.34375 707.289062 66.554688 C 707.40625 66.480469 707.511719 66.398438 707.617188 66.320312 C 707.242188 67.191406 706.855469 68.0625 706.453125 68.925781 Z M 708.699219 63.320312 C 708.542969 63.511719 708.382812 63.695312 708.230469 63.886719 L 708.882812 62.046875 Z M 722.792969 56.136719 C 722.734375 55.546875 722.664062 54.957031 722.585938 54.367188 C 722.753906 54.339844 722.910156 54.269531 723.046875 54.167969 C 722.976562 54.828125 722.890625 55.484375 722.792969 56.136719 Z M 696.980469 21.269531 C 696.511719 20.886719 696.042969 20.507812 695.558594 20.148438 C 695.203125 19.882812 694.84375 19.625 694.476562 19.367188 C 695.113281 19.703125 695.753906 20.039062 696.390625 20.375 C 696.585938 20.675781 696.78125 20.972656 696.980469 21.269531 Z M 703.203125 10.878906 C 703.054688 11.027344 702.9375 11.203125 702.863281 11.386719 C 702.6875 11.234375 702.511719 11.082031 702.335938 10.929688 C 701.964844 10.460938 701.59375 9.988281 701.214844 9.523438 C 701.132812 9.425781 701.015625 9.40625 700.90625 9.429688 C 700.503906 9.117188 700.097656 8.808594 699.695312 8.5 C 700.886719 9.257812 702.058594 10.046875 703.203125 10.878906 Z M 655.117188 29.140625 C 654.730469 28.3125 654.386719 27.457031 654.085938 26.589844 C 654.199219 26.507812 654.300781 26.40625 654.382812 26.28125 C 654.417969 26.472656 654.453125 26.660156 654.496094 26.847656 C 654.699219 27.753906 654.972656 28.636719 655.296875 29.496094 C 655.242188 29.375 655.175781 29.261719 655.117188 29.140625 Z M 663.617188 29.980469 C 663.9375 30.457031 664.269531 30.921875 664.636719 31.363281 C 664.476562 31.453125 664.332031 31.570312 664.210938 31.703125 C 663.992188 31.136719 663.796875 30.5625 663.617188 29.980469 Z M 676.8125 33.152344 C 676.808594 33.050781 676.789062 32.945312 676.761719 32.839844 C 677.230469 33.070312 677.703125 33.292969 678.179688 33.5 C 677.722656 33.378906 677.269531 33.269531 676.8125 33.152344 Z M 665.886719 42.511719 C 665.902344 42.410156 665.914062 42.304688 665.90625 42.195312 C 666.09375 42.355469 666.285156 42.507812 666.472656 42.664062 C 666.417969 42.714844 666.363281 42.769531 666.320312 42.832031 C 666.175781 42.722656 666.027344 42.621094 665.886719 42.511719 Z M 687.425781 33.460938 C 684.480469 32.746094 681.570312 31.789062 678.816406 30.511719 C 676.242188 29.320312 673.621094 27.78125 671.996094 25.378906 C 670.703125 23.46875 670.171875 20.945312 670.972656 18.730469 C 671.925781 16.078125 674.652344 15.332031 677.230469 15.488281 C 680.03125 15.65625 682.90625 16.652344 685.476562 17.738281 C 688.089844 18.847656 690.582031 20.234375 692.90625 21.863281 C 697.625 25.167969 701.542969 29.546875 704.386719 34.550781 C 698.714844 35.144531 692.980469 34.800781 687.425781 33.460938 Z M 711.53125 32.144531 C 711.710938 32.039062 711.867188 31.894531 711.992188 31.726562 C 712.109375 32.273438 712.230469 32.816406 712.347656 33.363281 C 712.078125 32.957031 711.804688 32.550781 711.53125 32.144531 Z M 729.832031 40.484375 C 730 40.375 730.160156 40.25 730.324219 40.132812 C 730.347656 40.132812 730.371094 40.136719 730.398438 40.136719 C 730.535156 40.140625 730.675781 40.152344 730.8125 40.175781 C 730.789062 40.203125 730.765625 40.230469 730.738281 40.257812 C 730.425781 40.449219 730.109375 40.632812 729.789062 40.808594 C 729.824219 40.707031 729.832031 40.597656 729.832031 40.484375 Z M 735.011719 37.035156 C 735.019531 37.023438 735.027344 37.007812 735.035156 36.992188 C 735.167969 36.816406 735.300781 36.644531 735.433594 36.472656 C 735.464844 36.429688 735.480469 36.386719 735.496094 36.339844 C 735.753906 36.167969 736.007812 36 736.265625 35.828125 C 735.859375 36.242188 735.441406 36.644531 735.011719 37.035156 Z M 739.179688 32.394531 C 739.167969 32.367188 739.152344 32.339844 739.140625 32.316406 C 739.183594 32.25 739.226562 32.183594 739.269531 32.117188 C 739.5625 31.710938 739.84375 31.300781 740.101562 30.878906 C 740.179688 30.824219 740.257812 30.761719 740.335938 30.703125 C 739.964844 31.277344 739.582031 31.84375 739.179688 32.394531 Z M 720.507812 29.167969 C 720.515625 29.203125 720.519531 29.234375 720.527344 29.269531 C 720.445312 29.171875 720.359375 29.078125 720.277344 28.976562 C 719.535156 27.960938 718.753906 26.96875 717.933594 26.003906 C 717.972656 25.875 717.988281 25.738281 717.984375 25.601562 C 717.996094 25.621094 718.007812 25.636719 718.019531 25.652344 C 718.765625 26.679688 719.476562 27.726562 720.160156 28.789062 C 720.261719 28.949219 720.382812 29.070312 720.507812 29.167969 Z M 682.367188 -19.296875 C 682.503906 -19.324219 682.632812 -19.378906 682.757812 -19.445312 C 682.9375 -19.109375 683.15625 -18.789062 683.410156 -18.480469 C 683.011719 -18.703125 682.667969 -18.980469 682.367188 -19.296875 Z M 724.703125 -29.949219 C 723.980469 -30.199219 723.253906 -30.433594 722.523438 -30.660156 C 722.554688 -30.789062 722.570312 -30.917969 722.574219 -31.050781 C 723.296875 -30.71875 724.007812 -30.347656 724.703125 -29.949219 Z M 685.921875 -24.15625 C 685.800781 -24.050781 685.679688 -23.949219 685.570312 -23.832031 C 685.28125 -23.535156 685.160156 -23.210938 685.148438 -22.902344 C 685.082031 -22.863281 685.011719 -22.828125 684.945312 -22.789062 C 684.953125 -23.023438 684.980469 -23.261719 685.027344 -23.492188 C 685.324219 -23.957031 685.652344 -24.402344 686 -24.832031 C 685.914062 -24.621094 685.890625 -24.390625 685.921875 -24.15625 Z M 697.433594 -34.679688 C 697.421875 -34.648438 697.410156 -34.621094 697.402344 -34.589844 C 695.769531 -34.378906 694.148438 -34.109375 692.535156 -33.773438 C 694.144531 -34.195312 695.78125 -34.484375 697.433594 -34.679688 Z M 697.433594 -34.679688 " fill-opacity="1" fill-rule="nonzero"/></g></g></g></svg>