<svg xmlns="http://www.w3.org/2000/svg" xmlns:xlink="http://www.w3.org/1999/xlink" width="980" zoomAndPan="magnify" viewBox="0 0 735 82.499998" height="110" preserveAspectRatio="xMidYMid meet" version="1.0"><defs><g/><clipPath id="935fffbaa7"><path d="M 2.214844 0 L 732.785156 0 L 732.785156 82.003906 L 2.214844 82.003906 Z M 2.214844 0 " clip-rule="nonzero"/></clipPath><clipPath id="1a3f1eed19"><path d="M 2.214844 0 L 139 0 L 139 82.003906 L 2.214844 82.003906 Z M 2.214844 0 " clip-rule="nonzero"/></clipPath><clipPath id="2f692dbc78"><path d="M -16.574219 192.1875 L -46.339844 -9.894531 L 129.191406 -35.75 L 158.957031 166.332031 Z M -16.574219 192.1875 " clip-rule="nonzero"/></clipPath><clipPath id="0bfc46e046"><path d="M -16.574219 192.1875 L -46.339844 -9.894531 L 129.191406 -35.75 L 158.957031 166.332031 Z M -16.574219 192.1875 " clip-rule="nonzero"/></clipPath><clipPath id="7d6fd38581"><path d="M 574 0 L 727 0 L 727 82.003906 L 574 82.003906 Z M 574 0 " clip-rule="nonzero"/></clipPath><clipPath id="d325bc4927"><path d="M 702.898438 -44.609375 L 762.964844 149.058594 L 594.929688 201.175781 L 534.863281 7.507812 Z M 702.898438 -44.609375 " clip-rule="nonzero"/></clipPath><clipPath id="40fc9d2760"><path d="M 702.898438 -44.609375 L 762.964844 149.058594 L 594.929688 201.175781 L 534.863281 7.507812 Z M 702.898438 -44.609375 " clip-rule="nonzero"/></clipPath></defs><g clip-path="url(#935fffbaa7)"><path fill="#ffffff" d="M 2.214844 0 L 732.785156 0 L 732.785156 82.003906 L 2.214844 82.003906 Z M 2.214844 0 " fill-opacity="1" fill-rule="nonzero"/><path fill="#000000" d="M 2.214844 0 L 732.785156 0 L 732.785156 82.003906 L 2.214844 82.003906 Z M 2.214844 0 " fill-opacity="1" fill-rule="nonzero"/></g><g clip-path="url(#1a3f1eed19)"><g clip-path="url(#2f692dbc78)"><g clip-path="url(#0bfc46e046)"><path fill="#00ceff" d="M 63.5625 -24.9375 C 58.921875 -23.257812 54.332031 -20.050781 52.609375 -15.230469 C 51.097656 -11.003906 51.625 -5.8125 54.988281 -2.605469 C 58.828125 1.054688 64.304688 0.371094 69 -0.855469 C 73.777344 -2.105469 78.304688 -3.246094 83.289062 -2.769531 C 88.015625 -2.320312 92.691406 -0.808594 96.730469 1.707031 C 106.09375 7.550781 111.4375 18.613281 113.359375 29.203125 C 115.167969 39.167969 113.230469 50.25 105.667969 57.496094 C 104.199219 58.90625 102.570312 60.105469 100.792969 61.082031 C 100.785156 61.0625 100.78125 61.039062 100.773438 61.019531 C 94.789062 48.164062 85.777344 36.804688 74.683594 27.988281 C 69.078125 23.53125 62.921875 19.730469 56.417969 16.738281 C 49.371094 13.496094 41.484375 11.25 33.703125 12.753906 C 26.144531 14.214844 19.4375 18.648438 14.472656 24.445312 C 9.320312 30.460938 7.023438 37.863281 7.914062 45.742188 C 9.527344 59.964844 19.089844 72.917969 30.695312 80.816406 C 43.292969 89.394531 58.953125 92.519531 73.988281 90.730469 C 75.019531 90.605469 76.046875 90.453125 77.074219 90.28125 C 73.46875 102.089844 65.90625 112.628906 56.039062 120.015625 C 53.726562 121.746094 51.289062 123.285156 48.746094 124.636719 C 46.757812 113.265625 40.894531 102.707031 32.253906 95.027344 C 23.421875 87.175781 11.601562 82.558594 -0.214844 82.3125 C -6.519531 82.183594 -13.171875 83.082031 -18.195312 87.21875 C -22.4375 90.707031 -25.070312 95.863281 -25.96875 101.234375 C -28.046875 113.625 -20.148438 125.214844 -10.398438 132.035156 C -4.625 136.066406 1.914062 138.871094 8.535156 141.171875 C 15.199219 143.492188 22.050781 145.234375 29.113281 145.34375 C 29.488281 151.269531 26.597656 156.867188 22.984375 161.425781 C 19.507812 165.808594 14.003906 170.507812 15.644531 176.796875 C 17.269531 183.03125 24.40625 186.125 30.355469 184.699219 C 36.875 183.136719 41.996094 177.929688 45.695312 172.582031 C 49.824219 166.621094 52.449219 159.683594 53.292969 152.480469 C 53.339844 152.101562 53.277344 151.777344 53.15625 151.492188 C 73.832031 143.039062 90.339844 125.292969 97.90625 104.328125 C 100.097656 98.25 101.546875 91.894531 102.144531 85.457031 C 102.160156 85.300781 102.15625 85.152344 102.140625 85.011719 C 102.453125 85.15625 102.828125 85.203125 103.269531 85.105469 C 112.75 82.988281 120.980469 77.351562 127.011719 69.808594 C 133.402344 61.8125 137.039062 51.960938 137.882812 41.792969 C 138.828125 30.40625 136.539062 18.910156 132.304688 8.355469 C 128.226562 -1.816406 122.320312 -11.804688 112.789062 -17.703125 C 108.058594 -20.628906 102.835938 -22.644531 97.519531 -24.210938 C 91.898438 -25.867188 86.097656 -27.015625 80.230469 -27.210938 C 74.625 -27.398438 68.863281 -26.859375 63.5625 -24.9375 Z M 35.289062 16.679688 C 34.679688 16.683594 34.074219 16.71875 33.46875 16.761719 C 35.277344 16.363281 37.097656 16.183594 38.917969 16.195312 C 37.699219 16.300781 36.488281 16.472656 35.289062 16.679688 Z M 47.617188 17.746094 C 47.601562 17.746094 47.589844 17.75 47.578125 17.746094 C 46.90625 17.554688 46.230469 17.375 45.546875 17.21875 C 45.523438 17.132812 45.492188 17.050781 45.460938 16.96875 C 47.0625 17.332031 48.648438 17.804688 50.207031 18.363281 C 49.351562 18.125 48.492188 17.917969 47.617188 17.746094 Z M 38.851562 23.746094 C 38.664062 23.800781 38.476562 23.851562 38.289062 23.902344 C 37.941406 23.929688 37.597656 23.960938 37.253906 23.988281 C 37.335938 23.878906 37.410156 23.757812 37.46875 23.625 C 37.480469 23.597656 37.484375 23.570312 37.496094 23.546875 C 37.949219 23.597656 38.398438 23.664062 38.851562 23.746094 Z M 19.382812 24.796875 C 19.214844 25.066406 19.070312 25.339844 18.910156 25.609375 C 18.164062 26.257812 17.457031 26.941406 16.796875 27.679688 C 17.597656 26.667969 18.464844 25.710938 19.382812 24.796875 Z M -7.558594 86.679688 C -9.734375 87.476562 -11.910156 88.273438 -14.085938 89.074219 C -12.101562 87.871094 -9.878906 87.121094 -7.558594 86.679688 Z M 9.785156 88.078125 C 8.527344 87.5625 7.21875 87.171875 5.886719 86.898438 C 5.847656 86.828125 5.800781 86.761719 5.746094 86.699219 C 7.628906 86.996094 9.492188 87.410156 11.324219 87.933594 C 10.859375 87.976562 10.390625 88.046875 9.925781 88.144531 C 9.878906 88.125 9.832031 88.101562 9.785156 88.078125 Z M -18.445312 93.074219 C -18.230469 93.234375 -17.964844 93.316406 -17.679688 93.339844 C -18.6875 94.296875 -19.621094 95.324219 -20.46875 96.433594 C -19.910156 95.246094 -19.230469 94.121094 -18.445312 93.074219 Z M 36.5 105.4375 C 35.234375 103.921875 33.867188 102.492188 32.40625 101.160156 C 31.898438 100.378906 31.351562 99.625 30.761719 98.902344 C 32.882812 100.898438 34.796875 103.089844 36.5 105.4375 Z M -18.183594 106.371094 C -18.074219 105.859375 -17.972656 105.34375 -17.839844 104.835938 C -17.609375 104.261719 -17.417969 103.671875 -17.210938 103.089844 C -16.984375 102.777344 -16.75 102.480469 -16.5 102.191406 C -16.9375 103.476562 -17.378906 104.765625 -17.816406 106.050781 C -17.902344 106.164062 -17.976562 106.285156 -18.066406 106.394531 C -18.105469 106.386719 -18.144531 106.375 -18.183594 106.371094 Z M -6.605469 103.808594 C -6.34375 103.640625 -6.082031 103.472656 -5.824219 103.300781 C -6.007812 103.855469 -6.101562 104.449219 -6.125 105.058594 C -6.285156 104.640625 -6.4375 104.222656 -6.605469 103.808594 Z M -8.273438 107.972656 C -8.546875 107.351562 -8.835938 106.738281 -9.152344 106.136719 C -9.054688 106.089844 -8.960938 106.046875 -8.867188 106 C -8.507812 106.914062 -8.152344 107.832031 -7.828125 108.757812 C -7.976562 108.496094 -8.125 108.234375 -8.273438 107.972656 Z M -1.828125 115.308594 C -2.277344 114.855469 -2.734375 114.402344 -3.203125 113.964844 C -3.332031 113.484375 -3.460938 113.003906 -3.601562 112.527344 C -2.804688 113.582031 -1.855469 114.511719 -0.820312 115.351562 C -1.09375 115.332031 -1.339844 115.390625 -1.546875 115.515625 C -1.636719 115.445312 -1.734375 115.378906 -1.828125 115.308594 Z M 1.464844 124.175781 C 1.320312 124.121094 1.183594 124.097656 1.046875 124.089844 C 1.019531 124.058594 0.988281 124.03125 0.957031 124 C 0.945312 123.8125 0.890625 123.625 0.796875 123.445312 C 1.445312 123.847656 2.101562 124.238281 2.761719 124.625 C 2.328125 124.476562 1.894531 124.332031 1.464844 124.175781 Z M 12.050781 118.109375 C 7.796875 116.113281 2.625 114.230469 -0.351562 110.402344 C -1.042969 109.515625 -1.613281 108.519531 -1.945312 107.441406 C -2.164062 106.730469 -2.59375 105.082031 -2.15625 104.386719 C -1.734375 103.71875 -0.171875 103.355469 0.570312 103.183594 C 1.769531 102.910156 2.976562 102.90625 4.179688 103.171875 C 8.683594 104.15625 12.339844 108.179688 15.339844 111.421875 C 18.535156 114.875 21.402344 118.625 23.894531 122.613281 C 19.800781 121.570312 15.878906 119.910156 12.050781 118.109375 Z M 22.191406 177.167969 C 21.777344 177.390625 21.34375 177.59375 20.890625 177.761719 C 20.675781 177.839844 20.59375 178.007812 20.605469 178.175781 C 20.402344 177.929688 20.214844 177.667969 20.050781 177.394531 C 20.503906 177.734375 21.125 177.804688 21.710938 177.332031 C 21.808594 177.253906 21.902344 177.167969 21.996094 177.089844 C 22.058594 177.121094 22.125 177.144531 22.191406 177.167969 Z M 31.585938 170.351562 C 31.023438 170.65625 30.453125 170.953125 29.882812 171.238281 C 29.886719 171.203125 29.894531 171.164062 29.894531 171.128906 C 30.359375 170.671875 30.824219 170.210938 31.292969 169.75 C 31.554688 169.523438 31.808594 169.285156 32.054688 169.039062 C 32.269531 168.972656 32.488281 168.914062 32.703125 168.851562 C 32.351562 169.367188 31.976562 169.867188 31.585938 170.351562 Z M 24.4375 165.808594 C 23.582031 166.929688 22.78125 168.085938 22.09375 169.3125 C 22.03125 169.402344 21.96875 169.496094 21.90625 169.585938 C 21.488281 169.949219 21.070312 170.316406 20.664062 170.699219 C 20.234375 171.105469 20.117188 171.660156 20.222656 172.152344 C 19.914062 172.640625 19.617188 173.136719 19.324219 173.632812 C 19.625 171.835938 20.730469 170.179688 21.824219 168.773438 C 22.65625 167.707031 23.539062 166.6875 24.421875 165.667969 C 24.425781 165.714844 24.433594 165.757812 24.4375 165.808594 Z M 51.042969 147.816406 L 50.84375 148.253906 C 50.707031 148.308594 50.570312 148.367188 50.429688 148.421875 C 50.496094 148.046875 50.5625 147.667969 50.621094 147.292969 C 50.636719 147.28125 50.65625 147.273438 50.671875 147.265625 C 50.753906 147.46875 50.882812 147.65625 51.042969 147.816406 Z M 27.863281 134.746094 C 28.726562 134.855469 29.59375 134.96875 30.457031 135.078125 C 31.402344 135.21875 32.347656 135.351562 33.296875 135.46875 C 33.253906 135.535156 33.214844 135.601562 33.175781 135.664062 C 31.875 135.421875 30.566406 135.210938 29.25 135.039062 C 28.734375 134.9375 28.214844 134.847656 27.699219 134.742188 C 27.753906 134.742188 27.808594 134.746094 27.863281 134.746094 Z M 11.460938 137.816406 C 11.597656 137.988281 11.769531 138.140625 12 138.226562 C 12.328125 138.351562 12.660156 138.464844 12.992188 138.582031 C 12.683594 138.484375 12.371094 138.386719 12.066406 138.289062 C 10.988281 137.933594 9.914062 137.566406 8.84375 137.1875 C 9.710938 137.410156 10.585938 137.613281 11.460938 137.816406 Z M 13.648438 134.734375 C 13.585938 134.734375 13.519531 134.730469 13.460938 134.738281 C 12.867188 134.65625 12.277344 134.574219 11.691406 134.457031 C 11.367188 134.273438 11.039062 134.097656 10.714844 133.914062 C 11.6875 134.203125 12.664062 134.476562 13.648438 134.734375 Z M 72.328125 111.941406 C 72.832031 110.972656 73.332031 110 73.835938 109.03125 C 73.996094 108.953125 74.144531 108.867188 74.300781 108.785156 C 73.65625 109.84375 73 110.898438 72.328125 111.941406 Z M 76.234375 105.109375 C 76 105.324219 75.757812 105.535156 75.527344 105.757812 L 76.695312 103.496094 Z M 95.746094 98.339844 C 95.773438 97.566406 95.785156 96.792969 95.792969 96.019531 C 96.015625 96.015625 96.230469 95.949219 96.425781 95.847656 C 96.214844 96.683594 95.984375 97.515625 95.746094 98.339844 Z M 68.601562 48.753906 C 68.0625 48.179688 67.527344 47.605469 66.964844 47.054688 C 66.550781 46.652344 66.132812 46.253906 65.703125 45.855469 C 66.46875 46.402344 67.234375 46.953125 68 47.5 C 68.199219 47.917969 68.398438 48.335938 68.601562 48.753906 Z M 78.503906 36.453125 C 78.289062 36.617188 78.109375 36.820312 77.976562 37.046875 C 77.777344 36.820312 77.574219 36.59375 77.378906 36.363281 C 76.980469 35.691406 76.585938 35.015625 76.175781 34.351562 C 76.089844 34.210938 75.941406 34.164062 75.792969 34.175781 C 75.332031 33.699219 74.863281 33.226562 74.394531 32.757812 C 75.800781 33.945312 77.171875 35.175781 78.503906 36.453125 Z M 13.0625 51.472656 C 12.707031 50.335938 12.414062 49.171875 12.179688 48 C 12.34375 47.914062 12.492188 47.800781 12.621094 47.65625 C 12.632812 47.90625 12.644531 48.15625 12.664062 48.40625 C 12.765625 49.613281 12.964844 50.800781 13.230469 51.964844 C 13.175781 51.800781 13.113281 51.640625 13.0625 51.472656 Z M 23.902344 54.070312 C 24.230469 54.742188 24.578125 55.402344 24.972656 56.035156 C 24.75 56.121094 24.542969 56.25 24.359375 56.398438 C 24.175781 55.628906 24.027344 54.851562 23.902344 54.070312 Z M 40.398438 60.507812 C 40.40625 60.371094 40.402344 60.234375 40.382812 60.097656 C 40.949219 60.476562 41.519531 60.84375 42.101562 61.195312 C 41.535156 60.960938 40.964844 60.738281 40.398438 60.507812 Z M 24.59375 70.644531 C 24.636719 70.515625 24.664062 70.382812 24.679688 70.242188 C 24.890625 70.480469 25.109375 70.707031 25.324219 70.945312 C 25.242188 71 25.167969 71.066406 25.09375 71.136719 C 24.929688 70.96875 24.757812 70.8125 24.59375 70.644531 Z M 54.066406 62.789062 C 50.382812 61.347656 46.796875 59.59375 43.460938 57.457031 C 40.34375 55.460938 37.230469 53.007812 35.558594 49.617188 C 34.230469 46.921875 33.996094 43.574219 35.421875 40.859375 C 37.132812 37.601562 40.792969 37.128906 44.097656 37.785156 C 47.6875 38.5 51.230469 40.296875 54.355469 42.15625 C 57.535156 44.046875 60.511719 46.28125 63.226562 48.796875 C 68.734375 53.898438 73.019531 60.25 75.804688 67.210938 C 68.363281 66.96875 61.007812 65.507812 54.066406 62.789062 Z M 85.472656 65.375 C 85.722656 65.273438 85.949219 65.113281 86.140625 64.917969 C 86.199219 65.644531 86.257812 66.367188 86.3125 67.09375 C 86.03125 66.523438 85.753906 65.949219 85.472656 65.375 Z M 107.648438 79.394531 C 107.882812 79.277344 108.109375 79.144531 108.34375 79.023438 C 108.375 79.03125 108.40625 79.035156 108.4375 79.039062 C 108.617188 79.070312 108.796875 79.109375 108.96875 79.167969 C 108.933594 79.199219 108.894531 79.230469 108.859375 79.261719 C 108.421875 79.449219 107.980469 79.628906 107.535156 79.804688 C 107.597656 79.675781 107.625 79.535156 107.648438 79.394531 Z M 114.960938 75.863281 C 114.972656 75.84375 114.984375 75.824219 114.996094 75.804688 C 115.199219 75.605469 115.402344 75.40625 115.605469 75.207031 C 115.65625 75.160156 115.683594 75.105469 115.710938 75.046875 C 116.074219 74.875 116.433594 74.699219 116.796875 74.523438 C 116.199219 74.988281 115.585938 75.433594 114.960938 75.863281 Z M 121.179688 70.609375 C 121.167969 70.574219 121.15625 70.535156 121.140625 70.5 C 121.210938 70.425781 121.277344 70.34375 121.347656 70.265625 C 121.800781 69.800781 122.234375 69.316406 122.644531 68.820312 C 122.757812 68.761719 122.867188 68.695312 122.976562 68.632812 C 122.398438 69.308594 121.800781 69.972656 121.179688 70.609375 Z M 97.613281 63.132812 C 97.617188 63.175781 97.613281 63.21875 97.621094 63.265625 C 97.53125 63.121094 97.4375 62.984375 97.347656 62.84375 C 96.570312 61.398438 95.734375 59.976562 94.851562 58.585938 C 94.921875 58.425781 94.96875 58.257812 94.984375 58.078125 C 95 58.101562 95.011719 58.128906 95.023438 58.152344 C 95.804688 59.605469 96.535156 61.085938 97.230469 62.578125 C 97.335938 62.800781 97.46875 62.980469 97.613281 63.132812 Z M 56.960938 -6.191406 C 57.140625 -6.207031 57.316406 -6.25 57.488281 -6.316406 C 57.667969 -5.851562 57.890625 -5.398438 58.164062 -4.957031 C 57.6875 -5.3125 57.292969 -5.730469 56.960938 -6.191406 Z M 113.609375 -12.421875 C 112.722656 -12.871094 111.824219 -13.304688 110.921875 -13.722656 C 110.984375 -13.882812 111.027344 -14.050781 111.054688 -14.21875 C 111.929688 -13.660156 112.78125 -13.058594 113.609375 -12.421875 Z M 62.425781 -11.835938 C 62.253906 -11.71875 62.078125 -11.609375 61.910156 -11.476562 C 61.488281 -11.144531 61.273438 -10.75 61.203125 -10.351562 C 61.109375 -10.316406 61.011719 -10.28125 60.917969 -10.242188 C 60.96875 -10.546875 61.050781 -10.84375 61.148438 -11.136719 C 61.617188 -11.683594 62.121094 -12.199219 62.648438 -12.691406 C 62.5 -12.433594 62.429688 -12.140625 62.425781 -11.835938 Z M 79.195312 -23.371094 C 79.175781 -23.332031 79.152344 -23.300781 79.136719 -23.261719 C 76.988281 -23.277344 74.84375 -23.21875 72.699219 -23.070312 C 74.851562 -23.328125 77.023438 -23.410156 79.195312 -23.371094 Z M 79.195312 -23.371094 " fill-opacity="1" fill-rule="nonzero"/></g></g></g><g fill="#ff00ff" fill-opacity="1"><g transform="translate(285.610518, 71.364426)"><g><path d="M 16.625 1.125 C 11.363281 1.125 7.5 -0.203125 5.03125 -2.859375 C 2.5625 -5.515625 1.328125 -9.914062 1.328125 -16.0625 C 1.328125 -20.957031 2.148438 -26.222656 3.796875 -31.859375 C 5.453125 -37.492188 8.109375 -42.320312 11.765625 -46.34375 C 15.421875 -50.375 20.066406 -52.390625 25.703125 -52.390625 C 29.203125 -52.390625 32.019531 -51.617188 34.15625 -50.078125 C 36.300781 -48.546875 37.375 -46.195312 37.375 -43.03125 C 37.375 -41.03125 36.976562 -39.457031 36.1875 -38.3125 C 35.394531 -37.175781 34.160156 -36.609375 32.484375 -36.609375 C 30.804688 -36.609375 29.476562 -37.210938 28.5 -38.421875 C 29.34375 -38.835938 30.085938 -39.675781 30.734375 -40.9375 C 31.390625 -42.195312 31.71875 -43.5 31.71875 -44.84375 C 31.71875 -46.101562 31.378906 -47.128906 30.703125 -47.921875 C 30.023438 -48.710938 28.941406 -49.109375 27.453125 -49.109375 C 24.984375 -49.109375 22.628906 -47.421875 20.390625 -44.046875 C 18.160156 -40.671875 16.359375 -36.421875 14.984375 -31.296875 C 13.609375 -26.171875 12.921875 -21.234375 12.921875 -16.484375 C 12.921875 -12.941406 13.523438 -10.238281 14.734375 -8.375 C 15.953125 -6.519531 18.144531 -5.59375 21.3125 -5.59375 C 24.050781 -5.59375 26.585938 -6.195312 28.921875 -7.40625 C 31.253906 -8.613281 33.253906 -10.335938 34.921875 -12.578125 L 36.53125 -11.875 C 35.375 -8.9375 33.648438 -6.488281 31.359375 -4.53125 C 29.078125 -2.582031 26.632812 -1.148438 24.03125 -0.234375 C 21.425781 0.671875 18.957031 1.125 16.625 1.125 Z M 16.625 1.125 "/></g></g></g><g fill="#ff00ff" fill-opacity="1"><g transform="translate(321.725131, 71.364426)"><g><path d="M 8.390625 0.421875 C 5.734375 0.421875 3.519531 -0.484375 1.75 -2.296875 C -0.0195312 -4.117188 -0.90625 -6.960938 -0.90625 -10.828125 C -0.90625 -14.273438 -0.21875 -17.894531 1.15625 -21.6875 C 2.53125 -25.488281 4.578125 -28.703125 7.296875 -31.328125 C 10.023438 -33.960938 13.273438 -35.28125 17.046875 -35.28125 C 18.953125 -35.28125 20.367188 -34.953125 21.296875 -34.296875 C 22.234375 -33.648438 22.703125 -32.789062 22.703125 -31.71875 L 22.703125 -31.234375 L 23.46875 -34.921875 L 33.53125 -34.921875 L 28.5 -11.171875 C 28.3125 -10.472656 28.21875 -9.726562 28.21875 -8.9375 C 28.21875 -6.9375 29.175781 -5.9375 31.09375 -5.9375 C 32.394531 -5.9375 33.519531 -6.539062 34.46875 -7.75 C 35.425781 -8.96875 36.1875 -10.550781 36.75 -12.5 L 39.6875 -12.5 C 37.957031 -7.46875 35.820312 -4.054688 33.28125 -2.265625 C 30.75 -0.472656 28.203125 0.421875 25.640625 0.421875 C 23.679688 0.421875 22.109375 -0.125 20.921875 -1.21875 C 19.734375 -2.3125 19.023438 -3.910156 18.796875 -6.015625 C 17.441406 -4.097656 15.9375 -2.546875 14.28125 -1.359375 C 12.632812 -0.171875 10.671875 0.421875 8.390625 0.421875 Z M 12.921875 -6.359375 C 14.085938 -6.359375 15.238281 -6.90625 16.375 -8 C 17.519531 -9.09375 18.300781 -10.59375 18.71875 -12.5 L 22.078125 -28.296875 C 22.078125 -28.898438 21.84375 -29.492188 21.375 -30.078125 C 20.90625 -30.660156 20.1875 -30.953125 19.21875 -30.953125 C 17.351562 -30.953125 15.675781 -29.867188 14.1875 -27.703125 C 12.695312 -25.535156 11.53125 -22.925781 10.6875 -19.875 C 9.851562 -16.820312 9.4375 -14.132812 9.4375 -11.8125 C 9.4375 -9.476562 9.769531 -7.984375 10.4375 -7.328125 C 11.113281 -6.679688 11.941406 -6.359375 12.921875 -6.359375 Z M 12.921875 -6.359375 "/></g></g></g><g fill="#ff00ff" fill-opacity="1"><g transform="translate(359.86551, 71.364426)"><g><path d="M 6.921875 0.421875 C 4.679688 0.421875 2.875 -0.273438 1.5 -1.671875 C 0.125 -3.066406 -0.5625 -5.164062 -0.5625 -7.96875 C -0.5625 -9.125 -0.375 -10.632812 0 -12.5 L 7.46875 -47.5 L 17.8125 -48.90625 L 9.78125 -11.171875 C 9.59375 -10.472656 9.5 -9.726562 9.5 -8.9375 C 9.5 -8.007812 9.71875 -7.347656 10.15625 -6.953125 C 10.601562 -6.554688 11.335938 -6.359375 12.359375 -6.359375 C 13.710938 -6.359375 14.972656 -6.925781 16.140625 -8.0625 C 17.304688 -9.207031 18.144531 -10.6875 18.65625 -12.5 L 21.59375 -12.5 C 19.863281 -7.46875 17.644531 -4.054688 14.9375 -2.265625 C 12.238281 -0.472656 9.566406 0.421875 6.921875 0.421875 Z M 6.921875 0.421875 "/></g></g></g><g fill="#ff00ff" fill-opacity="1"><g transform="translate(379.913725, 71.364426)"><g><path d="M 9.984375 0.421875 C 6.535156 0.421875 3.859375 -0.472656 1.953125 -2.265625 C 0.046875 -4.054688 -0.90625 -6.863281 -0.90625 -10.6875 C -0.90625 -13.90625 -0.28125 -17.445312 0.96875 -21.3125 C 2.226562 -25.175781 4.28125 -28.515625 7.125 -31.328125 C 9.96875 -34.148438 13.578125 -35.5625 17.953125 -35.5625 C 23.078125 -35.5625 25.640625 -33.328125 25.640625 -28.859375 C 25.640625 -26.242188 24.894531 -23.84375 23.40625 -21.65625 C 21.914062 -19.46875 19.9375 -17.707031 17.46875 -16.375 C 15 -15.050781 12.367188 -14.296875 9.578125 -14.109375 C 9.484375 -12.710938 9.4375 -11.78125 9.4375 -11.3125 C 9.4375 -9.03125 9.832031 -7.484375 10.625 -6.671875 C 11.414062 -5.859375 12.691406 -5.453125 14.453125 -5.453125 C 16.972656 -5.453125 19.128906 -6.03125 20.921875 -7.1875 C 22.710938 -8.351562 24.679688 -10.125 26.828125 -12.5 L 29.203125 -12.5 C 24.035156 -3.882812 17.628906 0.421875 9.984375 0.421875 Z M 10.125 -17.46875 C 11.851562 -17.5625 13.492188 -18.164062 15.046875 -19.28125 C 16.609375 -20.394531 17.867188 -21.8125 18.828125 -23.53125 C 19.785156 -25.257812 20.265625 -27.078125 20.265625 -28.984375 C 20.265625 -30.898438 19.679688 -31.859375 18.515625 -31.859375 C 16.835938 -31.859375 15.191406 -30.390625 13.578125 -27.453125 C 11.972656 -24.515625 10.820312 -21.1875 10.125 -17.46875 Z M 10.125 -17.46875 "/></g></g></g><g fill="#ff00ff" fill-opacity="1"><g transform="translate(408.134848, 71.364426)"><g><path d="M 25.21875 0.421875 C 22.375 0.421875 20.285156 -0.332031 18.953125 -1.84375 C 17.628906 -3.363281 16.96875 -5.238281 16.96875 -7.46875 C 16.96875 -8.445312 17.082031 -9.550781 17.3125 -10.78125 C 17.550781 -12.019531 17.796875 -13.222656 18.046875 -14.390625 C 18.304688 -15.554688 18.484375 -16.300781 18.578125 -16.625 C 18.953125 -18.257812 19.300781 -19.867188 19.625 -21.453125 C 19.957031 -23.035156 20.125 -24.3125 20.125 -25.28125 C 20.125 -27.664062 19.285156 -28.859375 17.609375 -28.859375 C 16.390625 -28.859375 15.316406 -28.257812 14.390625 -27.0625 C 13.460938 -25.875 12.71875 -24.328125 12.15625 -22.421875 L 7.40625 0 L -2.65625 0 L 4.75 -34.921875 L 14.8125 -34.921875 L 14.046875 -31.296875 C 16.367188 -33.898438 19.09375 -35.203125 22.21875 -35.203125 C 24.59375 -35.203125 26.476562 -34.550781 27.875 -33.25 C 29.269531 -31.945312 29.96875 -29.96875 29.96875 -27.3125 C 29.96875 -25.957031 29.800781 -24.453125 29.46875 -22.796875 C 29.144531 -21.148438 28.679688 -19.140625 28.078125 -16.765625 C 27.710938 -15.316406 27.375 -13.90625 27.0625 -12.53125 C 26.757812 -11.164062 26.609375 -10.085938 26.609375 -9.296875 C 26.609375 -8.359375 26.816406 -7.632812 27.234375 -7.125 C 27.660156 -6.613281 28.382812 -6.359375 29.40625 -6.359375 C 30.800781 -6.359375 31.914062 -6.859375 32.75 -7.859375 C 33.59375 -8.859375 34.4375 -10.40625 35.28125 -12.5 L 38.21875 -12.5 C 36.488281 -7.375 34.492188 -3.9375 32.234375 -2.1875 C 29.984375 -0.445312 27.644531 0.421875 25.21875 0.421875 Z M 25.21875 0.421875 "/></g></g></g><g fill="#ff00ff" fill-opacity="1"><g transform="translate(444.808299, 71.364426)"><g><path d="M 8.390625 0.421875 C 5.734375 0.421875 3.519531 -0.484375 1.75 -2.296875 C -0.0195312 -4.117188 -0.90625 -6.960938 -0.90625 -10.828125 C -0.90625 -14.273438 -0.21875 -17.894531 1.15625 -21.6875 C 2.53125 -25.488281 4.578125 -28.703125 7.296875 -31.328125 C 10.023438 -33.960938 13.273438 -35.28125 17.046875 -35.28125 C 18.953125 -35.28125 20.367188 -34.953125 21.296875 -34.296875 C 22.234375 -33.648438 22.703125 -32.789062 22.703125 -31.71875 L 22.703125 -31.4375 L 26.125 -47.5 L 36.46875 -48.90625 L 28.4375 -11.171875 C 28.25 -10.472656 28.15625 -9.726562 28.15625 -8.9375 C 28.15625 -8.007812 28.375 -7.347656 28.8125 -6.953125 C 29.257812 -6.554688 29.992188 -6.359375 31.015625 -6.359375 C 32.316406 -6.359375 33.445312 -6.914062 34.40625 -8.03125 C 35.363281 -9.144531 36.117188 -10.632812 36.671875 -12.5 L 39.609375 -12.5 C 36.765625 -4.164062 32.082031 0 25.5625 0 C 23.65625 0 22.109375 -0.507812 20.921875 -1.53125 C 19.734375 -2.5625 19 -4.054688 18.71875 -6.015625 C 17.507812 -4.148438 16.054688 -2.609375 14.359375 -1.390625 C 12.660156 -0.179688 10.671875 0.421875 8.390625 0.421875 Z M 12.921875 -6.359375 C 14.035156 -6.359375 15.164062 -6.867188 16.3125 -7.890625 C 17.457031 -8.921875 18.238281 -10.34375 18.65625 -12.15625 L 18.65625 -12.5 L 22.078125 -28.5 C 21.660156 -30.132812 20.707031 -30.953125 19.21875 -30.953125 C 17.351562 -30.953125 15.675781 -29.867188 14.1875 -27.703125 C 12.695312 -25.535156 11.53125 -22.925781 10.6875 -19.875 C 9.851562 -16.820312 9.4375 -14.132812 9.4375 -11.8125 C 9.4375 -9.476562 9.769531 -7.984375 10.4375 -7.328125 C 11.113281 -6.679688 11.941406 -6.359375 12.921875 -6.359375 Z M 12.921875 -6.359375 "/></g></g></g><g fill="#ff00ff" fill-opacity="1"><g transform="translate(482.878835, 71.364426)"><g><path d="M 8.390625 0.421875 C 5.734375 0.421875 3.519531 -0.484375 1.75 -2.296875 C -0.0195312 -4.117188 -0.90625 -6.960938 -0.90625 -10.828125 C -0.90625 -14.273438 -0.21875 -17.894531 1.15625 -21.6875 C 2.53125 -25.488281 4.578125 -28.703125 7.296875 -31.328125 C 10.023438 -33.960938 13.273438 -35.28125 17.046875 -35.28125 C 18.953125 -35.28125 20.367188 -34.953125 21.296875 -34.296875 C 22.234375 -33.648438 22.703125 -32.789062 22.703125 -31.71875 L 22.703125 -31.234375 L 23.46875 -34.921875 L 33.53125 -34.921875 L 28.5 -11.171875 C 28.3125 -10.472656 28.21875 -9.726562 28.21875 -8.9375 C 28.21875 -6.9375 29.175781 -5.9375 31.09375 -5.9375 C 32.394531 -5.9375 33.519531 -6.539062 34.46875 -7.75 C 35.425781 -8.96875 36.1875 -10.550781 36.75 -12.5 L 39.6875 -12.5 C 37.957031 -7.46875 35.820312 -4.054688 33.28125 -2.265625 C 30.75 -0.472656 28.203125 0.421875 25.640625 0.421875 C 23.679688 0.421875 22.109375 -0.125 20.921875 -1.21875 C 19.734375 -2.3125 19.023438 -3.910156 18.796875 -6.015625 C 17.441406 -4.097656 15.9375 -2.546875 14.28125 -1.359375 C 12.632812 -0.171875 10.671875 0.421875 8.390625 0.421875 Z M 12.921875 -6.359375 C 14.085938 -6.359375 15.238281 -6.90625 16.375 -8 C 17.519531 -9.09375 18.300781 -10.59375 18.71875 -12.5 L 22.078125 -28.296875 C 22.078125 -28.898438 21.84375 -29.492188 21.375 -30.078125 C 20.90625 -30.660156 20.1875 -30.953125 19.21875 -30.953125 C 17.351562 -30.953125 15.675781 -29.867188 14.1875 -27.703125 C 12.695312 -25.535156 11.53125 -22.925781 10.6875 -19.875 C 9.851562 -16.820312 9.4375 -14.132812 9.4375 -11.8125 C 9.4375 -9.476562 9.769531 -7.984375 10.4375 -7.328125 C 11.113281 -6.679688 11.941406 -6.359375 12.921875 -6.359375 Z M 12.921875 -6.359375 "/></g></g></g><g fill="#ff00ff" fill-opacity="1"><g transform="translate(521.019215, 71.364426)"><g><path d="M 4.75 -34.921875 L 14.8125 -34.921875 L 13.90625 -30.59375 C 15.488281 -31.988281 16.921875 -33.054688 18.203125 -33.796875 C 19.484375 -34.546875 20.867188 -34.921875 22.359375 -34.921875 C 23.847656 -34.921875 25.019531 -34.410156 25.875 -33.390625 C 26.738281 -32.367188 27.171875 -31.132812 27.171875 -29.6875 C 27.171875 -28.34375 26.726562 -27.15625 25.84375 -26.125 C 24.957031 -25.101562 23.722656 -24.59375 22.140625 -24.59375 C 21.117188 -24.59375 20.429688 -24.835938 20.078125 -25.328125 C 19.734375 -25.816406 19.46875 -26.523438 19.28125 -27.453125 C 19.144531 -28.054688 19.003906 -28.5 18.859375 -28.78125 C 18.722656 -29.0625 18.46875 -29.203125 18.09375 -29.203125 C 17.113281 -29.203125 16.285156 -29.003906 15.609375 -28.609375 C 14.929688 -28.210938 14.0625 -27.523438 13 -26.546875 L 7.40625 0 L -2.65625 0 Z M 4.75 -34.921875 "/></g></g></g><g fill="#00ffff" fill-opacity="1"><g transform="translate(280.370947, 71.364426)"><g><path d="M 16.625 1.125 C 11.363281 1.125 7.5 -0.203125 5.03125 -2.859375 C 2.5625 -5.515625 1.328125 -9.914062 1.328125 -16.0625 C 1.328125 -20.957031 2.148438 -26.222656 3.796875 -31.859375 C 5.453125 -37.492188 8.109375 -42.320312 11.765625 -46.34375 C 15.421875 -50.375 20.066406 -52.390625 25.703125 -52.390625 C 29.203125 -52.390625 32.019531 -51.617188 34.15625 -50.078125 C 36.300781 -48.546875 37.375 -46.195312 37.375 -43.03125 C 37.375 -41.03125 36.976562 -39.457031 36.1875 -38.3125 C 35.394531 -37.175781 34.160156 -36.609375 32.484375 -36.609375 C 30.804688 -36.609375 29.476562 -37.210938 28.5 -38.421875 C 29.34375 -38.835938 30.085938 -39.675781 30.734375 -40.9375 C 31.390625 -42.195312 31.71875 -43.5 31.71875 -44.84375 C 31.71875 -46.101562 31.378906 -47.128906 30.703125 -47.921875 C 30.023438 -48.710938 28.941406 -49.109375 27.453125 -49.109375 C 24.984375 -49.109375 22.628906 -47.421875 20.390625 -44.046875 C 18.160156 -40.671875 16.359375 -36.421875 14.984375 -31.296875 C 13.609375 -26.171875 12.921875 -21.234375 12.921875 -16.484375 C 12.921875 -12.941406 13.523438 -10.238281 14.734375 -8.375 C 15.953125 -6.519531 18.144531 -5.59375 21.3125 -5.59375 C 24.050781 -5.59375 26.585938 -6.195312 28.921875 -7.40625 C 31.253906 -8.613281 33.253906 -10.335938 34.921875 -12.578125 L 36.53125 -11.875 C 35.375 -8.9375 33.648438 -6.488281 31.359375 -4.53125 C 29.078125 -2.582031 26.632812 -1.148438 24.03125 -0.234375 C 21.425781 0.671875 18.957031 1.125 16.625 1.125 Z M 16.625 1.125 "/></g></g></g><g fill="#00ffff" fill-opacity="1"><g transform="translate(316.48556, 71.364426)"><g><path d="M 8.390625 0.421875 C 5.734375 0.421875 3.519531 -0.484375 1.75 -2.296875 C -0.0195312 -4.117188 -0.90625 -6.960938 -0.90625 -10.828125 C -0.90625 -14.273438 -0.21875 -17.894531 1.15625 -21.6875 C 2.53125 -25.488281 4.578125 -28.703125 7.296875 -31.328125 C 10.023438 -33.960938 13.273438 -35.28125 17.046875 -35.28125 C 18.953125 -35.28125 20.367188 -34.953125 21.296875 -34.296875 C 22.234375 -33.648438 22.703125 -32.789062 22.703125 -31.71875 L 22.703125 -31.234375 L 23.46875 -34.921875 L 33.53125 -34.921875 L 28.5 -11.171875 C 28.3125 -10.472656 28.21875 -9.726562 28.21875 -8.9375 C 28.21875 -6.9375 29.175781 -5.9375 31.09375 -5.9375 C 32.394531 -5.9375 33.519531 -6.539062 34.46875 -7.75 C 35.425781 -8.96875 36.1875 -10.550781 36.75 -12.5 L 39.6875 -12.5 C 37.957031 -7.46875 35.820312 -4.054688 33.28125 -2.265625 C 30.75 -0.472656 28.203125 0.421875 25.640625 0.421875 C 23.679688 0.421875 22.109375 -0.125 20.921875 -1.21875 C 19.734375 -2.3125 19.023438 -3.910156 18.796875 -6.015625 C 17.441406 -4.097656 15.9375 -2.546875 14.28125 -1.359375 C 12.632812 -0.171875 10.671875 0.421875 8.390625 0.421875 Z M 12.921875 -6.359375 C 14.085938 -6.359375 15.238281 -6.90625 16.375 -8 C 17.519531 -9.09375 18.300781 -10.59375 18.71875 -12.5 L 22.078125 -28.296875 C 22.078125 -28.898438 21.84375 -29.492188 21.375 -30.078125 C 20.90625 -30.660156 20.1875 -30.953125 19.21875 -30.953125 C 17.351562 -30.953125 15.675781 -29.867188 14.1875 -27.703125 C 12.695312 -25.535156 11.53125 -22.925781 10.6875 -19.875 C 9.851562 -16.820312 9.4375 -14.132812 9.4375 -11.8125 C 9.4375 -9.476562 9.769531 -7.984375 10.4375 -7.328125 C 11.113281 -6.679688 11.941406 -6.359375 12.921875 -6.359375 Z M 12.921875 -6.359375 "/></g></g></g><g fill="#00ffff" fill-opacity="1"><g transform="translate(354.625939, 71.364426)"><g><path d="M 6.921875 0.421875 C 4.679688 0.421875 2.875 -0.273438 1.5 -1.671875 C 0.125 -3.066406 -0.5625 -5.164062 -0.5625 -7.96875 C -0.5625 -9.125 -0.375 -10.632812 0 -12.5 L 7.46875 -47.5 L 17.8125 -48.90625 L 9.78125 -11.171875 C 9.59375 -10.472656 9.5 -9.726562 9.5 -8.9375 C 9.5 -8.007812 9.71875 -7.347656 10.15625 -6.953125 C 10.601562 -6.554688 11.335938 -6.359375 12.359375 -6.359375 C 13.710938 -6.359375 14.972656 -6.925781 16.140625 -8.0625 C 17.304688 -9.207031 18.144531 -10.6875 18.65625 -12.5 L 21.59375 -12.5 C 19.863281 -7.46875 17.644531 -4.054688 14.9375 -2.265625 C 12.238281 -0.472656 9.566406 0.421875 6.921875 0.421875 Z M 6.921875 0.421875 "/></g></g></g><g fill="#00ffff" fill-opacity="1"><g transform="translate(374.674154, 71.364426)"><g><path d="M 9.984375 0.421875 C 6.535156 0.421875 3.859375 -0.472656 1.953125 -2.265625 C 0.046875 -4.054688 -0.90625 -6.863281 -0.90625 -10.6875 C -0.90625 -13.90625 -0.28125 -17.445312 0.96875 -21.3125 C 2.226562 -25.175781 4.28125 -28.515625 7.125 -31.328125 C 9.96875 -34.148438 13.578125 -35.5625 17.953125 -35.5625 C 23.078125 -35.5625 25.640625 -33.328125 25.640625 -28.859375 C 25.640625 -26.242188 24.894531 -23.84375 23.40625 -21.65625 C 21.914062 -19.46875 19.9375 -17.707031 17.46875 -16.375 C 15 -15.050781 12.367188 -14.296875 9.578125 -14.109375 C 9.484375 -12.710938 9.4375 -11.78125 9.4375 -11.3125 C 9.4375 -9.03125 9.832031 -7.484375 10.625 -6.671875 C 11.414062 -5.859375 12.691406 -5.453125 14.453125 -5.453125 C 16.972656 -5.453125 19.128906 -6.03125 20.921875 -7.1875 C 22.710938 -8.351562 24.679688 -10.125 26.828125 -12.5 L 29.203125 -12.5 C 24.035156 -3.882812 17.628906 0.421875 9.984375 0.421875 Z M 10.125 -17.46875 C 11.851562 -17.5625 13.492188 -18.164062 15.046875 -19.28125 C 16.609375 -20.394531 17.867188 -21.8125 18.828125 -23.53125 C 19.785156 -25.257812 20.265625 -27.078125 20.265625 -28.984375 C 20.265625 -30.898438 19.679688 -31.859375 18.515625 -31.859375 C 16.835938 -31.859375 15.191406 -30.390625 13.578125 -27.453125 C 11.972656 -24.515625 10.820312 -21.1875 10.125 -17.46875 Z M 10.125 -17.46875 "/></g></g></g><g fill="#00ffff" fill-opacity="1"><g transform="translate(402.895276, 71.364426)"><g><path d="M 25.21875 0.421875 C 22.375 0.421875 20.285156 -0.332031 18.953125 -1.84375 C 17.628906 -3.363281 16.96875 -5.238281 16.96875 -7.46875 C 16.96875 -8.445312 17.082031 -9.550781 17.3125 -10.78125 C 17.550781 -12.019531 17.796875 -13.222656 18.046875 -14.390625 C 18.304688 -15.554688 18.484375 -16.300781 18.578125 -16.625 C 18.953125 -18.257812 19.300781 -19.867188 19.625 -21.453125 C 19.957031 -23.035156 20.125 -24.3125 20.125 -25.28125 C 20.125 -27.664062 19.285156 -28.859375 17.609375 -28.859375 C 16.390625 -28.859375 15.316406 -28.257812 14.390625 -27.0625 C 13.460938 -25.875 12.71875 -24.328125 12.15625 -22.421875 L 7.40625 0 L -2.65625 0 L 4.75 -34.921875 L 14.8125 -34.921875 L 14.046875 -31.296875 C 16.367188 -33.898438 19.09375 -35.203125 22.21875 -35.203125 C 24.59375 -35.203125 26.476562 -34.550781 27.875 -33.25 C 29.269531 -31.945312 29.96875 -29.96875 29.96875 -27.3125 C 29.96875 -25.957031 29.800781 -24.453125 29.46875 -22.796875 C 29.144531 -21.148438 28.679688 -19.140625 28.078125 -16.765625 C 27.710938 -15.316406 27.375 -13.90625 27.0625 -12.53125 C 26.757812 -11.164062 26.609375 -10.085938 26.609375 -9.296875 C 26.609375 -8.359375 26.816406 -7.632812 27.234375 -7.125 C 27.660156 -6.613281 28.382812 -6.359375 29.40625 -6.359375 C 30.800781 -6.359375 31.914062 -6.859375 32.75 -7.859375 C 33.59375 -8.859375 34.4375 -10.40625 35.28125 -12.5 L 38.21875 -12.5 C 36.488281 -7.375 34.492188 -3.9375 32.234375 -2.1875 C 29.984375 -0.445312 27.644531 0.421875 25.21875 0.421875 Z M 25.21875 0.421875 "/></g></g></g><g fill="#00ffff" fill-opacity="1"><g transform="translate(439.568728, 71.364426)"><g><path d="M 8.390625 0.421875 C 5.734375 0.421875 3.519531 -0.484375 1.75 -2.296875 C -0.0195312 -4.117188 -0.90625 -6.960938 -0.90625 -10.828125 C -0.90625 -14.273438 -0.21875 -17.894531 1.15625 -21.6875 C 2.53125 -25.488281 4.578125 -28.703125 7.296875 -31.328125 C 10.023438 -33.960938 13.273438 -35.28125 17.046875 -35.28125 C 18.953125 -35.28125 20.367188 -34.953125 21.296875 -34.296875 C 22.234375 -33.648438 22.703125 -32.789062 22.703125 -31.71875 L 22.703125 -31.4375 L 26.125 -47.5 L 36.46875 -48.90625 L 28.4375 -11.171875 C 28.25 -10.472656 28.15625 -9.726562 28.15625 -8.9375 C 28.15625 -8.007812 28.375 -7.347656 28.8125 -6.953125 C 29.257812 -6.554688 29.992188 -6.359375 31.015625 -6.359375 C 32.316406 -6.359375 33.445312 -6.914062 34.40625 -8.03125 C 35.363281 -9.144531 36.117188 -10.632812 36.671875 -12.5 L 39.609375 -12.5 C 36.765625 -4.164062 32.082031 0 25.5625 0 C 23.65625 0 22.109375 -0.507812 20.921875 -1.53125 C 19.734375 -2.5625 19 -4.054688 18.71875 -6.015625 C 17.507812 -4.148438 16.054688 -2.609375 14.359375 -1.390625 C 12.660156 -0.179688 10.671875 0.421875 8.390625 0.421875 Z M 12.921875 -6.359375 C 14.035156 -6.359375 15.164062 -6.867188 16.3125 -7.890625 C 17.457031 -8.921875 18.238281 -10.34375 18.65625 -12.15625 L 18.65625 -12.5 L 22.078125 -28.5 C 21.660156 -30.132812 20.707031 -30.953125 19.21875 -30.953125 C 17.351562 -30.953125 15.675781 -29.867188 14.1875 -27.703125 C 12.695312 -25.535156 11.53125 -22.925781 10.6875 -19.875 C 9.851562 -16.820312 9.4375 -14.132812 9.4375 -11.8125 C 9.4375 -9.476562 9.769531 -7.984375 10.4375 -7.328125 C 11.113281 -6.679688 11.941406 -6.359375 12.921875 -6.359375 Z M 12.921875 -6.359375 "/></g></g></g><g fill="#00ffff" fill-opacity="1"><g transform="translate(477.639264, 71.364426)"><g><path d="M 8.390625 0.421875 C 5.734375 0.421875 3.519531 -0.484375 1.75 -2.296875 C -0.0195312 -4.117188 -0.90625 -6.960938 -0.90625 -10.828125 C -0.90625 -14.273438 -0.21875 -17.894531 1.15625 -21.6875 C 2.53125 -25.488281 4.578125 -28.703125 7.296875 -31.328125 C 10.023438 -33.960938 13.273438 -35.28125 17.046875 -35.28125 C 18.953125 -35.28125 20.367188 -34.953125 21.296875 -34.296875 C 22.234375 -33.648438 22.703125 -32.789062 22.703125 -31.71875 L 22.703125 -31.234375 L 23.46875 -34.921875 L 33.53125 -34.921875 L 28.5 -11.171875 C 28.3125 -10.472656 28.21875 -9.726562 28.21875 -8.9375 C 28.21875 -6.9375 29.175781 -5.9375 31.09375 -5.9375 C 32.394531 -5.9375 33.519531 -6.539062 34.46875 -7.75 C 35.425781 -8.96875 36.1875 -10.550781 36.75 -12.5 L 39.6875 -12.5 C 37.957031 -7.46875 35.820312 -4.054688 33.28125 -2.265625 C 30.75 -0.472656 28.203125 0.421875 25.640625 0.421875 C 23.679688 0.421875 22.109375 -0.125 20.921875 -1.21875 C 19.734375 -2.3125 19.023438 -3.910156 18.796875 -6.015625 C 17.441406 -4.097656 15.9375 -2.546875 14.28125 -1.359375 C 12.632812 -0.171875 10.671875 0.421875 8.390625 0.421875 Z M 12.921875 -6.359375 C 14.085938 -6.359375 15.238281 -6.90625 16.375 -8 C 17.519531 -9.09375 18.300781 -10.59375 18.71875 -12.5 L 22.078125 -28.296875 C 22.078125 -28.898438 21.84375 -29.492188 21.375 -30.078125 C 20.90625 -30.660156 20.1875 -30.953125 19.21875 -30.953125 C 17.351562 -30.953125 15.675781 -29.867188 14.1875 -27.703125 C 12.695312 -25.535156 11.53125 -22.925781 10.6875 -19.875 C 9.851562 -16.820312 9.4375 -14.132812 9.4375 -11.8125 C 9.4375 -9.476562 9.769531 -7.984375 10.4375 -7.328125 C 11.113281 -6.679688 11.941406 -6.359375 12.921875 -6.359375 Z M 12.921875 -6.359375 "/></g></g></g><g fill="#00ffff" fill-opacity="1"><g transform="translate(515.779644, 71.364426)"><g><path d="M 4.75 -34.921875 L 14.8125 -34.921875 L 13.90625 -30.59375 C 15.488281 -31.988281 16.921875 -33.054688 18.203125 -33.796875 C 19.484375 -34.546875 20.867188 -34.921875 22.359375 -34.921875 C 23.847656 -34.921875 25.019531 -34.410156 25.875 -33.390625 C 26.738281 -32.367188 27.171875 -31.132812 27.171875 -29.6875 C 27.171875 -28.34375 26.726562 -27.15625 25.84375 -26.125 C 24.957031 -25.101562 23.722656 -24.59375 22.140625 -24.59375 C 21.117188 -24.59375 20.429688 -24.835938 20.078125 -25.328125 C 19.734375 -25.816406 19.46875 -26.523438 19.28125 -27.453125 C 19.144531 -28.054688 19.003906 -28.5 18.859375 -28.78125 C 18.722656 -29.0625 18.46875 -29.203125 18.09375 -29.203125 C 17.113281 -29.203125 16.285156 -29.003906 15.609375 -28.609375 C 14.929688 -28.210938 14.0625 -27.523438 13 -26.546875 L 7.40625 0 L -2.65625 0 Z M 4.75 -34.921875 "/></g></g></g><g fill="#ffffff" fill-opacity="1"><g transform="translate(282.990732, 71.364426)"><g><path d="M 16.625 1.125 C 11.363281 1.125 7.5 -0.203125 5.03125 -2.859375 C 2.5625 -5.515625 1.328125 -9.914062 1.328125 -16.0625 C 1.328125 -20.957031 2.148438 -26.222656 3.796875 -31.859375 C 5.453125 -37.492188 8.109375 -42.320312 11.765625 -46.34375 C 15.421875 -50.375 20.066406 -52.390625 25.703125 -52.390625 C 29.203125 -52.390625 32.019531 -51.617188 34.15625 -50.078125 C 36.300781 -48.546875 37.375 -46.195312 37.375 -43.03125 C 37.375 -41.03125 36.976562 -39.457031 36.1875 -38.3125 C 35.394531 -37.175781 34.160156 -36.609375 32.484375 -36.609375 C 30.804688 -36.609375 29.476562 -37.210938 28.5 -38.421875 C 29.34375 -38.835938 30.085938 -39.675781 30.734375 -40.9375 C 31.390625 -42.195312 31.71875 -43.5 31.71875 -44.84375 C 31.71875 -46.101562 31.378906 -47.128906 30.703125 -47.921875 C 30.023438 -48.710938 28.941406 -49.109375 27.453125 -49.109375 C 24.984375 -49.109375 22.628906 -47.421875 20.390625 -44.046875 C 18.160156 -40.671875 16.359375 -36.421875 14.984375 -31.296875 C 13.609375 -26.171875 12.921875 -21.234375 12.921875 -16.484375 C 12.921875 -12.941406 13.523438 -10.238281 14.734375 -8.375 C 15.953125 -6.519531 18.144531 -5.59375 21.3125 -5.59375 C 24.050781 -5.59375 26.585938 -6.195312 28.921875 -7.40625 C 31.253906 -8.613281 33.253906 -10.335938 34.921875 -12.578125 L 36.53125 -11.875 C 35.375 -8.9375 33.648438 -6.488281 31.359375 -4.53125 C 29.078125 -2.582031 26.632812 -1.148438 24.03125 -0.234375 C 21.425781 0.671875 18.957031 1.125 16.625 1.125 Z M 16.625 1.125 "/></g></g></g><g fill="#ffffff" fill-opacity="1"><g transform="translate(319.105345, 71.364426)"><g><path d="M 8.390625 0.421875 C 5.734375 0.421875 3.519531 -0.484375 1.75 -2.296875 C -0.0195312 -4.117188 -0.90625 -6.960938 -0.90625 -10.828125 C -0.90625 -14.273438 -0.21875 -17.894531 1.15625 -21.6875 C 2.53125 -25.488281 4.578125 -28.703125 7.296875 -31.328125 C 10.023438 -33.960938 13.273438 -35.28125 17.046875 -35.28125 C 18.953125 -35.28125 20.367188 -34.953125 21.296875 -34.296875 C 22.234375 -33.648438 22.703125 -32.789062 22.703125 -31.71875 L 22.703125 -31.234375 L 23.46875 -34.921875 L 33.53125 -34.921875 L 28.5 -11.171875 C 28.3125 -10.472656 28.21875 -9.726562 28.21875 -8.9375 C 28.21875 -6.9375 29.175781 -5.9375 31.09375 -5.9375 C 32.394531 -5.9375 33.519531 -6.539062 34.46875 -7.75 C 35.425781 -8.96875 36.1875 -10.550781 36.75 -12.5 L 39.6875 -12.5 C 37.957031 -7.46875 35.820312 -4.054688 33.28125 -2.265625 C 30.75 -0.472656 28.203125 0.421875 25.640625 0.421875 C 23.679688 0.421875 22.109375 -0.125 20.921875 -1.21875 C 19.734375 -2.3125 19.023438 -3.910156 18.796875 -6.015625 C 17.441406 -4.097656 15.9375 -2.546875 14.28125 -1.359375 C 12.632812 -0.171875 10.671875 0.421875 8.390625 0.421875 Z M 12.921875 -6.359375 C 14.085938 -6.359375 15.238281 -6.90625 16.375 -8 C 17.519531 -9.09375 18.300781 -10.59375 18.71875 -12.5 L 22.078125 -28.296875 C 22.078125 -28.898438 21.84375 -29.492188 21.375 -30.078125 C 20.90625 -30.660156 20.1875 -30.953125 19.21875 -30.953125 C 17.351562 -30.953125 15.675781 -29.867188 14.1875 -27.703125 C 12.695312 -25.535156 11.53125 -22.925781 10.6875 -19.875 C 9.851562 -16.820312 9.4375 -14.132812 9.4375 -11.8125 C 9.4375 -9.476562 9.769531 -7.984375 10.4375 -7.328125 C 11.113281 -6.679688 11.941406 -6.359375 12.921875 -6.359375 Z M 12.921875 -6.359375 "/></g></g></g><g fill="#ffffff" fill-opacity="1"><g transform="translate(357.245725, 71.364426)"><g><path d="M 6.921875 0.421875 C 4.679688 0.421875 2.875 -0.273438 1.5 -1.671875 C 0.125 -3.066406 -0.5625 -5.164062 -0.5625 -7.96875 C -0.5625 -9.125 -0.375 -10.632812 0 -12.5 L 7.46875 -47.5 L 17.8125 -48.90625 L 9.78125 -11.171875 C 9.59375 -10.472656 9.5 -9.726562 9.5 -8.9375 C 9.5 -8.007812 9.71875 -7.347656 10.15625 -6.953125 C 10.601562 -6.554688 11.335938 -6.359375 12.359375 -6.359375 C 13.710938 -6.359375 14.972656 -6.925781 16.140625 -8.0625 C 17.304688 -9.207031 18.144531 -10.6875 18.65625 -12.5 L 21.59375 -12.5 C 19.863281 -7.46875 17.644531 -4.054688 14.9375 -2.265625 C 12.238281 -0.472656 9.566406 0.421875 6.921875 0.421875 Z M 6.921875 0.421875 "/></g></g></g><g fill="#ffffff" fill-opacity="1"><g transform="translate(377.293939, 71.364426)"><g><path d="M 9.984375 0.421875 C 6.535156 0.421875 3.859375 -0.472656 1.953125 -2.265625 C 0.046875 -4.054688 -0.90625 -6.863281 -0.90625 -10.6875 C -0.90625 -13.90625 -0.28125 -17.445312 0.96875 -21.3125 C 2.226562 -25.175781 4.28125 -28.515625 7.125 -31.328125 C 9.96875 -34.148438 13.578125 -35.5625 17.953125 -35.5625 C 23.078125 -35.5625 25.640625 -33.328125 25.640625 -28.859375 C 25.640625 -26.242188 24.894531 -23.84375 23.40625 -21.65625 C 21.914062 -19.46875 19.9375 -17.707031 17.46875 -16.375 C 15 -15.050781 12.367188 -14.296875 9.578125 -14.109375 C 9.484375 -12.710938 9.4375 -11.78125 9.4375 -11.3125 C 9.4375 -9.03125 9.832031 -7.484375 10.625 -6.671875 C 11.414062 -5.859375 12.691406 -5.453125 14.453125 -5.453125 C 16.972656 -5.453125 19.128906 -6.03125 20.921875 -7.1875 C 22.710938 -8.351562 24.679688 -10.125 26.828125 -12.5 L 29.203125 -12.5 C 24.035156 -3.882812 17.628906 0.421875 9.984375 0.421875 Z M 10.125 -17.46875 C 11.851562 -17.5625 13.492188 -18.164062 15.046875 -19.28125 C 16.609375 -20.394531 17.867188 -21.8125 18.828125 -23.53125 C 19.785156 -25.257812 20.265625 -27.078125 20.265625 -28.984375 C 20.265625 -30.898438 19.679688 -31.859375 18.515625 -31.859375 C 16.835938 -31.859375 15.191406 -30.390625 13.578125 -27.453125 C 11.972656 -24.515625 10.820312 -21.1875 10.125 -17.46875 Z M 10.125 -17.46875 "/></g></g></g><g fill="#ffffff" fill-opacity="1"><g transform="translate(405.515062, 71.364426)"><g><path d="M 25.21875 0.421875 C 22.375 0.421875 20.285156 -0.332031 18.953125 -1.84375 C 17.628906 -3.363281 16.96875 -5.238281 16.96875 -7.46875 C 16.96875 -8.445312 17.082031 -9.550781 17.3125 -10.78125 C 17.550781 -12.019531 17.796875 -13.222656 18.046875 -14.390625 C 18.304688 -15.554688 18.484375 -16.300781 18.578125 -16.625 C 18.953125 -18.257812 19.300781 -19.867188 19.625 -21.453125 C 19.957031 -23.035156 20.125 -24.3125 20.125 -25.28125 C 20.125 -27.664062 19.285156 -28.859375 17.609375 -28.859375 C 16.390625 -28.859375 15.316406 -28.257812 14.390625 -27.0625 C 13.460938 -25.875 12.71875 -24.328125 12.15625 -22.421875 L 7.40625 0 L -2.65625 0 L 4.75 -34.921875 L 14.8125 -34.921875 L 14.046875 -31.296875 C 16.367188 -33.898438 19.09375 -35.203125 22.21875 -35.203125 C 24.59375 -35.203125 26.476562 -34.550781 27.875 -33.25 C 29.269531 -31.945312 29.96875 -29.96875 29.96875 -27.3125 C 29.96875 -25.957031 29.800781 -24.453125 29.46875 -22.796875 C 29.144531 -21.148438 28.679688 -19.140625 28.078125 -16.765625 C 27.710938 -15.316406 27.375 -13.90625 27.0625 -12.53125 C 26.757812 -11.164062 26.609375 -10.085938 26.609375 -9.296875 C 26.609375 -8.359375 26.816406 -7.632812 27.234375 -7.125 C 27.660156 -6.613281 28.382812 -6.359375 29.40625 -6.359375 C 30.800781 -6.359375 31.914062 -6.859375 32.75 -7.859375 C 33.59375 -8.859375 34.4375 -10.40625 35.28125 -12.5 L 38.21875 -12.5 C 36.488281 -7.375 34.492188 -3.9375 32.234375 -2.1875 C 29.984375 -0.445312 27.644531 0.421875 25.21875 0.421875 Z M 25.21875 0.421875 "/></g></g></g><g fill="#ffffff" fill-opacity="1"><g transform="translate(442.188514, 71.364426)"><g><path d="M 8.390625 0.421875 C 5.734375 0.421875 3.519531 -0.484375 1.75 -2.296875 C -0.0195312 -4.117188 -0.90625 -6.960938 -0.90625 -10.828125 C -0.90625 -14.273438 -0.21875 -17.894531 1.15625 -21.6875 C 2.53125 -25.488281 4.578125 -28.703125 7.296875 -31.328125 C 10.023438 -33.960938 13.273438 -35.28125 17.046875 -35.28125 C 18.953125 -35.28125 20.367188 -34.953125 21.296875 -34.296875 C 22.234375 -33.648438 22.703125 -32.789062 22.703125 -31.71875 L 22.703125 -31.4375 L 26.125 -47.5 L 36.46875 -48.90625 L 28.4375 -11.171875 C 28.25 -10.472656 28.15625 -9.726562 28.15625 -8.9375 C 28.15625 -8.007812 28.375 -7.347656 28.8125 -6.953125 C 29.257812 -6.554688 29.992188 -6.359375 31.015625 -6.359375 C 32.316406 -6.359375 33.445312 -6.914062 34.40625 -8.03125 C 35.363281 -9.144531 36.117188 -10.632812 36.671875 -12.5 L 39.609375 -12.5 C 36.765625 -4.164062 32.082031 0 25.5625 0 C 23.65625 0 22.109375 -0.507812 20.921875 -1.53125 C 19.734375 -2.5625 19 -4.054688 18.71875 -6.015625 C 17.507812 -4.148438 16.054688 -2.609375 14.359375 -1.390625 C 12.660156 -0.179688 10.671875 0.421875 8.390625 0.421875 Z M 12.921875 -6.359375 C 14.035156 -6.359375 15.164062 -6.867188 16.3125 -7.890625 C 17.457031 -8.921875 18.238281 -10.34375 18.65625 -12.15625 L 18.65625 -12.5 L 22.078125 -28.5 C 21.660156 -30.132812 20.707031 -30.953125 19.21875 -30.953125 C 17.351562 -30.953125 15.675781 -29.867188 14.1875 -27.703125 C 12.695312 -25.535156 11.53125 -22.925781 10.6875 -19.875 C 9.851562 -16.820312 9.4375 -14.132812 9.4375 -11.8125 C 9.4375 -9.476562 9.769531 -7.984375 10.4375 -7.328125 C 11.113281 -6.679688 11.941406 -6.359375 12.921875 -6.359375 Z M 12.921875 -6.359375 "/></g></g></g><g fill="#ffffff" fill-opacity="1"><g transform="translate(480.25905, 71.364426)"><g><path d="M 8.390625 0.421875 C 5.734375 0.421875 3.519531 -0.484375 1.75 -2.296875 C -0.0195312 -4.117188 -0.90625 -6.960938 -0.90625 -10.828125 C -0.90625 -14.273438 -0.21875 -17.894531 1.15625 -21.6875 C 2.53125 -25.488281 4.578125 -28.703125 7.296875 -31.328125 C 10.023438 -33.960938 13.273438 -35.28125 17.046875 -35.28125 C 18.953125 -35.28125 20.367188 -34.953125 21.296875 -34.296875 C 22.234375 -33.648438 22.703125 -32.789062 22.703125 -31.71875 L 22.703125 -31.234375 L 23.46875 -34.921875 L 33.53125 -34.921875 L 28.5 -11.171875 C 28.3125 -10.472656 28.21875 -9.726562 28.21875 -8.9375 C 28.21875 -6.9375 29.175781 -5.9375 31.09375 -5.9375 C 32.394531 -5.9375 33.519531 -6.539062 34.46875 -7.75 C 35.425781 -8.96875 36.1875 -10.550781 36.75 -12.5 L 39.6875 -12.5 C 37.957031 -7.46875 35.820312 -4.054688 33.28125 -2.265625 C 30.75 -0.472656 28.203125 0.421875 25.640625 0.421875 C 23.679688 0.421875 22.109375 -0.125 20.921875 -1.21875 C 19.734375 -2.3125 19.023438 -3.910156 18.796875 -6.015625 C 17.441406 -4.097656 15.9375 -2.546875 14.28125 -1.359375 C 12.632812 -0.171875 10.671875 0.421875 8.390625 0.421875 Z M 12.921875 -6.359375 C 14.085938 -6.359375 15.238281 -6.90625 16.375 -8 C 17.519531 -9.09375 18.300781 -10.59375 18.71875 -12.5 L 22.078125 -28.296875 C 22.078125 -28.898438 21.84375 -29.492188 21.375 -30.078125 C 20.90625 -30.660156 20.1875 -30.953125 19.21875 -30.953125 C 17.351562 -30.953125 15.675781 -29.867188 14.1875 -27.703125 C 12.695312 -25.535156 11.53125 -22.925781 10.6875 -19.875 C 9.851562 -16.820312 9.4375 -14.132812 9.4375 -11.8125 C 9.4375 -9.476562 9.769531 -7.984375 10.4375 -7.328125 C 11.113281 -6.679688 11.941406 -6.359375 12.921875 -6.359375 Z M 12.921875 -6.359375 "/></g></g></g><g fill="#ffffff" fill-opacity="1"><g transform="translate(518.399429, 71.364426)"><g><path d="M 4.75 -34.921875 L 14.8125 -34.921875 L 13.90625 -30.59375 C 15.488281 -31.988281 16.921875 -33.054688 18.203125 -33.796875 C 19.484375 -34.546875 20.867188 -34.921875 22.359375 -34.921875 C 23.847656 -34.921875 25.019531 -34.410156 25.875 -33.390625 C 26.738281 -32.367188 27.171875 -31.132812 27.171875 -29.6875 C 27.171875 -28.34375 26.726562 -27.15625 25.84375 -26.125 C 24.957031 -25.101562 23.722656 -24.59375 22.140625 -24.59375 C 21.117188 -24.59375 20.429688 -24.835938 20.078125 -25.328125 C 19.734375 -25.816406 19.46875 -26.523438 19.28125 -27.453125 C 19.144531 -28.054688 19.003906 -28.5 18.859375 -28.78125 C 18.722656 -29.0625 18.46875 -29.203125 18.09375 -29.203125 C 17.113281 -29.203125 16.285156 -29.003906 15.609375 -28.609375 C 14.929688 -28.210938 14.0625 -27.523438 13 -26.546875 L 7.40625 0 L -2.65625 0 Z M 4.75 -34.921875 "/></g></g></g><g clip-path="url(#7d6fd38581)"><g clip-path="url(#d325bc4927)"><g clip-path="url(#40fc9d2760)"><path fill="#00ceff" d="M 657.582031 180.566406 C 661.867188 178.210938 665.875 174.367188 666.828125 169.378906 C 667.664062 165.003906 666.351562 159.992188 662.566406 157.359375 C 658.246094 154.351562 652.980469 155.859375 648.570312 157.777344 C 644.078125 159.730469 639.820312 161.539062 634.863281 161.835938 C 630.160156 162.113281 625.347656 161.34375 621.007812 159.488281 C 610.9375 155.1875 604.011719 145.152344 600.507812 135.054688 C 597.210938 125.558594 597.414062 114.394531 603.71875 106.132812 C 604.941406 104.527344 606.355469 103.101562 607.945312 101.875 C 607.957031 101.894531 607.960938 101.914062 607.976562 101.933594 C 615.804688 113.628906 626.371094 123.394531 638.589844 130.355469 C 644.765625 133.871094 651.378906 136.660156 658.210938 138.601562 C 665.609375 140.707031 673.679688 141.707031 681.074219 139.046875 C 688.257812 136.460938 694.152344 131.09375 698.128906 124.648438 C 702.257812 117.964844 703.378906 110.351562 701.296875 102.761719 C 697.542969 89.054688 686.195312 77.8125 673.613281 71.832031 C 659.957031 65.339844 644.136719 64.660156 629.679688 68.710938 C 628.683594 68.988281 627.699219 69.292969 626.722656 69.617188 C 628.449219 57.484375 634.246094 46 642.785156 37.25 C 644.789062 35.199219 646.941406 33.316406 649.226562 31.605469 C 652.914062 42.453125 660.269531 51.914062 669.914062 58.132812 C 679.769531 64.484375 692.058594 67.210938 703.671875 65.652344 C 709.867188 64.820312 716.253906 62.921875 720.542969 58.097656 C 724.164062 54.03125 725.953125 48.570312 726.015625 43.167969 C 726.15625 30.695312 716.644531 20.53125 706.046875 15.332031 C 699.773438 12.253906 692.941406 10.503906 686.097656 9.253906 C 679.214844 7.996094 672.234375 7.332031 665.296875 8.300781 C 664.023438 2.542969 666 -3.386719 668.84375 -8.40625 C 671.578125 -13.238281 676.253906 -18.683594 673.683594 -24.601562 C 671.136719 -30.472656 663.671875 -32.417969 658.0625 -30.109375 C 651.914062 -27.585938 647.691406 -21.699219 644.882812 -15.890625 C 641.75 -9.414062 640.238281 -2.207031 640.511719 4.984375 C 640.527344 5.363281 640.636719 5.675781 640.800781 5.933594 C 621.832031 17.378906 608.371094 37.300781 604.164062 59.015625 C 602.941406 65.3125 602.496094 71.769531 602.894531 78.171875 C 602.902344 78.328125 602.929688 78.472656 602.964844 78.609375 C 602.640625 78.515625 602.261719 78.527344 601.84375 78.691406 C 592.878906 82.210938 585.679688 88.992188 580.921875 97.3125 C 575.878906 106.128906 573.824219 116.34375 574.550781 126.449219 C 575.367188 137.761719 579.367188 148.6875 585.132812 158.394531 C 590.683594 167.75 597.996094 176.648438 608.238281 180.976562 C 613.320312 183.125 618.746094 184.308594 624.199219 185.035156 C 629.957031 185.800781 635.816406 186.039062 641.59375 185.339844 C 647.117188 184.667969 652.679688 183.261719 657.582031 180.566406 Z M 678.921875 135.4375 C 679.515625 135.34375 680.105469 135.214844 680.691406 135.078125 C 678.980469 135.75 677.226562 136.199219 675.441406 136.46875 C 676.617188 136.175781 677.777344 135.828125 678.921875 135.4375 Z M 666.675781 136.269531 C 666.691406 136.273438 666.703125 136.265625 666.714844 136.265625 C 667.40625 136.351562 668.09375 136.425781 668.785156 136.472656 C 668.820312 136.554688 668.863281 136.628906 668.910156 136.703125 C 667.285156 136.59375 665.660156 136.371094 664.046875 136.0625 C 664.917969 136.164062 665.796875 136.238281 666.675781 136.269531 Z M 674.351562 129.050781 C 674.523438 128.96875 674.699219 128.890625 674.878906 128.8125 C 675.210938 128.730469 675.542969 128.648438 675.878906 128.570312 C 675.8125 128.691406 675.757812 128.820312 675.722656 128.960938 C 675.714844 128.984375 675.714844 129.015625 675.707031 129.039062 C 675.257812 129.0625 674.804688 129.0625 674.351562 129.050781 Z M 693.265625 125.050781 C 693.390625 124.765625 693.488281 124.472656 693.601562 124.183594 C 694.234375 123.4375 694.824219 122.65625 695.355469 121.832031 C 694.730469 122.945312 694.023438 124.019531 693.265625 125.050781 Z M 710.203125 60.25 C 712.210938 59.136719 714.222656 58.019531 716.230469 56.90625 C 714.46875 58.386719 712.40625 59.464844 710.203125 60.25 Z M 692.992188 61.519531 C 694.304688 61.835938 695.648438 62.019531 696.992188 62.082031 C 697.042969 62.148438 697.097656 62.207031 697.160156 62.257812 C 695.273438 62.253906 693.382812 62.132812 691.503906 61.898438 C 691.957031 61.785156 692.40625 61.644531 692.84375 61.476562 C 692.894531 61.488281 692.941406 61.507812 692.992188 61.519531 Z M 719.890625 52.316406 C 719.65625 52.195312 719.382812 52.152344 719.101562 52.171875 C 719.941406 51.082031 720.699219 49.929688 721.359375 48.714844 C 720.992188 49.964844 720.5 51.171875 719.890625 52.316406 Z M 664.160156 48.566406 C 665.632812 49.863281 667.191406 51.054688 668.828125 52.140625 C 669.445312 52.828125 670.097656 53.484375 670.78125 54.101562 C 668.402344 52.46875 666.1875 50.609375 664.160156 48.566406 Z M 717.601562 39.316406 C 717.570312 39.835938 717.550781 40.355469 717.5 40.875 C 717.363281 41.472656 717.261719 42.078125 717.148438 42.683594 C 716.976562 43.023438 716.789062 43.351562 716.589844 43.671875 C 716.824219 42.34375 717.058594 41.015625 717.289062 39.683594 C 717.359375 39.5625 717.414062 39.429688 717.484375 39.308594 C 717.523438 39.3125 717.5625 39.316406 717.601562 39.316406 Z M 706.644531 43.59375 C 706.417969 43.796875 706.1875 44.003906 705.960938 44.210938 C 706.054688 43.636719 706.054688 43.042969 705.984375 42.441406 C 706.207031 42.824219 706.417969 43.214844 706.644531 43.59375 Z M 707.644531 39.257812 C 708.007812 39.824219 708.386719 40.378906 708.785156 40.921875 C 708.699219 40.980469 708.613281 41.039062 708.527344 41.101562 C 708.035156 40.257812 707.550781 39.410156 707.089844 38.554688 C 707.273438 38.789062 707.457031 39.023438 707.644531 39.257812 Z M 700.207031 33.042969 C 700.71875 33.417969 701.234375 33.792969 701.757812 34.152344 C 701.960938 34.601562 702.160156 35.054688 702.371094 35.5 C 701.429688 34.589844 700.359375 33.820312 699.214844 33.15625 C 699.488281 33.132812 699.71875 33.035156 699.898438 32.882812 C 700 32.9375 700.105469 32.988281 700.207031 33.042969 Z M 695.625 24.847656 C 695.773438 24.878906 695.914062 24.878906 696.046875 24.871094 C 696.082031 24.894531 696.113281 24.917969 696.148438 24.941406 C 696.191406 25.125 696.269531 25.300781 696.390625 25.460938 C 695.691406 25.164062 694.992188 24.882812 694.289062 24.605469 C 694.734375 24.683594 695.179688 24.761719 695.625 24.847656 Z M 686.179688 32.410156 C 690.652344 33.722656 696.011719 34.78125 699.511719 38.082031 C 700.324219 38.84375 701.035156 39.734375 701.523438 40.742188 C 701.847656 41.402344 702.523438 42.957031 702.199219 43.707031 C 701.886719 44.425781 700.414062 45.019531 699.710938 45.300781 C 698.578125 45.75 697.394531 45.9375 696.175781 45.863281 C 691.613281 45.585938 687.414062 42.195312 683.980469 39.472656 C 680.320312 36.574219 676.9375 33.332031 673.886719 29.800781 C 678.058594 30.199219 682.152344 31.230469 686.179688 32.410156 Z M 667.214844 -23.96875 C 667.585938 -24.253906 667.976562 -24.515625 668.394531 -24.75 C 668.597656 -24.859375 668.652344 -25.035156 668.613281 -25.203125 C 668.851562 -24.988281 669.074219 -24.761719 669.277344 -24.519531 C 668.78125 -24.78125 668.164062 -24.757812 667.660156 -24.203125 C 667.578125 -24.109375 667.5 -24.015625 667.417969 -23.921875 C 667.351562 -23.945312 667.28125 -23.957031 667.214844 -23.96875 Z M 659.050781 -15.851562 C 659.554688 -16.234375 660.066406 -16.613281 660.585938 -16.980469 C 660.582031 -16.945312 660.582031 -16.90625 660.589844 -16.871094 C 660.203125 -16.351562 659.816406 -15.828125 659.429688 -15.308594 C 659.207031 -15.046875 658.996094 -14.773438 658.792969 -14.492188 C 658.589844 -14.394531 658.386719 -14.300781 658.183594 -14.207031 C 658.449219 -14.769531 658.742188 -15.316406 659.050781 -15.851562 Z M 666.75 -12.484375 C 667.417969 -13.714844 668.027344 -14.96875 668.511719 -16.277344 C 668.558594 -16.378906 668.605469 -16.476562 668.652344 -16.574219 C 669.007812 -16.996094 669.359375 -17.417969 669.699219 -17.855469 C 670.058594 -18.320312 670.089844 -18.882812 669.910156 -19.347656 C 670.136719 -19.875 670.351562 -20.40625 670.566406 -20.941406 C 670.542969 -19.132812 669.714844 -17.339844 668.855469 -15.792969 C 668.207031 -14.621094 667.496094 -13.484375 666.785156 -12.347656 C 666.773438 -12.394531 666.761719 -12.4375 666.75 -12.484375 Z M 643.429688 9.21875 L 643.558594 8.757812 C 643.6875 8.683594 643.8125 8.605469 643.9375 8.53125 C 643.933594 8.910156 643.925781 9.289062 643.925781 9.667969 C 643.910156 9.679688 643.894531 9.691406 643.878906 9.703125 C 643.765625 9.515625 643.613281 9.351562 643.429688 9.21875 Z M 668.140625 18.503906 C 667.277344 18.527344 666.414062 18.550781 665.550781 18.574219 C 664.601562 18.582031 663.652344 18.59375 662.707031 18.621094 C 662.738281 18.554688 662.765625 18.484375 662.796875 18.414062 C 664.109375 18.453125 665.425781 18.460938 666.738281 18.429688 C 667.261719 18.449219 667.785156 18.460938 668.304688 18.484375 C 668.25 18.492188 668.195312 18.496094 668.140625 18.503906 Z M 683.746094 12.992188 C 683.582031 12.84375 683.394531 12.722656 683.152344 12.671875 C 682.8125 12.601562 682.46875 12.539062 682.128906 12.476562 C 682.445312 12.523438 682.765625 12.570312 683.082031 12.621094 C 684.1875 12.804688 685.296875 13.003906 686.40625 13.210938 C 685.523438 13.121094 684.632812 13.058594 683.746094 12.992188 Z M 682.074219 16.347656 C 682.136719 16.339844 682.199219 16.332031 682.257812 16.316406 C 682.847656 16.304688 683.441406 16.296875 684.03125 16.324219 C 684.378906 16.449219 684.726562 16.574219 685.074219 16.707031 C 684.078125 16.570312 683.078125 16.449219 682.074219 16.347656 Z M 628.058594 47.652344 C 627.714844 48.679688 627.371094 49.707031 627.03125 50.734375 C 626.882812 50.832031 626.75 50.941406 626.609375 51.046875 C 627.078125 49.910156 627.558594 48.777344 628.058594 47.652344 Z M 625.277344 54.949219 C 625.476562 54.699219 625.679688 54.457031 625.871094 54.203125 L 625.070312 56.597656 Z M 607.195312 64.558594 C 607.285156 65.320312 607.390625 66.082031 607.503906 66.84375 C 607.285156 66.882812 607.085938 66.976562 606.910156 67.109375 C 606.988281 66.257812 607.085938 65.40625 607.195312 64.558594 Z M 641.375 109.058594 C 641.988281 109.539062 642.605469 110.019531 643.238281 110.472656 C 643.703125 110.808594 644.175781 111.136719 644.65625 111.457031 C 643.824219 111.039062 642.988281 110.617188 642.15625 110.199219 C 641.894531 109.816406 641.636719 109.433594 641.375 109.058594 Z M 633.550781 122.632812 C 633.738281 122.4375 633.882812 122.210938 633.980469 121.96875 C 634.210938 122.164062 634.441406 122.355469 634.667969 122.550781 C 635.160156 123.148438 635.652344 123.75 636.15625 124.339844 C 636.261719 124.464844 636.414062 124.488281 636.554688 124.453125 C 637.082031 124.851562 637.613281 125.242188 638.144531 125.628906 C 636.585938 124.679688 635.050781 123.683594 633.550781 122.632812 Z M 695.378906 97.921875 C 695.902344 98.984375 696.367188 100.082031 696.773438 101.195312 C 696.628906 101.304688 696.5 101.441406 696.398438 101.601562 C 696.34375 101.359375 696.296875 101.113281 696.234375 100.871094 C 695.953125 99.703125 695.578125 98.570312 695.136719 97.464844 C 695.214844 97.621094 695.304688 97.769531 695.378906 97.921875 Z M 684.363281 97.03125 C 683.9375 96.421875 683.492188 95.828125 683.011719 95.265625 C 683.214844 95.144531 683.398438 94.992188 683.554688 94.816406 C 683.851562 95.542969 684.117188 96.28125 684.363281 97.03125 Z M 667.210938 93.230469 C 667.222656 93.363281 667.25 93.5 667.289062 93.632812 C 666.675781 93.34375 666.058594 93.070312 665.4375 92.8125 C 666.027344 92.957031 666.621094 93.089844 667.210938 93.230469 Z M 681.148438 80.878906 C 681.128906 81.011719 681.117188 81.148438 681.128906 81.285156 C 680.882812 81.085938 680.632812 80.894531 680.386719 80.695312 C 680.457031 80.628906 680.523438 80.554688 680.582031 80.472656 C 680.769531 80.609375 680.960938 80.738281 681.148438 80.878906 Z M 653.46875 93.074219 C 657.300781 93.929688 661.082031 95.105469 664.679688 96.6875 C 668.039062 98.171875 671.464844 100.101562 673.621094 103.171875 C 675.332031 105.613281 676.074219 108.863281 675.09375 111.746094 C 673.914062 115.199219 670.402344 116.222656 667.0625 116.082031 C 663.433594 115.929688 659.691406 114.707031 656.339844 113.359375 C 652.9375 111.988281 649.675781 110.25 646.632812 108.199219 C 640.457031 104.03125 635.285156 98.457031 631.496094 92.054688 C 638.820312 91.15625 646.253906 91.464844 653.46875 93.074219 Z M 622.300781 95.328125 C 622.070312 95.46875 621.871094 95.65625 621.714844 95.878906 C 621.546875 95.175781 621.382812 94.472656 621.214844 93.769531 C 621.578125 94.289062 621.9375 94.808594 622.300781 95.328125 Z M 598.429688 84.957031 C 598.214844 85.109375 598.011719 85.273438 597.804688 85.425781 C 597.769531 85.425781 597.738281 85.425781 597.707031 85.425781 C 597.53125 85.421875 597.347656 85.410156 597.167969 85.382812 C 597.199219 85.34375 597.230469 85.308594 597.261719 85.273438 C 597.660156 85.019531 598.066406 84.777344 598.476562 84.539062 C 598.433594 84.675781 598.429688 84.816406 598.429688 84.957031 Z M 591.804688 89.539062 C 591.792969 89.558594 591.785156 89.578125 591.777344 89.597656 C 591.609375 89.824219 591.441406 90.050781 591.273438 90.277344 C 591.230469 90.332031 591.210938 90.390625 591.191406 90.449219 C 590.863281 90.675781 590.535156 90.902344 590.207031 91.128906 C 590.726562 90.582031 591.257812 90.050781 591.804688 89.539062 Z M 586.511719 95.636719 C 586.53125 95.671875 586.546875 95.703125 586.566406 95.738281 C 586.511719 95.824219 586.457031 95.910156 586.402344 96 C 586.03125 96.527344 585.679688 97.066406 585.351562 97.613281 C 585.25 97.691406 585.152344 97.769531 585.054688 97.847656 C 585.519531 97.097656 586 96.359375 586.511719 95.636719 Z M 610.746094 99.378906 C 610.738281 99.335938 610.734375 99.292969 610.71875 99.25 C 610.828125 99.375 610.945312 99.496094 611.050781 99.621094 C 612.035156 100.921875 613.070312 102.183594 614.148438 103.414062 C 614.105469 103.582031 614.085938 103.757812 614.097656 103.933594 C 614.078125 103.914062 614.0625 103.890625 614.046875 103.867188 C 613.0625 102.558594 612.117188 101.222656 611.207031 99.863281 C 611.070312 99.660156 610.914062 99.503906 610.746094 99.378906 Z M 661.183594 161.175781 C 661.007812 161.21875 660.839844 161.289062 660.683594 161.378906 C 660.4375 160.949219 660.148438 160.539062 659.8125 160.148438 C 660.335938 160.421875 660.785156 160.773438 661.183594 161.175781 Z M 606.625 175.921875 C 607.566406 176.226562 608.511719 176.515625 609.460938 176.789062 C 609.421875 176.957031 609.40625 177.125 609.40625 177.296875 C 608.460938 176.882812 607.535156 176.417969 606.625 175.921875 Z M 656.6875 167.542969 C 656.84375 167.40625 656.996094 167.269531 657.140625 167.113281 C 657.503906 166.722656 657.652344 166.304688 657.664062 165.902344 C 657.75 165.851562 657.835938 165.804688 657.925781 165.75 C 657.921875 166.058594 657.886719 166.363281 657.835938 166.664062 C 657.457031 167.269531 657.046875 167.855469 656.601562 168.417969 C 656.710938 168.144531 656.734375 167.84375 656.6875 167.542969 Z M 642.023438 181.414062 C 642.035156 181.375 642.050781 181.339844 642.0625 181.296875 C 644.167969 180.984375 646.265625 180.601562 648.34375 180.128906 C 646.269531 180.710938 644.15625 181.121094 642.023438 181.414062 Z M 642.023438 181.414062 " fill-opacity="1" fill-rule="nonzero"/></g></g></g><g fill="#ff00ff" fill-opacity="1"><g transform="translate(203.470047, 57.387891)"><g><path d="M 13.578125 -41.875 C 10.765625 -40.550781 8.695312 -38.6875 7.375 -36.28125 C 6.0625 -33.875 5.609375 -31.039062 6.015625 -27.78125 C 6.191406 -26.320312 6.445312 -25.34375 6.78125 -24.84375 C 7.125 -24.34375 7.304688 -24.03125 7.328125 -23.90625 C 3.210938 -23.394531 0.9375 -24.890625 0.5 -28.390625 C 0.195312 -30.765625 0.804688 -33.265625 2.328125 -35.890625 C 3.859375 -38.515625 5.960938 -40.765625 8.640625 -42.640625 C 11.316406 -44.523438 14.078125 -45.644531 16.921875 -46 C 18.347656 -46.175781 19.84375 -46.082031 21.40625 -45.71875 L 23.84375 -15.203125 L 32.75 -47.140625 L 41.046875 -48.171875 L 40.265625 -5.015625 L 31.96875 -3.984375 L 32.4375 -30.296875 L 24.84375 -3.09375 L 16.953125 -2.109375 L 14.859375 -28.234375 L 8.46875 -1.046875 L 3.859375 -0.484375 Z M 13.578125 -41.875 "/></g></g></g><g fill="#ff00ff" fill-opacity="1"><g transform="translate(249.961658, 51.602683)"><g><path d="M 10.796875 13.28125 C 8.941406 13.507812 7.34375 13.21875 6 12.40625 C 4.65625 11.601562 3.867188 10.304688 3.640625 8.515625 C 3.367188 6.316406 4.03125 4.441406 5.625 2.890625 C 7.21875 1.347656 9.328125 -0.03125 11.953125 -1.25 L 12.265625 -4.46875 C 11.304688 -3.082031 10.273438 -2.085938 9.171875 -1.484375 C 8.078125 -0.890625 6.9375 -0.515625 5.75 -0.359375 C 3.914062 -0.128906 2.351562 -0.519531 1.0625 -1.53125 C -0.21875 -2.539062 -1 -4.203125 -1.28125 -6.515625 C -1.40625 -7.472656 -1.40625 -8.738281 -1.28125 -10.3125 L 0.34375 -29.296875 L 8.640625 -30.328125 L 6.921875 -10.21875 C 6.859375 -9.75 6.859375 -9.265625 6.921875 -8.765625 C 7.128906 -7.066406 7.8125 -6.289062 8.96875 -6.4375 C 9.96875 -6.5625 10.796875 -7.101562 11.453125 -8.0625 C 12.117188 -9.019531 12.59375 -10.238281 12.875 -11.71875 L 14.578125 -31.078125 L 22.875 -32.109375 L 20.484375 -4.65625 C 22.242188 -5.5 23.609375 -6.601562 24.578125 -7.96875 C 25.546875 -9.34375 26.257812 -11.285156 26.71875 -13.796875 L 29.140625 -14.09375 C 28.535156 -10.539062 27.445312 -7.859375 25.875 -6.046875 C 24.300781 -4.242188 22.4375 -2.910156 20.28125 -2.046875 L 19.9375 2.203125 C 19.625 6.023438 18.613281 8.753906 16.90625 10.390625 C 15.207031 12.023438 13.171875 12.988281 10.796875 13.28125 Z M 8.890625 8.953125 C 9.546875 8.867188 10.125 8.347656 10.625 7.390625 C 11.132812 6.429688 11.460938 5.101562 11.609375 3.40625 L 11.734375 1.703125 C 8.140625 3.546875 6.460938 5.414062 6.703125 7.3125 C 6.765625 7.8125 6.992188 8.226562 7.390625 8.5625 C 7.785156 8.894531 8.285156 9.023438 8.890625 8.953125 Z M 8.890625 8.953125 "/></g></g></g><g fill="#00ffff" fill-opacity="1"><g transform="translate(199.148087, 57.925693)"><g><path d="M 13.578125 -41.875 C 10.765625 -40.550781 8.695312 -38.6875 7.375 -36.28125 C 6.0625 -33.875 5.609375 -31.039062 6.015625 -27.78125 C 6.191406 -26.320312 6.445312 -25.34375 6.78125 -24.84375 C 7.125 -24.34375 7.304688 -24.03125 7.328125 -23.90625 C 3.210938 -23.394531 0.9375 -24.890625 0.5 -28.390625 C 0.195312 -30.765625 0.804688 -33.265625 2.328125 -35.890625 C 3.859375 -38.515625 5.960938 -40.765625 8.640625 -42.640625 C 11.316406 -44.523438 14.078125 -45.644531 16.921875 -46 C 18.347656 -46.175781 19.84375 -46.082031 21.40625 -45.71875 L 23.84375 -15.203125 L 32.75 -47.140625 L 41.046875 -48.171875 L 40.265625 -5.015625 L 31.96875 -3.984375 L 32.4375 -30.296875 L 24.84375 -3.09375 L 16.953125 -2.109375 L 14.859375 -28.234375 L 8.46875 -1.046875 L 3.859375 -0.484375 Z M 13.578125 -41.875 "/></g></g></g><g fill="#00ffff" fill-opacity="1"><g transform="translate(245.639697, 52.140486)"><g><path d="M 10.796875 13.28125 C 8.941406 13.507812 7.34375 13.21875 6 12.40625 C 4.65625 11.601562 3.867188 10.304688 3.640625 8.515625 C 3.367188 6.316406 4.03125 4.441406 5.625 2.890625 C 7.21875 1.347656 9.328125 -0.03125 11.953125 -1.25 L 12.265625 -4.46875 C 11.304688 -3.082031 10.273438 -2.085938 9.171875 -1.484375 C 8.078125 -0.890625 6.9375 -0.515625 5.75 -0.359375 C 3.914062 -0.128906 2.351562 -0.519531 1.0625 -1.53125 C -0.21875 -2.539062 -1 -4.203125 -1.28125 -6.515625 C -1.40625 -7.472656 -1.40625 -8.738281 -1.28125 -10.3125 L 0.34375 -29.296875 L 8.640625 -30.328125 L 6.921875 -10.21875 C 6.859375 -9.75 6.859375 -9.265625 6.921875 -8.765625 C 7.128906 -7.066406 7.8125 -6.289062 8.96875 -6.4375 C 9.96875 -6.5625 10.796875 -7.101562 11.453125 -8.0625 C 12.117188 -9.019531 12.59375 -10.238281 12.875 -11.71875 L 14.578125 -31.078125 L 22.875 -32.109375 L 20.484375 -4.65625 C 22.242188 -5.5 23.609375 -6.601562 24.578125 -7.96875 C 25.546875 -9.34375 26.257812 -11.285156 26.71875 -13.796875 L 29.140625 -14.09375 C 28.535156 -10.539062 27.445312 -7.859375 25.875 -6.046875 C 24.300781 -4.242188 22.4375 -2.910156 20.28125 -2.046875 L 19.9375 2.203125 C 19.625 6.023438 18.613281 8.753906 16.90625 10.390625 C 15.207031 12.023438 13.171875 12.988281 10.796875 13.28125 Z M 8.890625 8.953125 C 9.546875 8.867188 10.125 8.347656 10.625 7.390625 C 11.132812 6.429688 11.460938 5.101562 11.609375 3.40625 L 11.734375 1.703125 C 8.140625 3.546875 6.460938 5.414062 6.703125 7.3125 C 6.765625 7.8125 6.992188 8.226562 7.390625 8.5625 C 7.785156 8.894531 8.285156 9.023438 8.890625 8.953125 Z M 8.890625 8.953125 "/></g></g></g><g fill="#fd509d" fill-opacity="1"><g transform="translate(201.309066, 57.656792)"><g><path d="M 13.578125 -41.875 C 10.765625 -40.550781 8.695312 -38.6875 7.375 -36.28125 C 6.0625 -33.875 5.609375 -31.039062 6.015625 -27.78125 C 6.191406 -26.320312 6.445312 -25.34375 6.78125 -24.84375 C 7.125 -24.34375 7.304688 -24.03125 7.328125 -23.90625 C 3.210938 -23.394531 0.9375 -24.890625 0.5 -28.390625 C 0.195312 -30.765625 0.804688 -33.265625 2.328125 -35.890625 C 3.859375 -38.515625 5.960938 -40.765625 8.640625 -42.640625 C 11.316406 -44.523438 14.078125 -45.644531 16.921875 -46 C 18.347656 -46.175781 19.84375 -46.082031 21.40625 -45.71875 L 23.84375 -15.203125 L 32.75 -47.140625 L 41.046875 -48.171875 L 40.265625 -5.015625 L 31.96875 -3.984375 L 32.4375 -30.296875 L 24.84375 -3.09375 L 16.953125 -2.109375 L 14.859375 -28.234375 L 8.46875 -1.046875 L 3.859375 -0.484375 Z M 13.578125 -41.875 "/></g></g></g><g fill="#fd509d" fill-opacity="1"><g transform="translate(247.800676, 51.871585)"><g><path d="M 10.796875 13.28125 C 8.941406 13.507812 7.34375 13.21875 6 12.40625 C 4.65625 11.601562 3.867188 10.304688 3.640625 8.515625 C 3.367188 6.316406 4.03125 4.441406 5.625 2.890625 C 7.21875 1.347656 9.328125 -0.03125 11.953125 -1.25 L 12.265625 -4.46875 C 11.304688 -3.082031 10.273438 -2.085938 9.171875 -1.484375 C 8.078125 -0.890625 6.9375 -0.515625 5.75 -0.359375 C 3.914062 -0.128906 2.351562 -0.519531 1.0625 -1.53125 C -0.21875 -2.539062 -1 -4.203125 -1.28125 -6.515625 C -1.40625 -7.472656 -1.40625 -8.738281 -1.28125 -10.3125 L 0.34375 -29.296875 L 8.640625 -30.328125 L 6.921875 -10.21875 C 6.859375 -9.75 6.859375 -9.265625 6.921875 -8.765625 C 7.128906 -7.066406 7.8125 -6.289062 8.96875 -6.4375 C 9.96875 -6.5625 10.796875 -7.101562 11.453125 -8.0625 C 12.117188 -9.019531 12.59375 -10.238281 12.875 -11.71875 L 14.578125 -31.078125 L 22.875 -32.109375 L 20.484375 -4.65625 C 22.242188 -5.5 23.609375 -6.601562 24.578125 -7.96875 C 25.546875 -9.34375 26.257812 -11.285156 26.71875 -13.796875 L 29.140625 -14.09375 C 28.535156 -10.539062 27.445312 -7.859375 25.875 -6.046875 C 24.300781 -4.242188 22.4375 -2.910156 20.28125 -2.046875 L 19.9375 2.203125 C 19.625 6.023438 18.613281 8.753906 16.90625 10.390625 C 15.207031 12.023438 13.171875 12.988281 10.796875 13.28125 Z M 8.890625 8.953125 C 9.546875 8.867188 10.125 8.347656 10.625 7.390625 C 11.132812 6.429688 11.460938 5.101562 11.609375 3.40625 L 11.734375 1.703125 C 8.140625 3.546875 6.460938 5.414062 6.703125 7.3125 C 6.765625 7.8125 6.992188 8.226562 7.390625 8.5625 C 7.785156 8.894531 8.285156 9.023438 8.890625 8.953125 Z M 8.890625 8.953125 "/></g></g></g></svg>