<svg xmlns="http://www.w3.org/2000/svg" xmlns:xlink="http://www.w3.org/1999/xlink" width="980" zoomAndPan="magnify" viewBox="0 0 735 74.999997" height="100" preserveAspectRatio="xMidYMid meet" version="1.0"><defs><g/><clipPath id="7fcd83b582"><path d="M 0 0 L 137 0 L 137 75 L 0 75 Z M 0 0 " clip-rule="nonzero"/></clipPath><clipPath id="e1969b8ab2"><path d="M -18.902344 189.601562 L -48.847656 -13.703125 L 127.746094 -39.714844 L 157.691406 163.589844 Z M -18.902344 189.601562 " clip-rule="nonzero"/></clipPath><clipPath id="08f1635c98"><path d="M -18.902344 189.601562 L -48.847656 -13.703125 L 127.746094 -39.714844 L 157.691406 163.589844 Z M -18.902344 189.601562 " clip-rule="nonzero"/></clipPath><clipPath id="0a3c1e7077"><path d="M 575 0 L 729 0 L 729 75 L 575 75 Z M 575 0 " clip-rule="nonzero"/></clipPath><clipPath id="15380ba680"><path d="M 704.933594 -48.628906 L 765.363281 146.214844 L 596.308594 198.644531 L 535.875 3.800781 Z M 704.933594 -48.628906 " clip-rule="nonzero"/></clipPath><clipPath id="3e21667de1"><path d="M 704.933594 -48.628906 L 765.363281 146.214844 L 596.308594 198.644531 L 535.875 3.800781 Z M 704.933594 -48.628906 " clip-rule="nonzero"/></clipPath></defs><rect x="-73.5" width="882" fill="#ffffff" y="-7.5" height="89.999996" fill-opacity="1"/><rect x="-73.5" width="882" fill="#000000" y="-7.5" height="89.999996" fill-opacity="1"/><g clip-path="url(#7fcd83b582)"><g clip-path="url(#e1969b8ab2)"><g clip-path="url(#08f1635c98)"><path fill="#00ceff" d="M 61.71875 -28.839844 C 57.054688 -27.148438 52.433594 -23.921875 50.699219 -19.074219 C 49.179688 -14.820312 49.710938 -9.597656 53.09375 -6.371094 C 56.957031 -2.6875 62.46875 -3.378906 67.191406 -4.613281 C 71.996094 -5.867188 76.550781 -7.015625 81.566406 -6.539062 C 86.324219 -6.085938 91.023438 -4.5625 95.089844 -2.03125 C 104.511719 3.84375 109.886719 14.976562 111.820312 25.632812 C 113.636719 35.65625 111.691406 46.804688 104.082031 54.097656 C 102.601562 55.511719 100.964844 56.71875 99.179688 57.703125 C 99.167969 57.679688 99.164062 57.660156 99.15625 57.636719 C 93.136719 44.707031 84.070312 33.28125 72.90625 24.40625 C 67.269531 19.925781 61.078125 16.097656 54.53125 13.089844 C 47.441406 9.828125 39.507812 7.570312 31.679688 9.082031 C 24.078125 10.550781 17.328125 15.011719 12.332031 20.84375 C 7.148438 26.894531 4.835938 34.34375 5.734375 42.269531 C 7.359375 56.578125 16.980469 69.609375 28.65625 77.554688 C 41.328125 86.183594 57.082031 89.332031 72.207031 87.527344 C 73.246094 87.40625 74.28125 87.25 75.3125 87.078125 C 71.6875 98.960938 64.078125 109.558594 54.152344 116.992188 C 51.824219 118.734375 49.371094 120.28125 46.8125 121.640625 C 44.816406 110.203125 38.917969 99.582031 30.222656 91.851562 C 21.335938 83.953125 9.441406 79.308594 -2.441406 79.0625 C -8.785156 78.929688 -15.480469 79.835938 -20.535156 83.996094 C -24.800781 87.507812 -27.449219 92.695312 -28.355469 98.097656 C -30.441406 110.5625 -22.5 122.226562 -12.6875 129.085938 C -6.882812 133.140625 -0.304688 135.960938 6.359375 138.277344 C 13.066406 140.613281 19.957031 142.363281 27.0625 142.472656 C 27.441406 148.4375 24.53125 154.066406 20.894531 158.652344 C 17.398438 163.0625 11.863281 167.792969 13.511719 174.117188 C 15.148438 180.390625 22.328125 183.503906 28.3125 182.066406 C 34.871094 180.496094 40.023438 175.257812 43.746094 169.878906 C 47.898438 163.882812 50.539062 156.898438 51.390625 149.65625 C 51.433594 149.273438 51.371094 148.945312 51.25 148.664062 C 72.054688 140.15625 88.660156 122.300781 96.269531 101.210938 C 98.476562 95.09375 99.933594 88.699219 100.535156 82.226562 C 100.550781 82.066406 100.546875 81.917969 100.53125 81.777344 C 100.84375 81.921875 101.226562 81.96875 101.667969 81.871094 C 111.207031 79.738281 119.484375 74.070312 125.554688 66.480469 C 131.984375 58.4375 135.644531 48.527344 136.492188 38.296875 C 137.441406 26.839844 135.140625 15.273438 130.878906 4.65625 C 126.777344 -5.578125 120.835938 -15.628906 111.246094 -21.558594 C 106.484375 -24.503906 101.230469 -26.53125 95.882812 -28.109375 C 90.226562 -29.773438 84.394531 -30.925781 78.492188 -31.125 C 72.851562 -31.3125 67.054688 -30.773438 61.71875 -28.839844 Z M 33.273438 13.03125 C 32.664062 13.035156 32.054688 13.070312 31.445312 13.113281 C 33.261719 12.710938 35.09375 12.535156 36.925781 12.542969 C 35.699219 12.652344 34.484375 12.820312 33.273438 13.03125 Z M 45.679688 14.105469 C 45.664062 14.101562 45.652344 14.105469 45.636719 14.105469 C 44.960938 13.910156 44.28125 13.730469 43.59375 13.574219 C 43.574219 13.488281 43.542969 13.40625 43.507812 13.324219 C 45.117188 13.6875 46.714844 14.164062 48.285156 14.722656 C 47.425781 14.484375 46.558594 14.273438 45.679688 14.105469 Z M 36.859375 20.140625 C 36.671875 20.195312 36.480469 20.246094 36.292969 20.296875 C 35.945312 20.324219 35.597656 20.355469 35.253906 20.386719 C 35.335938 20.273438 35.410156 20.148438 35.46875 20.019531 C 35.480469 19.992188 35.484375 19.964844 35.496094 19.9375 C 35.949219 19.988281 36.40625 20.058594 36.859375 20.140625 Z M 17.273438 21.199219 C 17.101562 21.464844 16.957031 21.742188 16.800781 22.015625 C 16.046875 22.664062 15.332031 23.355469 14.671875 24.097656 C 15.476562 23.078125 16.351562 22.113281 17.273438 21.199219 Z M -9.832031 83.453125 C -12.023438 84.257812 -14.210938 85.058594 -16.398438 85.863281 C -14.402344 84.65625 -12.164062 83.898438 -9.832031 83.453125 Z M 7.617188 84.863281 C 6.351562 84.34375 5.035156 83.949219 3.695312 83.675781 C 3.65625 83.605469 3.609375 83.539062 3.554688 83.476562 C 5.445312 83.773438 7.324219 84.191406 9.167969 84.714844 C 8.695312 84.761719 8.226562 84.828125 7.757812 84.929688 C 7.710938 84.910156 7.664062 84.882812 7.617188 84.863281 Z M -20.785156 89.886719 C -20.570312 90.046875 -20.304688 90.132812 -20.015625 90.15625 C -21.027344 91.117188 -21.96875 92.152344 -22.820312 93.265625 C -22.257812 92.074219 -21.574219 90.941406 -20.785156 89.886719 Z M 34.496094 102.324219 C 33.222656 100.800781 31.84375 99.363281 30.375 98.023438 C 29.863281 97.234375 29.3125 96.476562 28.722656 95.75 C 30.851562 97.757812 32.78125 99.964844 34.496094 102.324219 Z M -20.519531 103.265625 C -20.410156 102.75 -20.308594 102.230469 -20.175781 101.71875 C -19.945312 101.144531 -19.75 100.550781 -19.542969 99.964844 C -19.316406 99.652344 -19.078125 99.351562 -18.828125 99.058594 C -19.269531 100.355469 -19.710938 101.648438 -20.152344 102.945312 C -20.238281 103.058594 -20.316406 103.179688 -20.40625 103.289062 C -20.445312 103.28125 -20.480469 103.273438 -20.519531 103.265625 Z M -8.871094 100.6875 C -8.609375 100.519531 -8.347656 100.351562 -8.085938 100.175781 C -8.269531 100.738281 -8.367188 101.332031 -8.386719 101.945312 C -8.550781 101.527344 -8.703125 101.105469 -8.871094 100.6875 Z M -10.550781 104.875 C -10.824219 104.253906 -11.117188 103.636719 -11.433594 103.03125 C -11.339844 102.984375 -11.242188 102.941406 -11.148438 102.890625 C -10.785156 103.8125 -10.429688 104.734375 -10.101562 105.667969 C -10.253906 105.402344 -10.398438 105.140625 -10.550781 104.875 Z M -4.066406 112.257812 C -4.519531 111.800781 -4.976562 111.347656 -5.449219 110.90625 C -5.578125 110.421875 -5.710938 109.9375 -5.847656 109.457031 C -5.046875 110.519531 -4.09375 111.453125 -3.050781 112.300781 C -3.328125 112.277344 -3.574219 112.339844 -3.78125 112.464844 C -3.875 112.394531 -3.972656 112.328125 -4.066406 112.257812 Z M -0.753906 121.175781 C -0.898438 121.125 -1.039062 121.101562 -1.171875 121.089844 C -1.203125 121.0625 -1.234375 121.03125 -1.261719 121.003906 C -1.277344 120.8125 -1.328125 120.625 -1.425781 120.445312 C -0.773438 120.847656 -0.113281 121.242188 0.550781 121.632812 C 0.117188 121.480469 -0.320312 121.332031 -0.753906 121.175781 Z M 9.898438 115.078125 C 5.617188 113.066406 0.414062 111.171875 -2.582031 107.320312 C -3.273438 106.429688 -3.847656 105.425781 -4.183594 104.34375 C -4.40625 103.628906 -4.839844 101.96875 -4.394531 101.269531 C -3.972656 100.597656 -2.402344 100.230469 -1.652344 100.058594 C -0.445312 99.785156 0.769531 99.78125 1.976562 100.046875 C 6.511719 101.035156 10.1875 105.085938 13.207031 108.347656 C 16.417969 111.820312 19.304688 115.59375 21.8125 119.605469 C 17.691406 118.554688 13.75 116.886719 9.898438 115.078125 Z M 20.097656 174.488281 C 19.679688 174.71875 19.246094 174.921875 18.792969 175.085938 C 18.574219 175.167969 18.492188 175.335938 18.5 175.507812 C 18.296875 175.257812 18.109375 174.996094 17.945312 174.71875 C 18.402344 175.058594 19.023438 175.132812 19.613281 174.65625 C 19.710938 174.578125 19.804688 174.492188 19.902344 174.414062 C 19.964844 174.445312 20.03125 174.46875 20.097656 174.488281 Z M 29.550781 167.632812 C 28.984375 167.941406 28.410156 168.238281 27.835938 168.527344 C 27.84375 168.488281 27.847656 168.453125 27.847656 168.417969 C 28.316406 167.953125 28.785156 167.492188 29.253906 167.03125 C 29.519531 166.800781 29.773438 166.5625 30.019531 166.3125 C 30.238281 166.246094 30.457031 166.1875 30.675781 166.125 C 30.320312 166.644531 29.945312 167.144531 29.550781 167.632812 Z M 22.359375 163.0625 C 21.496094 164.1875 20.691406 165.351562 20 166.589844 C 19.9375 166.679688 19.875 166.773438 19.8125 166.863281 C 19.390625 167.230469 18.96875 167.597656 18.5625 167.980469 C 18.128906 168.394531 18.011719 168.949219 18.117188 169.445312 C 17.808594 169.9375 17.511719 170.4375 17.210938 170.9375 C 17.519531 169.128906 18.628906 167.460938 19.730469 166.046875 C 20.566406 164.972656 21.457031 163.949219 22.34375 162.921875 C 22.347656 162.96875 22.355469 163.015625 22.359375 163.0625 Z M 49.125 144.960938 L 48.921875 145.402344 C 48.785156 145.457031 48.648438 145.515625 48.511719 145.570312 C 48.574219 145.191406 48.640625 144.8125 48.699219 144.433594 C 48.714844 144.425781 48.734375 144.417969 48.75 144.40625 C 48.835938 144.613281 48.964844 144.800781 49.125 144.960938 Z M 25.804688 131.8125 C 26.675781 131.921875 27.542969 132.035156 28.414062 132.144531 C 29.367188 132.289062 30.316406 132.421875 31.273438 132.539062 C 31.230469 132.605469 31.191406 132.671875 31.148438 132.738281 C 29.839844 132.492188 28.523438 132.28125 27.199219 132.105469 C 26.679688 132.007812 26.15625 131.914062 25.636719 131.808594 C 25.695312 131.808594 25.75 131.8125 25.804688 131.8125 Z M 9.300781 134.898438 C 9.441406 135.074219 9.613281 135.226562 9.84375 135.316406 C 10.175781 135.441406 10.511719 135.554688 10.84375 135.671875 C 10.53125 135.574219 10.21875 135.476562 9.910156 135.375 C 8.828125 135.019531 7.746094 134.648438 6.667969 134.269531 C 7.542969 134.496094 8.421875 134.699219 9.300781 134.898438 Z M 11.503906 131.800781 C 11.4375 131.800781 11.375 131.796875 11.316406 131.804688 C 10.71875 131.722656 10.125 131.640625 9.535156 131.519531 C 9.207031 131.339844 8.878906 131.160156 8.550781 130.972656 C 9.53125 131.265625 10.511719 131.542969 11.503906 131.800781 Z M 70.539062 108.871094 C 71.046875 107.894531 71.550781 106.917969 72.054688 105.941406 C 72.214844 105.863281 72.367188 105.777344 72.523438 105.695312 C 71.875 106.761719 71.214844 107.820312 70.539062 108.871094 Z M 74.46875 101.996094 C 74.230469 102.210938 73.992188 102.421875 73.757812 102.648438 L 74.933594 100.375 Z M 94.097656 95.1875 C 94.125 94.410156 94.140625 93.628906 94.144531 92.851562 C 94.367188 92.847656 94.585938 92.78125 94.78125 92.675781 C 94.570312 93.519531 94.339844 94.355469 94.097656 95.1875 Z M 66.789062 45.300781 C 66.25 44.722656 65.707031 44.144531 65.144531 43.589844 C 64.730469 43.183594 64.304688 42.78125 63.875 42.382812 C 64.644531 42.933594 65.414062 43.484375 66.1875 44.035156 C 66.386719 44.457031 66.585938 44.878906 66.789062 45.300781 Z M 76.753906 32.921875 C 76.535156 33.089844 76.355469 33.292969 76.21875 33.519531 C 76.019531 33.292969 75.820312 33.0625 75.621094 32.832031 C 75.21875 32.15625 74.824219 31.480469 74.410156 30.808594 C 74.324219 30.667969 74.175781 30.621094 74.027344 30.632812 C 73.558594 30.152344 73.089844 29.679688 72.617188 29.207031 C 74.03125 30.402344 75.414062 31.640625 76.753906 32.921875 Z M 10.914062 48.035156 C 10.554688 46.890625 10.261719 45.722656 10.027344 44.542969 C 10.191406 44.453125 10.339844 44.339844 10.46875 44.195312 C 10.480469 44.445312 10.496094 44.699219 10.515625 44.949219 C 10.617188 46.164062 10.816406 47.355469 11.082031 48.53125 C 11.03125 48.367188 10.964844 48.203125 10.914062 48.035156 Z M 21.816406 50.648438 C 22.148438 51.324219 22.5 51.988281 22.898438 52.621094 C 22.671875 52.714844 22.464844 52.839844 22.277344 52.992188 C 22.097656 52.214844 21.945312 51.433594 21.816406 50.648438 Z M 38.414062 57.125 C 38.425781 56.988281 38.421875 56.851562 38.402344 56.710938 C 38.972656 57.09375 39.546875 57.464844 40.128906 57.816406 C 39.558594 57.582031 38.988281 57.355469 38.414062 57.125 Z M 22.515625 67.324219 C 22.558594 67.191406 22.585938 67.058594 22.601562 66.917969 C 22.8125 67.15625 23.035156 67.386719 23.25 67.625 C 23.167969 67.679688 23.089844 67.746094 23.019531 67.816406 C 22.855469 67.648438 22.679688 67.492188 22.515625 67.324219 Z M 52.167969 59.421875 C 48.460938 57.96875 44.851562 56.203125 41.496094 54.054688 C 38.359375 52.046875 35.226562 49.578125 33.546875 46.167969 C 32.210938 43.457031 31.972656 40.089844 33.410156 37.355469 C 35.132812 34.078125 38.8125 33.601562 42.136719 34.265625 C 45.75 34.980469 49.3125 36.789062 52.457031 38.660156 C 55.65625 40.566406 58.652344 42.8125 61.382812 45.339844 C 66.925781 50.476562 71.234375 56.863281 74.035156 63.867188 C 66.550781 63.625 59.152344 62.15625 52.167969 59.421875 Z M 83.761719 62.023438 C 84.015625 61.917969 84.246094 61.757812 84.4375 61.5625 C 84.492188 62.289062 84.550781 63.019531 84.609375 63.75 C 84.328125 63.175781 84.046875 62.597656 83.761719 62.023438 Z M 106.074219 76.125 C 106.308594 76.007812 106.539062 75.875 106.773438 75.753906 C 106.804688 75.757812 106.835938 75.765625 106.867188 75.769531 C 107.046875 75.800781 107.226562 75.839844 107.402344 75.898438 C 107.367188 75.929688 107.328125 75.960938 107.292969 75.992188 C 106.851562 76.183594 106.40625 76.363281 105.957031 76.535156 C 106.023438 76.410156 106.046875 76.265625 106.074219 76.125 Z M 113.429688 72.570312 C 113.441406 72.550781 113.457031 72.535156 113.46875 72.515625 C 113.671875 72.316406 113.875 72.113281 114.078125 71.914062 C 114.128906 71.863281 114.15625 71.808594 114.183594 71.753906 C 114.550781 71.578125 114.914062 71.402344 115.277344 71.226562 C 114.675781 71.691406 114.058594 72.140625 113.429688 72.570312 Z M 119.6875 67.289062 C 119.675781 67.25 119.664062 67.214844 119.648438 67.179688 C 119.71875 67.101562 119.785156 67.019531 119.855469 66.941406 C 120.3125 66.472656 120.746094 65.988281 121.160156 65.488281 C 121.273438 65.429688 121.382812 65.363281 121.496094 65.300781 C 120.910156 65.980469 120.3125 66.644531 119.6875 67.289062 Z M 95.976562 59.761719 C 95.980469 59.808594 95.976562 59.851562 95.984375 59.898438 C 95.894531 59.753906 95.800781 59.617188 95.710938 59.472656 C 94.925781 58.019531 94.089844 56.59375 93.199219 55.191406 C 93.269531 55.03125 93.316406 54.859375 93.332031 54.679688 C 93.347656 54.707031 93.359375 54.730469 93.375 54.753906 C 94.15625 56.21875 94.894531 57.703125 95.59375 59.207031 C 95.699219 59.433594 95.832031 59.613281 95.976562 59.761719 Z M 55.078125 -9.980469 C 55.257812 -9.996094 55.4375 -10.039062 55.609375 -10.105469 C 55.789062 -9.636719 56.015625 -9.179688 56.289062 -8.734375 C 55.8125 -9.09375 55.414062 -9.515625 55.078125 -9.980469 Z M 112.074219 -16.246094 C 111.175781 -16.699219 110.273438 -17.136719 109.367188 -17.558594 C 109.429688 -17.71875 109.472656 -17.886719 109.5 -18.054688 C 110.382812 -17.492188 111.238281 -16.886719 112.074219 -16.246094 Z M 60.578125 -15.65625 C 60.402344 -15.539062 60.226562 -15.429688 60.058594 -15.296875 C 59.632812 -14.960938 59.417969 -14.566406 59.347656 -14.164062 C 59.25 -14.128906 59.15625 -14.089844 59.058594 -14.054688 C 59.109375 -14.359375 59.191406 -14.660156 59.292969 -14.953125 C 59.765625 -15.503906 60.269531 -16.023438 60.800781 -16.515625 C 60.652344 -16.261719 60.582031 -15.960938 60.578125 -15.65625 Z M 77.445312 -27.261719 C 77.425781 -27.222656 77.40625 -27.191406 77.390625 -27.152344 C 75.230469 -27.167969 73.066406 -27.109375 70.910156 -26.957031 C 73.078125 -27.21875 75.261719 -27.300781 77.445312 -27.261719 Z M 77.445312 -27.261719 " fill-opacity="1" fill-rule="nonzero"/></g></g></g><g fill="#ff00ff" fill-opacity="1"><g transform="translate(283.275095, 68.903447)"><g><path d="M 16.921875 1.140625 C 11.566406 1.140625 7.628906 -0.207031 5.109375 -2.90625 C 2.597656 -5.613281 1.34375 -10.097656 1.34375 -16.359375 C 1.34375 -21.328125 2.1875 -26.675781 3.875 -32.40625 C 5.5625 -38.144531 8.265625 -43.066406 11.984375 -47.171875 C 15.703125 -51.273438 20.425781 -53.328125 26.15625 -53.328125 C 29.71875 -53.328125 32.585938 -52.539062 34.765625 -50.96875 C 36.941406 -49.40625 38.03125 -47.015625 38.03125 -43.796875 C 38.03125 -41.753906 37.628906 -40.148438 36.828125 -38.984375 C 36.023438 -37.828125 34.769531 -37.25 33.0625 -37.25 C 31.351562 -37.25 30 -37.867188 29 -39.109375 C 29.851562 -39.523438 30.613281 -40.375 31.28125 -41.65625 C 31.945312 -42.9375 32.28125 -44.265625 32.28125 -45.640625 C 32.28125 -46.921875 31.9375 -47.960938 31.25 -48.765625 C 30.5625 -49.578125 29.457031 -49.984375 27.9375 -49.984375 C 25.425781 -49.984375 23.03125 -48.265625 20.75 -44.828125 C 18.476562 -41.390625 16.644531 -37.0625 15.25 -31.84375 C 13.851562 -26.632812 13.15625 -21.613281 13.15625 -16.78125 C 13.15625 -13.175781 13.769531 -10.425781 15 -8.53125 C 16.226562 -6.632812 18.457031 -5.6875 21.6875 -5.6875 C 24.476562 -5.6875 27.054688 -6.300781 29.421875 -7.53125 C 31.796875 -8.769531 33.835938 -10.523438 35.546875 -12.796875 L 37.1875 -12.09375 C 36 -9.101562 34.242188 -6.613281 31.921875 -4.625 C 29.597656 -2.632812 27.109375 -1.175781 24.453125 -0.25 C 21.796875 0.675781 19.285156 1.140625 16.921875 1.140625 Z M 16.921875 1.140625 "/></g></g></g><g fill="#ff00ff" fill-opacity="1"><g transform="translate(320.028106, 68.903447)"><g><path d="M 8.53125 0.421875 C 5.832031 0.421875 3.582031 -0.5 1.78125 -2.34375 C -0.0195312 -4.195312 -0.921875 -7.085938 -0.921875 -11.015625 C -0.921875 -14.523438 -0.222656 -18.210938 1.171875 -22.078125 C 2.566406 -25.941406 4.648438 -29.210938 7.421875 -31.890625 C 10.203125 -34.566406 13.507812 -35.90625 17.34375 -35.90625 C 19.289062 -35.90625 20.738281 -35.570312 21.6875 -34.90625 C 22.632812 -34.238281 23.109375 -33.363281 23.109375 -32.28125 L 23.109375 -31.78125 L 23.890625 -35.546875 L 34.125 -35.546875 L 29 -11.375 C 28.8125 -10.664062 28.71875 -9.90625 28.71875 -9.09375 C 28.71875 -7.0625 29.691406 -6.046875 31.640625 -6.046875 C 32.960938 -6.046875 34.109375 -6.660156 35.078125 -7.890625 C 36.054688 -9.117188 36.828125 -10.726562 37.390625 -12.71875 L 40.375 -12.71875 C 38.625 -7.601562 36.457031 -4.132812 33.875 -2.3125 C 31.289062 -0.488281 28.695312 0.421875 26.09375 0.421875 C 24.101562 0.421875 22.503906 -0.132812 21.296875 -1.25 C 20.085938 -2.363281 19.363281 -3.984375 19.125 -6.109375 C 17.75 -4.171875 16.21875 -2.597656 14.53125 -1.390625 C 12.851562 -0.179688 10.851562 0.421875 8.53125 0.421875 Z M 13.15625 -6.46875 C 14.34375 -6.46875 15.515625 -7.023438 16.671875 -8.140625 C 17.828125 -9.253906 18.617188 -10.78125 19.046875 -12.71875 L 22.46875 -28.796875 C 22.46875 -29.410156 22.226562 -30.015625 21.75 -30.609375 C 21.28125 -31.203125 20.546875 -31.5 19.546875 -31.5 C 17.648438 -31.5 15.941406 -30.394531 14.421875 -28.1875 C 12.910156 -25.988281 11.726562 -23.332031 10.875 -20.21875 C 10.019531 -17.113281 9.59375 -14.378906 9.59375 -12.015625 C 9.59375 -9.640625 9.9375 -8.117188 10.625 -7.453125 C 11.3125 -6.796875 12.15625 -6.46875 13.15625 -6.46875 Z M 13.15625 -6.46875 "/></g></g></g><g fill="#ff00ff" fill-opacity="1"><g transform="translate(358.842688, 68.903447)"><g><path d="M 7.03125 0.421875 C 4.757812 0.421875 2.925781 -0.285156 1.53125 -1.703125 C 0.132812 -3.128906 -0.5625 -5.265625 -0.5625 -8.109375 C -0.5625 -9.285156 -0.375 -10.820312 0 -12.71875 L 7.609375 -48.34375 L 18.125 -49.765625 L 9.953125 -11.375 C 9.765625 -10.664062 9.671875 -9.90625 9.671875 -9.09375 C 9.671875 -8.144531 9.894531 -7.46875 10.34375 -7.0625 C 10.789062 -6.664062 11.535156 -6.46875 12.578125 -6.46875 C 13.953125 -6.46875 15.234375 -7.046875 16.421875 -8.203125 C 17.609375 -9.367188 18.460938 -10.875 18.984375 -12.71875 L 21.96875 -12.71875 C 20.21875 -7.601562 17.96875 -4.132812 15.21875 -2.3125 C 12.46875 -0.488281 9.738281 0.421875 7.03125 0.421875 Z M 7.03125 0.421875 "/></g></g></g><g fill="#ff00ff" fill-opacity="1"><g transform="translate(379.245283, 68.903447)"><g><path d="M 10.171875 0.421875 C 6.660156 0.421875 3.929688 -0.488281 1.984375 -2.3125 C 0.046875 -4.132812 -0.921875 -6.988281 -0.921875 -10.875 C -0.921875 -14.144531 -0.28125 -17.742188 1 -21.671875 C 2.28125 -25.609375 4.363281 -29.007812 7.25 -31.875 C 10.144531 -34.75 13.816406 -36.1875 18.265625 -36.1875 C 23.484375 -36.1875 26.09375 -33.910156 26.09375 -29.359375 C 26.09375 -26.703125 25.332031 -24.257812 23.8125 -22.03125 C 22.300781 -19.8125 20.285156 -18.023438 17.765625 -16.671875 C 15.253906 -15.316406 12.578125 -14.546875 9.734375 -14.359375 C 9.640625 -12.941406 9.59375 -11.992188 9.59375 -11.515625 C 9.59375 -9.191406 9.992188 -7.613281 10.796875 -6.78125 C 11.609375 -5.957031 12.914062 -5.546875 14.71875 -5.546875 C 17.28125 -5.546875 19.472656 -6.132812 21.296875 -7.3125 C 23.117188 -8.5 25.117188 -10.300781 27.296875 -12.71875 L 29.71875 -12.71875 C 24.457031 -3.957031 17.941406 0.421875 10.171875 0.421875 Z M 10.3125 -17.78125 C 12.0625 -17.875 13.726562 -18.488281 15.3125 -19.625 C 16.90625 -20.757812 18.1875 -22.203125 19.15625 -23.953125 C 20.132812 -25.710938 20.625 -27.5625 20.625 -29.5 C 20.625 -31.445312 20.03125 -32.421875 18.84375 -32.421875 C 17.132812 -32.421875 15.460938 -30.925781 13.828125 -27.9375 C 12.191406 -24.957031 11.019531 -21.570312 10.3125 -17.78125 Z M 10.3125 -17.78125 "/></g></g></g><g fill="#ff00ff" fill-opacity="1"><g transform="translate(407.965269, 68.903447)"><g><path d="M 25.671875 0.421875 C 22.773438 0.421875 20.648438 -0.34375 19.296875 -1.875 C 17.953125 -3.414062 17.28125 -5.328125 17.28125 -7.609375 C 17.28125 -8.597656 17.394531 -9.722656 17.625 -10.984375 C 17.863281 -12.242188 18.113281 -13.460938 18.375 -14.640625 C 18.632812 -15.828125 18.8125 -16.585938 18.90625 -16.921875 C 19.289062 -18.578125 19.644531 -20.210938 19.96875 -21.828125 C 20.300781 -23.441406 20.46875 -24.742188 20.46875 -25.734375 C 20.46875 -28.148438 19.617188 -29.359375 17.921875 -29.359375 C 16.679688 -29.359375 15.585938 -28.753906 14.640625 -27.546875 C 13.691406 -26.335938 12.9375 -24.765625 12.375 -22.828125 L 7.53125 0 L -2.703125 0 L 4.828125 -35.546875 L 15.078125 -35.546875 L 14.296875 -31.84375 C 16.660156 -34.5 19.429688 -35.828125 22.609375 -35.828125 C 25.023438 -35.828125 26.941406 -35.160156 28.359375 -33.828125 C 29.785156 -32.503906 30.5 -30.492188 30.5 -27.796875 C 30.5 -26.421875 30.332031 -24.890625 30 -23.203125 C 29.664062 -21.523438 29.191406 -19.476562 28.578125 -17.0625 C 28.203125 -15.59375 27.859375 -14.160156 27.546875 -12.765625 C 27.242188 -11.367188 27.09375 -10.265625 27.09375 -9.453125 C 27.09375 -8.503906 27.300781 -7.769531 27.71875 -7.25 C 28.144531 -6.726562 28.882812 -6.46875 29.9375 -6.46875 C 31.351562 -6.46875 32.488281 -6.976562 33.34375 -8 C 34.195312 -9.019531 35.050781 -10.59375 35.90625 -12.71875 L 38.890625 -12.71875 C 37.140625 -7.507812 35.113281 -4.015625 32.8125 -2.234375 C 30.507812 -0.460938 28.128906 0.421875 25.671875 0.421875 Z M 25.671875 0.421875 "/></g></g></g><g fill="#ff00ff" fill-opacity="1"><g transform="translate(445.286993, 68.903447)"><g><path d="M 8.53125 0.421875 C 5.832031 0.421875 3.582031 -0.5 1.78125 -2.34375 C -0.0195312 -4.195312 -0.921875 -7.085938 -0.921875 -11.015625 C -0.921875 -14.523438 -0.222656 -18.210938 1.171875 -22.078125 C 2.566406 -25.941406 4.648438 -29.210938 7.421875 -31.890625 C 10.203125 -34.566406 13.507812 -35.90625 17.34375 -35.90625 C 19.289062 -35.90625 20.738281 -35.570312 21.6875 -34.90625 C 22.632812 -34.238281 23.109375 -33.363281 23.109375 -32.28125 L 23.109375 -32 L 26.59375 -48.34375 L 37.109375 -49.765625 L 28.9375 -11.375 C 28.75 -10.664062 28.65625 -9.90625 28.65625 -9.09375 C 28.65625 -8.144531 28.878906 -7.46875 29.328125 -7.0625 C 29.773438 -6.664062 30.519531 -6.46875 31.5625 -6.46875 C 32.894531 -6.46875 34.046875 -7.035156 35.015625 -8.171875 C 35.984375 -9.304688 36.753906 -10.820312 37.328125 -12.71875 L 40.3125 -12.71875 C 37.414062 -4.238281 32.648438 0 26.015625 0 C 24.078125 0 22.503906 -0.519531 21.296875 -1.5625 C 20.085938 -2.601562 19.335938 -4.117188 19.046875 -6.109375 C 17.816406 -4.210938 16.335938 -2.648438 14.609375 -1.421875 C 12.878906 -0.191406 10.851562 0.421875 8.53125 0.421875 Z M 13.15625 -6.46875 C 14.289062 -6.46875 15.4375 -6.988281 16.59375 -8.03125 C 17.757812 -9.070312 18.554688 -10.519531 18.984375 -12.375 L 18.984375 -12.71875 L 22.46875 -29 C 22.039062 -30.664062 21.066406 -31.5 19.546875 -31.5 C 17.648438 -31.5 15.941406 -30.394531 14.421875 -28.1875 C 12.910156 -25.988281 11.726562 -23.332031 10.875 -20.21875 C 10.019531 -17.113281 9.59375 -14.378906 9.59375 -12.015625 C 9.59375 -9.640625 9.9375 -8.117188 10.625 -7.453125 C 11.3125 -6.796875 12.15625 -6.46875 13.15625 -6.46875 Z M 13.15625 -6.46875 "/></g></g></g><g fill="#ff00ff" fill-opacity="1"><g transform="translate(484.03048, 68.903447)"><g><path d="M 8.53125 0.421875 C 5.832031 0.421875 3.582031 -0.5 1.78125 -2.34375 C -0.0195312 -4.195312 -0.921875 -7.085938 -0.921875 -11.015625 C -0.921875 -14.523438 -0.222656 -18.210938 1.171875 -22.078125 C 2.566406 -25.941406 4.648438 -29.210938 7.421875 -31.890625 C 10.203125 -34.566406 13.507812 -35.90625 17.34375 -35.90625 C 19.289062 -35.90625 20.738281 -35.570312 21.6875 -34.90625 C 22.632812 -34.238281 23.109375 -33.363281 23.109375 -32.28125 L 23.109375 -31.78125 L 23.890625 -35.546875 L 34.125 -35.546875 L 29 -11.375 C 28.8125 -10.664062 28.71875 -9.90625 28.71875 -9.09375 C 28.71875 -7.0625 29.691406 -6.046875 31.640625 -6.046875 C 32.960938 -6.046875 34.109375 -6.660156 35.078125 -7.890625 C 36.054688 -9.117188 36.828125 -10.726562 37.390625 -12.71875 L 40.375 -12.71875 C 38.625 -7.601562 36.457031 -4.132812 33.875 -2.3125 C 31.289062 -0.488281 28.695312 0.421875 26.09375 0.421875 C 24.101562 0.421875 22.503906 -0.132812 21.296875 -1.25 C 20.085938 -2.363281 19.363281 -3.984375 19.125 -6.109375 C 17.75 -4.171875 16.21875 -2.597656 14.53125 -1.390625 C 12.851562 -0.179688 10.851562 0.421875 8.53125 0.421875 Z M 13.15625 -6.46875 C 14.34375 -6.46875 15.515625 -7.023438 16.671875 -8.140625 C 17.828125 -9.253906 18.617188 -10.78125 19.046875 -12.71875 L 22.46875 -28.796875 C 22.46875 -29.410156 22.226562 -30.015625 21.75 -30.609375 C 21.28125 -31.203125 20.546875 -31.5 19.546875 -31.5 C 17.648438 -31.5 15.941406 -30.394531 14.421875 -28.1875 C 12.910156 -25.988281 11.726562 -23.332031 10.875 -20.21875 C 10.019531 -17.113281 9.59375 -14.378906 9.59375 -12.015625 C 9.59375 -9.640625 9.9375 -8.117188 10.625 -7.453125 C 11.3125 -6.796875 12.15625 -6.46875 13.15625 -6.46875 Z M 13.15625 -6.46875 "/></g></g></g><g fill="#ff00ff" fill-opacity="1"><g transform="translate(522.845057, 68.903447)"><g><path d="M 4.828125 -35.546875 L 15.078125 -35.546875 L 14.140625 -31.140625 C 15.753906 -32.554688 17.210938 -33.644531 18.515625 -34.40625 C 19.816406 -35.164062 21.226562 -35.546875 22.75 -35.546875 C 24.269531 -35.546875 25.46875 -35.023438 26.34375 -33.984375 C 27.21875 -32.941406 27.65625 -31.6875 27.65625 -30.21875 C 27.65625 -28.84375 27.203125 -27.632812 26.296875 -26.59375 C 25.398438 -25.550781 24.144531 -25.03125 22.53125 -25.03125 C 21.488281 -25.03125 20.789062 -25.273438 20.4375 -25.765625 C 20.082031 -26.265625 19.8125 -26.988281 19.625 -27.9375 C 19.476562 -28.550781 19.332031 -29 19.1875 -29.28125 C 19.050781 -29.570312 18.789062 -29.71875 18.40625 -29.71875 C 17.414062 -29.71875 16.578125 -29.515625 15.890625 -29.109375 C 15.203125 -28.710938 14.3125 -28.015625 13.21875 -27.015625 L 7.53125 0 L -2.703125 0 Z M 4.828125 -35.546875 "/></g></g></g><g fill="#00ffff" fill-opacity="1"><g transform="translate(277.942888, 68.903447)"><g><path d="M 16.921875 1.140625 C 11.566406 1.140625 7.628906 -0.207031 5.109375 -2.90625 C 2.597656 -5.613281 1.34375 -10.097656 1.34375 -16.359375 C 1.34375 -21.328125 2.1875 -26.675781 3.875 -32.40625 C 5.5625 -38.144531 8.265625 -43.066406 11.984375 -47.171875 C 15.703125 -51.273438 20.425781 -53.328125 26.15625 -53.328125 C 29.71875 -53.328125 32.585938 -52.539062 34.765625 -50.96875 C 36.941406 -49.40625 38.03125 -47.015625 38.03125 -43.796875 C 38.03125 -41.753906 37.628906 -40.148438 36.828125 -38.984375 C 36.023438 -37.828125 34.769531 -37.25 33.0625 -37.25 C 31.351562 -37.25 30 -37.867188 29 -39.109375 C 29.851562 -39.523438 30.613281 -40.375 31.28125 -41.65625 C 31.945312 -42.9375 32.28125 -44.265625 32.28125 -45.640625 C 32.28125 -46.921875 31.9375 -47.960938 31.25 -48.765625 C 30.5625 -49.578125 29.457031 -49.984375 27.9375 -49.984375 C 25.425781 -49.984375 23.03125 -48.265625 20.75 -44.828125 C 18.476562 -41.390625 16.644531 -37.0625 15.25 -31.84375 C 13.851562 -26.632812 13.15625 -21.613281 13.15625 -16.78125 C 13.15625 -13.175781 13.769531 -10.425781 15 -8.53125 C 16.226562 -6.632812 18.457031 -5.6875 21.6875 -5.6875 C 24.476562 -5.6875 27.054688 -6.300781 29.421875 -7.53125 C 31.796875 -8.769531 33.835938 -10.523438 35.546875 -12.796875 L 37.1875 -12.09375 C 36 -9.101562 34.242188 -6.613281 31.921875 -4.625 C 29.597656 -2.632812 27.109375 -1.175781 24.453125 -0.25 C 21.796875 0.675781 19.285156 1.140625 16.921875 1.140625 Z M 16.921875 1.140625 "/></g></g></g><g fill="#00ffff" fill-opacity="1"><g transform="translate(314.695899, 68.903447)"><g><path d="M 8.53125 0.421875 C 5.832031 0.421875 3.582031 -0.5 1.78125 -2.34375 C -0.0195312 -4.195312 -0.921875 -7.085938 -0.921875 -11.015625 C -0.921875 -14.523438 -0.222656 -18.210938 1.171875 -22.078125 C 2.566406 -25.941406 4.648438 -29.210938 7.421875 -31.890625 C 10.203125 -34.566406 13.507812 -35.90625 17.34375 -35.90625 C 19.289062 -35.90625 20.738281 -35.570312 21.6875 -34.90625 C 22.632812 -34.238281 23.109375 -33.363281 23.109375 -32.28125 L 23.109375 -31.78125 L 23.890625 -35.546875 L 34.125 -35.546875 L 29 -11.375 C 28.8125 -10.664062 28.71875 -9.90625 28.71875 -9.09375 C 28.71875 -7.0625 29.691406 -6.046875 31.640625 -6.046875 C 32.960938 -6.046875 34.109375 -6.660156 35.078125 -7.890625 C 36.054688 -9.117188 36.828125 -10.726562 37.390625 -12.71875 L 40.375 -12.71875 C 38.625 -7.601562 36.457031 -4.132812 33.875 -2.3125 C 31.289062 -0.488281 28.695312 0.421875 26.09375 0.421875 C 24.101562 0.421875 22.503906 -0.132812 21.296875 -1.25 C 20.085938 -2.363281 19.363281 -3.984375 19.125 -6.109375 C 17.75 -4.171875 16.21875 -2.597656 14.53125 -1.390625 C 12.851562 -0.179688 10.851562 0.421875 8.53125 0.421875 Z M 13.15625 -6.46875 C 14.34375 -6.46875 15.515625 -7.023438 16.671875 -8.140625 C 17.828125 -9.253906 18.617188 -10.78125 19.046875 -12.71875 L 22.46875 -28.796875 C 22.46875 -29.410156 22.226562 -30.015625 21.75 -30.609375 C 21.28125 -31.203125 20.546875 -31.5 19.546875 -31.5 C 17.648438 -31.5 15.941406 -30.394531 14.421875 -28.1875 C 12.910156 -25.988281 11.726562 -23.332031 10.875 -20.21875 C 10.019531 -17.113281 9.59375 -14.378906 9.59375 -12.015625 C 9.59375 -9.640625 9.9375 -8.117188 10.625 -7.453125 C 11.3125 -6.796875 12.15625 -6.46875 13.15625 -6.46875 Z M 13.15625 -6.46875 "/></g></g></g><g fill="#00ffff" fill-opacity="1"><g transform="translate(353.510481, 68.903447)"><g><path d="M 7.03125 0.421875 C 4.757812 0.421875 2.925781 -0.285156 1.53125 -1.703125 C 0.132812 -3.128906 -0.5625 -5.265625 -0.5625 -8.109375 C -0.5625 -9.285156 -0.375 -10.820312 0 -12.71875 L 7.609375 -48.34375 L 18.125 -49.765625 L 9.953125 -11.375 C 9.765625 -10.664062 9.671875 -9.90625 9.671875 -9.09375 C 9.671875 -8.144531 9.894531 -7.46875 10.34375 -7.0625 C 10.789062 -6.664062 11.535156 -6.46875 12.578125 -6.46875 C 13.953125 -6.46875 15.234375 -7.046875 16.421875 -8.203125 C 17.609375 -9.367188 18.460938 -10.875 18.984375 -12.71875 L 21.96875 -12.71875 C 20.21875 -7.601562 17.96875 -4.132812 15.21875 -2.3125 C 12.46875 -0.488281 9.738281 0.421875 7.03125 0.421875 Z M 7.03125 0.421875 "/></g></g></g><g fill="#00ffff" fill-opacity="1"><g transform="translate(373.913076, 68.903447)"><g><path d="M 10.171875 0.421875 C 6.660156 0.421875 3.929688 -0.488281 1.984375 -2.3125 C 0.046875 -4.132812 -0.921875 -6.988281 -0.921875 -10.875 C -0.921875 -14.144531 -0.28125 -17.742188 1 -21.671875 C 2.28125 -25.609375 4.363281 -29.007812 7.25 -31.875 C 10.144531 -34.75 13.816406 -36.1875 18.265625 -36.1875 C 23.484375 -36.1875 26.09375 -33.910156 26.09375 -29.359375 C 26.09375 -26.703125 25.332031 -24.257812 23.8125 -22.03125 C 22.300781 -19.8125 20.285156 -18.023438 17.765625 -16.671875 C 15.253906 -15.316406 12.578125 -14.546875 9.734375 -14.359375 C 9.640625 -12.941406 9.59375 -11.992188 9.59375 -11.515625 C 9.59375 -9.191406 9.992188 -7.613281 10.796875 -6.78125 C 11.609375 -5.957031 12.914062 -5.546875 14.71875 -5.546875 C 17.28125 -5.546875 19.472656 -6.132812 21.296875 -7.3125 C 23.117188 -8.5 25.117188 -10.300781 27.296875 -12.71875 L 29.71875 -12.71875 C 24.457031 -3.957031 17.941406 0.421875 10.171875 0.421875 Z M 10.3125 -17.78125 C 12.0625 -17.875 13.726562 -18.488281 15.3125 -19.625 C 16.90625 -20.757812 18.1875 -22.203125 19.15625 -23.953125 C 20.132812 -25.710938 20.625 -27.5625 20.625 -29.5 C 20.625 -31.445312 20.03125 -32.421875 18.84375 -32.421875 C 17.132812 -32.421875 15.460938 -30.925781 13.828125 -27.9375 C 12.191406 -24.957031 11.019531 -21.570312 10.3125 -17.78125 Z M 10.3125 -17.78125 "/></g></g></g><g fill="#00ffff" fill-opacity="1"><g transform="translate(402.633063, 68.903447)"><g><path d="M 25.671875 0.421875 C 22.773438 0.421875 20.648438 -0.34375 19.296875 -1.875 C 17.953125 -3.414062 17.28125 -5.328125 17.28125 -7.609375 C 17.28125 -8.597656 17.394531 -9.722656 17.625 -10.984375 C 17.863281 -12.242188 18.113281 -13.460938 18.375 -14.640625 C 18.632812 -15.828125 18.8125 -16.585938 18.90625 -16.921875 C 19.289062 -18.578125 19.644531 -20.210938 19.96875 -21.828125 C 20.300781 -23.441406 20.46875 -24.742188 20.46875 -25.734375 C 20.46875 -28.148438 19.617188 -29.359375 17.921875 -29.359375 C 16.679688 -29.359375 15.585938 -28.753906 14.640625 -27.546875 C 13.691406 -26.335938 12.9375 -24.765625 12.375 -22.828125 L 7.53125 0 L -2.703125 0 L 4.828125 -35.546875 L 15.078125 -35.546875 L 14.296875 -31.84375 C 16.660156 -34.5 19.429688 -35.828125 22.609375 -35.828125 C 25.023438 -35.828125 26.941406 -35.160156 28.359375 -33.828125 C 29.785156 -32.503906 30.5 -30.492188 30.5 -27.796875 C 30.5 -26.421875 30.332031 -24.890625 30 -23.203125 C 29.664062 -21.523438 29.191406 -19.476562 28.578125 -17.0625 C 28.203125 -15.59375 27.859375 -14.160156 27.546875 -12.765625 C 27.242188 -11.367188 27.09375 -10.265625 27.09375 -9.453125 C 27.09375 -8.503906 27.300781 -7.769531 27.71875 -7.25 C 28.144531 -6.726562 28.882812 -6.46875 29.9375 -6.46875 C 31.351562 -6.46875 32.488281 -6.976562 33.34375 -8 C 34.195312 -9.019531 35.050781 -10.59375 35.90625 -12.71875 L 38.890625 -12.71875 C 37.140625 -7.507812 35.113281 -4.015625 32.8125 -2.234375 C 30.507812 -0.460938 28.128906 0.421875 25.671875 0.421875 Z M 25.671875 0.421875 "/></g></g></g><g fill="#00ffff" fill-opacity="1"><g transform="translate(439.954787, 68.903447)"><g><path d="M 8.53125 0.421875 C 5.832031 0.421875 3.582031 -0.5 1.78125 -2.34375 C -0.0195312 -4.195312 -0.921875 -7.085938 -0.921875 -11.015625 C -0.921875 -14.523438 -0.222656 -18.210938 1.171875 -22.078125 C 2.566406 -25.941406 4.648438 -29.210938 7.421875 -31.890625 C 10.203125 -34.566406 13.507812 -35.90625 17.34375 -35.90625 C 19.289062 -35.90625 20.738281 -35.570312 21.6875 -34.90625 C 22.632812 -34.238281 23.109375 -33.363281 23.109375 -32.28125 L 23.109375 -32 L 26.59375 -48.34375 L 37.109375 -49.765625 L 28.9375 -11.375 C 28.75 -10.664062 28.65625 -9.90625 28.65625 -9.09375 C 28.65625 -8.144531 28.878906 -7.46875 29.328125 -7.0625 C 29.773438 -6.664062 30.519531 -6.46875 31.5625 -6.46875 C 32.894531 -6.46875 34.046875 -7.035156 35.015625 -8.171875 C 35.984375 -9.304688 36.753906 -10.820312 37.328125 -12.71875 L 40.3125 -12.71875 C 37.414062 -4.238281 32.648438 0 26.015625 0 C 24.078125 0 22.503906 -0.519531 21.296875 -1.5625 C 20.085938 -2.601562 19.335938 -4.117188 19.046875 -6.109375 C 17.816406 -4.210938 16.335938 -2.648438 14.609375 -1.421875 C 12.878906 -0.191406 10.851562 0.421875 8.53125 0.421875 Z M 13.15625 -6.46875 C 14.289062 -6.46875 15.4375 -6.988281 16.59375 -8.03125 C 17.757812 -9.070312 18.554688 -10.519531 18.984375 -12.375 L 18.984375 -12.71875 L 22.46875 -29 C 22.039062 -30.664062 21.066406 -31.5 19.546875 -31.5 C 17.648438 -31.5 15.941406 -30.394531 14.421875 -28.1875 C 12.910156 -25.988281 11.726562 -23.332031 10.875 -20.21875 C 10.019531 -17.113281 9.59375 -14.378906 9.59375 -12.015625 C 9.59375 -9.640625 9.9375 -8.117188 10.625 -7.453125 C 11.3125 -6.796875 12.15625 -6.46875 13.15625 -6.46875 Z M 13.15625 -6.46875 "/></g></g></g><g fill="#00ffff" fill-opacity="1"><g transform="translate(478.698273, 68.903447)"><g><path d="M 8.53125 0.421875 C 5.832031 0.421875 3.582031 -0.5 1.78125 -2.34375 C -0.0195312 -4.195312 -0.921875 -7.085938 -0.921875 -11.015625 C -0.921875 -14.523438 -0.222656 -18.210938 1.171875 -22.078125 C 2.566406 -25.941406 4.648438 -29.210938 7.421875 -31.890625 C 10.203125 -34.566406 13.507812 -35.90625 17.34375 -35.90625 C 19.289062 -35.90625 20.738281 -35.570312 21.6875 -34.90625 C 22.632812 -34.238281 23.109375 -33.363281 23.109375 -32.28125 L 23.109375 -31.78125 L 23.890625 -35.546875 L 34.125 -35.546875 L 29 -11.375 C 28.8125 -10.664062 28.71875 -9.90625 28.71875 -9.09375 C 28.71875 -7.0625 29.691406 -6.046875 31.640625 -6.046875 C 32.960938 -6.046875 34.109375 -6.660156 35.078125 -7.890625 C 36.054688 -9.117188 36.828125 -10.726562 37.390625 -12.71875 L 40.375 -12.71875 C 38.625 -7.601562 36.457031 -4.132812 33.875 -2.3125 C 31.289062 -0.488281 28.695312 0.421875 26.09375 0.421875 C 24.101562 0.421875 22.503906 -0.132812 21.296875 -1.25 C 20.085938 -2.363281 19.363281 -3.984375 19.125 -6.109375 C 17.75 -4.171875 16.21875 -2.597656 14.53125 -1.390625 C 12.851562 -0.179688 10.851562 0.421875 8.53125 0.421875 Z M 13.15625 -6.46875 C 14.34375 -6.46875 15.515625 -7.023438 16.671875 -8.140625 C 17.828125 -9.253906 18.617188 -10.78125 19.046875 -12.71875 L 22.46875 -28.796875 C 22.46875 -29.410156 22.226562 -30.015625 21.75 -30.609375 C 21.28125 -31.203125 20.546875 -31.5 19.546875 -31.5 C 17.648438 -31.5 15.941406 -30.394531 14.421875 -28.1875 C 12.910156 -25.988281 11.726562 -23.332031 10.875 -20.21875 C 10.019531 -17.113281 9.59375 -14.378906 9.59375 -12.015625 C 9.59375 -9.640625 9.9375 -8.117188 10.625 -7.453125 C 11.3125 -6.796875 12.15625 -6.46875 13.15625 -6.46875 Z M 13.15625 -6.46875 "/></g></g></g><g fill="#00ffff" fill-opacity="1"><g transform="translate(517.51285, 68.903447)"><g><path d="M 4.828125 -35.546875 L 15.078125 -35.546875 L 14.140625 -31.140625 C 15.753906 -32.554688 17.210938 -33.644531 18.515625 -34.40625 C 19.816406 -35.164062 21.226562 -35.546875 22.75 -35.546875 C 24.269531 -35.546875 25.46875 -35.023438 26.34375 -33.984375 C 27.21875 -32.941406 27.65625 -31.6875 27.65625 -30.21875 C 27.65625 -28.84375 27.203125 -27.632812 26.296875 -26.59375 C 25.398438 -25.550781 24.144531 -25.03125 22.53125 -25.03125 C 21.488281 -25.03125 20.789062 -25.273438 20.4375 -25.765625 C 20.082031 -26.265625 19.8125 -26.988281 19.625 -27.9375 C 19.476562 -28.550781 19.332031 -29 19.1875 -29.28125 C 19.050781 -29.570312 18.789062 -29.71875 18.40625 -29.71875 C 17.414062 -29.71875 16.578125 -29.515625 15.890625 -29.109375 C 15.203125 -28.710938 14.3125 -28.015625 13.21875 -27.015625 L 7.53125 0 L -2.703125 0 Z M 4.828125 -35.546875 "/></g></g></g><g fill="#ffffff" fill-opacity="1"><g transform="translate(280.60899, 68.903447)"><g><path d="M 16.921875 1.140625 C 11.566406 1.140625 7.628906 -0.207031 5.109375 -2.90625 C 2.597656 -5.613281 1.34375 -10.097656 1.34375 -16.359375 C 1.34375 -21.328125 2.1875 -26.675781 3.875 -32.40625 C 5.5625 -38.144531 8.265625 -43.066406 11.984375 -47.171875 C 15.703125 -51.273438 20.425781 -53.328125 26.15625 -53.328125 C 29.71875 -53.328125 32.585938 -52.539062 34.765625 -50.96875 C 36.941406 -49.40625 38.03125 -47.015625 38.03125 -43.796875 C 38.03125 -41.753906 37.628906 -40.148438 36.828125 -38.984375 C 36.023438 -37.828125 34.769531 -37.25 33.0625 -37.25 C 31.351562 -37.25 30 -37.867188 29 -39.109375 C 29.851562 -39.523438 30.613281 -40.375 31.28125 -41.65625 C 31.945312 -42.9375 32.28125 -44.265625 32.28125 -45.640625 C 32.28125 -46.921875 31.9375 -47.960938 31.25 -48.765625 C 30.5625 -49.578125 29.457031 -49.984375 27.9375 -49.984375 C 25.425781 -49.984375 23.03125 -48.265625 20.75 -44.828125 C 18.476562 -41.390625 16.644531 -37.0625 15.25 -31.84375 C 13.851562 -26.632812 13.15625 -21.613281 13.15625 -16.78125 C 13.15625 -13.175781 13.769531 -10.425781 15 -8.53125 C 16.226562 -6.632812 18.457031 -5.6875 21.6875 -5.6875 C 24.476562 -5.6875 27.054688 -6.300781 29.421875 -7.53125 C 31.796875 -8.769531 33.835938 -10.523438 35.546875 -12.796875 L 37.1875 -12.09375 C 36 -9.101562 34.242188 -6.613281 31.921875 -4.625 C 29.597656 -2.632812 27.109375 -1.175781 24.453125 -0.25 C 21.796875 0.675781 19.285156 1.140625 16.921875 1.140625 Z M 16.921875 1.140625 "/></g></g></g><g fill="#ffffff" fill-opacity="1"><g transform="translate(317.362001, 68.903447)"><g><path d="M 8.53125 0.421875 C 5.832031 0.421875 3.582031 -0.5 1.78125 -2.34375 C -0.0195312 -4.195312 -0.921875 -7.085938 -0.921875 -11.015625 C -0.921875 -14.523438 -0.222656 -18.210938 1.171875 -22.078125 C 2.566406 -25.941406 4.648438 -29.210938 7.421875 -31.890625 C 10.203125 -34.566406 13.507812 -35.90625 17.34375 -35.90625 C 19.289062 -35.90625 20.738281 -35.570312 21.6875 -34.90625 C 22.632812 -34.238281 23.109375 -33.363281 23.109375 -32.28125 L 23.109375 -31.78125 L 23.890625 -35.546875 L 34.125 -35.546875 L 29 -11.375 C 28.8125 -10.664062 28.71875 -9.90625 28.71875 -9.09375 C 28.71875 -7.0625 29.691406 -6.046875 31.640625 -6.046875 C 32.960938 -6.046875 34.109375 -6.660156 35.078125 -7.890625 C 36.054688 -9.117188 36.828125 -10.726562 37.390625 -12.71875 L 40.375 -12.71875 C 38.625 -7.601562 36.457031 -4.132812 33.875 -2.3125 C 31.289062 -0.488281 28.695312 0.421875 26.09375 0.421875 C 24.101562 0.421875 22.503906 -0.132812 21.296875 -1.25 C 20.085938 -2.363281 19.363281 -3.984375 19.125 -6.109375 C 17.75 -4.171875 16.21875 -2.597656 14.53125 -1.390625 C 12.851562 -0.179688 10.851562 0.421875 8.53125 0.421875 Z M 13.15625 -6.46875 C 14.34375 -6.46875 15.515625 -7.023438 16.671875 -8.140625 C 17.828125 -9.253906 18.617188 -10.78125 19.046875 -12.71875 L 22.46875 -28.796875 C 22.46875 -29.410156 22.226562 -30.015625 21.75 -30.609375 C 21.28125 -31.203125 20.546875 -31.5 19.546875 -31.5 C 17.648438 -31.5 15.941406 -30.394531 14.421875 -28.1875 C 12.910156 -25.988281 11.726562 -23.332031 10.875 -20.21875 C 10.019531 -17.113281 9.59375 -14.378906 9.59375 -12.015625 C 9.59375 -9.640625 9.9375 -8.117188 10.625 -7.453125 C 11.3125 -6.796875 12.15625 -6.46875 13.15625 -6.46875 Z M 13.15625 -6.46875 "/></g></g></g><g fill="#ffffff" fill-opacity="1"><g transform="translate(356.176583, 68.903447)"><g><path d="M 7.03125 0.421875 C 4.757812 0.421875 2.925781 -0.285156 1.53125 -1.703125 C 0.132812 -3.128906 -0.5625 -5.265625 -0.5625 -8.109375 C -0.5625 -9.285156 -0.375 -10.820312 0 -12.71875 L 7.609375 -48.34375 L 18.125 -49.765625 L 9.953125 -11.375 C 9.765625 -10.664062 9.671875 -9.90625 9.671875 -9.09375 C 9.671875 -8.144531 9.894531 -7.46875 10.34375 -7.0625 C 10.789062 -6.664062 11.535156 -6.46875 12.578125 -6.46875 C 13.953125 -6.46875 15.234375 -7.046875 16.421875 -8.203125 C 17.609375 -9.367188 18.460938 -10.875 18.984375 -12.71875 L 21.96875 -12.71875 C 20.21875 -7.601562 17.96875 -4.132812 15.21875 -2.3125 C 12.46875 -0.488281 9.738281 0.421875 7.03125 0.421875 Z M 7.03125 0.421875 "/></g></g></g><g fill="#ffffff" fill-opacity="1"><g transform="translate(376.579178, 68.903447)"><g><path d="M 10.171875 0.421875 C 6.660156 0.421875 3.929688 -0.488281 1.984375 -2.3125 C 0.046875 -4.132812 -0.921875 -6.988281 -0.921875 -10.875 C -0.921875 -14.144531 -0.28125 -17.742188 1 -21.671875 C 2.28125 -25.609375 4.363281 -29.007812 7.25 -31.875 C 10.144531 -34.75 13.816406 -36.1875 18.265625 -36.1875 C 23.484375 -36.1875 26.09375 -33.910156 26.09375 -29.359375 C 26.09375 -26.703125 25.332031 -24.257812 23.8125 -22.03125 C 22.300781 -19.8125 20.285156 -18.023438 17.765625 -16.671875 C 15.253906 -15.316406 12.578125 -14.546875 9.734375 -14.359375 C 9.640625 -12.941406 9.59375 -11.992188 9.59375 -11.515625 C 9.59375 -9.191406 9.992188 -7.613281 10.796875 -6.78125 C 11.609375 -5.957031 12.914062 -5.546875 14.71875 -5.546875 C 17.28125 -5.546875 19.472656 -6.132812 21.296875 -7.3125 C 23.117188 -8.5 25.117188 -10.300781 27.296875 -12.71875 L 29.71875 -12.71875 C 24.457031 -3.957031 17.941406 0.421875 10.171875 0.421875 Z M 10.3125 -17.78125 C 12.0625 -17.875 13.726562 -18.488281 15.3125 -19.625 C 16.90625 -20.757812 18.1875 -22.203125 19.15625 -23.953125 C 20.132812 -25.710938 20.625 -27.5625 20.625 -29.5 C 20.625 -31.445312 20.03125 -32.421875 18.84375 -32.421875 C 17.132812 -32.421875 15.460938 -30.925781 13.828125 -27.9375 C 12.191406 -24.957031 11.019531 -21.570312 10.3125 -17.78125 Z M 10.3125 -17.78125 "/></g></g></g><g fill="#ffffff" fill-opacity="1"><g transform="translate(405.299165, 68.903447)"><g><path d="M 25.671875 0.421875 C 22.773438 0.421875 20.648438 -0.34375 19.296875 -1.875 C 17.953125 -3.414062 17.28125 -5.328125 17.28125 -7.609375 C 17.28125 -8.597656 17.394531 -9.722656 17.625 -10.984375 C 17.863281 -12.242188 18.113281 -13.460938 18.375 -14.640625 C 18.632812 -15.828125 18.8125 -16.585938 18.90625 -16.921875 C 19.289062 -18.578125 19.644531 -20.210938 19.96875 -21.828125 C 20.300781 -23.441406 20.46875 -24.742188 20.46875 -25.734375 C 20.46875 -28.148438 19.617188 -29.359375 17.921875 -29.359375 C 16.679688 -29.359375 15.585938 -28.753906 14.640625 -27.546875 C 13.691406 -26.335938 12.9375 -24.765625 12.375 -22.828125 L 7.53125 0 L -2.703125 0 L 4.828125 -35.546875 L 15.078125 -35.546875 L 14.296875 -31.84375 C 16.660156 -34.5 19.429688 -35.828125 22.609375 -35.828125 C 25.023438 -35.828125 26.941406 -35.160156 28.359375 -33.828125 C 29.785156 -32.503906 30.5 -30.492188 30.5 -27.796875 C 30.5 -26.421875 30.332031 -24.890625 30 -23.203125 C 29.664062 -21.523438 29.191406 -19.476562 28.578125 -17.0625 C 28.203125 -15.59375 27.859375 -14.160156 27.546875 -12.765625 C 27.242188 -11.367188 27.09375 -10.265625 27.09375 -9.453125 C 27.09375 -8.503906 27.300781 -7.769531 27.71875 -7.25 C 28.144531 -6.726562 28.882812 -6.46875 29.9375 -6.46875 C 31.351562 -6.46875 32.488281 -6.976562 33.34375 -8 C 34.195312 -9.019531 35.050781 -10.59375 35.90625 -12.71875 L 38.890625 -12.71875 C 37.140625 -7.507812 35.113281 -4.015625 32.8125 -2.234375 C 30.507812 -0.460938 28.128906 0.421875 25.671875 0.421875 Z M 25.671875 0.421875 "/></g></g></g><g fill="#ffffff" fill-opacity="1"><g transform="translate(442.620889, 68.903447)"><g><path d="M 8.53125 0.421875 C 5.832031 0.421875 3.582031 -0.5 1.78125 -2.34375 C -0.0195312 -4.195312 -0.921875 -7.085938 -0.921875 -11.015625 C -0.921875 -14.523438 -0.222656 -18.210938 1.171875 -22.078125 C 2.566406 -25.941406 4.648438 -29.210938 7.421875 -31.890625 C 10.203125 -34.566406 13.507812 -35.90625 17.34375 -35.90625 C 19.289062 -35.90625 20.738281 -35.570312 21.6875 -34.90625 C 22.632812 -34.238281 23.109375 -33.363281 23.109375 -32.28125 L 23.109375 -32 L 26.59375 -48.34375 L 37.109375 -49.765625 L 28.9375 -11.375 C 28.75 -10.664062 28.65625 -9.90625 28.65625 -9.09375 C 28.65625 -8.144531 28.878906 -7.46875 29.328125 -7.0625 C 29.773438 -6.664062 30.519531 -6.46875 31.5625 -6.46875 C 32.894531 -6.46875 34.046875 -7.035156 35.015625 -8.171875 C 35.984375 -9.304688 36.753906 -10.820312 37.328125 -12.71875 L 40.3125 -12.71875 C 37.414062 -4.238281 32.648438 0 26.015625 0 C 24.078125 0 22.503906 -0.519531 21.296875 -1.5625 C 20.085938 -2.601562 19.335938 -4.117188 19.046875 -6.109375 C 17.816406 -4.210938 16.335938 -2.648438 14.609375 -1.421875 C 12.878906 -0.191406 10.851562 0.421875 8.53125 0.421875 Z M 13.15625 -6.46875 C 14.289062 -6.46875 15.4375 -6.988281 16.59375 -8.03125 C 17.757812 -9.070312 18.554688 -10.519531 18.984375 -12.375 L 18.984375 -12.71875 L 22.46875 -29 C 22.039062 -30.664062 21.066406 -31.5 19.546875 -31.5 C 17.648438 -31.5 15.941406 -30.394531 14.421875 -28.1875 C 12.910156 -25.988281 11.726562 -23.332031 10.875 -20.21875 C 10.019531 -17.113281 9.59375 -14.378906 9.59375 -12.015625 C 9.59375 -9.640625 9.9375 -8.117188 10.625 -7.453125 C 11.3125 -6.796875 12.15625 -6.46875 13.15625 -6.46875 Z M 13.15625 -6.46875 "/></g></g></g><g fill="#ffffff" fill-opacity="1"><g transform="translate(481.364375, 68.903447)"><g><path d="M 8.53125 0.421875 C 5.832031 0.421875 3.582031 -0.5 1.78125 -2.34375 C -0.0195312 -4.195312 -0.921875 -7.085938 -0.921875 -11.015625 C -0.921875 -14.523438 -0.222656 -18.210938 1.171875 -22.078125 C 2.566406 -25.941406 4.648438 -29.210938 7.421875 -31.890625 C 10.203125 -34.566406 13.507812 -35.90625 17.34375 -35.90625 C 19.289062 -35.90625 20.738281 -35.570312 21.6875 -34.90625 C 22.632812 -34.238281 23.109375 -33.363281 23.109375 -32.28125 L 23.109375 -31.78125 L 23.890625 -35.546875 L 34.125 -35.546875 L 29 -11.375 C 28.8125 -10.664062 28.71875 -9.90625 28.71875 -9.09375 C 28.71875 -7.0625 29.691406 -6.046875 31.640625 -6.046875 C 32.960938 -6.046875 34.109375 -6.660156 35.078125 -7.890625 C 36.054688 -9.117188 36.828125 -10.726562 37.390625 -12.71875 L 40.375 -12.71875 C 38.625 -7.601562 36.457031 -4.132812 33.875 -2.3125 C 31.289062 -0.488281 28.695312 0.421875 26.09375 0.421875 C 24.101562 0.421875 22.503906 -0.132812 21.296875 -1.25 C 20.085938 -2.363281 19.363281 -3.984375 19.125 -6.109375 C 17.75 -4.171875 16.21875 -2.597656 14.53125 -1.390625 C 12.851562 -0.179688 10.851562 0.421875 8.53125 0.421875 Z M 13.15625 -6.46875 C 14.34375 -6.46875 15.515625 -7.023438 16.671875 -8.140625 C 17.828125 -9.253906 18.617188 -10.78125 19.046875 -12.71875 L 22.46875 -28.796875 C 22.46875 -29.410156 22.226562 -30.015625 21.75 -30.609375 C 21.28125 -31.203125 20.546875 -31.5 19.546875 -31.5 C 17.648438 -31.5 15.941406 -30.394531 14.421875 -28.1875 C 12.910156 -25.988281 11.726562 -23.332031 10.875 -20.21875 C 10.019531 -17.113281 9.59375 -14.378906 9.59375 -12.015625 C 9.59375 -9.640625 9.9375 -8.117188 10.625 -7.453125 C 11.3125 -6.796875 12.15625 -6.46875 13.15625 -6.46875 Z M 13.15625 -6.46875 "/></g></g></g><g fill="#ffffff" fill-opacity="1"><g transform="translate(520.178953, 68.903447)"><g><path d="M 4.828125 -35.546875 L 15.078125 -35.546875 L 14.140625 -31.140625 C 15.753906 -32.554688 17.210938 -33.644531 18.515625 -34.40625 C 19.816406 -35.164062 21.226562 -35.546875 22.75 -35.546875 C 24.269531 -35.546875 25.46875 -35.023438 26.34375 -33.984375 C 27.21875 -32.941406 27.65625 -31.6875 27.65625 -30.21875 C 27.65625 -28.84375 27.203125 -27.632812 26.296875 -26.59375 C 25.398438 -25.550781 24.144531 -25.03125 22.53125 -25.03125 C 21.488281 -25.03125 20.789062 -25.273438 20.4375 -25.765625 C 20.082031 -26.265625 19.8125 -26.988281 19.625 -27.9375 C 19.476562 -28.550781 19.332031 -29 19.1875 -29.28125 C 19.050781 -29.570312 18.789062 -29.71875 18.40625 -29.71875 C 17.414062 -29.71875 16.578125 -29.515625 15.890625 -29.109375 C 15.203125 -28.710938 14.3125 -28.015625 13.21875 -27.015625 L 7.53125 0 L -2.703125 0 Z M 4.828125 -35.546875 "/></g></g></g><g clip-path="url(#0a3c1e7077)"><g clip-path="url(#15380ba680)"><g clip-path="url(#3e21667de1)"><path fill="#00ceff" d="M 659.339844 177.914062 C 663.652344 175.542969 667.683594 171.675781 668.640625 166.65625 C 669.484375 162.253906 668.164062 157.210938 664.355469 154.5625 C 660.007812 151.539062 654.710938 153.054688 650.273438 154.984375 C 645.753906 156.949219 641.46875 158.769531 636.480469 159.066406 C 631.75 159.347656 626.910156 158.570312 622.542969 156.707031 C 612.410156 152.378906 605.445312 142.28125 601.917969 132.125 C 598.605469 122.566406 598.808594 111.335938 605.148438 103.027344 C 606.378906 101.414062 607.800781 99.976562 609.402344 98.742188 C 609.414062 98.761719 609.417969 98.78125 609.433594 98.800781 C 617.308594 110.566406 627.9375 120.394531 640.234375 127.394531 C 646.445312 130.929688 653.097656 133.738281 659.972656 135.691406 C 667.417969 137.808594 675.535156 138.816406 682.976562 136.140625 C 690.199219 133.539062 696.132812 128.136719 700.132812 121.65625 C 704.289062 114.929688 705.414062 107.273438 703.320312 99.636719 C 699.542969 85.84375 688.125 74.53125 675.46875 68.515625 C 661.730469 61.988281 645.8125 61.300781 631.265625 65.375 C 630.269531 65.65625 629.277344 65.964844 628.292969 66.289062 C 630.03125 54.082031 635.863281 42.527344 644.453125 33.726562 C 646.46875 31.660156 648.632812 29.769531 650.933594 28.046875 C 654.640625 38.960938 662.046875 48.480469 671.746094 54.734375 C 681.660156 61.125 694.027344 63.871094 705.710938 62.300781 C 711.945312 61.460938 718.367188 59.554688 722.683594 54.703125 C 726.324219 50.605469 728.125 45.117188 728.1875 39.675781 C 728.328125 27.132812 718.761719 16.90625 708.097656 11.671875 C 701.789062 8.578125 694.914062 6.816406 688.03125 5.558594 C 681.101562 4.292969 674.082031 3.625 667.101562 4.601562 C 665.820312 -1.191406 667.808594 -7.15625 670.671875 -12.207031 C 673.421875 -17.066406 678.125 -22.546875 675.539062 -28.5 C 672.976562 -34.40625 665.46875 -36.363281 659.824219 -34.042969 C 653.636719 -31.5 649.390625 -25.578125 646.5625 -19.734375 C 643.410156 -13.21875 641.894531 -5.96875 642.167969 1.265625 C 642.179688 1.644531 642.292969 1.960938 642.457031 2.21875 C 623.371094 13.734375 609.828125 33.777344 605.597656 55.625 C 604.371094 61.957031 603.921875 68.453125 604.320312 74.894531 C 604.332031 75.054688 604.355469 75.199219 604.394531 75.335938 C 604.066406 75.242188 603.683594 75.25 603.265625 75.417969 C 594.246094 78.960938 587 85.78125 582.214844 94.152344 C 577.144531 103.019531 575.074219 113.300781 575.808594 123.464844 C 576.628906 134.84375 580.652344 145.835938 586.449219 155.605469 C 592.035156 165.015625 599.394531 173.96875 609.699219 178.324219 C 614.8125 180.484375 620.269531 181.675781 625.753906 182.40625 C 631.546875 183.175781 637.441406 183.417969 643.253906 182.710938 C 648.808594 182.035156 654.40625 180.621094 659.339844 177.914062 Z M 680.808594 132.511719 C 681.40625 132.410156 682 132.285156 682.589844 132.148438 C 680.871094 132.820312 679.101562 133.273438 677.308594 133.546875 C 678.492188 133.25 679.65625 132.898438 680.808594 132.511719 Z M 668.492188 133.347656 C 668.503906 133.347656 668.515625 133.34375 668.53125 133.339844 C 669.222656 133.429688 669.917969 133.503906 670.613281 133.550781 C 670.648438 133.632812 670.691406 133.707031 670.738281 133.78125 C 669.101562 133.671875 667.464844 133.449219 665.84375 133.136719 C 666.722656 133.238281 667.601562 133.3125 668.492188 133.347656 Z M 676.210938 126.082031 C 676.386719 126 676.5625 125.921875 676.738281 125.84375 C 677.074219 125.761719 677.410156 125.679688 677.746094 125.597656 C 677.679688 125.722656 677.628906 125.851562 677.589844 125.992188 C 677.582031 126.019531 677.582031 126.046875 677.578125 126.074219 C 677.121094 126.09375 676.667969 126.09375 676.210938 126.082031 Z M 695.238281 122.058594 C 695.363281 121.769531 695.464844 121.476562 695.578125 121.183594 C 696.214844 120.433594 696.808594 119.648438 697.34375 118.820312 C 696.710938 119.941406 696.003906 121.019531 695.238281 122.058594 Z M 712.277344 56.867188 C 714.300781 55.742188 716.324219 54.621094 718.34375 53.5 C 716.570312 54.992188 714.496094 56.074219 712.277344 56.867188 Z M 694.964844 58.144531 C 696.285156 58.460938 697.636719 58.648438 698.988281 58.710938 C 699.039062 58.773438 699.09375 58.832031 699.15625 58.886719 C 697.257812 58.878906 695.355469 58.757812 693.46875 58.523438 C 693.921875 58.410156 694.375 58.269531 694.816406 58.101562 C 694.867188 58.113281 694.914062 58.128906 694.964844 58.144531 Z M 722.027344 48.886719 C 721.789062 48.761719 721.515625 48.71875 721.230469 48.738281 C 722.078125 47.640625 722.839844 46.484375 723.503906 45.261719 C 723.136719 46.515625 722.640625 47.730469 722.027344 48.886719 Z M 665.960938 45.113281 C 667.4375 46.414062 669.007812 47.613281 670.652344 48.707031 C 671.273438 49.398438 671.929688 50.058594 672.621094 50.679688 C 670.226562 49.039062 668 47.167969 665.960938 45.113281 Z M 719.722656 35.804688 C 719.691406 36.328125 719.671875 36.851562 719.621094 37.371094 C 719.480469 37.972656 719.382812 38.582031 719.265625 39.191406 C 719.09375 39.53125 718.90625 39.863281 718.707031 40.1875 C 718.941406 38.851562 719.175781 37.511719 719.410156 36.175781 C 719.480469 36.050781 719.535156 35.921875 719.605469 35.796875 C 719.644531 35.800781 719.683594 35.804688 719.722656 35.804688 Z M 708.703125 40.105469 C 708.472656 40.3125 708.238281 40.519531 708.011719 40.730469 C 708.105469 40.152344 708.105469 39.550781 708.035156 38.949219 C 708.257812 39.335938 708.472656 39.726562 708.703125 40.105469 Z M 709.707031 35.746094 C 710.070312 36.3125 710.453125 36.875 710.855469 37.421875 C 710.769531 37.480469 710.679688 37.539062 710.59375 37.601562 C 710.101562 36.75 709.609375 35.898438 709.148438 35.035156 C 709.332031 35.273438 709.519531 35.507812 709.707031 35.746094 Z M 702.226562 29.492188 C 702.738281 29.871094 703.257812 30.246094 703.785156 30.609375 C 703.988281 31.0625 704.191406 31.515625 704.398438 31.964844 C 703.453125 31.046875 702.375 30.277344 701.222656 29.605469 C 701.5 29.585938 701.730469 29.484375 701.914062 29.332031 C 702.015625 29.386719 702.121094 29.4375 702.226562 29.492188 Z M 697.613281 21.25 C 697.765625 21.277344 697.90625 21.28125 698.039062 21.269531 C 698.074219 21.292969 698.105469 21.320312 698.140625 21.34375 C 698.183594 21.527344 698.265625 21.703125 698.382812 21.863281 C 697.683594 21.570312 696.976562 21.28125 696.269531 21.003906 C 696.714844 21.085938 697.164062 21.160156 697.613281 21.25 Z M 688.109375 28.855469 C 692.609375 30.175781 698 31.242188 701.523438 34.5625 C 702.339844 35.328125 703.054688 36.226562 703.550781 37.238281 C 703.875 37.902344 704.554688 39.46875 704.226562 40.222656 C 703.914062 40.945312 702.429688 41.542969 701.722656 41.824219 C 700.585938 42.277344 699.394531 42.46875 698.167969 42.390625 C 693.574219 42.109375 689.355469 38.703125 685.898438 35.960938 C 682.21875 33.042969 678.8125 29.78125 675.742188 26.230469 C 679.941406 26.632812 684.058594 27.667969 688.109375 28.855469 Z M 669.03125 -27.863281 C 669.402344 -28.148438 669.796875 -28.414062 670.21875 -28.648438 C 670.421875 -28.761719 670.476562 -28.9375 670.441406 -29.105469 C 670.675781 -28.890625 670.898438 -28.660156 671.105469 -28.417969 C 670.605469 -28.679688 669.984375 -28.65625 669.480469 -28.097656 C 669.394531 -28.007812 669.316406 -27.910156 669.234375 -27.816406 C 669.167969 -27.839844 669.097656 -27.851562 669.03125 -27.863281 Z M 660.816406 -19.695312 C 661.328125 -20.082031 661.839844 -20.464844 662.359375 -20.835938 C 662.359375 -20.796875 662.359375 -20.761719 662.367188 -20.722656 C 661.976562 -20.199219 661.589844 -19.675781 661.199219 -19.152344 C 660.972656 -18.886719 660.761719 -18.613281 660.558594 -18.332031 C 660.355469 -18.230469 660.148438 -18.140625 659.945312 -18.042969 C 660.214844 -18.609375 660.507812 -19.15625 660.816406 -19.695312 Z M 668.5625 -16.308594 C 669.234375 -17.546875 669.847656 -18.8125 670.335938 -20.128906 C 670.382812 -20.226562 670.429688 -20.328125 670.476562 -20.425781 C 670.832031 -20.847656 671.191406 -21.273438 671.53125 -21.714844 C 671.890625 -22.183594 671.921875 -22.746094 671.742188 -23.214844 C 671.972656 -23.746094 672.1875 -24.28125 672.402344 -24.816406 C 672.378906 -22.996094 671.542969 -21.195312 670.683594 -19.640625 C 670.027344 -18.457031 669.3125 -17.316406 668.597656 -16.171875 C 668.585938 -16.21875 668.574219 -16.261719 668.5625 -16.308594 Z M 645.101562 5.523438 L 645.234375 5.058594 C 645.359375 4.984375 645.484375 4.90625 645.613281 4.832031 C 645.609375 5.214844 645.601562 5.59375 645.601562 5.976562 C 645.585938 5.988281 645.570312 6 645.554688 6.011719 C 645.441406 5.824219 645.285156 5.65625 645.101562 5.523438 Z M 669.964844 14.867188 C 669.09375 14.890625 668.226562 14.914062 667.355469 14.9375 C 666.402344 14.941406 665.449219 14.957031 664.496094 14.984375 C 664.527344 14.917969 664.554688 14.84375 664.585938 14.773438 C 665.90625 14.816406 667.230469 14.820312 668.550781 14.792969 C 669.078125 14.808594 669.601562 14.820312 670.128906 14.847656 C 670.074219 14.855469 670.019531 14.859375 669.964844 14.867188 Z M 685.664062 9.320312 C 685.5 9.171875 685.308594 9.046875 685.066406 8.996094 C 684.722656 8.925781 684.378906 8.867188 684.035156 8.800781 C 684.355469 8.851562 684.675781 8.894531 684.992188 8.949219 C 686.109375 9.132812 687.222656 9.332031 688.339844 9.539062 C 687.449219 9.453125 686.554688 9.386719 685.664062 9.320312 Z M 683.980469 12.699219 C 684.042969 12.691406 684.105469 12.679688 684.164062 12.664062 C 684.761719 12.652344 685.355469 12.644531 685.949219 12.671875 C 686.300781 12.800781 686.652344 12.925781 686.996094 13.058594 C 685.996094 12.921875 684.988281 12.800781 683.980469 12.699219 Z M 629.636719 44.191406 C 629.292969 45.222656 628.949219 46.257812 628.601562 47.289062 C 628.457031 47.390625 628.320312 47.5 628.179688 47.605469 C 628.652344 46.460938 629.136719 45.320312 629.636719 44.191406 Z M 626.839844 51.53125 C 627.039062 51.28125 627.242188 51.039062 627.4375 50.78125 L 626.632812 53.191406 Z M 608.648438 61.199219 C 608.738281 61.96875 608.84375 62.734375 608.957031 63.5 C 608.738281 63.535156 608.539062 63.632812 608.359375 63.765625 C 608.441406 62.910156 608.539062 62.054688 608.648438 61.199219 Z M 643.035156 105.96875 C 643.652344 106.453125 644.269531 106.9375 644.910156 107.394531 C 645.375 107.730469 645.855469 108.058594 646.335938 108.382812 C 645.496094 107.960938 644.660156 107.539062 643.820312 107.117188 C 643.558594 106.734375 643.296875 106.347656 643.035156 105.96875 Z M 635.164062 119.628906 C 635.351562 119.429688 635.5 119.203125 635.59375 118.957031 C 635.824219 119.152344 636.058594 119.347656 636.289062 119.542969 C 636.78125 120.144531 637.277344 120.75 637.78125 121.34375 C 637.890625 121.46875 638.042969 121.492188 638.1875 121.457031 C 638.71875 121.855469 639.25 122.25 639.785156 122.640625 C 638.214844 121.683594 636.671875 120.683594 635.164062 119.628906 Z M 697.367188 94.765625 C 697.890625 95.835938 698.359375 96.9375 698.769531 98.058594 C 698.625 98.167969 698.496094 98.304688 698.390625 98.46875 C 698.339844 98.222656 698.289062 97.976562 698.226562 97.734375 C 697.941406 96.558594 697.566406 95.417969 697.125 94.308594 C 697.203125 94.460938 697.289062 94.609375 697.367188 94.765625 Z M 686.28125 93.867188 C 685.855469 93.257812 685.410156 92.65625 684.921875 92.09375 C 685.128906 91.972656 685.3125 91.816406 685.472656 91.640625 C 685.769531 92.371094 686.035156 93.117188 686.28125 93.867188 Z M 669.027344 90.046875 C 669.039062 90.179688 669.066406 90.316406 669.105469 90.449219 C 668.488281 90.160156 667.871094 89.882812 667.246094 89.625 C 667.835938 89.773438 668.433594 89.90625 669.027344 90.046875 Z M 683.046875 77.617188 C 683.027344 77.753906 683.019531 77.886719 683.027344 78.027344 C 682.78125 77.824219 682.53125 77.636719 682.28125 77.433594 C 682.355469 77.367188 682.417969 77.292969 682.480469 77.210938 C 682.667969 77.351562 682.863281 77.476562 683.046875 77.617188 Z M 655.203125 89.890625 C 659.058594 90.75 662.863281 91.929688 666.480469 93.523438 C 669.859375 95.015625 673.308594 96.960938 675.476562 100.046875 C 677.199219 102.503906 677.945312 105.773438 676.957031 108.671875 C 675.769531 112.148438 672.238281 113.175781 668.878906 113.035156 C 665.226562 112.882812 661.460938 111.652344 658.089844 110.292969 C 654.667969 108.914062 651.386719 107.167969 648.324219 105.101562 C 642.109375 100.914062 636.910156 95.304688 633.09375 88.859375 C 640.464844 87.960938 647.941406 88.269531 655.203125 89.890625 Z M 623.84375 92.15625 C 623.613281 92.296875 623.414062 92.488281 623.253906 92.710938 C 623.089844 92.003906 622.921875 91.292969 622.753906 90.585938 C 623.117188 91.109375 623.480469 91.632812 623.84375 92.15625 Z M 599.828125 81.722656 C 599.613281 81.875 599.410156 82.039062 599.199219 82.195312 C 599.167969 82.195312 599.136719 82.191406 599.101562 82.191406 C 598.925781 82.191406 598.742188 82.179688 598.558594 82.148438 C 598.589844 82.113281 598.625 82.078125 598.652344 82.039062 C 599.058594 81.785156 599.464844 81.539062 599.878906 81.300781 C 599.832031 81.4375 599.832031 81.582031 599.828125 81.722656 Z M 593.164062 86.332031 C 593.152344 86.351562 593.144531 86.371094 593.136719 86.390625 C 592.964844 86.617188 592.796875 86.847656 592.628906 87.074219 C 592.585938 87.128906 592.566406 87.1875 592.546875 87.246094 C 592.21875 87.476562 591.886719 87.703125 591.558594 87.933594 C 592.078125 87.382812 592.613281 86.847656 593.164062 86.332031 Z M 587.839844 92.464844 C 587.855469 92.5 587.875 92.535156 587.894531 92.566406 C 587.835938 92.65625 587.785156 92.742188 587.726562 92.832031 C 587.355469 93.359375 587 93.902344 586.671875 94.457031 C 586.570312 94.53125 586.472656 94.613281 586.371094 94.691406 C 586.839844 93.9375 587.324219 93.191406 587.839844 92.464844 Z M 612.222656 96.230469 C 612.210938 96.1875 612.207031 96.144531 612.195312 96.101562 C 612.304688 96.226562 612.417969 96.347656 612.527344 96.476562 C 613.519531 97.78125 614.558594 99.054688 615.644531 100.292969 C 615.601562 100.460938 615.578125 100.636719 615.589844 100.8125 C 615.574219 100.792969 615.554688 100.769531 615.539062 100.746094 C 614.550781 99.429688 613.601562 98.085938 612.683594 96.71875 C 612.546875 96.511719 612.390625 96.359375 612.222656 96.230469 Z M 662.964844 158.402344 C 662.789062 158.445312 662.621094 158.515625 662.460938 158.605469 C 662.214844 158.175781 661.921875 157.761719 661.585938 157.367188 C 662.109375 157.644531 662.5625 158 662.964844 158.402344 Z M 608.074219 173.238281 C 609.019531 173.542969 609.972656 173.835938 610.925781 174.113281 C 610.890625 174.277344 610.871094 174.449219 610.875 174.621094 C 609.921875 174.203125 608.992188 173.738281 608.074219 173.238281 Z M 658.441406 164.808594 C 658.59375 164.667969 658.75 164.53125 658.894531 164.378906 C 659.261719 163.984375 659.410156 163.5625 659.421875 163.160156 C 659.507812 163.109375 659.597656 163.058594 659.683594 163.007812 C 659.679688 163.316406 659.648438 163.621094 659.59375 163.925781 C 659.214844 164.535156 658.800781 165.121094 658.355469 165.6875 C 658.460938 165.414062 658.484375 165.109375 658.441406 164.808594 Z M 643.6875 178.761719 C 643.699219 178.722656 643.714844 178.6875 643.726562 178.648438 C 645.847656 178.332031 647.953125 177.945312 650.042969 177.46875 C 647.960938 178.054688 645.832031 178.46875 643.6875 178.761719 Z M 643.6875 178.761719 " fill-opacity="1" fill-rule="nonzero"/></g></g></g><g fill="#ff00ff" fill-opacity="1"><g transform="translate(199.566494, 51.824505)"><g><path d="M 13.65625 -42.140625 C 10.832031 -40.804688 8.753906 -38.925781 7.421875 -36.5 C 6.097656 -34.082031 5.644531 -31.234375 6.0625 -27.953125 C 6.238281 -26.484375 6.492188 -25.492188 6.828125 -24.984375 C 7.171875 -24.484375 7.351562 -24.171875 7.375 -24.046875 C 3.238281 -23.535156 0.953125 -25.039062 0.515625 -28.5625 C 0.210938 -30.945312 0.828125 -33.460938 2.359375 -36.109375 C 3.890625 -38.765625 6 -41.03125 8.6875 -42.90625 C 11.382812 -44.789062 14.164062 -45.914062 17.03125 -46.28125 C 18.457031 -46.457031 19.957031 -46.367188 21.53125 -46.015625 L 24 -15.28125 L 32.953125 -47.4375 L 41.296875 -48.46875 L 40.53125 -5.046875 L 32.171875 -4 L 32.640625 -30.5 L 25 -3.109375 L 17.046875 -2.125 L 14.953125 -28.40625 L 8.53125 -1.0625 L 3.890625 -0.484375 Z M 13.65625 -42.140625 "/></g></g></g><g fill="#ff00ff" fill-opacity="1"><g transform="translate(246.348017, 46.003222)"><g><path d="M 10.84375 13.375 C 8.988281 13.601562 7.382812 13.3125 6.03125 12.5 C 4.675781 11.6875 3.890625 10.375 3.671875 8.5625 C 3.390625 6.351562 4.050781 4.46875 5.65625 2.90625 C 7.269531 1.351562 9.394531 -0.0351562 12.03125 -1.265625 L 12.34375 -4.484375 C 11.375 -3.097656 10.335938 -2.101562 9.234375 -1.5 C 8.128906 -0.894531 6.976562 -0.519531 5.78125 -0.375 C 3.9375 -0.144531 2.367188 -0.535156 1.078125 -1.546875 C -0.210938 -2.554688 -1.003906 -4.222656 -1.296875 -6.546875 C -1.410156 -7.515625 -1.410156 -8.789062 -1.296875 -10.375 L 0.328125 -29.46875 L 8.6875 -30.515625 L 6.953125 -10.28125 C 6.898438 -9.800781 6.90625 -9.3125 6.96875 -8.8125 C 7.175781 -7.101562 7.859375 -6.320312 9.015625 -6.46875 C 10.023438 -6.59375 10.859375 -7.140625 11.515625 -8.109375 C 12.179688 -9.085938 12.660156 -10.316406 12.953125 -11.796875 L 14.65625 -31.25 L 23 -32.296875 L 20.609375 -4.6875 C 22.390625 -5.53125 23.757812 -6.640625 24.71875 -8.015625 C 25.6875 -9.398438 26.40625 -11.351562 26.875 -13.875 L 29.3125 -14.1875 C 28.695312 -10.613281 27.597656 -7.914062 26.015625 -6.09375 C 24.441406 -4.269531 22.570312 -2.925781 20.40625 -2.0625 L 20.046875 2.21875 C 19.753906 6.0625 18.742188 8.804688 17.015625 10.453125 C 15.296875 12.097656 13.238281 13.070312 10.84375 13.375 Z M 8.9375 9.015625 C 9.601562 8.929688 10.1875 8.40625 10.6875 7.4375 C 11.195312 6.46875 11.523438 5.132812 11.671875 3.4375 L 11.8125 1.703125 C 8.195312 3.566406 6.503906 5.445312 6.734375 7.34375 C 6.796875 7.84375 7.023438 8.265625 7.421875 8.609375 C 7.816406 8.953125 8.320312 9.085938 8.9375 9.015625 Z M 8.9375 9.015625 "/></g></g></g><g fill="#00ffff" fill-opacity="1"><g transform="translate(195.21834, 52.365567)"><g><path d="M 13.65625 -42.140625 C 10.832031 -40.804688 8.753906 -38.925781 7.421875 -36.5 C 6.097656 -34.082031 5.644531 -31.234375 6.0625 -27.953125 C 6.238281 -26.484375 6.492188 -25.492188 6.828125 -24.984375 C 7.171875 -24.484375 7.351562 -24.171875 7.375 -24.046875 C 3.238281 -23.535156 0.953125 -25.039062 0.515625 -28.5625 C 0.210938 -30.945312 0.828125 -33.460938 2.359375 -36.109375 C 3.890625 -38.765625 6 -41.03125 8.6875 -42.90625 C 11.382812 -44.789062 14.164062 -45.914062 17.03125 -46.28125 C 18.457031 -46.457031 19.957031 -46.367188 21.53125 -46.015625 L 24 -15.28125 L 32.953125 -47.4375 L 41.296875 -48.46875 L 40.53125 -5.046875 L 32.171875 -4 L 32.640625 -30.5 L 25 -3.109375 L 17.046875 -2.125 L 14.953125 -28.40625 L 8.53125 -1.0625 L 3.890625 -0.484375 Z M 13.65625 -42.140625 "/></g></g></g><g fill="#00ffff" fill-opacity="1"><g transform="translate(241.999863, 46.544284)"><g><path d="M 10.84375 13.375 C 8.988281 13.601562 7.382812 13.3125 6.03125 12.5 C 4.675781 11.6875 3.890625 10.375 3.671875 8.5625 C 3.390625 6.351562 4.050781 4.46875 5.65625 2.90625 C 7.269531 1.351562 9.394531 -0.0351562 12.03125 -1.265625 L 12.34375 -4.484375 C 11.375 -3.097656 10.335938 -2.101562 9.234375 -1.5 C 8.128906 -0.894531 6.976562 -0.519531 5.78125 -0.375 C 3.9375 -0.144531 2.367188 -0.535156 1.078125 -1.546875 C -0.210938 -2.554688 -1.003906 -4.222656 -1.296875 -6.546875 C -1.410156 -7.515625 -1.410156 -8.789062 -1.296875 -10.375 L 0.328125 -29.46875 L 8.6875 -30.515625 L 6.953125 -10.28125 C 6.898438 -9.800781 6.90625 -9.3125 6.96875 -8.8125 C 7.175781 -7.101562 7.859375 -6.320312 9.015625 -6.46875 C 10.023438 -6.59375 10.859375 -7.140625 11.515625 -8.109375 C 12.179688 -9.085938 12.660156 -10.316406 12.953125 -11.796875 L 14.65625 -31.25 L 23 -32.296875 L 20.609375 -4.6875 C 22.390625 -5.53125 23.757812 -6.640625 24.71875 -8.015625 C 25.6875 -9.398438 26.40625 -11.351562 26.875 -13.875 L 29.3125 -14.1875 C 28.695312 -10.613281 27.597656 -7.914062 26.015625 -6.09375 C 24.441406 -4.269531 22.570312 -2.925781 20.40625 -2.0625 L 20.046875 2.21875 C 19.753906 6.0625 18.742188 8.804688 17.015625 10.453125 C 15.296875 12.097656 13.238281 13.070312 10.84375 13.375 Z M 8.9375 9.015625 C 9.601562 8.929688 10.1875 8.40625 10.6875 7.4375 C 11.195312 6.46875 11.523438 5.132812 11.671875 3.4375 L 11.8125 1.703125 C 8.195312 3.566406 6.503906 5.445312 6.734375 7.34375 C 6.796875 7.84375 7.023438 8.265625 7.421875 8.609375 C 7.816406 8.953125 8.320312 9.085938 8.9375 9.015625 Z M 8.9375 9.015625 "/></g></g></g><g fill="#fd509d" fill-opacity="1"><g transform="translate(197.392415, 52.095036)"><g><path d="M 13.65625 -42.140625 C 10.832031 -40.804688 8.753906 -38.925781 7.421875 -36.5 C 6.097656 -34.082031 5.644531 -31.234375 6.0625 -27.953125 C 6.238281 -26.484375 6.492188 -25.492188 6.828125 -24.984375 C 7.171875 -24.484375 7.351562 -24.171875 7.375 -24.046875 C 3.238281 -23.535156 0.953125 -25.039062 0.515625 -28.5625 C 0.210938 -30.945312 0.828125 -33.460938 2.359375 -36.109375 C 3.890625 -38.765625 6 -41.03125 8.6875 -42.90625 C 11.382812 -44.789062 14.164062 -45.914062 17.03125 -46.28125 C 18.457031 -46.457031 19.957031 -46.367188 21.53125 -46.015625 L 24 -15.28125 L 32.953125 -47.4375 L 41.296875 -48.46875 L 40.53125 -5.046875 L 32.171875 -4 L 32.640625 -30.5 L 25 -3.109375 L 17.046875 -2.125 L 14.953125 -28.40625 L 8.53125 -1.0625 L 3.890625 -0.484375 Z M 13.65625 -42.140625 "/></g></g></g><g fill="#fd509d" fill-opacity="1"><g transform="translate(244.173939, 46.273753)"><g><path d="M 10.84375 13.375 C 8.988281 13.601562 7.382812 13.3125 6.03125 12.5 C 4.675781 11.6875 3.890625 10.375 3.671875 8.5625 C 3.390625 6.351562 4.050781 4.46875 5.65625 2.90625 C 7.269531 1.351562 9.394531 -0.0351562 12.03125 -1.265625 L 12.34375 -4.484375 C 11.375 -3.097656 10.335938 -2.101562 9.234375 -1.5 C 8.128906 -0.894531 6.976562 -0.519531 5.78125 -0.375 C 3.9375 -0.144531 2.367188 -0.535156 1.078125 -1.546875 C -0.210938 -2.554688 -1.003906 -4.222656 -1.296875 -6.546875 C -1.410156 -7.515625 -1.410156 -8.789062 -1.296875 -10.375 L 0.328125 -29.46875 L 8.6875 -30.515625 L 6.953125 -10.28125 C 6.898438 -9.800781 6.90625 -9.3125 6.96875 -8.8125 C 7.175781 -7.101562 7.859375 -6.320312 9.015625 -6.46875 C 10.023438 -6.59375 10.859375 -7.140625 11.515625 -8.109375 C 12.179688 -9.085938 12.660156 -10.316406 12.953125 -11.796875 L 14.65625 -31.25 L 23 -32.296875 L 20.609375 -4.6875 C 22.390625 -5.53125 23.757812 -6.640625 24.71875 -8.015625 C 25.6875 -9.398438 26.40625 -11.351562 26.875 -13.875 L 29.3125 -14.1875 C 28.695312 -10.613281 27.597656 -7.914062 26.015625 -6.09375 C 24.441406 -4.269531 22.570312 -2.925781 20.40625 -2.0625 L 20.046875 2.21875 C 19.753906 6.0625 18.742188 8.804688 17.015625 10.453125 C 15.296875 12.097656 13.238281 13.070312 10.84375 13.375 Z M 8.9375 9.015625 C 9.601562 8.929688 10.1875 8.40625 10.6875 7.4375 C 11.195312 6.46875 11.523438 5.132812 11.671875 3.4375 L 11.8125 1.703125 C 8.195312 3.566406 6.503906 5.445312 6.734375 7.34375 C 6.796875 7.84375 7.023438 8.265625 7.421875 8.609375 C 7.816406 8.953125 8.320312 9.085938 8.9375 9.015625 Z M 8.9375 9.015625 "/></g></g></g></svg>