<svg xmlns="http://www.w3.org/2000/svg" xmlns:xlink="http://www.w3.org/1999/xlink" width="980" zoomAndPan="magnify" viewBox="0 0 735 112.499997" height="150" preserveAspectRatio="xMidYMid meet" version="1.0"><defs><g/><clipPath id="4c2071b468"><path d="M 1.625 0 L 733.371094 0 L 733.371094 112.003906 L 1.625 112.003906 Z M 1.625 0 " clip-rule="nonzero"/></clipPath><clipPath id="7b72e8bc63"><path d="M 1.625 0 L 130 0 L 130 112.003906 L 1.625 112.003906 Z M 1.625 0 " clip-rule="nonzero"/></clipPath><clipPath id="e0b2510f42"><path d="M 107.542969 166.730469 L -82.65625 76.386719 L -4.167969 -88.859375 L 186.03125 1.484375 Z M 107.542969 166.730469 " clip-rule="nonzero"/></clipPath><clipPath id="ecfdda2e36"><path d="M 107.542969 166.730469 L -82.65625 76.386719 L -4.167969 -88.859375 L 186.03125 1.484375 Z M 107.542969 166.730469 " clip-rule="nonzero"/></clipPath><clipPath id="b54d999c51"><path d="M 611 0 L 733.371094 0 L 733.371094 112.003906 L 611 112.003906 Z M 611 0 " clip-rule="nonzero"/></clipPath><clipPath id="0f8bf264f9"><path d="M 699.558594 -58.769531 L 798.082031 111.96875 L 649.335938 197.800781 L 550.8125 27.0625 Z M 699.558594 -58.769531 " clip-rule="nonzero"/></clipPath><clipPath id="b98077ae39"><path d="M 699.558594 -58.769531 L 798.082031 111.96875 L 649.335938 197.800781 L 550.8125 27.0625 Z M 699.558594 -58.769531 " clip-rule="nonzero"/></clipPath></defs><g clip-path="url(#4c2071b468)"><path fill="#ffffff" d="M 1.625 0 L 733.375 0 L 733.375 119.46875 L 1.625 119.46875 Z M 1.625 0 " fill-opacity="1" fill-rule="nonzero"/><path fill="#ffffff" d="M 1.625 0 L 733.375 0 L 733.375 112.003906 L 1.625 112.003906 Z M 1.625 0 " fill-opacity="1" fill-rule="nonzero"/><path fill="#000000" d="M 1.625 0 L 733.375 0 L 733.375 112.003906 L 1.625 112.003906 Z M 1.625 0 " fill-opacity="1" fill-rule="nonzero"/></g><g clip-path="url(#7b72e8bc63)"><g clip-path="url(#e0b2510f42)"><g clip-path="url(#ecfdda2e36)"><path fill="#fd509d" d="M -32.53125 -26.417969 C -33.75 -21.480469 -33.636719 -15.707031 -30.496094 -11.46875 C -27.742188 -7.75 -22.992188 -5.226562 -18.316406 -6.269531 C -12.976562 -7.460938 -10.425781 -12.550781 -8.785156 -17.277344 C -7.113281 -22.085938 -5.496094 -26.617188 -2.230469 -30.617188 C 0.867188 -34.410156 4.839844 -37.550781 9.3125 -39.566406 C 19.6875 -44.246094 32.226562 -42.480469 42.40625 -38.054688 C 51.980469 -33.890625 60.363281 -25.878906 62.234375 -15.242188 C 62.597656 -13.179688 62.691406 -11.09375 62.511719 -9.011719 C 62.488281 -9.015625 62.46875 -9.027344 62.445312 -9.03125 C 48 -11.269531 33.105469 -10.0625 19.183594 -5.609375 C 12.15625 -3.359375 5.367188 -0.265625 -0.925781 3.597656 C -7.742188 7.777344 -14.1875 13.246094 -17.359375 20.777344 C -20.441406 28.09375 -20.492188 36.382812 -18.371094 43.960938 C -16.171875 51.824219 -11.148438 58.039062 -3.886719 61.789062 C 9.226562 68.5625 25.804688 67.792969 39.226562 62.375 C 53.796875 56.492188 65.457031 44.867188 72.542969 30.957031 C 73.027344 30 73.488281 29.03125 73.929688 28.058594 C 81.980469 37.914062 86.667969 50.4375 87.339844 63.125 C 87.496094 66.101562 87.417969 69.070312 87.117188 72.027344 C 76.238281 67.210938 63.832031 66.183594 52.296875 69.183594 C 40.503906 72.253906 29.769531 79.738281 22.785156 89.722656 C 19.058594 95.046875 16.015625 101.269531 16.679688 107.945312 C 17.238281 113.578125 20.144531 118.789062 24.230469 122.640625 C 33.65625 131.523438 48.113281 131.402344 59.546875 126.953125 C 66.3125 124.320312 72.460938 120.324219 78.230469 115.96875 C 84.039062 111.585938 89.457031 106.714844 93.601562 100.722656 C 98.894531 103.800781 102.03125 109.484375 103.867188 115.195312 C 105.628906 120.6875 106.5 128.097656 112.828125 130.296875 C 119.101562 132.480469 125.84375 128.136719 128.03125 122.222656 C 130.429688 115.738281 128.90625 108.367188 126.449219 102.128906 C 123.707031 95.171875 119.265625 88.945312 113.582031 84.09375 C 113.28125 83.839844 112.96875 83.703125 112.65625 83.644531 C 117.269531 61.078125 111.527344 36.757812 97.90625 18.257812 C 93.957031 12.890625 89.339844 8.007812 84.167969 3.804688 C 84.042969 3.703125 83.914062 3.617188 83.785156 3.550781 C 84.085938 3.367188 84.34375 3.070312 84.511719 2.636719 C 88.132812 -6.699219 88.023438 -16.984375 85.019531 -26.476562 C 81.835938 -36.539062 75.480469 -45.304688 67.25 -51.855469 C 58.035156 -59.191406 46.875 -63.820312 35.40625 -66.246094 C 24.351562 -68.582031 12.40625 -69.246094 1.890625 -64.457031 C -3.328125 -62.082031 -8.050781 -58.761719 -12.441406 -55.101562 C -17.082031 -51.234375 -21.390625 -46.921875 -24.921875 -42.007812 C -28.296875 -37.3125 -31.140625 -32.0625 -32.53125 -26.417969 Z M -13.089844 21.667969 C -13.433594 22.191406 -13.75 22.730469 -14.058594 23.277344 C -13.367188 21.496094 -12.476562 19.835938 -11.425781 18.28125 C -12.03125 19.386719 -12.578125 20.519531 -13.089844 21.667969 Z M -5.105469 11.714844 C -5.117188 11.726562 -5.117188 11.738281 -5.128906 11.75 C -5.679688 12.214844 -6.222656 12.691406 -6.746094 13.1875 C -6.832031 13.15625 -6.917969 13.136719 -7.007812 13.121094 C -5.78125 11.953125 -4.464844 10.867188 -3.09375 9.847656 C -3.785156 10.445312 -4.460938 11.066406 -5.105469 11.714844 Z M -4.992188 22.667969 C -5.050781 22.859375 -5.117188 23.050781 -5.179688 23.238281 C -5.355469 23.550781 -5.523438 23.863281 -5.699219 24.175781 C -5.746094 24.039062 -5.808594 23.90625 -5.886719 23.78125 C -5.902344 23.757812 -5.925781 23.738281 -5.941406 23.714844 C -5.636719 23.355469 -5.320312 23.007812 -4.992188 22.667969 Z M -15.253906 39.953125 C -15.121094 40.253906 -14.96875 40.535156 -14.828125 40.824219 C -14.703125 41.832031 -14.523438 42.835938 -14.265625 43.820312 C -14.675781 42.558594 -15 41.261719 -15.253906 39.953125 Z M 22.3125 98.519531 C 21.75 100.839844 21.1875 103.164062 20.625 105.484375 C 20.734375 103.09375 21.363281 100.757812 22.3125 98.519531 Z M 33.460938 84.457031 C 32.296875 85.242188 31.207031 86.136719 30.214844 87.121094 C 30.128906 87.117188 30.046875 87.117188 29.960938 87.128906 C 31.296875 85.6875 32.71875 84.324219 34.21875 83.054688 C 33.988281 83.480469 33.777344 83.921875 33.597656 84.375 C 33.550781 84.402344 33.503906 84.429688 33.460938 84.457031 Z M 21.550781 111.515625 C 21.8125 111.421875 22.035156 111.242188 22.21875 111.011719 C 22.460938 112.421875 22.804688 113.8125 23.269531 115.171875 C 22.574219 114.015625 22 112.789062 21.550781 111.515625 Z M 63.648438 71.515625 C 61.625 71.730469 59.617188 72.085938 57.636719 72.570312 C 56.675781 72.558594 55.714844 72.597656 54.757812 72.683594 C 57.683594 72.011719 60.660156 71.628906 63.648438 71.515625 Z M 33.097656 118.914062 C 32.71875 118.523438 32.335938 118.140625 31.976562 117.738281 C 31.617188 117.214844 31.222656 116.710938 30.839844 116.199219 C 30.703125 115.828125 30.582031 115.453125 30.476562 115.074219 C 31.328125 116.1875 32.179688 117.300781 33.03125 118.417969 C 33.078125 118.554688 33.140625 118.6875 33.179688 118.828125 C 33.152344 118.855469 33.121094 118.882812 33.097656 118.914062 Z M 37.539062 107.519531 C 37.542969 107.203125 37.550781 106.882812 37.550781 106.5625 C 37.921875 107.035156 38.375 107.457031 38.882812 107.824219 C 38.4375 107.726562 37.988281 107.613281 37.539062 107.519531 Z M 40.148438 111.335938 C 39.460938 111.21875 38.769531 111.113281 38.074219 111.039062 C 38.085938 110.929688 38.105469 110.824219 38.117188 110.714844 C 39.109375 110.933594 40.097656 111.15625 41.078125 111.40625 C 40.765625 111.382812 40.457031 111.359375 40.148438 111.335938 Z M 50.128906 110.019531 C 49.480469 110.148438 48.835938 110.277344 48.191406 110.425781 C 47.707031 110.261719 47.21875 110.101562 46.730469 109.945312 C 48.089844 109.867188 49.429688 109.585938 50.742188 109.179688 C 50.566406 109.40625 50.480469 109.648438 50.46875 109.898438 C 50.355469 109.9375 50.242188 109.980469 50.128906 110.019531 Z M 59.613281 112.28125 C 59.488281 112.375 59.386719 112.480469 59.300781 112.589844 C 59.257812 112.597656 59.214844 112.605469 59.175781 112.617188 C 59.003906 112.519531 58.8125 112.457031 58.605469 112.4375 C 59.324219 112.109375 60.035156 111.773438 60.742188 111.429688 C 60.367188 111.714844 59.992188 112 59.613281 112.28125 Z M 60.488281 99.730469 C 56.335938 102.230469 51.757812 105.585938 46.769531 105.941406 C 45.617188 106.027344 44.4375 105.941406 43.324219 105.609375 C 42.589844 105.390625 40.925781 104.816406 40.582031 104.039062 C 40.253906 103.296875 40.835938 101.75 41.117188 101.011719 C 41.570312 99.828125 42.261719 98.792969 43.175781 97.914062 C 46.601562 94.617188 52.144531 93.789062 56.644531 93.078125 C 61.433594 92.320312 66.292969 92.015625 71.136719 92.164062 C 67.894531 95.074219 64.222656 97.480469 60.488281 99.730469 Z M 116.898438 124.898438 C 116.851562 125.382812 116.777344 125.871094 116.660156 126.351562 C 116.605469 126.585938 116.703125 126.75 116.851562 126.839844 C 116.523438 126.871094 116.195312 126.878906 115.867188 126.863281 C 116.414062 126.671875 116.832031 126.179688 116.761719 125.40625 C 116.75 125.277344 116.734375 125.148438 116.71875 125.023438 C 116.78125 124.988281 116.839844 124.941406 116.898438 124.898438 Z M 116.445312 112.941406 C 116.382812 113.597656 116.3125 114.253906 116.226562 114.910156 C 116.199219 114.882812 116.171875 114.855469 116.140625 114.839844 C 116.015625 114.175781 115.890625 113.511719 115.761719 112.851562 C 115.71875 112.492188 115.660156 112.140625 115.589844 111.789062 C 115.65625 111.566406 115.730469 111.34375 115.800781 111.121094 C 116.042969 111.71875 116.253906 112.328125 116.445312 112.941406 Z M 108.453125 116.460938 C 108.921875 117.835938 109.453125 119.1875 110.113281 120.480469 C 110.152344 120.585938 110.199219 120.691406 110.238281 120.796875 C 110.3125 121.363281 110.382812 121.933594 110.480469 122.5 C 110.582031 123.101562 110.988281 123.519531 111.472656 123.710938 C 111.714844 124.253906 111.96875 124.792969 112.226562 125.332031 C 110.859375 124.042969 110.074219 122.148438 109.496094 120.402344 C 109.058594 119.078125 108.695312 117.734375 108.324219 116.394531 C 108.367188 116.417969 108.410156 116.4375 108.453125 116.460938 Z M 108.292969 83.347656 L 108.554688 83.769531 C 108.523438 83.917969 108.496094 84.070312 108.460938 84.21875 C 108.175781 83.949219 107.890625 83.675781 107.601562 83.410156 C 107.605469 83.390625 107.605469 83.371094 107.609375 83.347656 C 107.832031 83.394531 108.066406 83.390625 108.292969 83.347656 Z M 83.804688 95.71875 C 84.394531 95.042969 84.988281 94.363281 85.578125 93.6875 C 86.242188 92.957031 86.898438 92.222656 87.542969 91.476562 C 87.574219 91.550781 87.609375 91.621094 87.640625 91.691406 C 86.683594 92.667969 85.753906 93.671875 84.851562 94.699219 C 84.46875 95.085938 84.09375 95.476562 83.707031 95.859375 C 83.738281 95.8125 83.773438 95.765625 83.804688 95.71875 Z M 77.03125 111.535156 C 77.257812 111.515625 77.484375 111.457031 77.695312 111.308594 C 77.988281 111.097656 78.277344 110.878906 78.566406 110.660156 C 78.304688 110.871094 78.042969 111.082031 77.78125 111.289062 C 76.863281 112.007812 75.929688 112.71875 74.992188 113.417969 C 75.683594 112.804688 76.355469 112.171875 77.03125 111.535156 Z M 75.644531 107.894531 C 75.609375 107.949219 75.570312 108 75.542969 108.058594 C 75.132812 108.519531 74.722656 108.976562 74.285156 109.410156 C 73.945312 109.585938 73.605469 109.765625 73.257812 109.9375 C 74.066406 109.269531 74.863281 108.589844 75.644531 107.894531 Z M 89.761719 44.539062 C 89.21875 43.550781 88.675781 42.566406 88.132812 41.582031 C 88.160156 41.398438 88.171875 41.21875 88.1875 41.039062 C 88.726562 42.199219 89.253906 43.363281 89.761719 44.539062 Z M 86.148438 37.273438 C 86.199219 37.601562 86.242188 37.925781 86.300781 38.25 L 85.035156 35.953125 Z M 91.539062 16.675781 C 90.890625 16.207031 90.238281 15.753906 89.574219 15.304688 C 89.699219 15.109375 89.765625 14.890625 89.792969 14.660156 C 90.386719 15.320312 90.96875 15.996094 91.539062 16.675781 Z M 33.492188 11.507812 C 32.691406 11.640625 31.890625 11.773438 31.097656 11.9375 C 30.515625 12.058594 29.933594 12.191406 29.347656 12.332031 C 30.253906 11.988281 31.164062 11.644531 32.070312 11.304688 C 32.542969 11.375 33.019531 11.445312 33.492188 11.507812 Z M 28.628906 -4.03125 C 28.648438 -3.75 28.71875 -3.480469 28.835938 -3.234375 C 28.527344 -3.195312 28.21875 -3.152344 27.910156 -3.117188 C 27.105469 -3.160156 26.300781 -3.210938 25.496094 -3.238281 C 25.324219 -3.246094 25.199219 -3.148438 25.125 -3.011719 C 24.449219 -2.886719 23.777344 -2.757812 23.109375 -2.625 C 24.933594 -3.148438 26.773438 -3.621094 28.628906 -4.03125 Z M 3.976562 60.664062 C 2.796875 60.316406 1.636719 59.902344 0.496094 59.429688 C 0.515625 59.242188 0.503906 59.046875 0.453125 58.855469 C 0.675781 58.988281 0.894531 59.121094 1.121094 59.246094 C 2.214844 59.851562 3.34375 60.359375 4.496094 60.800781 C 4.324219 60.753906 4.148438 60.714844 3.976562 60.664062 Z M 12.414062 52.863281 C 13.179688 52.96875 13.945312 53.046875 14.710938 53.070312 C 14.660156 53.3125 14.648438 53.5625 14.671875 53.804688 C 13.910156 53.519531 13.160156 53.203125 12.414062 52.863281 Z M 27.390625 42.417969 C 27.28125 42.332031 27.160156 42.257812 27.03125 42.191406 C 27.679688 41.925781 28.324219 41.648438 28.957031 41.351562 C 28.429688 41.703125 27.914062 42.0625 27.390625 42.417969 Z M 27.011719 61.769531 C 26.925781 61.664062 26.828125 61.5625 26.714844 61.46875 C 27.042969 61.425781 27.363281 61.367188 27.6875 61.316406 C 27.691406 61.421875 27.703125 61.523438 27.722656 61.625 C 27.484375 61.667969 27.25 61.730469 27.011719 61.769531 Z M 37.183594 32.011719 C 33.832031 34.339844 30.273438 36.410156 26.53125 38.042969 C 23.035156 39.570312 19.148438 40.832031 15.285156 40.320312 C 12.214844 39.914062 9.210938 38.195312 7.703125 35.414062 C 5.894531 32.082031 7.585938 28.675781 10.042969 26.21875 C 12.714844 23.550781 16.285156 21.546875 19.671875 19.933594 C 23.113281 18.292969 26.734375 17.023438 30.445312 16.136719 C 37.976562 14.34375 45.871094 14.3125 53.433594 15.917969 C 48.960938 22.152344 43.492188 27.621094 37.183594 32.011719 Z M 57.40625 6.578125 C 57.460938 6.304688 57.453125 6.019531 57.394531 5.742188 C 58.050781 6.109375 58.703125 6.476562 59.359375 6.84375 C 58.707031 6.757812 58.058594 6.667969 57.40625 6.578125 Z M 82.128906 -4.386719 C 82.164062 -4.65625 82.183594 -4.929688 82.210938 -5.195312 C 82.234375 -5.222656 82.257812 -5.242188 82.28125 -5.269531 C 82.40625 -5.402344 82.546875 -5.535156 82.695312 -5.652344 C 82.699219 -5.601562 82.703125 -5.550781 82.710938 -5.503906 C 82.621094 -5.019531 82.523438 -4.535156 82.414062 -4.054688 C 82.34375 -4.183594 82.234375 -4.285156 82.128906 -4.386719 Z M 83.296875 -12.679688 C 83.289062 -12.699219 83.277344 -12.722656 83.269531 -12.742188 C 83.214844 -13.03125 83.160156 -13.320312 83.105469 -13.605469 C 83.09375 -13.679688 83.0625 -13.734375 83.03125 -13.789062 C 83.089844 -14.199219 83.144531 -14.609375 83.203125 -15.019531 C 83.257812 -14.242188 83.289062 -13.460938 83.296875 -12.679688 Z M 82.363281 -21.019531 C 82.324219 -21.03125 82.285156 -21.042969 82.246094 -21.050781 C 82.222656 -21.152344 82.191406 -21.257812 82.164062 -21.359375 C 82.023438 -22.015625 81.859375 -22.664062 81.667969 -23.300781 C 81.683594 -23.429688 81.6875 -23.5625 81.699219 -23.695312 C 81.945312 -22.808594 82.171875 -21.917969 82.363281 -21.019531 Z M 62.441406 -5.113281 C 62.484375 -5.089844 62.519531 -5.0625 62.5625 -5.042969 C 62.390625 -5.046875 62.214844 -5.042969 62.042969 -5.050781 C 60.359375 -5.210938 58.664062 -5.308594 56.964844 -5.347656 C 56.867188 -5.5 56.75 -5.640625 56.609375 -5.753906 C 56.636719 -5.753906 56.664062 -5.75 56.691406 -5.746094 C 58.386719 -5.582031 60.070312 -5.359375 61.75 -5.101562 C 62.003906 -5.0625 62.230469 -5.074219 62.441406 -5.113281 Z M -20.257812 -10.015625 C -20.167969 -10.179688 -20.105469 -10.355469 -20.058594 -10.539062 C -19.5625 -10.425781 -19.042969 -10.355469 -18.507812 -10.339844 C -19.085938 -10.132812 -19.671875 -10.035156 -20.257812 -10.015625 Z M 6.886719 -62.136719 C 5.992188 -61.628906 5.105469 -61.109375 4.226562 -60.578125 C 4.128906 -60.722656 4.011719 -60.855469 3.878906 -60.972656 C 4.863281 -61.40625 5.867188 -61.789062 6.886719 -62.136719 Z M -21.957031 -17.933594 C -21.957031 -17.71875 -21.964844 -17.507812 -21.945312 -17.289062 C -21.902344 -16.734375 -21.691406 -16.324219 -21.390625 -16.035156 C -21.414062 -15.933594 -21.4375 -15.832031 -21.460938 -15.726562 C -21.691406 -15.945312 -21.898438 -16.1875 -22.09375 -16.441406 C -22.289062 -17.15625 -22.445312 -17.878906 -22.5625 -18.613281 C -22.429688 -18.339844 -22.21875 -18.113281 -21.957031 -17.933594 Z M -22.226562 -38.917969 C -22.207031 -38.878906 -22.1875 -38.84375 -22.167969 -38.804688 C -23.410156 -36.972656 -24.59375 -35.101562 -25.691406 -33.179688 C -24.679688 -35.171875 -23.503906 -37.078125 -22.226562 -38.917969 Z M -22.226562 -38.917969 " fill-opacity="1" fill-rule="nonzero"/></g></g></g><g fill="#ff00ff" fill-opacity="1"><g transform="translate(227.879531, 95.920074)"><g><path d="M 32.234375 -71.375 L 30.953125 -71.375 C 24.546875 -71.375 19.5625 -69.773438 16 -66.578125 C 12.445312 -63.378906 10.671875 -57.71875 10.671875 -49.59375 C 10.671875 -46.9375 10.921875 -45.085938 11.421875 -44.046875 C 11.929688 -43.003906 12.1875 -42.410156 12.1875 -42.265625 C 8.300781 -42.265625 5.40625 -43.070312 3.5 -44.6875 C 1.59375 -46.3125 0.640625 -48.992188 0.640625 -52.734375 C 0.640625 -57.835938 1.894531 -62.488281 4.40625 -66.6875 C 6.925781 -70.894531 10.9375 -74.289062 16.4375 -76.875 C 21.9375 -79.46875 28.929688 -80.765625 37.421875 -80.765625 C 42.160156 -80.765625 47.265625 -80.332031 52.734375 -79.46875 C 57.328125 -78.675781 61.421875 -78.28125 65.015625 -78.28125 C 69.617188 -78.28125 73.789062 -79.035156 77.53125 -80.546875 C 77.382812 -75.867188 76.195312 -72.414062 73.96875 -70.1875 C 71.738281 -67.96875 68.429688 -66.859375 64.046875 -66.859375 C 61.742188 -66.859375 59.441406 -67.035156 57.140625 -67.390625 C 54.847656 -67.753906 51.582031 -68.363281 47.34375 -69.21875 L 32.453125 0 L 16.921875 0 Z M 32.234375 -71.375 "/></g></g></g><g fill="#ff00ff" fill-opacity="1"><g transform="translate(281.896026, 95.920074)"><g><path d="M 10.671875 0.640625 C 7.222656 0.640625 4.4375 -0.4375 2.3125 -2.59375 C 0.195312 -4.75 -0.859375 -7.984375 -0.859375 -12.296875 C -0.859375 -14.085938 -0.570312 -16.421875 0 -19.296875 L 7.328125 -53.921875 L 22.859375 -53.921875 L 15.09375 -17.25 C 14.875 -16.382812 14.765625 -15.488281 14.765625 -14.5625 C 14.765625 -11.394531 15.84375 -9.8125 18 -9.8125 C 20.019531 -9.8125 21.75 -10.65625 23.1875 -12.34375 C 24.625 -14.03125 25.773438 -16.347656 26.640625 -19.296875 L 33.96875 -53.921875 L 49.5 -53.921875 L 41.734375 -17.25 C 41.367188 -15.457031 41.1875 -14.164062 41.1875 -13.375 C 41.1875 -11 42.410156 -9.8125 44.859375 -9.8125 C 48.160156 -9.8125 51.226562 -11.894531 54.0625 -16.0625 C 56.90625 -20.238281 59.191406 -25.203125 60.921875 -30.953125 C 62.648438 -36.703125 63.515625 -41.660156 63.515625 -45.828125 C 63.367188 -45.460938 62.898438 -45.191406 62.109375 -45.015625 C 61.316406 -44.835938 60.632812 -44.75 60.0625 -44.75 C 58.84375 -44.75 57.890625 -45.320312 57.203125 -46.46875 C 56.515625 -47.625 56.171875 -48.882812 56.171875 -50.25 C 56.171875 -51.96875 56.726562 -53.367188 57.84375 -54.453125 C 58.957031 -55.535156 60.628906 -56.078125 62.859375 -56.078125 C 65.234375 -56.078125 66.957031 -55.191406 68.03125 -53.421875 C 69.113281 -51.660156 69.65625 -49.414062 69.65625 -46.6875 C 69.65625 -40.21875 68.539062 -33.296875 66.3125 -25.921875 C 64.082031 -18.554688 60.664062 -12.285156 56.0625 -7.109375 C 51.46875 -1.941406 45.753906 0.640625 38.921875 0.640625 C 35.398438 0.640625 32.523438 -0.109375 30.296875 -1.609375 C 28.066406 -3.117188 26.628906 -5.382812 25.984375 -8.40625 C 21.960938 -2.375 16.859375 0.640625 10.671875 0.640625 Z M 10.671875 0.640625 "/></g></g></g><g fill="#ff00ff" fill-opacity="1"><g transform="translate(355.319571, 95.920074)"><g><path d="M 18 -59.734375 C 15.632812 -59.734375 13.625 -60.5625 11.96875 -62.21875 C 10.3125 -63.875 9.484375 -65.882812 9.484375 -68.25 C 9.484375 -70.625 10.3125 -72.65625 11.96875 -74.34375 C 13.625 -76.03125 15.632812 -76.875 18 -76.875 C 20.375 -76.875 22.40625 -76.03125 24.09375 -74.34375 C 25.789062 -72.65625 26.640625 -70.625 26.640625 -68.25 C 26.640625 -65.882812 25.789062 -63.875 24.09375 -62.21875 C 22.40625 -60.5625 20.375 -59.734375 18 -59.734375 Z M 10.671875 0.640625 C 7.222656 0.640625 4.4375 -0.4375 2.3125 -2.59375 C 0.195312 -4.75 -0.859375 -7.984375 -0.859375 -12.296875 C -0.859375 -14.085938 -0.570312 -16.421875 0 -19.296875 L 7.328125 -53.921875 L 22.859375 -53.921875 L 15.09375 -17.25 C 14.8125 -16.175781 14.671875 -15.023438 14.671875 -13.796875 C 14.671875 -12.359375 15.007812 -11.332031 15.6875 -10.71875 C 16.375 -10.113281 17.503906 -9.8125 19.078125 -9.8125 C 21.171875 -9.8125 23.113281 -10.691406 24.90625 -12.453125 C 26.707031 -14.210938 28.003906 -16.492188 28.796875 -19.296875 L 33.3125 -19.296875 C 30.65625 -11.535156 27.242188 -6.269531 23.078125 -3.5 C 18.910156 -0.738281 14.773438 0.640625 10.671875 0.640625 Z M 10.671875 0.640625 "/></g></g></g><g fill="#ff00ff" fill-opacity="1"><g transform="translate(386.263247, 95.920074)"><g><path d="M 10.671875 0.640625 C 7.222656 0.640625 4.4375 -0.4375 2.3125 -2.59375 C 0.195312 -4.75 -0.859375 -7.984375 -0.859375 -12.296875 C -0.859375 -14.085938 -0.570312 -16.421875 0 -19.296875 L 6.46875 -49.59375 L 2.90625 -49.59375 L 3.78125 -53.921875 L 7.328125 -53.921875 L 10.5625 -68.796875 L 26.53125 -70.953125 L 22.859375 -53.921875 L 29.328125 -53.921875 L 28.46875 -49.59375 L 22 -49.59375 L 15.09375 -17.25 C 14.8125 -16.175781 14.671875 -15.023438 14.671875 -13.796875 C 14.671875 -12.359375 15.007812 -11.332031 15.6875 -10.71875 C 16.375 -10.113281 17.503906 -9.8125 19.078125 -9.8125 C 21.171875 -9.8125 23.113281 -10.691406 24.90625 -12.453125 C 26.707031 -14.210938 28.003906 -16.492188 28.796875 -19.296875 L 33.3125 -19.296875 C 30.65625 -11.535156 27.242188 -6.269531 23.078125 -3.5 C 18.910156 -0.738281 14.773438 0.640625 10.671875 0.640625 Z M 10.671875 0.640625 "/></g></g></g><g fill="#ff00ff" fill-opacity="1"><g transform="translate(417.20691, 95.920074)"><g><path d="M 15.421875 0.640625 C 10.097656 0.640625 5.960938 -0.738281 3.015625 -3.5 C 0.0664062 -6.269531 -1.40625 -10.601562 -1.40625 -16.5 C -1.40625 -21.457031 -0.414062 -26.921875 1.5625 -32.890625 C 3.539062 -38.859375 6.703125 -44.015625 11.046875 -48.359375 C 15.398438 -52.710938 20.921875 -54.890625 27.609375 -54.890625 C 31.921875 -54.890625 34.992188 -53.953125 36.828125 -52.078125 C 38.660156 -50.210938 39.578125 -47.84375 39.578125 -44.96875 C 39.578125 -42.445312 39.035156 -40.503906 37.953125 -39.140625 C 36.878906 -37.773438 35.515625 -37.09375 33.859375 -37.09375 C 32.640625 -37.09375 31.378906 -37.523438 30.078125 -38.390625 C 30.941406 -40.753906 31.375 -42.875 31.375 -44.75 C 31.375 -46.113281 31.125 -47.191406 30.625 -47.984375 C 30.125 -48.773438 29.367188 -49.171875 28.359375 -49.171875 C 26.203125 -49.171875 24.046875 -47.410156 21.890625 -43.890625 C 19.734375 -40.367188 17.972656 -36.085938 16.609375 -31.046875 C 15.242188 -26.015625 14.5625 -21.488281 14.5625 -17.46875 C 14.5625 -13.945312 15.171875 -11.554688 16.390625 -10.296875 C 17.609375 -9.035156 19.585938 -8.40625 22.328125 -8.40625 C 26.203125 -8.40625 29.523438 -9.300781 32.296875 -11.09375 C 35.066406 -12.894531 38.101562 -15.628906 41.40625 -19.296875 L 45.078125 -19.296875 C 37.097656 -6.003906 27.210938 0.640625 15.421875 0.640625 Z M 15.421875 0.640625 "/></g></g></g><g fill="#ff00ff" fill-opacity="1"><g transform="translate(460.765173, 95.920074)"><g><path d="M 38.921875 0.640625 C 34.535156 0.640625 31.316406 -0.523438 29.265625 -2.859375 C 27.222656 -5.191406 26.203125 -8.082031 26.203125 -11.53125 C 26.203125 -13.039062 26.378906 -14.75 26.734375 -16.65625 C 27.097656 -18.5625 27.476562 -20.410156 27.875 -22.203125 C 28.269531 -24.003906 28.539062 -25.15625 28.6875 -25.65625 C 29.257812 -28.175781 29.796875 -30.65625 30.296875 -33.09375 C 30.796875 -35.539062 31.046875 -37.519531 31.046875 -39.03125 C 31.046875 -42.695312 29.753906 -44.53125 27.171875 -44.53125 C 25.304688 -44.53125 23.65625 -43.613281 22.21875 -41.78125 C 20.78125 -39.945312 19.628906 -37.554688 18.765625 -34.609375 L 11.4375 0 L -4.09375 0 L 11.53125 -73.328125 L 27.5 -75.484375 L 21.671875 -48.3125 C 25.265625 -52.332031 29.472656 -54.34375 34.296875 -54.34375 C 37.953125 -54.34375 40.859375 -53.335938 43.015625 -51.328125 C 45.179688 -49.316406 46.265625 -46.257812 46.265625 -42.15625 C 46.265625 -40.070312 46.007812 -37.753906 45.5 -35.203125 C 45 -32.648438 44.28125 -29.539062 43.34375 -25.875 C 42.769531 -23.644531 42.25 -21.46875 41.78125 -19.34375 C 41.3125 -17.226562 41.078125 -15.5625 41.078125 -14.34375 C 41.078125 -12.90625 41.398438 -11.789062 42.046875 -11 C 42.691406 -10.207031 43.804688 -9.8125 45.390625 -9.8125 C 47.546875 -9.8125 49.269531 -10.582031 50.5625 -12.125 C 51.863281 -13.675781 53.160156 -16.066406 54.453125 -19.296875 L 58.984375 -19.296875 C 56.328125 -11.390625 53.253906 -6.085938 49.765625 -3.390625 C 46.273438 -0.703125 42.660156 0.640625 38.921875 0.640625 Z M 38.921875 0.640625 "/></g></g></g><g fill="#00ffff" fill-opacity="1"><g transform="translate(219.792446, 95.920074)"><g><path d="M 32.234375 -71.375 L 30.953125 -71.375 C 24.546875 -71.375 19.5625 -69.773438 16 -66.578125 C 12.445312 -63.378906 10.671875 -57.71875 10.671875 -49.59375 C 10.671875 -46.9375 10.921875 -45.085938 11.421875 -44.046875 C 11.929688 -43.003906 12.1875 -42.410156 12.1875 -42.265625 C 8.300781 -42.265625 5.40625 -43.070312 3.5 -44.6875 C 1.59375 -46.3125 0.640625 -48.992188 0.640625 -52.734375 C 0.640625 -57.835938 1.894531 -62.488281 4.40625 -66.6875 C 6.925781 -70.894531 10.9375 -74.289062 16.4375 -76.875 C 21.9375 -79.46875 28.929688 -80.765625 37.421875 -80.765625 C 42.160156 -80.765625 47.265625 -80.332031 52.734375 -79.46875 C 57.328125 -78.675781 61.421875 -78.28125 65.015625 -78.28125 C 69.617188 -78.28125 73.789062 -79.035156 77.53125 -80.546875 C 77.382812 -75.867188 76.195312 -72.414062 73.96875 -70.1875 C 71.738281 -67.96875 68.429688 -66.859375 64.046875 -66.859375 C 61.742188 -66.859375 59.441406 -67.035156 57.140625 -67.390625 C 54.847656 -67.753906 51.582031 -68.363281 47.34375 -69.21875 L 32.453125 0 L 16.921875 0 Z M 32.234375 -71.375 "/></g></g></g><g fill="#00ffff" fill-opacity="1"><g transform="translate(273.808941, 95.920074)"><g><path d="M 10.671875 0.640625 C 7.222656 0.640625 4.4375 -0.4375 2.3125 -2.59375 C 0.195312 -4.75 -0.859375 -7.984375 -0.859375 -12.296875 C -0.859375 -14.085938 -0.570312 -16.421875 0 -19.296875 L 7.328125 -53.921875 L 22.859375 -53.921875 L 15.09375 -17.25 C 14.875 -16.382812 14.765625 -15.488281 14.765625 -14.5625 C 14.765625 -11.394531 15.84375 -9.8125 18 -9.8125 C 20.019531 -9.8125 21.75 -10.65625 23.1875 -12.34375 C 24.625 -14.03125 25.773438 -16.347656 26.640625 -19.296875 L 33.96875 -53.921875 L 49.5 -53.921875 L 41.734375 -17.25 C 41.367188 -15.457031 41.1875 -14.164062 41.1875 -13.375 C 41.1875 -11 42.410156 -9.8125 44.859375 -9.8125 C 48.160156 -9.8125 51.226562 -11.894531 54.0625 -16.0625 C 56.90625 -20.238281 59.191406 -25.203125 60.921875 -30.953125 C 62.648438 -36.703125 63.515625 -41.660156 63.515625 -45.828125 C 63.367188 -45.460938 62.898438 -45.191406 62.109375 -45.015625 C 61.316406 -44.835938 60.632812 -44.75 60.0625 -44.75 C 58.84375 -44.75 57.890625 -45.320312 57.203125 -46.46875 C 56.515625 -47.625 56.171875 -48.882812 56.171875 -50.25 C 56.171875 -51.96875 56.726562 -53.367188 57.84375 -54.453125 C 58.957031 -55.535156 60.628906 -56.078125 62.859375 -56.078125 C 65.234375 -56.078125 66.957031 -55.191406 68.03125 -53.421875 C 69.113281 -51.660156 69.65625 -49.414062 69.65625 -46.6875 C 69.65625 -40.21875 68.539062 -33.296875 66.3125 -25.921875 C 64.082031 -18.554688 60.664062 -12.285156 56.0625 -7.109375 C 51.46875 -1.941406 45.753906 0.640625 38.921875 0.640625 C 35.398438 0.640625 32.523438 -0.109375 30.296875 -1.609375 C 28.066406 -3.117188 26.628906 -5.382812 25.984375 -8.40625 C 21.960938 -2.375 16.859375 0.640625 10.671875 0.640625 Z M 10.671875 0.640625 "/></g></g></g><g fill="#00ffff" fill-opacity="1"><g transform="translate(347.232486, 95.920074)"><g><path d="M 18 -59.734375 C 15.632812 -59.734375 13.625 -60.5625 11.96875 -62.21875 C 10.3125 -63.875 9.484375 -65.882812 9.484375 -68.25 C 9.484375 -70.625 10.3125 -72.65625 11.96875 -74.34375 C 13.625 -76.03125 15.632812 -76.875 18 -76.875 C 20.375 -76.875 22.40625 -76.03125 24.09375 -74.34375 C 25.789062 -72.65625 26.640625 -70.625 26.640625 -68.25 C 26.640625 -65.882812 25.789062 -63.875 24.09375 -62.21875 C 22.40625 -60.5625 20.375 -59.734375 18 -59.734375 Z M 10.671875 0.640625 C 7.222656 0.640625 4.4375 -0.4375 2.3125 -2.59375 C 0.195312 -4.75 -0.859375 -7.984375 -0.859375 -12.296875 C -0.859375 -14.085938 -0.570312 -16.421875 0 -19.296875 L 7.328125 -53.921875 L 22.859375 -53.921875 L 15.09375 -17.25 C 14.8125 -16.175781 14.671875 -15.023438 14.671875 -13.796875 C 14.671875 -12.359375 15.007812 -11.332031 15.6875 -10.71875 C 16.375 -10.113281 17.503906 -9.8125 19.078125 -9.8125 C 21.171875 -9.8125 23.113281 -10.691406 24.90625 -12.453125 C 26.707031 -14.210938 28.003906 -16.492188 28.796875 -19.296875 L 33.3125 -19.296875 C 30.65625 -11.535156 27.242188 -6.269531 23.078125 -3.5 C 18.910156 -0.738281 14.773438 0.640625 10.671875 0.640625 Z M 10.671875 0.640625 "/></g></g></g><g fill="#00ffff" fill-opacity="1"><g transform="translate(378.176162, 95.920074)"><g><path d="M 10.671875 0.640625 C 7.222656 0.640625 4.4375 -0.4375 2.3125 -2.59375 C 0.195312 -4.75 -0.859375 -7.984375 -0.859375 -12.296875 C -0.859375 -14.085938 -0.570312 -16.421875 0 -19.296875 L 6.46875 -49.59375 L 2.90625 -49.59375 L 3.78125 -53.921875 L 7.328125 -53.921875 L 10.5625 -68.796875 L 26.53125 -70.953125 L 22.859375 -53.921875 L 29.328125 -53.921875 L 28.46875 -49.59375 L 22 -49.59375 L 15.09375 -17.25 C 14.8125 -16.175781 14.671875 -15.023438 14.671875 -13.796875 C 14.671875 -12.359375 15.007812 -11.332031 15.6875 -10.71875 C 16.375 -10.113281 17.503906 -9.8125 19.078125 -9.8125 C 21.171875 -9.8125 23.113281 -10.691406 24.90625 -12.453125 C 26.707031 -14.210938 28.003906 -16.492188 28.796875 -19.296875 L 33.3125 -19.296875 C 30.65625 -11.535156 27.242188 -6.269531 23.078125 -3.5 C 18.910156 -0.738281 14.773438 0.640625 10.671875 0.640625 Z M 10.671875 0.640625 "/></g></g></g><g fill="#00ffff" fill-opacity="1"><g transform="translate(409.119825, 95.920074)"><g><path d="M 15.421875 0.640625 C 10.097656 0.640625 5.960938 -0.738281 3.015625 -3.5 C 0.0664062 -6.269531 -1.40625 -10.601562 -1.40625 -16.5 C -1.40625 -21.457031 -0.414062 -26.921875 1.5625 -32.890625 C 3.539062 -38.859375 6.703125 -44.015625 11.046875 -48.359375 C 15.398438 -52.710938 20.921875 -54.890625 27.609375 -54.890625 C 31.921875 -54.890625 34.992188 -53.953125 36.828125 -52.078125 C 38.660156 -50.210938 39.578125 -47.84375 39.578125 -44.96875 C 39.578125 -42.445312 39.035156 -40.503906 37.953125 -39.140625 C 36.878906 -37.773438 35.515625 -37.09375 33.859375 -37.09375 C 32.640625 -37.09375 31.378906 -37.523438 30.078125 -38.390625 C 30.941406 -40.753906 31.375 -42.875 31.375 -44.75 C 31.375 -46.113281 31.125 -47.191406 30.625 -47.984375 C 30.125 -48.773438 29.367188 -49.171875 28.359375 -49.171875 C 26.203125 -49.171875 24.046875 -47.410156 21.890625 -43.890625 C 19.734375 -40.367188 17.972656 -36.085938 16.609375 -31.046875 C 15.242188 -26.015625 14.5625 -21.488281 14.5625 -17.46875 C 14.5625 -13.945312 15.171875 -11.554688 16.390625 -10.296875 C 17.609375 -9.035156 19.585938 -8.40625 22.328125 -8.40625 C 26.203125 -8.40625 29.523438 -9.300781 32.296875 -11.09375 C 35.066406 -12.894531 38.101562 -15.628906 41.40625 -19.296875 L 45.078125 -19.296875 C 37.097656 -6.003906 27.210938 0.640625 15.421875 0.640625 Z M 15.421875 0.640625 "/></g></g></g><g fill="#00ffff" fill-opacity="1"><g transform="translate(452.678088, 95.920074)"><g><path d="M 38.921875 0.640625 C 34.535156 0.640625 31.316406 -0.523438 29.265625 -2.859375 C 27.222656 -5.191406 26.203125 -8.082031 26.203125 -11.53125 C 26.203125 -13.039062 26.378906 -14.75 26.734375 -16.65625 C 27.097656 -18.5625 27.476562 -20.410156 27.875 -22.203125 C 28.269531 -24.003906 28.539062 -25.15625 28.6875 -25.65625 C 29.257812 -28.175781 29.796875 -30.65625 30.296875 -33.09375 C 30.796875 -35.539062 31.046875 -37.519531 31.046875 -39.03125 C 31.046875 -42.695312 29.753906 -44.53125 27.171875 -44.53125 C 25.304688 -44.53125 23.65625 -43.613281 22.21875 -41.78125 C 20.78125 -39.945312 19.628906 -37.554688 18.765625 -34.609375 L 11.4375 0 L -4.09375 0 L 11.53125 -73.328125 L 27.5 -75.484375 L 21.671875 -48.3125 C 25.265625 -52.332031 29.472656 -54.34375 34.296875 -54.34375 C 37.953125 -54.34375 40.859375 -53.335938 43.015625 -51.328125 C 45.179688 -49.316406 46.265625 -46.257812 46.265625 -42.15625 C 46.265625 -40.070312 46.007812 -37.753906 45.5 -35.203125 C 45 -32.648438 44.28125 -29.539062 43.34375 -25.875 C 42.769531 -23.644531 42.25 -21.46875 41.78125 -19.34375 C 41.3125 -17.226562 41.078125 -15.5625 41.078125 -14.34375 C 41.078125 -12.90625 41.398438 -11.789062 42.046875 -11 C 42.691406 -10.207031 43.804688 -9.8125 45.390625 -9.8125 C 47.546875 -9.8125 49.269531 -10.582031 50.5625 -12.125 C 51.863281 -13.675781 53.160156 -16.066406 54.453125 -19.296875 L 58.984375 -19.296875 C 56.328125 -11.390625 53.253906 -6.085938 49.765625 -3.390625 C 46.273438 -0.703125 42.660156 0.640625 38.921875 0.640625 Z M 38.921875 0.640625 "/></g></g></g><g fill="#ffffff" fill-opacity="1"><g transform="translate(223.835988, 95.920074)"><g><path d="M 32.234375 -71.375 L 30.953125 -71.375 C 24.546875 -71.375 19.5625 -69.773438 16 -66.578125 C 12.445312 -63.378906 10.671875 -57.71875 10.671875 -49.59375 C 10.671875 -46.9375 10.921875 -45.085938 11.421875 -44.046875 C 11.929688 -43.003906 12.1875 -42.410156 12.1875 -42.265625 C 8.300781 -42.265625 5.40625 -43.070312 3.5 -44.6875 C 1.59375 -46.3125 0.640625 -48.992188 0.640625 -52.734375 C 0.640625 -57.835938 1.894531 -62.488281 4.40625 -66.6875 C 6.925781 -70.894531 10.9375 -74.289062 16.4375 -76.875 C 21.9375 -79.46875 28.929688 -80.765625 37.421875 -80.765625 C 42.160156 -80.765625 47.265625 -80.332031 52.734375 -79.46875 C 57.328125 -78.675781 61.421875 -78.28125 65.015625 -78.28125 C 69.617188 -78.28125 73.789062 -79.035156 77.53125 -80.546875 C 77.382812 -75.867188 76.195312 -72.414062 73.96875 -70.1875 C 71.738281 -67.96875 68.429688 -66.859375 64.046875 -66.859375 C 61.742188 -66.859375 59.441406 -67.035156 57.140625 -67.390625 C 54.847656 -67.753906 51.582031 -68.363281 47.34375 -69.21875 L 32.453125 0 L 16.921875 0 Z M 32.234375 -71.375 "/></g></g></g><g fill="#ffffff" fill-opacity="1"><g transform="translate(277.852482, 95.920074)"><g><path d="M 10.671875 0.640625 C 7.222656 0.640625 4.4375 -0.4375 2.3125 -2.59375 C 0.195312 -4.75 -0.859375 -7.984375 -0.859375 -12.296875 C -0.859375 -14.085938 -0.570312 -16.421875 0 -19.296875 L 7.328125 -53.921875 L 22.859375 -53.921875 L 15.09375 -17.25 C 14.875 -16.382812 14.765625 -15.488281 14.765625 -14.5625 C 14.765625 -11.394531 15.84375 -9.8125 18 -9.8125 C 20.019531 -9.8125 21.75 -10.65625 23.1875 -12.34375 C 24.625 -14.03125 25.773438 -16.347656 26.640625 -19.296875 L 33.96875 -53.921875 L 49.5 -53.921875 L 41.734375 -17.25 C 41.367188 -15.457031 41.1875 -14.164062 41.1875 -13.375 C 41.1875 -11 42.410156 -9.8125 44.859375 -9.8125 C 48.160156 -9.8125 51.226562 -11.894531 54.0625 -16.0625 C 56.90625 -20.238281 59.191406 -25.203125 60.921875 -30.953125 C 62.648438 -36.703125 63.515625 -41.660156 63.515625 -45.828125 C 63.367188 -45.460938 62.898438 -45.191406 62.109375 -45.015625 C 61.316406 -44.835938 60.632812 -44.75 60.0625 -44.75 C 58.84375 -44.75 57.890625 -45.320312 57.203125 -46.46875 C 56.515625 -47.625 56.171875 -48.882812 56.171875 -50.25 C 56.171875 -51.96875 56.726562 -53.367188 57.84375 -54.453125 C 58.957031 -55.535156 60.628906 -56.078125 62.859375 -56.078125 C 65.234375 -56.078125 66.957031 -55.191406 68.03125 -53.421875 C 69.113281 -51.660156 69.65625 -49.414062 69.65625 -46.6875 C 69.65625 -40.21875 68.539062 -33.296875 66.3125 -25.921875 C 64.082031 -18.554688 60.664062 -12.285156 56.0625 -7.109375 C 51.46875 -1.941406 45.753906 0.640625 38.921875 0.640625 C 35.398438 0.640625 32.523438 -0.109375 30.296875 -1.609375 C 28.066406 -3.117188 26.628906 -5.382812 25.984375 -8.40625 C 21.960938 -2.375 16.859375 0.640625 10.671875 0.640625 Z M 10.671875 0.640625 "/></g></g></g><g fill="#ffffff" fill-opacity="1"><g transform="translate(351.276027, 95.920074)"><g><path d="M 18 -59.734375 C 15.632812 -59.734375 13.625 -60.5625 11.96875 -62.21875 C 10.3125 -63.875 9.484375 -65.882812 9.484375 -68.25 C 9.484375 -70.625 10.3125 -72.65625 11.96875 -74.34375 C 13.625 -76.03125 15.632812 -76.875 18 -76.875 C 20.375 -76.875 22.40625 -76.03125 24.09375 -74.34375 C 25.789062 -72.65625 26.640625 -70.625 26.640625 -68.25 C 26.640625 -65.882812 25.789062 -63.875 24.09375 -62.21875 C 22.40625 -60.5625 20.375 -59.734375 18 -59.734375 Z M 10.671875 0.640625 C 7.222656 0.640625 4.4375 -0.4375 2.3125 -2.59375 C 0.195312 -4.75 -0.859375 -7.984375 -0.859375 -12.296875 C -0.859375 -14.085938 -0.570312 -16.421875 0 -19.296875 L 7.328125 -53.921875 L 22.859375 -53.921875 L 15.09375 -17.25 C 14.8125 -16.175781 14.671875 -15.023438 14.671875 -13.796875 C 14.671875 -12.359375 15.007812 -11.332031 15.6875 -10.71875 C 16.375 -10.113281 17.503906 -9.8125 19.078125 -9.8125 C 21.171875 -9.8125 23.113281 -10.691406 24.90625 -12.453125 C 26.707031 -14.210938 28.003906 -16.492188 28.796875 -19.296875 L 33.3125 -19.296875 C 30.65625 -11.535156 27.242188 -6.269531 23.078125 -3.5 C 18.910156 -0.738281 14.773438 0.640625 10.671875 0.640625 Z M 10.671875 0.640625 "/></g></g></g><g fill="#ffffff" fill-opacity="1"><g transform="translate(382.219703, 95.920074)"><g><path d="M 10.671875 0.640625 C 7.222656 0.640625 4.4375 -0.4375 2.3125 -2.59375 C 0.195312 -4.75 -0.859375 -7.984375 -0.859375 -12.296875 C -0.859375 -14.085938 -0.570312 -16.421875 0 -19.296875 L 6.46875 -49.59375 L 2.90625 -49.59375 L 3.78125 -53.921875 L 7.328125 -53.921875 L 10.5625 -68.796875 L 26.53125 -70.953125 L 22.859375 -53.921875 L 29.328125 -53.921875 L 28.46875 -49.59375 L 22 -49.59375 L 15.09375 -17.25 C 14.8125 -16.175781 14.671875 -15.023438 14.671875 -13.796875 C 14.671875 -12.359375 15.007812 -11.332031 15.6875 -10.71875 C 16.375 -10.113281 17.503906 -9.8125 19.078125 -9.8125 C 21.171875 -9.8125 23.113281 -10.691406 24.90625 -12.453125 C 26.707031 -14.210938 28.003906 -16.492188 28.796875 -19.296875 L 33.3125 -19.296875 C 30.65625 -11.535156 27.242188 -6.269531 23.078125 -3.5 C 18.910156 -0.738281 14.773438 0.640625 10.671875 0.640625 Z M 10.671875 0.640625 "/></g></g></g><g fill="#ffffff" fill-opacity="1"><g transform="translate(413.163366, 95.920074)"><g><path d="M 15.421875 0.640625 C 10.097656 0.640625 5.960938 -0.738281 3.015625 -3.5 C 0.0664062 -6.269531 -1.40625 -10.601562 -1.40625 -16.5 C -1.40625 -21.457031 -0.414062 -26.921875 1.5625 -32.890625 C 3.539062 -38.859375 6.703125 -44.015625 11.046875 -48.359375 C 15.398438 -52.710938 20.921875 -54.890625 27.609375 -54.890625 C 31.921875 -54.890625 34.992188 -53.953125 36.828125 -52.078125 C 38.660156 -50.210938 39.578125 -47.84375 39.578125 -44.96875 C 39.578125 -42.445312 39.035156 -40.503906 37.953125 -39.140625 C 36.878906 -37.773438 35.515625 -37.09375 33.859375 -37.09375 C 32.640625 -37.09375 31.378906 -37.523438 30.078125 -38.390625 C 30.941406 -40.753906 31.375 -42.875 31.375 -44.75 C 31.375 -46.113281 31.125 -47.191406 30.625 -47.984375 C 30.125 -48.773438 29.367188 -49.171875 28.359375 -49.171875 C 26.203125 -49.171875 24.046875 -47.410156 21.890625 -43.890625 C 19.734375 -40.367188 17.972656 -36.085938 16.609375 -31.046875 C 15.242188 -26.015625 14.5625 -21.488281 14.5625 -17.46875 C 14.5625 -13.945312 15.171875 -11.554688 16.390625 -10.296875 C 17.609375 -9.035156 19.585938 -8.40625 22.328125 -8.40625 C 26.203125 -8.40625 29.523438 -9.300781 32.296875 -11.09375 C 35.066406 -12.894531 38.101562 -15.628906 41.40625 -19.296875 L 45.078125 -19.296875 C 37.097656 -6.003906 27.210938 0.640625 15.421875 0.640625 Z M 15.421875 0.640625 "/></g></g></g><g fill="#ffffff" fill-opacity="1"><g transform="translate(456.72163, 95.920074)"><g><path d="M 38.921875 0.640625 C 34.535156 0.640625 31.316406 -0.523438 29.265625 -2.859375 C 27.222656 -5.191406 26.203125 -8.082031 26.203125 -11.53125 C 26.203125 -13.039062 26.378906 -14.75 26.734375 -16.65625 C 27.097656 -18.5625 27.476562 -20.410156 27.875 -22.203125 C 28.269531 -24.003906 28.539062 -25.15625 28.6875 -25.65625 C 29.257812 -28.175781 29.796875 -30.65625 30.296875 -33.09375 C 30.796875 -35.539062 31.046875 -37.519531 31.046875 -39.03125 C 31.046875 -42.695312 29.753906 -44.53125 27.171875 -44.53125 C 25.304688 -44.53125 23.65625 -43.613281 22.21875 -41.78125 C 20.78125 -39.945312 19.628906 -37.554688 18.765625 -34.609375 L 11.4375 0 L -4.09375 0 L 11.53125 -73.328125 L 27.5 -75.484375 L 21.671875 -48.3125 C 25.265625 -52.332031 29.472656 -54.34375 34.296875 -54.34375 C 37.953125 -54.34375 40.859375 -53.335938 43.015625 -51.328125 C 45.179688 -49.316406 46.265625 -46.257812 46.265625 -42.15625 C 46.265625 -40.070312 46.007812 -37.753906 45.5 -35.203125 C 45 -32.648438 44.28125 -29.539062 43.34375 -25.875 C 42.769531 -23.644531 42.25 -21.46875 41.78125 -19.34375 C 41.3125 -17.226562 41.078125 -15.5625 41.078125 -14.34375 C 41.078125 -12.90625 41.398438 -11.789062 42.046875 -11 C 42.691406 -10.207031 43.804688 -9.8125 45.390625 -9.8125 C 47.546875 -9.8125 49.269531 -10.582031 50.5625 -12.125 C 51.863281 -13.675781 53.160156 -16.066406 54.453125 -19.296875 L 58.984375 -19.296875 C 56.328125 -11.390625 53.253906 -6.085938 49.765625 -3.390625 C 46.273438 -0.703125 42.660156 0.640625 38.921875 0.640625 Z M 38.921875 0.640625 "/></g></g></g><g clip-path="url(#b54d999c51)"><g clip-path="url(#0f8bf264f9)"><g clip-path="url(#b98077ae39)"><path fill="#fd509d" d="M 704.542969 164.683594 C 708.117188 161.519531 711.109375 157.003906 710.953125 152.0625 C 710.8125 147.730469 708.492188 143.261719 704.328125 141.582031 C 699.574219 139.664062 694.886719 142.234375 691.101562 145.011719 C 687.246094 147.835938 683.578125 150.476562 678.925781 151.828125 C 674.507812 153.109375 669.769531 153.421875 665.242188 152.601562 C 654.742188 150.703125 646.007812 142.679688 640.519531 133.863281 C 635.351562 125.5625 633.160156 114.925781 637.394531 105.726562 C 638.214844 103.9375 639.253906 102.277344 640.503906 100.769531 C 640.519531 100.785156 640.53125 100.800781 640.546875 100.820312 C 650.496094 110.21875 662.632812 117.199219 675.75 121.152344 C 682.371094 123.152344 689.261719 124.367188 696.175781 124.730469 C 703.667969 125.125 711.558594 124.328125 718.027344 120.199219 C 724.308594 116.195312 728.769531 109.820312 731.179688 102.847656 C 733.679688 95.609375 733.117188 88.148438 729.519531 81.394531 C 723.015625 69.203125 709.816406 60.996094 696.570312 58.046875 C 682.1875 54.84375 666.992188 57.625 654.097656 64.597656 C 653.214844 65.078125 652.34375 65.582031 651.480469 66.097656 C 650.53125 54.214844 653.597656 42.0625 659.851562 31.910156 C 661.316406 29.53125 662.964844 27.28125 664.773438 25.160156 C 670.597656 34.65625 679.621094 42.039062 690.121094 45.847656 C 700.859375 49.742188 713.132812 49.667969 723.847656 45.675781 C 729.566406 43.542969 735.234375 40.359375 738.289062 34.855469 C 740.863281 30.210938 741.402344 24.644531 740.304688 19.503906 C 737.773438 7.640625 726.554688 0.0585938 715.359375 -2.582031 C 708.734375 -4.144531 701.859375 -4.324219 695.082031 -4.027344 C 688.261719 -3.730469 681.480469 -2.851562 675.085938 -0.425781 C 672.644531 -5.613281 673.257812 -11.667969 674.890625 -17.046875 C 676.460938 -22.222656 679.746094 -28.402344 676.039062 -33.460938 C 672.359375 -38.476562 664.84375 -38.707031 659.996094 -35.304688 C 654.6875 -31.574219 651.929688 -25.078125 650.496094 -18.957031 C 648.898438 -12.136719 649 -4.96875 650.796875 1.792969 C 650.890625 2.148438 651.0625 2.421875 651.269531 2.628906 C 635.667969 17.597656 627.117188 39.414062 627.753906 60.925781 C 627.9375 67.164062 628.890625 73.386719 630.636719 79.375 C 630.679688 79.523438 630.734375 79.65625 630.800781 79.773438 C 630.46875 79.757812 630.113281 79.847656 629.75 80.09375 C 621.972656 85.378906 616.566406 93.371094 613.820312 102.292969 C 610.90625 111.75 611.132812 121.886719 613.984375 131.316406 C 617.175781 141.871094 623.316406 151.371094 630.871094 159.332031 C 638.15625 167.007812 647.011719 173.863281 657.683594 175.753906 C 662.976562 176.691406 668.390625 176.640625 673.734375 176.148438 C 679.378906 175.628906 685.003906 174.585938 690.351562 172.667969 C 695.460938 170.835938 700.453125 168.296875 704.542969 164.683594 Z M 715.207031 117.246094 C 715.753906 117.023438 716.285156 116.777344 716.8125 116.519531 C 715.332031 117.527344 713.753906 118.332031 712.117188 118.976562 C 713.171875 118.441406 714.199219 117.859375 715.207031 117.246094 Z M 703.734375 120.683594 C 703.75 120.683594 703.757812 120.675781 703.769531 120.671875 C 704.445312 120.605469 705.117188 120.523438 705.785156 120.421875 C 705.835938 120.488281 705.894531 120.550781 705.953125 120.613281 C 704.382812 120.859375 702.789062 121 701.1875 121.058594 C 702.039062 120.964844 702.890625 120.84375 703.734375 120.683594 Z M 709.492188 112.171875 C 709.640625 112.058594 709.792969 111.945312 709.945312 111.832031 C 710.242188 111.683594 710.542969 111.535156 710.84375 111.386719 C 710.808594 111.515625 710.785156 111.652344 710.777344 111.789062 C 710.777344 111.816406 710.785156 111.84375 710.785156 111.871094 C 710.359375 111.984375 709.929688 112.085938 709.492188 112.171875 Z M 726.636719 104.28125 C 726.691406 103.984375 726.726562 103.683594 726.769531 103.386719 C 727.210938 102.539062 727.609375 101.671875 727.9375 100.777344 C 727.578125 101.96875 727.136719 103.136719 726.636719 104.28125 Z M 728.910156 39.136719 C 730.582031 37.640625 732.257812 36.148438 733.929688 34.65625 C 732.570312 36.441406 730.835938 37.914062 728.910156 39.136719 Z M 712.804688 44.066406 C 714.121094 44.082031 715.4375 43.96875 716.730469 43.734375 C 716.792969 43.785156 716.859375 43.828125 716.929688 43.863281 C 715.132812 44.269531 713.308594 44.5625 711.472656 44.746094 C 711.875 44.539062 712.273438 44.3125 712.65625 44.058594 C 712.707031 44.058594 712.753906 44.066406 712.804688 44.066406 Z M 736.433594 29.511719 C 736.183594 29.445312 735.914062 29.464844 735.648438 29.542969 C 736.214844 28.328125 736.691406 27.070312 737.058594 25.773438 C 736.980469 27.039062 736.765625 28.289062 736.433594 29.511719 Z M 682.605469 38.023438 C 684.28125 38.929688 686.023438 39.722656 687.808594 40.402344 C 688.542969 40.921875 689.304688 41.402344 690.089844 41.839844 C 687.476562 40.804688 684.972656 39.519531 682.605469 38.023438 Z M 731.476562 17.671875 C 731.558594 18.171875 731.652344 18.667969 731.714844 19.171875 C 731.710938 19.769531 731.742188 20.367188 731.765625 20.964844 C 731.675781 21.324219 731.566406 21.675781 731.445312 22.023438 C 731.382812 20.710938 731.320312 19.402344 731.261719 18.089844 C 731.296875 17.957031 731.320312 17.820312 731.363281 17.691406 C 731.402344 17.683594 731.4375 17.679688 731.476562 17.671875 Z M 721.964844 24.101562 C 721.792969 24.34375 721.617188 24.589844 721.445312 24.835938 C 721.414062 24.273438 721.289062 23.707031 721.089844 23.152344 C 721.382812 23.46875 721.667969 23.789062 721.964844 24.101562 Z M 721.988281 19.773438 C 722.457031 20.230469 722.9375 20.675781 723.433594 21.105469 C 723.363281 21.179688 723.292969 21.253906 723.226562 21.328125 C 722.578125 20.636719 721.933594 19.9375 721.3125 19.222656 C 721.539062 19.40625 721.765625 19.589844 721.988281 19.773438 Z M 713.585938 15.484375 C 714.15625 15.734375 714.722656 15.976562 715.300781 16.203125 C 715.585938 16.585938 715.875 16.972656 716.167969 17.351562 C 715.078125 16.6875 713.898438 16.191406 712.664062 15.808594 C 712.921875 15.726562 713.117188 15.585938 713.261719 15.402344 C 713.367188 15.433594 713.476562 15.457031 713.585938 15.484375 Z M 707.476562 8.707031 C 707.625 8.699219 707.757812 8.671875 707.882812 8.632812 C 707.921875 8.648438 707.957031 8.664062 707.996094 8.679688 C 708.074219 8.84375 708.1875 8.992188 708.335938 9.117188 C 707.609375 8.992188 706.882812 8.875 706.152344 8.761719 C 706.59375 8.742188 707.035156 8.71875 707.476562 8.707031 Z M 700.105469 17.925781 C 704.640625 18.199219 709.964844 18.042969 714.003906 20.417969 C 714.9375 20.964844 715.804688 21.65625 716.484375 22.503906 C 716.933594 23.0625 717.910156 24.390625 717.761719 25.171875 C 717.617188 25.921875 716.339844 26.804688 715.734375 27.222656 C 714.75 27.898438 713.667969 28.332031 712.492188 28.523438 C 708.085938 29.246094 703.371094 26.941406 699.519531 25.101562 C 695.421875 23.140625 691.507812 20.796875 687.847656 18.109375 C 691.90625 17.585938 696.019531 17.675781 700.105469 17.925781 Z M 670.015625 -31.457031 C 670.308594 -31.808594 670.625 -32.144531 670.976562 -32.453125 C 671.140625 -32.601562 671.15625 -32.785156 671.085938 -32.929688 C 671.355469 -32.78125 671.617188 -32.613281 671.859375 -32.425781 C 671.332031 -32.570312 670.75 -32.410156 670.390625 -31.777344 C 670.332031 -31.671875 670.277344 -31.5625 670.21875 -31.457031 C 670.152344 -31.464844 670.082031 -31.460938 670.015625 -31.457031 Z M 663.984375 -21.988281 C 664.382812 -22.464844 664.789062 -22.933594 665.203125 -23.394531 C 665.207031 -23.359375 665.214844 -23.324219 665.230469 -23.292969 C 664.972656 -22.714844 664.71875 -22.132812 664.460938 -21.554688 C 664.304688 -21.257812 664.160156 -20.953125 664.027344 -20.644531 C 663.855469 -20.507812 663.683594 -20.375 663.507812 -20.242188 C 663.644531 -20.832031 663.804688 -21.414062 663.984375 -21.988281 Z M 672.027344 -20.460938 C 672.398438 -21.773438 672.710938 -23.097656 672.894531 -24.445312 C 672.917969 -24.546875 672.9375 -24.652344 672.960938 -24.753906 C 673.210938 -25.230469 673.457031 -25.707031 673.6875 -26.195312 C 673.929688 -26.71875 673.839844 -27.253906 673.570312 -27.660156 C 673.671875 -28.207031 673.761719 -28.757812 673.851562 -29.3125 C 674.214844 -27.589844 673.8125 -25.710938 673.324219 -24.058594 C 672.957031 -22.804688 672.523438 -21.574219 672.089844 -20.339844 C 672.070312 -20.382812 672.046875 -20.421875 672.027344 -20.460938 Z M 654.476562 5.179688 L 654.5 4.710938 C 654.605469 4.613281 654.707031 4.515625 654.8125 4.417969 C 654.886719 4.777344 654.960938 5.136719 655.042969 5.496094 C 655.03125 5.511719 655.019531 5.527344 655.007812 5.539062 C 654.859375 5.386719 654.679688 5.265625 654.476562 5.179688 Z M 679.972656 8.636719 C 679.15625 8.847656 678.339844 9.054688 677.523438 9.265625 C 676.621094 9.476562 675.722656 9.695312 674.824219 9.925781 C 674.839844 9.855469 674.851562 9.78125 674.867188 9.707031 C 676.125 9.460938 677.375 9.183594 678.621094 8.871094 C 679.121094 8.773438 679.621094 8.671875 680.125 8.582031 C 680.074219 8.601562 680.023438 8.617188 679.972656 8.636719 Z M 693.640625 0.0273438 C 693.457031 -0.078125 693.25 -0.152344 693.007812 -0.148438 C 692.667969 -0.140625 692.332031 -0.125 691.992188 -0.113281 C 692.304688 -0.132812 692.617188 -0.160156 692.929688 -0.179688 C 694.023438 -0.246094 695.121094 -0.296875 696.21875 -0.339844 C 695.359375 -0.234375 694.5 -0.101562 693.640625 0.0273438 Z M 692.765625 3.574219 C 692.824219 3.554688 692.882812 3.53125 692.933594 3.503906 C 693.496094 3.363281 694.058594 3.226562 694.625 3.125 C 694.984375 3.171875 695.339844 3.214844 695.699219 3.265625 C 694.722656 3.351562 693.742188 3.453125 692.765625 3.574219 Z M 648.0625 44.96875 C 647.953125 46.019531 647.847656 47.066406 647.738281 48.117188 C 647.621094 48.242188 647.519531 48.375 647.40625 48.503906 C 647.613281 47.324219 647.828125 46.144531 648.0625 44.96875 Z M 646.972656 52.496094 C 647.109375 52.21875 647.25 51.941406 647.378906 51.660156 L 647.128906 54.105469 Z M 631.820312 65.527344 C 632.070312 66.234375 632.332031 66.933594 632.601562 67.628906 C 632.402344 67.710938 632.234375 67.847656 632.09375 68.011719 C 631.988281 67.183594 631.898438 66.359375 631.820312 65.527344 Z M 673.847656 100.347656 C 674.535156 100.667969 675.222656 100.992188 675.921875 101.285156 C 676.4375 101.5 676.957031 101.710938 677.484375 101.914062 C 676.601562 101.695312 675.714844 101.476562 674.832031 101.257812 C 674.503906 100.953125 674.179688 100.648438 673.847656 100.347656 Z M 669.304688 114.921875 C 669.4375 114.695312 669.53125 114.449219 669.570312 114.199219 C 669.828125 114.332031 670.089844 114.460938 670.347656 114.597656 C 670.945312 115.058594 671.539062 115.523438 672.144531 115.976562 C 672.273438 116.070312 672.421875 116.0625 672.550781 115.996094 C 673.136719 116.257812 673.726562 116.515625 674.3125 116.769531 C 672.628906 116.203125 670.953125 115.589844 669.304688 114.921875 Z M 722.851562 78.085938 C 723.578125 78.984375 724.253906 79.921875 724.878906 80.890625 C 724.765625 81.027344 724.671875 81.179688 724.605469 81.355469 C 724.503906 81.136719 724.40625 80.914062 724.296875 80.699219 C 723.777344 79.652344 723.179688 78.660156 722.527344 77.707031 C 722.632812 77.835938 722.746094 77.957031 722.851562 78.085938 Z M 712.179688 79.625 C 711.644531 79.140625 711.097656 78.671875 710.515625 78.246094 C 710.6875 78.085938 710.828125 77.898438 710.941406 77.699219 C 711.375 78.324219 711.785156 78.96875 712.179688 79.625 Z M 695.050781 79.734375 C 695.089844 79.859375 695.144531 79.980469 695.207031 80.097656 C 694.566406 79.960938 693.917969 79.832031 693.273438 79.722656 C 693.867188 79.734375 694.457031 79.730469 695.050781 79.734375 Z M 705.671875 65 C 705.679688 65.128906 705.699219 65.257812 705.738281 65.390625 C 705.464844 65.25 705.183594 65.125 704.90625 64.988281 C 704.960938 64.910156 705.007812 64.824219 705.046875 64.734375 C 705.253906 64.828125 705.464844 64.90625 705.671875 65 Z M 681.941406 82.5625 C 685.769531 82.542969 689.621094 82.839844 693.378906 83.566406 C 696.890625 84.242188 700.5625 85.335938 703.269531 87.78125 C 705.421875 89.726562 706.824219 92.644531 706.503906 95.59375 C 706.117188 99.125 702.996094 100.855469 699.789062 101.445312 C 696.304688 102.085938 692.480469 101.738281 689.007812 101.183594 C 685.472656 100.621094 682.003906 99.679688 678.667969 98.390625 C 671.898438 95.777344 665.789062 91.605469 660.816406 86.351562 C 667.59375 83.914062 674.730469 82.601562 681.941406 82.5625 Z M 652.765625 91.449219 C 652.578125 91.632812 652.429688 91.855469 652.328125 92.097656 C 652.019531 91.46875 651.710938 90.835938 651.402344 90.207031 C 651.855469 90.621094 652.3125 91.035156 652.765625 91.449219 Z M 627.839844 86.78125 C 627.667969 86.96875 627.511719 87.171875 627.34375 87.359375 C 627.3125 87.367188 627.28125 87.375 627.253906 87.378906 C 627.082031 87.417969 626.90625 87.445312 626.730469 87.457031 C 626.75 87.414062 626.773438 87.375 626.792969 87.332031 C 627.121094 87.007812 627.457031 86.6875 627.792969 86.375 C 627.78125 86.511719 627.808594 86.648438 627.839844 86.78125 Z M 622.511719 92.558594 C 622.507812 92.582031 622.503906 92.601562 622.5 92.625 C 622.386719 92.875 622.277344 93.125 622.164062 93.375 C 622.136719 93.4375 622.132812 93.496094 622.125 93.558594 C 621.863281 93.84375 621.597656 94.128906 621.335938 94.417969 C 621.710938 93.785156 622.101562 93.167969 622.511719 92.558594 Z M 618.78125 99.492188 C 618.804688 99.519531 618.828125 99.550781 618.855469 99.578125 C 618.820312 99.671875 618.785156 99.765625 618.753906 99.859375 C 618.511719 100.441406 618.292969 101.027344 618.101562 101.621094 C 618.019531 101.714844 617.945312 101.8125 617.867188 101.90625 C 618.148438 101.09375 618.449219 100.289062 618.78125 99.492188 Z M 642.640625 97.796875 C 642.621094 97.757812 642.609375 97.714844 642.585938 97.679688 C 642.714844 97.773438 642.851562 97.863281 642.980469 97.960938 C 644.195312 98.980469 645.449219 99.953125 646.738281 100.886719 C 646.730469 101.058594 646.75 101.226562 646.796875 101.390625 C 646.777344 101.375 646.757812 101.359375 646.738281 101.339844 C 645.519531 100.3125 644.335938 99.246094 643.179688 98.15625 C 643.007812 97.992188 642.824219 97.878906 642.640625 97.796875 Z M 703.828125 145.503906 C 703.671875 145.582031 703.527344 145.683594 703.394531 145.804688 C 703.070312 145.449219 702.707031 145.121094 702.304688 144.824219 C 702.859375 144.972656 703.363281 145.207031 703.828125 145.503906 Z M 655.066406 171.308594 C 656.027344 171.394531 656.988281 171.464844 657.949219 171.519531 C 657.949219 171.683594 657.972656 171.847656 658.007812 172.007812 C 657.019531 171.820312 656.039062 171.582031 655.066406 171.308594 Z M 700.910156 152.519531 C 701.027344 152.351562 701.144531 152.191406 701.25 152.011719 C 701.511719 151.5625 701.5625 151.132812 701.488281 150.75 C 701.558594 150.683594 701.632812 150.617188 701.707031 150.550781 C 701.765625 150.84375 701.800781 151.136719 701.8125 151.4375 C 701.585938 152.09375 701.316406 152.734375 701.015625 153.367188 C 701.058594 153.082031 701.019531 152.792969 700.910156 152.519531 Z M 689.921875 168.851562 C 689.925781 168.8125 689.933594 168.773438 689.933594 168.734375 C 691.871094 167.980469 693.785156 167.164062 695.660156 166.265625 C 693.8125 167.265625 691.886719 168.113281 689.921875 168.851562 Z M 689.921875 168.851562 " fill-opacity="1" fill-rule="nonzero"/></g></g></g></svg>