<svg xmlns="http://www.w3.org/2000/svg" xmlns:xlink="http://www.w3.org/1999/xlink" width="980" zoomAndPan="magnify" viewBox="0 0 735 112.499997" height="150" preserveAspectRatio="xMidYMid meet" version="1.0"><defs><g/><clipPath id="15bc4b1de5"><path d="M 1.625 0 L 733.371094 0 L 733.371094 112.003906 L 1.625 112.003906 Z M 1.625 0 " clip-rule="nonzero"/></clipPath><clipPath id="12e79233c5"><path d="M 1.625 0 L 142 0 L 142 112.003906 L 1.625 112.003906 Z M 1.625 0 " clip-rule="nonzero"/></clipPath><clipPath id="1f6872a83f"><path d="M -13.851562 170.34375 L -43.667969 -32.0625 L 132.148438 -57.960938 L 161.960938 144.445312 Z M -13.851562 170.34375 " clip-rule="nonzero"/></clipPath><clipPath id="d571c00af7"><path d="M -13.851562 170.34375 L -43.667969 -32.0625 L 132.148438 -57.960938 L 161.960938 144.445312 Z M -13.851562 170.34375 " clip-rule="nonzero"/></clipPath><clipPath id="12c4ddb63b"><path d="M 605 0 L 733.371094 0 L 733.371094 112.003906 L 605 112.003906 Z M 605 0 " clip-rule="nonzero"/></clipPath><clipPath id="4af03724e4"><path d="M 745.320312 -73.027344 L 810.792969 138.070312 L 627.507812 194.917969 L 562.035156 -16.179688 Z M 745.320312 -73.027344 " clip-rule="nonzero"/></clipPath><clipPath id="8e25588052"><path d="M 745.320312 -73.027344 L 810.792969 138.070312 L 627.507812 194.917969 L 562.035156 -16.179688 Z M 745.320312 -73.027344 " clip-rule="nonzero"/></clipPath></defs><g clip-path="url(#15bc4b1de5)"><path fill="#ffffff" d="M 1.625 0 L 733.375 0 L 733.375 119.46875 L 1.625 119.46875 Z M 1.625 0 " fill-opacity="1" fill-rule="nonzero"/><path fill="#ffffff" d="M 1.625 0 L 733.375 0 L 733.375 112.003906 L 1.625 112.003906 Z M 1.625 0 " fill-opacity="1" fill-rule="nonzero"/><path fill="#000000" d="M 1.625 0 L 733.375 0 L 733.375 112.003906 L 1.625 112.003906 Z M 1.625 0 " fill-opacity="1" fill-rule="nonzero"/></g><g clip-path="url(#12e79233c5)"><g clip-path="url(#1f6872a83f)"><g clip-path="url(#d571c00af7)"><path fill="#418192" d="M 66.410156 -47.128906 C 61.765625 -45.445312 57.167969 -42.234375 55.441406 -37.410156 C 53.925781 -33.175781 54.457031 -27.976562 57.824219 -24.765625 C 61.667969 -21.097656 67.15625 -21.78125 71.859375 -23.011719 C 76.644531 -24.261719 81.175781 -25.40625 86.167969 -24.929688 C 90.90625 -24.476562 95.585938 -22.964844 99.632812 -20.441406 C 109.015625 -14.59375 114.363281 -3.511719 116.289062 7.097656 C 118.101562 17.078125 116.160156 28.179688 108.585938 35.4375 C 107.113281 36.847656 105.480469 38.050781 103.703125 39.027344 C 103.695312 39.007812 103.691406 38.984375 103.683594 38.964844 C 97.6875 26.089844 88.664062 14.710938 77.550781 5.878906 C 71.9375 1.414062 65.769531 -2.390625 59.253906 -5.390625 C 52.195312 -8.632812 44.296875 -10.882812 36.503906 -9.378906 C 28.933594 -7.914062 22.214844 -3.476562 17.242188 2.332031 C 12.082031 8.355469 9.78125 15.769531 10.675781 23.660156 C 12.292969 37.910156 21.867188 50.878906 33.492188 58.792969 C 46.113281 67.382812 61.796875 70.515625 76.855469 68.722656 C 77.886719 68.597656 78.917969 68.445312 79.945312 68.273438 C 76.335938 80.101562 68.761719 90.65625 58.878906 98.054688 C 56.558594 99.789062 54.121094 101.328125 51.570312 102.683594 C 49.582031 91.292969 43.710938 80.71875 35.054688 73.027344 C 26.207031 65.160156 14.367188 60.539062 2.535156 60.292969 C -3.78125 60.160156 -10.445312 61.0625 -15.476562 65.207031 C -19.722656 68.703125 -22.363281 73.867188 -23.261719 79.246094 C -25.34375 91.65625 -17.433594 103.265625 -7.664062 110.09375 C -1.886719 114.132812 4.664062 116.9375 11.296875 119.246094 C 17.972656 121.570312 24.832031 123.3125 31.90625 123.421875 C 32.28125 129.359375 29.386719 134.964844 25.769531 139.53125 C 22.289062 143.921875 16.777344 148.628906 18.417969 154.925781 C 20.046875 161.175781 27.191406 164.269531 33.152344 162.84375 C 39.679688 161.277344 44.808594 156.0625 48.519531 150.707031 C 52.652344 144.738281 55.28125 137.785156 56.128906 130.574219 C 56.171875 130.195312 56.109375 129.867188 55.988281 129.585938 C 76.699219 121.117188 93.234375 103.339844 100.808594 82.34375 C 103.007812 76.253906 104.457031 69.886719 105.054688 63.441406 C 105.070312 63.285156 105.070312 63.136719 105.050781 62.992188 C 105.363281 63.136719 105.742188 63.1875 106.183594 63.089844 C 115.679688 60.96875 123.921875 55.324219 129.964844 47.765625 C 136.367188 39.757812 140.007812 29.890625 140.851562 19.707031 C 141.796875 8.300781 139.503906 -3.214844 135.265625 -13.785156 C 131.179688 -23.972656 125.265625 -33.980469 115.71875 -39.882812 C 110.980469 -42.8125 105.75 -44.835938 100.421875 -46.40625 C 94.792969 -48.0625 88.984375 -49.210938 83.109375 -49.40625 C 77.492188 -49.59375 71.722656 -49.054688 66.410156 -47.128906 Z M 38.09375 -5.449219 C 37.484375 -5.441406 36.878906 -5.410156 36.269531 -5.363281 C 38.082031 -5.765625 39.902344 -5.941406 41.726562 -5.933594 C 40.507812 -5.824219 39.296875 -5.65625 38.09375 -5.449219 Z M 50.441406 -4.378906 C 50.425781 -4.378906 50.414062 -4.375 50.402344 -4.378906 C 49.726562 -4.570312 49.050781 -4.75 48.367188 -4.90625 C 48.34375 -4.992188 48.3125 -5.074219 48.28125 -5.15625 C 49.882812 -4.792969 51.472656 -4.320312 53.035156 -3.761719 C 52.179688 -3.996094 51.316406 -4.207031 50.441406 -4.378906 Z M 41.660156 1.632812 C 41.472656 1.6875 41.285156 1.738281 41.097656 1.785156 C 40.75 1.816406 40.40625 1.847656 40.0625 1.875 C 40.144531 1.761719 40.21875 1.640625 40.277344 1.507812 C 40.289062 1.484375 40.292969 1.457031 40.300781 1.429688 C 40.757812 1.480469 41.207031 1.550781 41.660156 1.632812 Z M 22.160156 2.683594 C 21.992188 2.953125 21.847656 3.226562 21.691406 3.5 C 20.941406 4.144531 20.230469 4.832031 19.574219 5.570312 C 20.371094 4.554688 21.242188 3.597656 22.160156 2.683594 Z M -4.824219 64.664062 C -7.003906 65.464844 -9.183594 66.265625 -11.363281 67.0625 C -9.371094 65.859375 -7.144531 65.105469 -4.824219 64.664062 Z M 12.546875 66.066406 C 11.289062 65.550781 9.976562 65.15625 8.644531 64.886719 C 8.605469 64.816406 8.558594 64.746094 8.503906 64.683594 C 10.386719 64.984375 12.253906 65.398438 14.089844 65.921875 C 13.621094 65.964844 13.152344 66.035156 12.6875 66.132812 C 12.640625 66.113281 12.597656 66.089844 12.546875 66.066406 Z M -15.726562 71.070312 C -15.511719 71.230469 -15.246094 71.3125 -14.960938 71.335938 C -15.96875 72.292969 -16.90625 73.324219 -17.753906 74.433594 C -17.195312 73.246094 -16.515625 72.121094 -15.726562 71.070312 Z M 39.308594 83.453125 C 38.039062 81.933594 36.667969 80.503906 35.207031 79.167969 C 34.695312 78.386719 34.148438 77.632812 33.558594 76.90625 C 35.679688 78.90625 37.601562 81.101562 39.308594 83.453125 Z M -15.464844 84.390625 C -15.355469 83.875 -15.253906 83.359375 -15.121094 82.851562 C -14.890625 82.277344 -14.695312 81.6875 -14.488281 81.101562 C -14.265625 80.789062 -14.027344 80.492188 -13.777344 80.199219 C -14.21875 81.492188 -14.660156 82.777344 -15.097656 84.070312 C -15.183594 84.179688 -15.257812 84.304688 -15.351562 84.414062 C -15.386719 84.402344 -15.425781 84.394531 -15.464844 84.390625 Z M -3.867188 81.824219 C -3.605469 81.65625 -3.34375 81.484375 -3.085938 81.3125 C -3.269531 81.871094 -3.363281 82.464844 -3.386719 83.074219 C -3.546875 82.65625 -3.699219 82.238281 -3.867188 81.824219 Z M -5.539062 85.992188 C -5.8125 85.371094 -6.105469 84.757812 -6.417969 84.15625 C -6.324219 84.109375 -6.226562 84.066406 -6.132812 84.015625 C -5.773438 84.933594 -5.417969 85.851562 -5.09375 86.78125 C -5.242188 86.515625 -5.390625 86.253906 -5.539062 85.992188 Z M 0.917969 93.339844 C 0.464844 92.886719 0.0078125 92.433594 -0.457031 91.996094 C -0.589844 91.515625 -0.71875 91.03125 -0.859375 90.554688 C -0.0585938 91.609375 0.886719 92.539062 1.925781 93.382812 C 1.652344 93.363281 1.40625 93.425781 1.199219 93.546875 C 1.105469 93.476562 1.011719 93.410156 0.917969 93.339844 Z M 4.214844 102.21875 C 4.070312 102.167969 3.933594 102.144531 3.796875 102.136719 C 3.765625 102.105469 3.738281 102.078125 3.707031 102.046875 C 3.695312 101.859375 3.640625 101.671875 3.546875 101.492188 C 4.195312 101.894531 4.851562 102.285156 5.511719 102.671875 C 5.078125 102.523438 4.644531 102.375 4.214844 102.21875 Z M 14.820312 96.148438 C 10.558594 94.144531 5.375 92.257812 2.394531 88.425781 C 1.703125 87.539062 1.132812 86.539062 0.800781 85.460938 C 0.578125 84.75 0.148438 83.097656 0.589844 82.402344 C 1.011719 81.734375 2.574219 81.367188 3.320312 81.195312 C 4.519531 80.921875 5.730469 80.917969 6.933594 81.183594 C 11.445312 82.167969 15.109375 86.199219 18.113281 89.449219 C 21.3125 92.90625 24.183594 96.664062 26.683594 100.65625 C 22.578125 99.613281 18.652344 97.949219 14.820312 96.148438 Z M 24.976562 155.296875 C 24.558594 155.523438 24.128906 155.726562 23.671875 155.894531 C 23.457031 155.972656 23.375 156.140625 23.382812 156.3125 C 23.179688 156.0625 22.996094 155.800781 22.832031 155.527344 C 23.285156 155.867188 23.90625 155.9375 24.492188 155.460938 C 24.589844 155.382812 24.683594 155.300781 24.78125 155.21875 C 24.839844 155.253906 24.910156 155.277344 24.976562 155.296875 Z M 34.382812 148.472656 C 33.820312 148.777344 33.25 149.074219 32.675781 149.359375 C 32.683594 149.324219 32.691406 149.289062 32.6875 149.25 C 33.15625 148.792969 33.621094 148.332031 34.089844 147.871094 C 34.355469 147.644531 34.605469 147.40625 34.851562 147.15625 C 35.070312 147.089844 35.289062 147.03125 35.503906 146.96875 C 35.152344 147.488281 34.777344 147.984375 34.382812 148.472656 Z M 27.222656 143.921875 C 26.367188 145.042969 25.5625 146.203125 24.875 147.429688 C 24.8125 147.523438 24.753906 147.613281 24.691406 147.703125 C 24.269531 148.070312 23.851562 148.433594 23.445312 148.820312 C 23.015625 149.226562 22.898438 149.78125 23 150.273438 C 22.695312 150.765625 22.398438 151.261719 22.101562 151.761719 C 22.40625 149.960938 23.511719 148.300781 24.605469 146.894531 C 25.4375 145.824219 26.324219 144.804688 27.210938 143.78125 C 27.214844 143.828125 27.222656 143.871094 27.222656 143.921875 Z M 53.875 125.898438 L 53.671875 126.339844 C 53.535156 126.394531 53.398438 126.453125 53.261719 126.507812 C 53.324219 126.128906 53.390625 125.753906 53.449219 125.375 C 53.464844 125.367188 53.484375 125.359375 53.5 125.347656 C 53.582031 125.550781 53.710938 125.738281 53.875 125.898438 Z M 30.65625 112.808594 C 31.519531 112.917969 32.386719 113.03125 33.253906 113.140625 C 34.199219 113.28125 35.148438 113.414062 36.097656 113.535156 C 36.058594 113.597656 36.019531 113.664062 35.976562 113.730469 C 34.671875 113.484375 33.363281 113.273438 32.042969 113.101562 C 31.527344 113.003906 31.007812 112.910156 30.488281 112.804688 C 30.546875 112.804688 30.601562 112.808594 30.65625 112.808594 Z M 14.226562 115.882812 C 14.367188 116.058594 14.535156 116.210938 14.765625 116.296875 C 15.097656 116.421875 15.429688 116.535156 15.761719 116.652344 C 15.453125 116.554688 15.140625 116.457031 14.832031 116.355469 C 13.753906 116.003906 12.679688 115.632812 11.605469 115.253906 C 12.472656 115.480469 13.351562 115.683594 14.226562 115.882812 Z M 16.417969 112.796875 C 16.355469 112.796875 16.289062 112.792969 16.230469 112.800781 C 15.636719 112.722656 15.042969 112.636719 14.460938 112.519531 C 14.132812 112.339844 13.804688 112.160156 13.480469 111.972656 C 14.453125 112.265625 15.433594 112.539062 16.417969 112.796875 Z M 75.195312 89.96875 C 75.695312 88.996094 76.199219 88.023438 76.699219 87.054688 C 76.863281 86.976562 77.011719 86.890625 77.167969 86.804688 C 76.523438 87.867188 75.867188 88.921875 75.195312 89.96875 Z M 79.105469 83.125 C 78.867188 83.339844 78.628906 83.550781 78.398438 83.773438 L 79.566406 81.511719 Z M 98.648438 76.347656 C 98.675781 75.570312 98.6875 74.796875 98.695312 74.019531 C 98.917969 74.015625 99.132812 73.953125 99.328125 73.847656 C 99.117188 74.683594 98.886719 75.519531 98.648438 76.347656 Z M 71.460938 26.679688 C 70.921875 26.105469 70.382812 25.527344 69.820312 24.976562 C 69.40625 24.574219 68.984375 24.171875 68.558594 23.777344 C 69.324219 24.324219 70.089844 24.875 70.859375 25.421875 C 71.058594 25.839844 71.253906 26.261719 71.460938 26.679688 Z M 81.378906 14.355469 C 81.164062 14.523438 80.980469 14.726562 80.847656 14.953125 C 80.648438 14.726562 80.449219 14.496094 80.25 14.269531 C 79.851562 13.59375 79.457031 12.917969 79.046875 12.253906 C 78.960938 12.113281 78.8125 12.0625 78.664062 12.074219 C 78.199219 11.601562 77.730469 11.128906 77.261719 10.65625 C 78.667969 11.847656 80.046875 13.078125 81.378906 14.355469 Z M 15.832031 29.402344 C 15.472656 28.261719 15.179688 27.097656 14.949219 25.925781 C 15.109375 25.835938 15.257812 25.722656 15.386719 25.578125 C 15.402344 25.828125 15.414062 26.082031 15.433594 26.332031 C 15.535156 27.539062 15.734375 28.726562 16 29.894531 C 15.945312 29.730469 15.882812 29.570312 15.832031 29.402344 Z M 26.6875 32.003906 C 27.015625 32.675781 27.367188 33.335938 27.761719 33.96875 C 27.535156 34.058594 27.328125 34.183594 27.144531 34.335938 C 26.964844 33.5625 26.8125 32.785156 26.6875 32.003906 Z M 43.210938 38.453125 C 43.21875 38.316406 43.214844 38.179688 43.195312 38.039062 C 43.761719 38.421875 44.335938 38.789062 44.914062 39.140625 C 44.351562 38.90625 43.777344 38.683594 43.210938 38.453125 Z M 27.382812 48.605469 C 27.421875 48.476562 27.453125 48.34375 27.464844 48.199219 C 27.675781 48.441406 27.898438 48.667969 28.113281 48.90625 C 28.03125 48.960938 27.953125 49.027344 27.882812 49.097656 C 27.71875 48.929688 27.542969 48.773438 27.382812 48.605469 Z M 56.902344 40.738281 C 53.210938 39.292969 49.617188 37.535156 46.277344 35.394531 C 43.15625 33.398438 40.035156 30.941406 38.363281 27.542969 C 37.03125 24.84375 36.796875 21.492188 38.226562 18.769531 C 39.941406 15.507812 43.605469 15.035156 46.914062 15.691406 C 50.511719 16.40625 54.058594 18.207031 57.191406 20.070312 C 60.375 21.964844 63.359375 24.203125 66.078125 26.722656 C 71.59375 31.832031 75.886719 38.191406 78.671875 45.164062 C 71.222656 44.921875 63.855469 43.460938 56.902344 40.738281 Z M 88.359375 43.328125 C 88.609375 43.222656 88.835938 43.0625 89.027344 42.867188 C 89.085938 43.59375 89.140625 44.320312 89.199219 45.050781 C 88.917969 44.476562 88.640625 43.902344 88.359375 43.328125 Z M 110.566406 57.367188 C 110.804688 57.25 111.03125 57.117188 111.265625 56.996094 C 111.296875 57.003906 111.328125 57.007812 111.359375 57.015625 C 111.539062 57.042969 111.71875 57.085938 111.894531 57.140625 C 111.855469 57.171875 111.820312 57.203125 111.78125 57.234375 C 111.34375 57.425781 110.902344 57.605469 110.457031 57.777344 C 110.519531 57.648438 110.542969 57.507812 110.566406 57.367188 Z M 117.894531 53.828125 C 117.90625 53.8125 117.917969 53.792969 117.929688 53.773438 C 118.132812 53.574219 118.335938 53.375 118.539062 53.175781 C 118.589844 53.125 118.617188 53.070312 118.644531 53.015625 C 119.007812 52.839844 119.371094 52.664062 119.734375 52.488281 C 119.132812 52.953125 118.519531 53.402344 117.894531 53.828125 Z M 124.125 48.570312 C 124.109375 48.535156 124.097656 48.496094 124.085938 48.460938 C 124.152344 48.382812 124.222656 48.304688 124.289062 48.226562 C 124.742188 47.757812 125.175781 47.277344 125.589844 46.777344 C 125.703125 46.71875 125.8125 46.652344 125.921875 46.589844 C 125.34375 47.265625 124.746094 47.929688 124.125 48.570312 Z M 100.519531 41.078125 C 100.523438 41.125 100.519531 41.167969 100.527344 41.210938 C 100.4375 41.070312 100.339844 40.933594 100.25 40.789062 C 99.472656 39.34375 98.636719 37.921875 97.75 36.527344 C 97.820312 36.367188 97.871094 36.195312 97.886719 36.019531 C 97.898438 36.042969 97.914062 36.066406 97.925781 36.09375 C 98.703125 37.550781 99.4375 39.027344 100.136719 40.527344 C 100.238281 40.75 100.371094 40.929688 100.519531 41.078125 Z M 59.796875 -28.355469 C 59.980469 -28.371094 60.15625 -28.414062 60.328125 -28.480469 C 60.507812 -28.015625 60.730469 -27.558594 61.007812 -27.117188 C 60.527344 -27.472656 60.132812 -27.894531 59.796875 -28.355469 Z M 116.542969 -34.59375 C 115.648438 -35.042969 114.753906 -35.480469 113.847656 -35.898438 C 113.910156 -36.058594 113.953125 -36.226562 113.980469 -36.394531 C 114.859375 -35.835938 115.710938 -35.230469 116.542969 -34.59375 Z M 65.273438 -34.007812 C 65.101562 -33.890625 64.925781 -33.78125 64.757812 -33.648438 C 64.335938 -33.316406 64.121094 -32.921875 64.046875 -32.523438 C 63.953125 -32.484375 63.859375 -32.449219 63.761719 -32.410156 C 63.816406 -32.71875 63.894531 -33.015625 63.996094 -33.308594 C 64.464844 -33.855469 64.96875 -34.371094 65.496094 -34.863281 C 65.347656 -34.609375 65.277344 -34.3125 65.273438 -34.007812 Z M 82.070312 -45.5625 C 82.050781 -45.523438 82.027344 -45.488281 82.011719 -45.453125 C 79.859375 -45.464844 77.710938 -45.410156 75.5625 -45.257812 C 77.722656 -45.515625 79.894531 -45.601562 82.070312 -45.5625 Z M 82.070312 -45.5625 " fill-opacity="1" fill-rule="nonzero"/></g></g></g><g fill="#ff00ff" fill-opacity="1"><g transform="translate(186.457081, 95.165867)"><g><path d="M 36.390625 -32.578125 L 26.234375 -72.25 C 21.222656 -70.34375 17.34375 -67.394531 14.59375 -63.40625 C 11.84375 -59.425781 10.46875 -54.546875 10.46875 -48.765625 C 10.46875 -46.148438 10.710938 -44.332031 11.203125 -43.3125 C 11.703125 -42.289062 11.953125 -41.710938 11.953125 -41.578125 C 8.140625 -41.578125 5.300781 -42.367188 3.4375 -43.953125 C 1.570312 -45.535156 0.640625 -48.160156 0.640625 -51.828125 C 0.640625 -56.347656 2.488281 -60.738281 6.1875 -65 C 9.882812 -69.269531 14.625 -72.726562 20.40625 -75.375 C 26.195312 -78.019531 31.984375 -79.34375 37.765625 -79.34375 C 38.753906 -79.34375 40.164062 -79.269531 42 -79.125 L 51.203125 -41.25 L 66.859375 -78.8125 L 73.828125 -78.8125 L 53.3125 -32.578125 L 46.328125 0 L 29.40625 0 Z M 36.390625 -32.578125 "/></g></g></g><g fill="#ff00ff" fill-opacity="1"><g transform="translate(254.156434, 95.165867)"><g><path d="M 15.4375 0.421875 C 10.21875 0.421875 6.09375 -0.914062 3.0625 -3.59375 C 0.03125 -6.269531 -1.484375 -10.503906 -1.484375 -16.296875 C -1.484375 -21.085938 -0.5 -26.410156 1.46875 -32.265625 C 3.445312 -38.117188 6.625 -43.175781 11 -47.4375 C 15.375 -51.707031 20.875 -53.84375 27.5 -53.84375 C 36.53125 -53.84375 41.046875 -48.203125 41.046875 -36.921875 L 41.046875 -36.8125 C 41.253906 -36.738281 41.640625 -36.703125 42.203125 -36.703125 C 44.535156 -36.703125 47.21875 -37.316406 50.25 -38.546875 C 53.28125 -39.785156 56.03125 -41.285156 58.5 -43.046875 L 59.453125 -40.203125 C 57.398438 -38.015625 54.734375 -36.160156 51.453125 -34.640625 C 48.179688 -33.128906 44.601562 -32.054688 40.71875 -31.421875 C 40.15625 -25.003906 38.707031 -19.394531 36.375 -14.59375 C 34.050781 -9.800781 31.054688 -6.097656 27.390625 -3.484375 C 23.722656 -0.878906 19.738281 0.421875 15.4375 0.421875 Z M 19.671875 -9.09375 C 21.367188 -9.09375 23.0625 -10.0625 24.75 -12 C 26.445312 -13.945312 27.925781 -16.59375 29.1875 -19.9375 C 30.457031 -23.289062 31.378906 -27.007812 31.953125 -31.09375 C 30.046875 -31.519531 29.09375 -33.003906 29.09375 -35.546875 C 29.09375 -38.429688 30.1875 -40.332031 32.375 -41.25 C 32.226562 -43.582031 31.875 -45.1875 31.3125 -46.0625 C 30.75 -46.945312 29.757812 -47.390625 28.34375 -47.390625 C 26.019531 -47.390625 23.765625 -45.695312 21.578125 -42.3125 C 19.390625 -38.925781 17.625 -34.867188 16.28125 -30.140625 C 14.945312 -25.421875 14.28125 -21.265625 14.28125 -17.671875 C 14.28125 -14.285156 14.664062 -12.007812 15.4375 -10.84375 C 16.21875 -9.675781 17.628906 -9.09375 19.671875 -9.09375 Z M 19.671875 -9.09375 "/></g></g></g><g fill="#ff00ff" fill-opacity="1"><g transform="translate(302.70962, 95.165867)"><g><path d="M 10.46875 0.640625 C 7.082031 0.640625 4.347656 -0.414062 2.265625 -2.53125 C 0.191406 -4.65625 -0.84375 -7.832031 -0.84375 -12.0625 C -0.84375 -13.820312 -0.5625 -16.113281 0 -18.9375 L 7.1875 -52.890625 L 22.421875 -52.890625 L 14.8125 -16.921875 C 14.59375 -15.867188 14.484375 -14.882812 14.484375 -13.96875 C 14.484375 -11.070312 15.546875 -9.625 17.671875 -9.625 C 19.640625 -9.625 21.328125 -10.453125 22.734375 -12.109375 C 24.148438 -13.765625 25.28125 -16.039062 26.125 -18.9375 L 33.328125 -52.890625 L 48.546875 -52.890625 L 40.9375 -16.921875 C 40.65625 -15.867188 40.515625 -14.742188 40.515625 -13.546875 C 40.515625 -12.128906 40.847656 -11.117188 41.515625 -10.515625 C 42.191406 -9.921875 43.300781 -9.625 44.84375 -9.625 C 46.820312 -9.625 48.535156 -10.46875 49.984375 -12.15625 C 51.429688 -13.851562 52.578125 -16.113281 53.421875 -18.9375 L 57.859375 -18.9375 C 55.253906 -11.320312 52.03125 -6.15625 48.1875 -3.4375 C 44.34375 -0.71875 40.476562 0.640625 36.59375 0.640625 C 33.5625 0.640625 31.144531 -0.203125 29.34375 -1.890625 C 27.550781 -3.585938 26.476562 -6.097656 26.125 -9.421875 C 23.726562 -5.535156 21.207031 -2.882812 18.5625 -1.46875 C 15.914062 -0.0625 13.21875 0.640625 10.46875 0.640625 Z M 10.46875 0.640625 "/></g></g></g><g fill="#ff00ff" fill-opacity="1"><g transform="translate(358.244278, 95.165867)"><g><path d="M 31.625 -70.03125 L 30.359375 -70.03125 C 24.078125 -70.03125 19.191406 -68.457031 15.703125 -65.3125 C 12.210938 -62.175781 10.46875 -56.625 10.46875 -48.65625 C 10.46875 -46.050781 10.710938 -44.234375 11.203125 -43.203125 C 11.703125 -42.179688 11.953125 -41.601562 11.953125 -41.46875 C 8.140625 -41.46875 5.300781 -42.257812 3.4375 -43.84375 C 1.570312 -45.425781 0.640625 -48.054688 0.640625 -51.734375 C 0.640625 -56.734375 1.875 -61.296875 4.34375 -65.421875 C 6.8125 -69.546875 10.738281 -72.878906 16.125 -75.421875 C 21.519531 -77.960938 28.378906 -79.234375 36.703125 -79.234375 C 41.359375 -79.234375 46.367188 -78.804688 51.734375 -77.953125 C 56.242188 -77.179688 60.257812 -76.796875 63.78125 -76.796875 C 68.300781 -76.796875 72.394531 -77.535156 76.0625 -79.015625 C 75.914062 -74.429688 74.75 -71.046875 72.5625 -68.859375 C 70.375 -66.671875 67.128906 -65.578125 62.828125 -65.578125 C 60.578125 -65.578125 58.320312 -65.753906 56.0625 -66.109375 C 53.800781 -66.460938 50.59375 -67.0625 46.4375 -67.90625 L 31.84375 0 L 16.609375 0 Z M 31.625 -70.03125 "/></g></g></g><g fill="#ff00ff" fill-opacity="1"><g transform="translate(411.24021, 95.165867)"><g><path d="M 10.46875 0.640625 C 7.082031 0.640625 4.347656 -0.414062 2.265625 -2.53125 C 0.191406 -4.65625 -0.84375 -7.832031 -0.84375 -12.0625 C -0.84375 -13.820312 -0.5625 -16.113281 0 -18.9375 L 7.1875 -52.890625 L 22.421875 -52.890625 L 14.8125 -16.921875 C 14.59375 -15.867188 14.484375 -14.882812 14.484375 -13.96875 C 14.484375 -11.070312 15.546875 -9.625 17.671875 -9.625 C 19.640625 -9.625 21.328125 -10.453125 22.734375 -12.109375 C 24.148438 -13.765625 25.28125 -16.039062 26.125 -18.9375 L 33.328125 -52.890625 L 48.546875 -52.890625 L 40.9375 -16.921875 C 40.65625 -15.867188 40.515625 -14.742188 40.515625 -13.546875 C 40.515625 -12.128906 40.847656 -11.117188 41.515625 -10.515625 C 42.191406 -9.921875 43.300781 -9.625 44.84375 -9.625 C 46.820312 -9.625 48.535156 -10.46875 49.984375 -12.15625 C 51.429688 -13.851562 52.578125 -16.113281 53.421875 -18.9375 L 57.859375 -18.9375 C 55.253906 -11.320312 52.03125 -6.15625 48.1875 -3.4375 C 44.34375 -0.71875 40.476562 0.640625 36.59375 0.640625 C 33.5625 0.640625 31.144531 -0.203125 29.34375 -1.890625 C 27.550781 -3.585938 26.476562 -6.097656 26.125 -9.421875 C 23.726562 -5.535156 21.207031 -2.882812 18.5625 -1.46875 C 15.914062 -0.0625 13.21875 0.640625 10.46875 0.640625 Z M 10.46875 0.640625 "/></g></g></g><g fill="#ff00ff" fill-opacity="1"><g transform="translate(466.774881, 95.165867)"><g><path d="M 14.0625 0.640625 C 9.269531 0.640625 5.601562 -0.539062 3.0625 -2.90625 C 0.53125 -5.269531 -0.734375 -8.601562 -0.734375 -12.90625 C -0.734375 -15.019531 -0.488281 -17.03125 0 -18.9375 L 11.3125 -71.9375 L 26.96875 -74.046875 L 21.890625 -50.25 C 23.867188 -51.445312 25.492188 -52.238281 26.765625 -52.625 C 28.035156 -53.007812 29.304688 -53.203125 30.578125 -53.203125 C 38.890625 -53.203125 43.046875 -47.175781 43.046875 -35.125 C 43.046875 -30.257812 42.113281 -25.054688 40.25 -19.515625 C 38.382812 -13.984375 35.28125 -9.238281 30.9375 -5.28125 C 26.601562 -1.332031 20.976562 0.640625 14.0625 0.640625 Z M 20 -9.625 C 22.175781 -9.625 24.21875 -10.976562 26.125 -13.6875 C 28.03125 -16.40625 29.546875 -19.789062 30.671875 -23.84375 C 31.804688 -27.90625 32.375 -31.804688 32.375 -35.546875 C 32.375 -38.367188 31.878906 -40.765625 30.890625 -42.734375 C 29.898438 -44.710938 28.523438 -45.703125 26.765625 -45.703125 C 25.703125 -45.703125 24.519531 -45.539062 23.21875 -45.21875 C 21.914062 -44.90625 21.015625 -44.429688 20.515625 -43.796875 L 14.703125 -16.921875 C 14.492188 -16.078125 14.390625 -15.265625 14.390625 -14.484375 C 14.390625 -11.242188 16.257812 -9.625 20 -9.625 Z M 20 -9.625 "/></g></g></g><g fill="#ff00ff" fill-opacity="1"><g transform="translate(515.856974, 95.165867)"><g><path d="M 15.125 0.640625 C 9.90625 0.640625 5.847656 -0.71875 2.953125 -3.4375 C 0.0664062 -6.15625 -1.375 -10.40625 -1.375 -16.1875 C -1.375 -21.050781 -0.421875 -26.410156 1.484375 -32.265625 C 3.390625 -38.117188 6.492188 -43.175781 10.796875 -47.4375 C 15.097656 -51.707031 20.5625 -53.84375 27.1875 -53.84375 C 34.945312 -53.84375 38.828125 -50.457031 38.828125 -43.6875 C 38.828125 -39.738281 37.695312 -36.109375 35.4375 -32.796875 C 33.175781 -29.484375 30.175781 -26.820312 26.4375 -24.8125 C 22.707031 -22.800781 18.722656 -21.65625 14.484375 -21.375 C 14.347656 -19.25 14.28125 -17.835938 14.28125 -17.140625 C 14.28125 -13.679688 14.878906 -11.332031 16.078125 -10.09375 C 17.273438 -8.863281 19.210938 -8.25 21.890625 -8.25 C 25.703125 -8.25 28.960938 -9.128906 31.671875 -10.890625 C 34.390625 -12.660156 37.375 -15.34375 40.625 -18.9375 L 44.21875 -18.9375 C 36.382812 -5.882812 26.6875 0.640625 15.125 0.640625 Z M 15.34375 -26.453125 C 17.945312 -26.585938 20.429688 -27.5 22.796875 -29.1875 C 25.160156 -30.882812 27.0625 -33.035156 28.5 -35.640625 C 29.945312 -38.253906 30.671875 -41.007812 30.671875 -43.90625 C 30.671875 -46.789062 29.789062 -48.234375 28.03125 -48.234375 C 25.488281 -48.234375 23 -46.007812 20.5625 -41.5625 C 18.132812 -37.125 16.394531 -32.085938 15.34375 -26.453125 Z M 15.34375 -26.453125 "/></g></g></g><g fill="#00ffff" fill-opacity="1"><g transform="translate(178.522802, 95.165867)"><g><path d="M 36.390625 -32.578125 L 26.234375 -72.25 C 21.222656 -70.34375 17.34375 -67.394531 14.59375 -63.40625 C 11.84375 -59.425781 10.46875 -54.546875 10.46875 -48.765625 C 10.46875 -46.148438 10.710938 -44.332031 11.203125 -43.3125 C 11.703125 -42.289062 11.953125 -41.710938 11.953125 -41.578125 C 8.140625 -41.578125 5.300781 -42.367188 3.4375 -43.953125 C 1.570312 -45.535156 0.640625 -48.160156 0.640625 -51.828125 C 0.640625 -56.347656 2.488281 -60.738281 6.1875 -65 C 9.882812 -69.269531 14.625 -72.726562 20.40625 -75.375 C 26.195312 -78.019531 31.984375 -79.34375 37.765625 -79.34375 C 38.753906 -79.34375 40.164062 -79.269531 42 -79.125 L 51.203125 -41.25 L 66.859375 -78.8125 L 73.828125 -78.8125 L 53.3125 -32.578125 L 46.328125 0 L 29.40625 0 Z M 36.390625 -32.578125 "/></g></g></g><g fill="#00ffff" fill-opacity="1"><g transform="translate(246.222155, 95.165867)"><g><path d="M 15.4375 0.421875 C 10.21875 0.421875 6.09375 -0.914062 3.0625 -3.59375 C 0.03125 -6.269531 -1.484375 -10.503906 -1.484375 -16.296875 C -1.484375 -21.085938 -0.5 -26.410156 1.46875 -32.265625 C 3.445312 -38.117188 6.625 -43.175781 11 -47.4375 C 15.375 -51.707031 20.875 -53.84375 27.5 -53.84375 C 36.53125 -53.84375 41.046875 -48.203125 41.046875 -36.921875 L 41.046875 -36.8125 C 41.253906 -36.738281 41.640625 -36.703125 42.203125 -36.703125 C 44.535156 -36.703125 47.21875 -37.316406 50.25 -38.546875 C 53.28125 -39.785156 56.03125 -41.285156 58.5 -43.046875 L 59.453125 -40.203125 C 57.398438 -38.015625 54.734375 -36.160156 51.453125 -34.640625 C 48.179688 -33.128906 44.601562 -32.054688 40.71875 -31.421875 C 40.15625 -25.003906 38.707031 -19.394531 36.375 -14.59375 C 34.050781 -9.800781 31.054688 -6.097656 27.390625 -3.484375 C 23.722656 -0.878906 19.738281 0.421875 15.4375 0.421875 Z M 19.671875 -9.09375 C 21.367188 -9.09375 23.0625 -10.0625 24.75 -12 C 26.445312 -13.945312 27.925781 -16.59375 29.1875 -19.9375 C 30.457031 -23.289062 31.378906 -27.007812 31.953125 -31.09375 C 30.046875 -31.519531 29.09375 -33.003906 29.09375 -35.546875 C 29.09375 -38.429688 30.1875 -40.332031 32.375 -41.25 C 32.226562 -43.582031 31.875 -45.1875 31.3125 -46.0625 C 30.75 -46.945312 29.757812 -47.390625 28.34375 -47.390625 C 26.019531 -47.390625 23.765625 -45.695312 21.578125 -42.3125 C 19.390625 -38.925781 17.625 -34.867188 16.28125 -30.140625 C 14.945312 -25.421875 14.28125 -21.265625 14.28125 -17.671875 C 14.28125 -14.285156 14.664062 -12.007812 15.4375 -10.84375 C 16.21875 -9.675781 17.628906 -9.09375 19.671875 -9.09375 Z M 19.671875 -9.09375 "/></g></g></g><g fill="#00ffff" fill-opacity="1"><g transform="translate(294.77534, 95.165867)"><g><path d="M 10.46875 0.640625 C 7.082031 0.640625 4.347656 -0.414062 2.265625 -2.53125 C 0.191406 -4.65625 -0.84375 -7.832031 -0.84375 -12.0625 C -0.84375 -13.820312 -0.5625 -16.113281 0 -18.9375 L 7.1875 -52.890625 L 22.421875 -52.890625 L 14.8125 -16.921875 C 14.59375 -15.867188 14.484375 -14.882812 14.484375 -13.96875 C 14.484375 -11.070312 15.546875 -9.625 17.671875 -9.625 C 19.640625 -9.625 21.328125 -10.453125 22.734375 -12.109375 C 24.148438 -13.765625 25.28125 -16.039062 26.125 -18.9375 L 33.328125 -52.890625 L 48.546875 -52.890625 L 40.9375 -16.921875 C 40.65625 -15.867188 40.515625 -14.742188 40.515625 -13.546875 C 40.515625 -12.128906 40.847656 -11.117188 41.515625 -10.515625 C 42.191406 -9.921875 43.300781 -9.625 44.84375 -9.625 C 46.820312 -9.625 48.535156 -10.46875 49.984375 -12.15625 C 51.429688 -13.851562 52.578125 -16.113281 53.421875 -18.9375 L 57.859375 -18.9375 C 55.253906 -11.320312 52.03125 -6.15625 48.1875 -3.4375 C 44.34375 -0.71875 40.476562 0.640625 36.59375 0.640625 C 33.5625 0.640625 31.144531 -0.203125 29.34375 -1.890625 C 27.550781 -3.585938 26.476562 -6.097656 26.125 -9.421875 C 23.726562 -5.535156 21.207031 -2.882812 18.5625 -1.46875 C 15.914062 -0.0625 13.21875 0.640625 10.46875 0.640625 Z M 10.46875 0.640625 "/></g></g></g><g fill="#00ffff" fill-opacity="1"><g transform="translate(350.309999, 95.165867)"><g><path d="M 31.625 -70.03125 L 30.359375 -70.03125 C 24.078125 -70.03125 19.191406 -68.457031 15.703125 -65.3125 C 12.210938 -62.175781 10.46875 -56.625 10.46875 -48.65625 C 10.46875 -46.050781 10.710938 -44.234375 11.203125 -43.203125 C 11.703125 -42.179688 11.953125 -41.601562 11.953125 -41.46875 C 8.140625 -41.46875 5.300781 -42.257812 3.4375 -43.84375 C 1.570312 -45.425781 0.640625 -48.054688 0.640625 -51.734375 C 0.640625 -56.734375 1.875 -61.296875 4.34375 -65.421875 C 6.8125 -69.546875 10.738281 -72.878906 16.125 -75.421875 C 21.519531 -77.960938 28.378906 -79.234375 36.703125 -79.234375 C 41.359375 -79.234375 46.367188 -78.804688 51.734375 -77.953125 C 56.242188 -77.179688 60.257812 -76.796875 63.78125 -76.796875 C 68.300781 -76.796875 72.394531 -77.535156 76.0625 -79.015625 C 75.914062 -74.429688 74.75 -71.046875 72.5625 -68.859375 C 70.375 -66.671875 67.128906 -65.578125 62.828125 -65.578125 C 60.578125 -65.578125 58.320312 -65.753906 56.0625 -66.109375 C 53.800781 -66.460938 50.59375 -67.0625 46.4375 -67.90625 L 31.84375 0 L 16.609375 0 Z M 31.625 -70.03125 "/></g></g></g><g fill="#00ffff" fill-opacity="1"><g transform="translate(403.305931, 95.165867)"><g><path d="M 10.46875 0.640625 C 7.082031 0.640625 4.347656 -0.414062 2.265625 -2.53125 C 0.191406 -4.65625 -0.84375 -7.832031 -0.84375 -12.0625 C -0.84375 -13.820312 -0.5625 -16.113281 0 -18.9375 L 7.1875 -52.890625 L 22.421875 -52.890625 L 14.8125 -16.921875 C 14.59375 -15.867188 14.484375 -14.882812 14.484375 -13.96875 C 14.484375 -11.070312 15.546875 -9.625 17.671875 -9.625 C 19.640625 -9.625 21.328125 -10.453125 22.734375 -12.109375 C 24.148438 -13.765625 25.28125 -16.039062 26.125 -18.9375 L 33.328125 -52.890625 L 48.546875 -52.890625 L 40.9375 -16.921875 C 40.65625 -15.867188 40.515625 -14.742188 40.515625 -13.546875 C 40.515625 -12.128906 40.847656 -11.117188 41.515625 -10.515625 C 42.191406 -9.921875 43.300781 -9.625 44.84375 -9.625 C 46.820312 -9.625 48.535156 -10.46875 49.984375 -12.15625 C 51.429688 -13.851562 52.578125 -16.113281 53.421875 -18.9375 L 57.859375 -18.9375 C 55.253906 -11.320312 52.03125 -6.15625 48.1875 -3.4375 C 44.34375 -0.71875 40.476562 0.640625 36.59375 0.640625 C 33.5625 0.640625 31.144531 -0.203125 29.34375 -1.890625 C 27.550781 -3.585938 26.476562 -6.097656 26.125 -9.421875 C 23.726562 -5.535156 21.207031 -2.882812 18.5625 -1.46875 C 15.914062 -0.0625 13.21875 0.640625 10.46875 0.640625 Z M 10.46875 0.640625 "/></g></g></g><g fill="#00ffff" fill-opacity="1"><g transform="translate(458.840602, 95.165867)"><g><path d="M 14.0625 0.640625 C 9.269531 0.640625 5.601562 -0.539062 3.0625 -2.90625 C 0.53125 -5.269531 -0.734375 -8.601562 -0.734375 -12.90625 C -0.734375 -15.019531 -0.488281 -17.03125 0 -18.9375 L 11.3125 -71.9375 L 26.96875 -74.046875 L 21.890625 -50.25 C 23.867188 -51.445312 25.492188 -52.238281 26.765625 -52.625 C 28.035156 -53.007812 29.304688 -53.203125 30.578125 -53.203125 C 38.890625 -53.203125 43.046875 -47.175781 43.046875 -35.125 C 43.046875 -30.257812 42.113281 -25.054688 40.25 -19.515625 C 38.382812 -13.984375 35.28125 -9.238281 30.9375 -5.28125 C 26.601562 -1.332031 20.976562 0.640625 14.0625 0.640625 Z M 20 -9.625 C 22.175781 -9.625 24.21875 -10.976562 26.125 -13.6875 C 28.03125 -16.40625 29.546875 -19.789062 30.671875 -23.84375 C 31.804688 -27.90625 32.375 -31.804688 32.375 -35.546875 C 32.375 -38.367188 31.878906 -40.765625 30.890625 -42.734375 C 29.898438 -44.710938 28.523438 -45.703125 26.765625 -45.703125 C 25.703125 -45.703125 24.519531 -45.539062 23.21875 -45.21875 C 21.914062 -44.90625 21.015625 -44.429688 20.515625 -43.796875 L 14.703125 -16.921875 C 14.492188 -16.078125 14.390625 -15.265625 14.390625 -14.484375 C 14.390625 -11.242188 16.257812 -9.625 20 -9.625 Z M 20 -9.625 "/></g></g></g><g fill="#00ffff" fill-opacity="1"><g transform="translate(507.922695, 95.165867)"><g><path d="M 15.125 0.640625 C 9.90625 0.640625 5.847656 -0.71875 2.953125 -3.4375 C 0.0664062 -6.15625 -1.375 -10.40625 -1.375 -16.1875 C -1.375 -21.050781 -0.421875 -26.410156 1.484375 -32.265625 C 3.390625 -38.117188 6.492188 -43.175781 10.796875 -47.4375 C 15.097656 -51.707031 20.5625 -53.84375 27.1875 -53.84375 C 34.945312 -53.84375 38.828125 -50.457031 38.828125 -43.6875 C 38.828125 -39.738281 37.695312 -36.109375 35.4375 -32.796875 C 33.175781 -29.484375 30.175781 -26.820312 26.4375 -24.8125 C 22.707031 -22.800781 18.722656 -21.65625 14.484375 -21.375 C 14.347656 -19.25 14.28125 -17.835938 14.28125 -17.140625 C 14.28125 -13.679688 14.878906 -11.332031 16.078125 -10.09375 C 17.273438 -8.863281 19.210938 -8.25 21.890625 -8.25 C 25.703125 -8.25 28.960938 -9.128906 31.671875 -10.890625 C 34.390625 -12.660156 37.375 -15.34375 40.625 -18.9375 L 44.21875 -18.9375 C 36.382812 -5.882812 26.6875 0.640625 15.125 0.640625 Z M 15.34375 -26.453125 C 17.945312 -26.585938 20.429688 -27.5 22.796875 -29.1875 C 25.160156 -30.882812 27.0625 -33.035156 28.5 -35.640625 C 29.945312 -38.253906 30.671875 -41.007812 30.671875 -43.90625 C 30.671875 -46.789062 29.789062 -48.234375 28.03125 -48.234375 C 25.488281 -48.234375 23 -46.007812 20.5625 -41.5625 C 18.132812 -37.125 16.394531 -32.085938 15.34375 -26.453125 Z M 15.34375 -26.453125 "/></g></g></g><g fill="#ffffff" fill-opacity="1"><g transform="translate(182.489943, 95.165867)"><g><path d="M 36.390625 -32.578125 L 26.234375 -72.25 C 21.222656 -70.34375 17.34375 -67.394531 14.59375 -63.40625 C 11.84375 -59.425781 10.46875 -54.546875 10.46875 -48.765625 C 10.46875 -46.148438 10.710938 -44.332031 11.203125 -43.3125 C 11.703125 -42.289062 11.953125 -41.710938 11.953125 -41.578125 C 8.140625 -41.578125 5.300781 -42.367188 3.4375 -43.953125 C 1.570312 -45.535156 0.640625 -48.160156 0.640625 -51.828125 C 0.640625 -56.347656 2.488281 -60.738281 6.1875 -65 C 9.882812 -69.269531 14.625 -72.726562 20.40625 -75.375 C 26.195312 -78.019531 31.984375 -79.34375 37.765625 -79.34375 C 38.753906 -79.34375 40.164062 -79.269531 42 -79.125 L 51.203125 -41.25 L 66.859375 -78.8125 L 73.828125 -78.8125 L 53.3125 -32.578125 L 46.328125 0 L 29.40625 0 Z M 36.390625 -32.578125 "/></g></g></g><g fill="#ffffff" fill-opacity="1"><g transform="translate(250.189296, 95.165867)"><g><path d="M 15.4375 0.421875 C 10.21875 0.421875 6.09375 -0.914062 3.0625 -3.59375 C 0.03125 -6.269531 -1.484375 -10.503906 -1.484375 -16.296875 C -1.484375 -21.085938 -0.5 -26.410156 1.46875 -32.265625 C 3.445312 -38.117188 6.625 -43.175781 11 -47.4375 C 15.375 -51.707031 20.875 -53.84375 27.5 -53.84375 C 36.53125 -53.84375 41.046875 -48.203125 41.046875 -36.921875 L 41.046875 -36.8125 C 41.253906 -36.738281 41.640625 -36.703125 42.203125 -36.703125 C 44.535156 -36.703125 47.21875 -37.316406 50.25 -38.546875 C 53.28125 -39.785156 56.03125 -41.285156 58.5 -43.046875 L 59.453125 -40.203125 C 57.398438 -38.015625 54.734375 -36.160156 51.453125 -34.640625 C 48.179688 -33.128906 44.601562 -32.054688 40.71875 -31.421875 C 40.15625 -25.003906 38.707031 -19.394531 36.375 -14.59375 C 34.050781 -9.800781 31.054688 -6.097656 27.390625 -3.484375 C 23.722656 -0.878906 19.738281 0.421875 15.4375 0.421875 Z M 19.671875 -9.09375 C 21.367188 -9.09375 23.0625 -10.0625 24.75 -12 C 26.445312 -13.945312 27.925781 -16.59375 29.1875 -19.9375 C 30.457031 -23.289062 31.378906 -27.007812 31.953125 -31.09375 C 30.046875 -31.519531 29.09375 -33.003906 29.09375 -35.546875 C 29.09375 -38.429688 30.1875 -40.332031 32.375 -41.25 C 32.226562 -43.582031 31.875 -45.1875 31.3125 -46.0625 C 30.75 -46.945312 29.757812 -47.390625 28.34375 -47.390625 C 26.019531 -47.390625 23.765625 -45.695312 21.578125 -42.3125 C 19.390625 -38.925781 17.625 -34.867188 16.28125 -30.140625 C 14.945312 -25.421875 14.28125 -21.265625 14.28125 -17.671875 C 14.28125 -14.285156 14.664062 -12.007812 15.4375 -10.84375 C 16.21875 -9.675781 17.628906 -9.09375 19.671875 -9.09375 Z M 19.671875 -9.09375 "/></g></g></g><g fill="#ffffff" fill-opacity="1"><g transform="translate(298.742481, 95.165867)"><g><path d="M 10.46875 0.640625 C 7.082031 0.640625 4.347656 -0.414062 2.265625 -2.53125 C 0.191406 -4.65625 -0.84375 -7.832031 -0.84375 -12.0625 C -0.84375 -13.820312 -0.5625 -16.113281 0 -18.9375 L 7.1875 -52.890625 L 22.421875 -52.890625 L 14.8125 -16.921875 C 14.59375 -15.867188 14.484375 -14.882812 14.484375 -13.96875 C 14.484375 -11.070312 15.546875 -9.625 17.671875 -9.625 C 19.640625 -9.625 21.328125 -10.453125 22.734375 -12.109375 C 24.148438 -13.765625 25.28125 -16.039062 26.125 -18.9375 L 33.328125 -52.890625 L 48.546875 -52.890625 L 40.9375 -16.921875 C 40.65625 -15.867188 40.515625 -14.742188 40.515625 -13.546875 C 40.515625 -12.128906 40.847656 -11.117188 41.515625 -10.515625 C 42.191406 -9.921875 43.300781 -9.625 44.84375 -9.625 C 46.820312 -9.625 48.535156 -10.46875 49.984375 -12.15625 C 51.429688 -13.851562 52.578125 -16.113281 53.421875 -18.9375 L 57.859375 -18.9375 C 55.253906 -11.320312 52.03125 -6.15625 48.1875 -3.4375 C 44.34375 -0.71875 40.476562 0.640625 36.59375 0.640625 C 33.5625 0.640625 31.144531 -0.203125 29.34375 -1.890625 C 27.550781 -3.585938 26.476562 -6.097656 26.125 -9.421875 C 23.726562 -5.535156 21.207031 -2.882812 18.5625 -1.46875 C 15.914062 -0.0625 13.21875 0.640625 10.46875 0.640625 Z M 10.46875 0.640625 "/></g></g></g><g fill="#ffffff" fill-opacity="1"><g transform="translate(354.277139, 95.165867)"><g><path d="M 31.625 -70.03125 L 30.359375 -70.03125 C 24.078125 -70.03125 19.191406 -68.457031 15.703125 -65.3125 C 12.210938 -62.175781 10.46875 -56.625 10.46875 -48.65625 C 10.46875 -46.050781 10.710938 -44.234375 11.203125 -43.203125 C 11.703125 -42.179688 11.953125 -41.601562 11.953125 -41.46875 C 8.140625 -41.46875 5.300781 -42.257812 3.4375 -43.84375 C 1.570312 -45.425781 0.640625 -48.054688 0.640625 -51.734375 C 0.640625 -56.734375 1.875 -61.296875 4.34375 -65.421875 C 6.8125 -69.546875 10.738281 -72.878906 16.125 -75.421875 C 21.519531 -77.960938 28.378906 -79.234375 36.703125 -79.234375 C 41.359375 -79.234375 46.367188 -78.804688 51.734375 -77.953125 C 56.242188 -77.179688 60.257812 -76.796875 63.78125 -76.796875 C 68.300781 -76.796875 72.394531 -77.535156 76.0625 -79.015625 C 75.914062 -74.429688 74.75 -71.046875 72.5625 -68.859375 C 70.375 -66.671875 67.128906 -65.578125 62.828125 -65.578125 C 60.578125 -65.578125 58.320312 -65.753906 56.0625 -66.109375 C 53.800781 -66.460938 50.59375 -67.0625 46.4375 -67.90625 L 31.84375 0 L 16.609375 0 Z M 31.625 -70.03125 "/></g></g></g><g fill="#ffffff" fill-opacity="1"><g transform="translate(407.273071, 95.165867)"><g><path d="M 10.46875 0.640625 C 7.082031 0.640625 4.347656 -0.414062 2.265625 -2.53125 C 0.191406 -4.65625 -0.84375 -7.832031 -0.84375 -12.0625 C -0.84375 -13.820312 -0.5625 -16.113281 0 -18.9375 L 7.1875 -52.890625 L 22.421875 -52.890625 L 14.8125 -16.921875 C 14.59375 -15.867188 14.484375 -14.882812 14.484375 -13.96875 C 14.484375 -11.070312 15.546875 -9.625 17.671875 -9.625 C 19.640625 -9.625 21.328125 -10.453125 22.734375 -12.109375 C 24.148438 -13.765625 25.28125 -16.039062 26.125 -18.9375 L 33.328125 -52.890625 L 48.546875 -52.890625 L 40.9375 -16.921875 C 40.65625 -15.867188 40.515625 -14.742188 40.515625 -13.546875 C 40.515625 -12.128906 40.847656 -11.117188 41.515625 -10.515625 C 42.191406 -9.921875 43.300781 -9.625 44.84375 -9.625 C 46.820312 -9.625 48.535156 -10.46875 49.984375 -12.15625 C 51.429688 -13.851562 52.578125 -16.113281 53.421875 -18.9375 L 57.859375 -18.9375 C 55.253906 -11.320312 52.03125 -6.15625 48.1875 -3.4375 C 44.34375 -0.71875 40.476562 0.640625 36.59375 0.640625 C 33.5625 0.640625 31.144531 -0.203125 29.34375 -1.890625 C 27.550781 -3.585938 26.476562 -6.097656 26.125 -9.421875 C 23.726562 -5.535156 21.207031 -2.882812 18.5625 -1.46875 C 15.914062 -0.0625 13.21875 0.640625 10.46875 0.640625 Z M 10.46875 0.640625 "/></g></g></g><g fill="#ffffff" fill-opacity="1"><g transform="translate(462.807742, 95.165867)"><g><path d="M 14.0625 0.640625 C 9.269531 0.640625 5.601562 -0.539062 3.0625 -2.90625 C 0.53125 -5.269531 -0.734375 -8.601562 -0.734375 -12.90625 C -0.734375 -15.019531 -0.488281 -17.03125 0 -18.9375 L 11.3125 -71.9375 L 26.96875 -74.046875 L 21.890625 -50.25 C 23.867188 -51.445312 25.492188 -52.238281 26.765625 -52.625 C 28.035156 -53.007812 29.304688 -53.203125 30.578125 -53.203125 C 38.890625 -53.203125 43.046875 -47.175781 43.046875 -35.125 C 43.046875 -30.257812 42.113281 -25.054688 40.25 -19.515625 C 38.382812 -13.984375 35.28125 -9.238281 30.9375 -5.28125 C 26.601562 -1.332031 20.976562 0.640625 14.0625 0.640625 Z M 20 -9.625 C 22.175781 -9.625 24.21875 -10.976562 26.125 -13.6875 C 28.03125 -16.40625 29.546875 -19.789062 30.671875 -23.84375 C 31.804688 -27.90625 32.375 -31.804688 32.375 -35.546875 C 32.375 -38.367188 31.878906 -40.765625 30.890625 -42.734375 C 29.898438 -44.710938 28.523438 -45.703125 26.765625 -45.703125 C 25.703125 -45.703125 24.519531 -45.539062 23.21875 -45.21875 C 21.914062 -44.90625 21.015625 -44.429688 20.515625 -43.796875 L 14.703125 -16.921875 C 14.492188 -16.078125 14.390625 -15.265625 14.390625 -14.484375 C 14.390625 -11.242188 16.257812 -9.625 20 -9.625 Z M 20 -9.625 "/></g></g></g><g fill="#ffffff" fill-opacity="1"><g transform="translate(511.889836, 95.165867)"><g><path d="M 15.125 0.640625 C 9.90625 0.640625 5.847656 -0.71875 2.953125 -3.4375 C 0.0664062 -6.15625 -1.375 -10.40625 -1.375 -16.1875 C -1.375 -21.050781 -0.421875 -26.410156 1.484375 -32.265625 C 3.390625 -38.117188 6.492188 -43.175781 10.796875 -47.4375 C 15.097656 -51.707031 20.5625 -53.84375 27.1875 -53.84375 C 34.945312 -53.84375 38.828125 -50.457031 38.828125 -43.6875 C 38.828125 -39.738281 37.695312 -36.109375 35.4375 -32.796875 C 33.175781 -29.484375 30.175781 -26.820312 26.4375 -24.8125 C 22.707031 -22.800781 18.722656 -21.65625 14.484375 -21.375 C 14.347656 -19.25 14.28125 -17.835938 14.28125 -17.140625 C 14.28125 -13.679688 14.878906 -11.332031 16.078125 -10.09375 C 17.273438 -8.863281 19.210938 -8.25 21.890625 -8.25 C 25.703125 -8.25 28.960938 -9.128906 31.671875 -10.890625 C 34.390625 -12.660156 37.375 -15.34375 40.625 -18.9375 L 44.21875 -18.9375 C 36.382812 -5.882812 26.6875 0.640625 15.125 0.640625 Z M 15.34375 -26.453125 C 17.945312 -26.585938 20.429688 -27.5 22.796875 -29.1875 C 25.160156 -30.882812 27.0625 -33.035156 28.5 -35.640625 C 29.945312 -38.253906 30.671875 -41.007812 30.671875 -43.90625 C 30.671875 -46.789062 29.789062 -48.234375 28.03125 -48.234375 C 25.488281 -48.234375 23 -46.007812 20.5625 -41.5625 C 18.132812 -37.125 16.394531 -32.085938 15.34375 -26.453125 Z M 15.34375 -26.453125 "/></g></g></g><g clip-path="url(#12c4ddb63b)"><g clip-path="url(#4af03724e4)"><g clip-path="url(#8e25588052)"><path fill="#418192" d="M 695.84375 172.4375 C 700.519531 169.871094 704.894531 165.679688 705.933594 160.238281 C 706.84375 155.46875 705.414062 150.007812 701.289062 147.136719 C 696.574219 143.859375 690.832031 145.507812 686.019531 147.597656 C 681.121094 149.726562 676.476562 151.703125 671.070312 152.023438 C 665.9375 152.328125 660.691406 151.488281 655.957031 149.46875 C 644.972656 144.785156 637.421875 133.84375 633.605469 122.839844 C 630.011719 112.488281 630.234375 100.316406 637.113281 91.3125 C 638.445312 89.5625 639.988281 88.007812 641.722656 86.667969 C 641.734375 86.6875 641.742188 86.710938 641.757812 86.734375 C 650.292969 99.480469 661.816406 110.125 675.144531 117.707031 C 681.875 121.539062 689.085938 124.578125 696.539062 126.695312 C 704.609375 128.984375 713.414062 130.074219 721.480469 127.171875 C 729.3125 124.355469 735.746094 118.5 740.085938 111.476562 C 744.589844 104.183594 745.8125 95.890625 743.546875 87.617188 C 739.453125 72.675781 727.074219 60.421875 713.355469 53.90625 C 698.460938 46.832031 681.207031 46.097656 665.433594 50.511719 C 664.351562 50.816406 663.277344 51.148438 662.210938 51.503906 C 664.097656 38.277344 670.425781 25.753906 679.738281 16.214844 C 681.925781 13.980469 684.273438 11.929688 686.765625 10.0625 C 690.785156 21.886719 698.808594 32.199219 709.320312 38.972656 C 720.070312 45.898438 733.476562 48.867188 746.140625 47.164062 C 752.902344 46.253906 759.863281 44.183594 764.542969 38.925781 C 768.492188 34.488281 770.449219 28.539062 770.515625 22.648438 C 770.671875 9.054688 760.300781 -2.023438 748.742188 -7.691406 C 741.902344 -11.042969 734.449219 -12.949219 726.988281 -14.308594 C 719.476562 -15.679688 711.867188 -16.402344 704.300781 -15.34375 C 702.910156 -21.621094 705.070312 -28.082031 708.171875 -33.558594 C 711.15625 -38.824219 716.253906 -44.761719 713.453125 -51.214844 C 710.679688 -57.609375 702.539062 -59.726562 696.417969 -57.214844 C 689.710938 -54.457031 685.105469 -48.039062 682.039062 -41.707031 C 678.617188 -34.648438 676.972656 -26.792969 677.265625 -18.953125 C 677.28125 -18.539062 677.402344 -18.203125 677.578125 -17.921875 C 656.886719 -5.441406 642.203125 16.28125 637.609375 39.953125 C 636.277344 46.816406 635.789062 53.851562 636.21875 60.832031 C 636.230469 61.003906 636.257812 61.164062 636.300781 61.308594 C 635.941406 61.207031 635.53125 61.21875 635.074219 61.398438 C 625.296875 65.238281 617.441406 72.632812 612.25 81.699219 C 606.75 91.3125 604.503906 102.449219 605.296875 113.460938 C 606.183594 125.792969 610.546875 137.703125 616.828125 148.285156 C 622.882812 158.480469 630.855469 168.175781 642.027344 172.894531 C 647.570312 175.234375 653.488281 176.523438 659.433594 177.3125 C 665.714844 178.148438 672.101562 178.410156 678.40625 177.640625 C 684.429688 176.910156 690.496094 175.375 695.84375 172.4375 Z M 719.128906 123.242188 C 719.777344 123.132812 720.421875 122.996094 721.0625 122.847656 C 719.195312 123.578125 717.28125 124.070312 715.332031 124.363281 C 716.617188 124.042969 717.882812 123.664062 719.128906 123.242188 Z M 705.777344 124.148438 C 705.792969 124.152344 705.804688 124.144531 705.820312 124.144531 C 706.570312 124.238281 707.320312 124.320312 708.078125 124.371094 C 708.113281 124.457031 708.160156 124.539062 708.210938 124.621094 C 706.4375 124.503906 704.664062 124.261719 702.90625 123.925781 C 703.859375 124.035156 704.8125 124.113281 705.777344 124.148438 Z M 714.148438 116.277344 C 714.335938 116.1875 714.527344 116.101562 714.722656 116.019531 C 715.085938 115.929688 715.449219 115.839844 715.8125 115.753906 C 715.742188 115.886719 715.683594 116.027344 715.640625 116.179688 C 715.632812 116.207031 715.636719 116.238281 715.628906 116.265625 C 715.136719 116.289062 714.640625 116.289062 714.148438 116.277344 Z M 734.777344 111.914062 C 734.914062 111.601562 735.023438 111.28125 735.144531 110.96875 C 735.835938 110.152344 736.480469 109.300781 737.058594 108.40625 C 736.375 109.617188 735.605469 110.789062 734.777344 111.914062 Z M 753.265625 41.273438 C 755.457031 40.058594 757.652344 38.84375 759.84375 37.625 C 757.917969 39.242188 755.667969 40.417969 753.265625 41.273438 Z M 734.496094 42.660156 C 735.925781 43.003906 737.390625 43.207031 738.855469 43.273438 C 738.914062 43.34375 738.972656 43.40625 739.039062 43.464844 C 736.980469 43.460938 734.917969 43.328125 732.871094 43.074219 C 733.367188 42.949219 733.855469 42.796875 734.332031 42.613281 C 734.386719 42.628906 734.441406 42.648438 734.496094 42.660156 Z M 763.835938 32.625 C 763.578125 32.492188 763.28125 32.445312 762.972656 32.464844 C 763.890625 31.277344 764.71875 30.023438 765.4375 28.695312 C 765.039062 30.058594 764.5 31.375 763.835938 32.625 Z M 703.050781 28.550781 C 704.65625 29.960938 706.355469 31.257812 708.140625 32.441406 C 708.8125 33.191406 709.523438 33.90625 710.273438 34.582031 C 707.675781 32.800781 705.261719 30.773438 703.050781 28.550781 Z M 761.339844 18.449219 C 761.308594 19.019531 761.285156 19.585938 761.230469 20.152344 C 761.078125 20.800781 760.96875 21.464844 760.847656 22.121094 C 760.660156 22.492188 760.457031 22.851562 760.238281 23.203125 C 760.492188 21.753906 760.746094 20.304688 761.003906 18.855469 C 761.078125 18.71875 761.136719 18.578125 761.214844 18.445312 C 761.253906 18.449219 761.296875 18.453125 761.339844 18.449219 Z M 749.390625 23.117188 C 749.140625 23.339844 748.890625 23.5625 748.644531 23.789062 C 748.746094 23.164062 748.746094 22.515625 748.667969 21.863281 C 748.910156 22.28125 749.144531 22.703125 749.390625 23.117188 Z M 750.480469 18.390625 C 750.878906 19.007812 751.289062 19.613281 751.726562 20.203125 C 751.632812 20.269531 751.535156 20.332031 751.445312 20.398438 C 750.90625 19.480469 750.375 18.558594 749.875 17.621094 C 750.078125 17.878906 750.277344 18.132812 750.480469 18.390625 Z M 742.371094 11.617188 C 742.929688 12.027344 743.492188 12.433594 744.0625 12.824219 C 744.28125 13.316406 744.503906 13.808594 744.730469 14.296875 C 743.703125 13.304688 742.535156 12.46875 741.285156 11.742188 C 741.585938 11.71875 741.835938 11.609375 742.035156 11.441406 C 742.144531 11.503906 742.257812 11.558594 742.371094 11.617188 Z M 737.375 2.6875 C 737.535156 2.71875 737.691406 2.722656 737.835938 2.710938 C 737.871094 2.734375 737.910156 2.761719 737.945312 2.789062 C 737.992188 2.988281 738.078125 3.179688 738.210938 3.351562 C 737.449219 3.03125 736.683594 2.722656 735.914062 2.421875 C 736.402344 2.507812 736.890625 2.59375 737.375 2.6875 Z M 727.070312 10.929688 C 731.949219 12.359375 737.792969 13.511719 741.613281 17.109375 C 742.496094 17.941406 743.269531 18.914062 743.804688 20.007812 C 744.160156 20.730469 744.894531 22.425781 744.542969 23.242188 C 744.203125 24.023438 742.59375 24.675781 741.824219 24.980469 C 740.589844 25.472656 739.300781 25.675781 737.972656 25.59375 C 732.992188 25.292969 728.414062 21.597656 724.667969 18.628906 C 720.679688 15.46875 716.988281 11.9375 713.660156 8.089844 C 718.214844 8.523438 722.679688 9.644531 727.070312 10.929688 Z M 706.394531 -50.519531 C 706.800781 -50.828125 707.230469 -51.117188 707.6875 -51.371094 C 707.90625 -51.492188 707.964844 -51.683594 707.925781 -51.863281 C 708.183594 -51.632812 708.425781 -51.382812 708.644531 -51.121094 C 708.105469 -51.40625 707.429688 -51.378906 706.882812 -50.773438 C 706.792969 -50.675781 706.707031 -50.570312 706.617188 -50.46875 C 706.546875 -50.492188 706.472656 -50.507812 706.394531 -50.519531 Z M 697.492188 -41.667969 C 698.042969 -42.089844 698.601562 -42.5 699.164062 -42.902344 C 699.164062 -42.863281 699.164062 -42.820312 699.171875 -42.785156 C 698.75 -42.214844 698.328125 -41.644531 697.90625 -41.078125 C 697.660156 -40.792969 697.429688 -40.496094 697.210938 -40.1875 C 696.988281 -40.082031 696.765625 -39.980469 696.546875 -39.878906 C 696.835938 -40.488281 697.152344 -41.085938 697.492188 -41.667969 Z M 705.886719 -38 C 706.617188 -39.339844 707.28125 -40.710938 707.8125 -42.136719 C 707.863281 -42.246094 707.910156 -42.355469 707.960938 -42.460938 C 708.351562 -42.921875 708.738281 -43.378906 709.105469 -43.855469 C 709.496094 -44.367188 709.53125 -44.976562 709.335938 -45.484375 C 709.582031 -46.058594 709.816406 -46.640625 710.050781 -47.21875 C 710.027344 -45.25 709.121094 -43.292969 708.1875 -41.609375 C 707.476562 -40.328125 706.699219 -39.09375 705.925781 -37.851562 C 705.914062 -37.902344 705.898438 -37.949219 705.886719 -38 Z M 680.449219 -14.339844 L 680.589844 -14.839844 C 680.730469 -14.921875 680.863281 -15.007812 681.003906 -15.085938 C 680.996094 -14.675781 680.988281 -14.261719 680.988281 -13.847656 C 680.972656 -13.835938 680.957031 -13.824219 680.9375 -13.8125 C 680.816406 -14.015625 680.648438 -14.195312 680.449219 -14.339844 Z M 707.398438 -4.222656 C 706.457031 -4.195312 705.515625 -4.171875 704.574219 -4.144531 C 703.539062 -4.140625 702.503906 -4.125 701.472656 -4.09375 C 701.507812 -4.167969 701.535156 -4.246094 701.570312 -4.320312 C 703 -4.277344 704.433594 -4.269531 705.871094 -4.304688 C 706.4375 -4.285156 707.007812 -4.269531 707.578125 -4.246094 C 707.519531 -4.238281 707.460938 -4.230469 707.398438 -4.222656 Z M 724.421875 -10.234375 C 724.242188 -10.394531 724.039062 -10.53125 723.773438 -10.585938 C 723.402344 -10.660156 723.027344 -10.726562 722.65625 -10.796875 C 723 -10.746094 723.351562 -10.695312 723.695312 -10.636719 C 724.902344 -10.441406 726.113281 -10.222656 727.320312 -9.996094 C 726.355469 -10.09375 725.390625 -10.164062 724.421875 -10.234375 Z M 722.597656 -6.574219 C 722.664062 -6.585938 722.730469 -6.59375 722.796875 -6.609375 C 723.441406 -6.625 724.085938 -6.632812 724.730469 -6.605469 C 725.109375 -6.464844 725.492188 -6.332031 725.867188 -6.183594 C 724.78125 -6.332031 723.691406 -6.464844 722.597656 -6.574219 Z M 663.675781 27.558594 C 663.300781 28.675781 662.925781 29.796875 662.550781 30.917969 C 662.390625 31.027344 662.246094 31.144531 662.09375 31.261719 C 662.605469 30.019531 663.128906 28.785156 663.675781 27.558594 Z M 660.640625 35.511719 C 660.855469 35.242188 661.078125 34.976562 661.285156 34.703125 L 660.414062 37.3125 Z M 640.914062 45.992188 C 641.011719 46.824219 641.125 47.65625 641.25 48.484375 C 641.011719 48.523438 640.796875 48.628906 640.601562 48.773438 C 640.6875 47.84375 640.792969 46.917969 640.914062 45.992188 Z M 678.183594 94.492188 C 678.851562 95.015625 679.523438 95.539062 680.214844 96.035156 C 680.722656 96.398438 681.242188 96.753906 681.761719 97.109375 C 680.855469 96.648438 679.945312 96.191406 679.035156 95.734375 C 678.753906 95.320312 678.46875 94.902344 678.183594 94.492188 Z M 669.648438 109.292969 C 669.851562 109.078125 670.011719 108.832031 670.117188 108.566406 C 670.367188 108.777344 670.617188 108.988281 670.867188 109.199219 C 671.402344 109.851562 671.9375 110.507812 672.488281 111.152344 C 672.605469 111.289062 672.769531 111.3125 672.925781 111.277344 C 673.5 111.707031 674.078125 112.132812 674.65625 112.558594 C 672.957031 111.519531 671.285156 110.433594 669.648438 109.292969 Z M 737.089844 82.34375 C 737.660156 83.5 738.164062 84.695312 738.609375 85.910156 C 738.453125 86.027344 738.3125 86.175781 738.199219 86.351562 C 738.144531 86.085938 738.089844 85.820312 738.023438 85.554688 C 737.714844 84.28125 737.304688 83.046875 736.828125 81.84375 C 736.910156 82.011719 737.007812 82.175781 737.089844 82.34375 Z M 725.074219 81.371094 C 724.609375 80.707031 724.128906 80.058594 723.601562 79.449219 C 723.824219 79.316406 724.023438 79.148438 724.195312 78.957031 C 724.519531 79.75 724.808594 80.554688 725.074219 81.371094 Z M 706.371094 77.234375 C 706.382812 77.378906 706.410156 77.523438 706.453125 77.671875 C 705.785156 77.359375 705.113281 77.058594 704.433594 76.777344 C 705.078125 76.9375 705.722656 77.082031 706.371094 77.234375 Z M 721.570312 63.765625 C 721.546875 63.910156 721.539062 64.058594 721.550781 64.210938 C 721.28125 63.992188 721.007812 63.785156 720.742188 63.566406 C 720.820312 63.492188 720.890625 63.410156 720.953125 63.324219 C 721.15625 63.472656 721.371094 63.613281 721.570312 63.765625 Z M 691.378906 77.066406 C 695.558594 78 699.683594 79.277344 703.605469 81.003906 C 707.269531 82.617188 711.003906 84.722656 713.355469 88.070312 C 715.222656 90.730469 716.03125 94.269531 714.960938 97.414062 C 713.671875 101.179688 709.84375 102.292969 706.199219 102.140625 C 702.242188 101.976562 698.160156 100.644531 694.507812 99.175781 C 690.792969 97.683594 687.238281 95.789062 683.921875 93.554688 C 677.183594 89.011719 671.546875 82.9375 667.414062 75.957031 C 675.402344 74.980469 683.507812 75.316406 691.378906 77.066406 Z M 657.382812 79.527344 C 657.132812 79.679688 656.917969 79.890625 656.746094 80.128906 C 656.5625 79.363281 656.382812 78.597656 656.199219 77.832031 C 656.59375 78.398438 656.988281 78.960938 657.382812 79.527344 Z M 631.347656 68.230469 C 631.117188 68.394531 630.894531 68.574219 630.664062 68.742188 C 630.628906 68.742188 630.597656 68.742188 630.5625 68.742188 C 630.367188 68.738281 630.167969 68.726562 629.972656 68.691406 C 630.007812 68.652344 630.042969 68.613281 630.074219 68.574219 C 630.511719 68.300781 630.953125 68.035156 631.402344 67.773438 C 631.355469 67.921875 631.351562 68.078125 631.347656 68.230469 Z M 624.121094 73.226562 C 624.109375 73.246094 624.101562 73.269531 624.089844 73.289062 C 623.90625 73.535156 623.722656 73.785156 623.539062 74.03125 C 623.496094 74.089844 623.476562 74.15625 623.453125 74.21875 C 623.097656 74.464844 622.738281 74.714844 622.378906 74.960938 C 622.945312 74.363281 623.523438 73.785156 624.121094 73.226562 Z M 618.347656 79.875 C 618.367188 79.910156 618.386719 79.949219 618.40625 79.984375 C 618.347656 80.078125 618.289062 80.175781 618.226562 80.269531 C 617.820312 80.84375 617.4375 81.429688 617.082031 82.03125 C 616.972656 82.113281 616.867188 82.203125 616.757812 82.285156 C 617.265625 81.46875 617.789062 80.660156 618.347656 79.875 Z M 644.78125 83.949219 C 644.769531 83.902344 644.765625 83.855469 644.75 83.808594 C 644.871094 83.945312 644.996094 84.074219 645.113281 84.210938 C 646.1875 85.628906 647.3125 87.007812 648.492188 88.347656 C 648.441406 88.53125 648.417969 88.722656 648.433594 88.914062 C 648.414062 88.890625 648.394531 88.863281 648.378906 88.839844 C 647.304688 87.414062 646.273438 85.957031 645.28125 84.476562 C 645.132812 84.253906 644.960938 84.085938 644.78125 83.949219 Z M 699.777344 151.296875 C 699.585938 151.347656 699.40625 151.421875 699.230469 151.519531 C 698.964844 151.050781 698.648438 150.605469 698.285156 150.179688 C 698.851562 150.476562 699.34375 150.859375 699.777344 151.296875 Z M 640.269531 167.386719 C 641.292969 167.714844 642.324219 168.03125 643.359375 168.332031 C 643.320312 168.511719 643.300781 168.695312 643.300781 168.882812 C 642.269531 168.429688 641.261719 167.925781 640.269531 167.386719 Z M 694.875 158.242188 C 695.042969 158.089844 695.210938 157.941406 695.367188 157.773438 C 695.761719 157.347656 695.925781 156.890625 695.9375 156.453125 C 696.03125 156.398438 696.128906 156.34375 696.222656 156.289062 C 696.21875 156.621094 696.179688 156.953125 696.125 157.28125 C 695.714844 157.945312 695.261719 158.578125 694.78125 159.191406 C 694.898438 158.894531 694.921875 158.566406 694.875 158.242188 Z M 678.875 173.363281 C 678.890625 173.320312 678.90625 173.28125 678.917969 173.238281 C 681.214844 172.898438 683.503906 172.476562 685.769531 171.960938 C 683.507812 172.59375 681.203125 173.042969 678.875 173.363281 Z M 678.875 173.363281 " fill-opacity="1" fill-rule="nonzero"/></g></g></g></svg>