<svg xmlns="http://www.w3.org/2000/svg" xmlns:xlink="http://www.w3.org/1999/xlink" width="1200" zoomAndPan="magnify" viewBox="0 0 900 599.999999" height="800" preserveAspectRatio="xMidYMid meet" version="1.0"><defs><clipPath id="cdc711a91a"><path d="M 32 499 L 854 499 L 854 534.300781 L 32 534.300781 Z M 32 499 " clip-rule="nonzero"/></clipPath><clipPath id="a40091c41a"><path d="M 0 65.550781 L 900 65.550781 L 900 475 L 0 475 Z M 0 65.550781 " clip-rule="nonzero"/></clipPath></defs><g clip-path="url(#cdc711a91a)"><path fill="#000000" d="M 57.371094 533.566406 L 32.105469 533.53125 L 32.105469 499.300781 L 57.015625 499.347656 L 57.015625 505.617188 L 40.664062 505.582031 L 40.664062 512.773438 L 56.265625 512.773438 L 56.265625 519.078125 L 40.664062 519.039062 L 40.664062 527.277344 L 57.371094 527.296875 Z M 129.332031 533.625 L 122.164062 533.625 L 103.214844 511.660156 L 103.214844 533.585938 L 94.695312 533.585938 L 94.695312 499.347656 L 102.507812 499.363281 L 120.808594 520.332031 L 120.808594 499.402344 L 129.332031 499.421875 Z M 198.6875 505.734375 L 186.292969 505.714844 L 186.292969 533.644531 L 177.769531 533.644531 L 177.769531 505.695312 L 165.375 505.675781 L 165.375 499.425781 L 198.6875 499.441406 Z M 259.96875 533.75 L 234.714844 533.703125 L 234.714844 499.460938 L 259.59375 499.519531 L 259.59375 505.773438 L 243.242188 505.753906 L 243.242188 512.9375 L 258.855469 512.9375 L 258.855469 519.226562 L 243.242188 519.207031 L 243.242188 527.429688 L 259.96875 527.449219 Z M 312.523438 499.539062 C 319.574219 499.539062 323.746094 504.28125 323.746094 509.394531 C 323.746094 513.167969 321.792969 515.960938 317.882812 517.777344 C 321.398438 519.523438 322.445312 523.753906 327.261719 533.804688 L 317.882812 533.769531 C 314.203125 526.449219 312.859375 519.863281 308.21875 519.863281 L 305.777344 519.84375 L 305.777344 533.769531 L 297.238281 533.75 L 297.238281 499.519531 Z M 305.777344 513.5625 L 310.285156 513.601562 C 312.648438 513.601562 314.964844 512.601562 314.964844 509.691406 C 314.964844 507.136719 313.292969 505.8125 310.09375 505.8125 L 305.777344 505.8125 Z M 390.445312 505.847656 L 378.0625 505.832031 L 378.0625 533.769531 L 369.53125 533.769531 L 369.53125 505.8125 L 357.128906 505.792969 L 357.128906 499.539062 L 390.449219 499.597656 L 390.449219 505.847656 Z M 456.535156 533.863281 L 447.324219 533.828125 L 444.535156 527.074219 L 429.222656 527.035156 L 426.648438 533.828125 L 417.597656 533.808594 L 431.402344 499.597656 L 441.308594 499.617188 Z M 436.484375 507.78125 L 431.472656 521.0625 L 442.011719 521.082031 Z M 500.097656 533.886719 L 491.535156 533.867188 L 491.535156 499.636719 L 500.097656 499.636719 Z M 573.390625 533.960938 L 566.203125 533.941406 L 547.277344 511.949219 L 547.277344 533.921875 L 538.757812 533.90625 L 538.757812 499.65625 L 546.566406 499.703125 L 564.847656 520.632812 L 564.847656 499.722656 L 573.390625 499.722656 Z M 641.226562 499.777344 L 648.691406 499.777344 L 648.691406 534.019531 L 640.152344 534 L 640.152344 512.621094 L 630.878906 523.339844 L 629.585938 523.339844 L 620.351562 512.601562 L 620.351562 533.960938 L 611.820312 533.960938 L 611.820312 499.71875 L 619.253906 499.738281 L 630.257812 512.464844 Z M 712.359375 534.058594 L 687.09375 534.019531 L 687.09375 499.777344 L 712.003906 499.835938 L 712.003906 506.109375 L 695.632812 506.089844 L 695.632812 513.226562 L 711.238281 513.273438 L 711.238281 519.546875 L 695.632812 519.527344 L 695.632812 527.746094 L 712.359375 527.785156 Z M 784.308594 534.144531 L 777.132812 534.125 L 758.207031 512.152344 L 758.207031 534.105469 L 749.664062 534.058594 L 749.664062 499.835938 L 757.496094 499.855469 L 775.777344 520.824219 L 775.777344 499.875 L 784.308594 499.894531 Z M 853.671875 506.222656 L 841.269531 506.203125 L 841.269531 534.160156 L 832.738281 534.160156 L 832.738281 506.183594 L 820.316406 506.167969 L 820.316406 499.894531 L 853.671875 499.949219 Z M 853.671875 506.222656 " fill-opacity="1" fill-rule="nonzero"/></g><g clip-path="url(#a40091c41a)"><path fill="#00b4ff" d="M 549.988281 389.261719 C 549.929688 394.898438 552.878906 396.0625 553.214844 399.625 L 553.214844 429.617188 L 552.667969 429.957031 C 550.976562 431.15625 550.226562 431.761719 550.023438 431.960938 C 550.042969 432.097656 550.101562 432.453125 550.101562 432.941406 C 550.101562 433.335938 550.042969 433.769531 549.988281 434.34375 L 549.816406 435.402344 L 501.71875 435.402344 L 501.355469 434.777344 C 500.699219 433.652344 500.117188 432.886719 499.386719 431.886719 L 483.503906 430.1875 C 480.4375 433.59375 475.453125 436.785156 471.339844 438.195312 L 471.148438 438.253906 L 470.945312 438.253906 C 458.851562 438.253906 452.097656 438.828125 445.132812 438.828125 C 441.914062 439.4375 433.207031 444.707031 426.523438 444.785156 L 425.992188 444.785156 L 425.636719 444.390625 C 423.0625 441.613281 422.390625 438.625 422.410156 436.128906 C 422.410156 433.765625 422.898438 431.757812 422.898438 430.722656 L 422.898438 417.976562 L 423.425781 417.621094 C 424.8125 416.664062 425.542969 416.34375 426.367188 415.277344 C 426.992188 414.492188 427.289062 413.078125 427.289062 411.582031 C 427.289062 408.535156 426.164062 405.214844 426.164062 405.214844 L 425.867188 404.320312 L 426.617188 403.792969 C 429.546875 401.707031 431.265625 400.941406 432.621094 398.222656 C 433.113281 397.164062 433.351562 395.648438 433.351562 394.113281 C 433.351562 390.992188 432.546875 387.859375 432.546875 387.859375 L 432.304688 386.996094 L 433.015625 386.523438 C 434.410156 385.582031 435.121094 385.226562 435.925781 384.203125 C 436.492188 383.46875 436.773438 382.222656 436.773438 380.820312 C 436.773438 378.003906 435.742188 374.980469 435.742188 374.980469 L 435.6875 374.757812 L 435.6875 374.566406 C 435.890625 372.789062 438.050781 369.570312 438.933594 366.460938 C 439.722656 363.722656 440.039062 360.265625 440.039062 356.882812 C 440.039062 350.09375 438.875 343.726562 438.875 343.46875 C 438.933594 340.375 437.109375 339.710938 435.746094 336.128906 C 433.351562 329.339844 432.601562 321.078125 432.601562 313.078125 C 432.601562 297.046875 435.6875 281.980469 435.746094 281.738281 L 454.875 230.949219 C 454.738281 230.25 452.941406 229.75 451.75 227.320312 C 451.511719 226.6875 451.375 226.070312 451.375 225.542969 C 451.414062 224.382812 451.664062 223.738281 451.664062 222.578125 L 451.664062 222.066406 L 452.039062 221.710938 C 452 221.675781 456.523438 217.128906 456.46875 212.230469 C 456.46875 210.492188 456.429688 209.515625 456.429688 208.535156 C 456.429688 208.035156 456.429688 207.546875 456.46875 206.882812 C 457.199219 203.136719 465.066406 193.542969 466.046875 184.457031 C 466.191406 183.296875 466.230469 181.855469 466.230469 180.480469 C 466.230469 177.726562 466.046875 175.167969 466.046875 175.09375 C 466.289062 172.019531 479.191406 142.34375 488.421875 133.121094 L 488.421875 121.769531 L 488.949219 121.414062 C 489.601562 121.039062 491.785156 119.234375 491.613281 118.261719 L 491.613281 118.1875 C 491.59375 117.265625 491.515625 117.832031 489.882812 115.890625 L 472.953125 115.890625 L 472.617188 115.257812 C 471.769531 113.816406 471.425781 113.09375 470.417969 112.066406 C 469.179688 110.832031 467.449219 110.359375 465.382812 110.359375 C 461.195312 110.339844 456.640625 112.328125 454.496094 112.425781 C 453.890625 112.210938 451.472656 114.277344 449.445312 119.011719 C 447.320312 123.699219 445.238281 130.722656 443.71875 139.882812 C 440.710938 159.023438 437.542969 161.617188 433.449219 161.695312 C 432.777344 161.695312 432.230469 161.617188 431.71875 161.65625 C 430.335938 161.714844 429.375 161.714844 427.589844 164.488281 L 426.800781 165.769531 L 425.695312 164.789062 C 424.285156 163.511719 422.449219 161.800781 421.863281 161.445312 L 421.054688 160.890625 L 421.382812 159.964844 C 422.601562 156.824219 422.957031 154.597656 422.957031 152.886719 C 423.011719 149.527344 421.382812 147.730469 421.304688 143.996094 C 421.449219 141.007812 424.214844 138.367188 426.109375 136.5625 L 426.109375 77.214844 L 427.25 77.136719 C 428.289062 77.058594 430.789062 77.058594 437.011719 77.058594 C 449.425781 77.058594 476.554688 77.136719 535.152344 77.136719 L 535.863281 77.136719 L 536.238281 77.742188 C 538.175781 80.949219 538.28125 80.738281 538.398438 80.683594 C 538.609375 80.683594 539.261719 80.574219 540.183594 80.574219 C 540.386719 80.574219 540.65625 80.574219 540.917969 80.605469 L 542 80.757812 L 542 84.847656 L 541.703125 85.203125 C 538.871094 88.402344 537.785156 99.679688 528.484375 109.042969 C 528.636719 110.128906 528.898438 112.5 528.898438 115.046875 C 528.898438 116.753906 528.792969 118.539062 528.378906 120.136719 C 526.792969 126.273438 525.140625 127.320312 518.898438 133.214844 C 519.078125 134.3125 519.394531 136.675781 519.394531 139.210938 C 519.394531 140.96875 519.253906 142.753906 518.78125 144.347656 C 516.5625 149.851562 512.640625 147.375 512.429688 153.691406 C 512.429688 153.691406 510.652344 165.851562 509.039062 173.574219 C 507.40625 181.230469 503.457031 185.675781 503.511719 191.535156 C 503.511719 192.398438 503.609375 193.28125 503.78125 194.5 L 502.824219 225.820312 L 502.332031 226.175781 C 497.671875 228.953125 498.519531 246.902344 490.09375 255.914062 L 490.09375 266.832031 L 490.015625 267.023438 C 487.441406 273.8125 482.523438 273.421875 480.515625 282.171875 L 480.515625 317.792969 L 470.925781 345.359375 C 471.011719 346.394531 471.300781 350.3125 471.300781 354.558594 C 471.300781 357.019531 471.203125 359.574219 470.886719 361.800781 C 469.589844 370.550781 463.808594 381.210938 460.894531 386.167969 C 460.164062 387.328125 459.808594 387.964844 459.472656 388.472656 C 459.511719 388.722656 459.542969 389 459.542969 389.261719 C 459.472656 392.777344 456.976562 398.722656 456.503906 399.902344 C 456.292969 402.179688 454.554688 405.347656 453.613281 407.132812 C 454.832031 408.335938 455.1875 408.785156 456.09375 408.746094 C 456.257812 408.84375 457.121094 407.941406 458.214844 405.914062 L 458.792969 404.917969 L 459.808594 405.425781 C 461.796875 406.367188 463.546875 406.664062 465.34375 406.664062 C 468.898438 406.703125 472.664062 405.328125 477.398438 405.328125 C 478.679688 405.089844 478.859375 404.226562 479.234375 401.746094 C 479.542969 399.472656 479.878906 396.28125 482.359375 393.621094 C 487.160156 388.550781 497.804688 387.464844 500.113281 385.640625 C 513.074219 376.652344 518.441406 380.839844 526.925781 367.027344 L 527.714844 365.730469 L 528.820312 366.757812 C 529.914062 367.777344 530.78125 368.699219 531.75 369.898438 L 547.824219 369.898438 L 548.199219 370.496094 C 549.832031 373.308594 553.117188 375.296875 553.210938 379.78125 C 552.5625 383.085938 550.082031 381.980469 549.988281 389.261719 M 631.226562 324.679688 C 631.207031 342.207031 630.878906 359.34375 629.832031 363.628906 L 629.738281 364.078125 L 629.34375 364.359375 C 627.652344 365.335938 625.269531 372.636719 622.945312 380.308594 C 620.542969 387.800781 617.949219 395.832031 613.855469 400.132812 L 613.855469 418.371094 L 613.367188 418.746094 C 609.6875 421.003906 609.089844 435.007812 604.296875 440.671875 L 604.296875 452.0625 L 603.757812 452.457031 C 602.683594 453.1875 602.011719 453.738281 601.105469 454.5625 L 601.105469 469.335938 L 600.597656 469.730469 C 597.878906 471.515625 598.175781 473.234375 595.0625 473.386719 C 594.238281 473.445312 593.691406 472.820312 593.429688 472.464844 C 593.132812 472.5625 592.546875 472.753906 591.683594 473.253906 L 589.867188 474.25 L 589.914062 454.390625 L 580.269531 422.933594 L 580.269531 413.457031 C 580.855469 406.328125 564.550781 400.804688 564.3125 385.8125 L 564.3125 385.324219 L 564.628906 384.96875 C 564.609375 384.871094 584.152344 364.058594 585.054688 335.714844 L 585.054688 335.660156 C 585.582031 333.765625 576.828125 327.496094 567.519531 322.578125 C 558.664062 317.566406 549.59375 313.136719 546.644531 310.1875 L 540.882812 310.1875 L 543.617188 318.246094 L 543.617188 335.5625 C 547.882812 336.699219 550.585938 341.933594 553.273438 342.230469 C 553.945312 342.246094 554.984375 343.074219 554.925781 344.035156 C 554.457031 346.867188 550.605469 349.308594 549.949219 353.226562 L 549.796875 354.28125 L 548.691406 354.207031 C 548.671875 354.207031 538.875 353.582031 530.910156 353.582031 C 526.914062 353.582031 523.289062 353.753906 521.972656 354.167969 C 506.785156 359.238281 489.492188 365.730469 489.472656 365.730469 L 488.519531 366.105469 L 487.972656 365.242188 C 483.84375 358.277344 487.339844 360.210938 483.488281 354.695312 L 482.996094 353.964844 L 483.507812 353.285156 C 489.347656 345.417969 490.730469 344.035156 494.84375 340.335938 C 494.921875 338.386719 495.3125 331.566406 497.773438 327.363281 C 501.058594 322.441406 508.292969 321.023438 507.613281 319.3125 C 507.746094 318.957031 506.824219 318.09375 504.929688 316.871094 L 504.308594 316.441406 L 504.402344 315.710938 C 504.402344 315.710938 505.5625 305.558594 506.621094 300 C 506.996094 298.5 507.074219 297.578125 507.46875 296.714844 C 507.015625 295.359375 505.957031 291.632812 505.917969 287.914062 C 505.957031 285.601562 506.332031 283.199219 507.878906 281.367188 C 508.949219 280.148438 509.953125 279.617188 510.800781 278.992188 L 510.800781 265.125 L 511.328125 264.769531 C 513.605469 262.992188 513.847656 262.933594 513.980469 260.601562 C 513.828125 259.496094 514.035156 260.042969 513 259.4375 C 511.933594 259.082031 510.445312 257.632812 510.578125 255.03125 C 510.578125 254.339844 510.636719 253.558594 510.820312 252.550781 C 511.214844 250.660156 511.347656 249.132812 511.347656 247.835938 C 511.367188 244.742188 510.523438 242.71875 510.503906 239.84375 C 510.503906 238.566406 510.675781 237.214844 511.195312 235.640625 C 512.742188 230.722656 515.183594 228.675781 517.285156 224.660156 C 517.265625 224.625 520.910156 216.988281 520.910156 206.699219 L 520.910156 206 L 521.523438 205.644531 C 528.757812 201.925781 524.453125 185.734375 530.066406 172.855469 C 532.886719 166.738281 534.933594 160.9375 538.816406 157.210938 C 538.875 156.824219 538.914062 156.441406 538.914062 156.09375 C 538.949219 153.828125 537.789062 151.878906 537.730469 149.402344 C 537.691406 148.238281 538.085938 146.960938 539.007812 145.847656 C 540.09375 144.445312 541.238281 143.957031 542.101562 143.300781 C 542.671875 141.21875 545.648438 131.382812 549.011719 125.285156 C 551.019531 121.75 551.019531 119.761719 555.265625 115.851562 L 555.265625 101.925781 L 555.773438 101.550781 C 557.820312 100.011719 557.726562 99.734375 558.195312 98.792969 C 558.667969 97.746094 559.578125 96.46875 562.488281 94.605469 L 562.71875 94.464844 L 562.996094 94.425781 C 565.96875 94.070312 566.34375 91.457031 566.378906 87.171875 C 566.378906 86.011719 566.359375 84.792969 566.359375 83.570312 C 566.378906 79.164062 567.09375 73.699219 573.269531 73.671875 C 583.992188 74.1875 582.714844 91.628906 583.972656 93.386719 C 592.511719 112.066406 594.859375 109.082031 595.25 113.777344 L 595.25 123.285156 C 595.164062 131.363281 606.820312 161.464844 606.914062 161.617188 L 616.972656 201.179688 C 617.972656 202.042969 618.796875 202.792969 619.738281 203.453125 L 620.296875 203.792969 L 620.296875 217.738281 C 622.890625 220.214844 623.71875 222.183594 623.71875 223.894531 C 623.71875 225.269531 623.285156 226.179688 623.324219 226.765625 C 623.34375 227.417969 623.527344 228.28125 626.15625 230.230469 L 626.667969 230.585938 L 626.667969 249.363281 L 625.746094 249.546875 C 625.726562 249.796875 625.726562 250.132812 625.726562 250.507812 C 625.648438 257.394531 629.050781 282.039062 629.972656 284.796875 L 630.214844 284.949219 L 630.289062 285.523438 C 630.878906 290.652344 631.226562 307.691406 631.226562 324.679688 M 551.207031 276.878906 C 551.207031 279.148438 551.109375 281.058594 550.734375 282.46875 L 550.621094 282.921875 C 552.386719 282.746094 554.378906 282.605469 556.421875 282.605469 C 559.371094 282.605469 562.582031 282.863281 565.773438 283.574219 C 575.089844 285.601562 580.230469 292.027344 586.371094 293.898438 C 587.078125 293.9375 587.761719 293.9375 588.398438 293.9375 L 589.089844 293.9375 C 589.203125 289.550781 589.558594 273.382812 589.558594 260.535156 C 589.558594 253.417969 589.433594 247.222656 589.109375 244.859375 C 587.078125 242.523438 587.234375 238.097656 586.628906 233.257812 C 586.167969 228.167969 585.226562 222.875 583.082031 221.039062 C 579.328125 217.402344 574.371094 219.351562 569.863281 214.789062 C 567.425781 212.109375 565.4375 207.75 564.0625 204.050781 L 563.5625 218.46875 L 563.542969 219.070312 L 563.035156 219.410156 C 560.816406 220.984375 560.296875 223.441406 559.46875 226.074219 C 558.808594 228.378906 557.347656 231.011719 553.90625 231.605469 C 553.765625 235.457031 553.4375 248.382812 550.71875 252.4375 C 550.515625 253.601562 550.4375 255.234375 550.4375 257.097656 C 550.4375 262.933594 551.207031 271.097656 551.207031 276.878906 M 419.007812 334.199219 L 417.664062 334.574219 C 412.746094 335.695312 415.011719 339.671875 410.882812 344.035156 C 410.304688 344.9375 409.871094 351.101562 409.941406 358.144531 C 409.941406 372.40625 410.996094 391.703125 411.035156 391.71875 L 411.09375 393.015625 L 409.796875 393.015625 C 408.519531 392.863281 399.621094 396.378906 398.054688 399.34375 L 397.679688 399.921875 L 361.183594 399.921875 L 360.828125 399.34375 C 358.78125 396.023438 358.722656 396.117188 358.519531 396.222656 C 358.089844 396.167969 356.847656 396.472656 354.667969 396.472656 C 350.730469 396.550781 349.75 397.839844 348.507812 399.402344 C 347.441406 400.957031 346.109375 403.359375 342.5625 403.359375 L 342.449219 403.359375 C 342.371094 403.300781 335.28125 402.023438 331.746094 398.222656 L 306.851562 398.222656 L 306.496094 397.636719 C 304.804688 394.707031 303.25 394.917969 303.136719 391.777344 C 303.492188 390.183594 304.257812 389.980469 305.316406 388.644531 C 306.179688 387.742188 307.171875 386.765625 307.921875 386.089844 L 307.921875 365.296875 L 308.429688 364.941406 C 311.417969 362.742188 311.203125 362.9375 311.203125 362.367188 C 311.203125 361.917969 311.117188 361.109375 311.097656 359.910156 C 311.0625 359.890625 311.097656 359.835938 310.964844 359.515625 C 310.871094 359.199219 310.707031 358.765625 310.476562 358.238281 C 310.0625 357.210938 309.488281 355.894531 308.824219 354.5625 C 307.585938 351.929688 305.785156 349.09375 305.242188 348.796875 L 304.222656 348.066406 L 304.941406 347.085938 C 306.480469 344.984375 306.949219 343.09375 306.949219 341.421875 C 306.96875 338.058594 305.011719 335.640625 305.011719 335.640625 L 304.769531 335.359375 L 304.730469 335.042969 C 304.46875 333.410156 304.355469 331.679688 304.355469 329.914062 C 304.375 319.78125 307.9375 307.921875 307.921875 301.859375 L 307.921875 301.214844 L 307.902344 300.5625 L 308.429688 300.167969 C 311.636719 298.363281 310.550781 287.894531 314.433594 279.875 C 317.96875 272.988281 325.761719 264.132812 325.625 264.355469 C 326.683594 262.441406 325.328125 252.433594 339.164062 237.539062 C 339.894531 234.003906 345.660156 205.496094 351.242188 196.882812 C 351.875 196.09375 353.488281 195.078125 355.613281 193.445312 C 357.023438 192.359375 358.425781 191.339844 359.117188 190.824219 C 359.425781 188.996094 361.28125 183.820312 371.90625 173.984375 C 371.453125 172.257812 370.347656 167.773438 370.328125 162.777344 C 370.328125 159.570312 370.78125 156.1875 372.175781 153.132812 L 372.320312 152.828125 L 372.570312 152.664062 C 379.457031 147.746094 383.589844 136.519531 394.433594 126.367188 L 394.433594 104.789062 L 359.289062 104.441406 C 354.035156 109.398438 340.144531 109.925781 340.046875 128.261719 L 340.046875 129.480469 L 338.789062 129.480469 C 337.703125 129.441406 334.496094 130.460938 331.898438 132.09375 C 329.210938 133.726562 327.183594 135.972656 327.261719 137.742188 L 327.261719 163.664062 C 327.117188 166.179688 325.214844 168.878906 320.6875 176.390625 L 319.902344 177.667969 L 318.816406 176.648438 C 316.5 174.566406 315.75 172.59375 315.789062 171 C 315.808594 169.78125 316.070312 168.878906 316.039062 168.226562 C 316.019531 167.382812 315.867188 166.496094 313.347656 164.644531 L 312.898438 164.355469 L 312.820312 163.816406 C 312.820312 163.816406 311.890625 157.152344 311.101562 153.003906 C 310.753906 150.5625 310.574219 148.21875 310.160156 148.238281 L 309.351562 147.710938 L 309.691406 146.808594 C 309.691406 146.789062 312.660156 138.902344 312.660156 131.796875 C 312.660156 128.242188 311.890625 124.996094 309.988281 123.066406 C 308.902344 121.980469 308.230469 121.488281 306.96875 120.625 L 306.421875 120.253906 L 306.421875 89.824219 L 306.683594 89.507812 C 306.664062 89.488281 309.746094 85.320312 309.652344 82.410156 L 309.632812 81.773438 L 309.449219 80.382812 L 310.851562 80.382812 C 355.988281 80.382812 360.140625 80.757812 404.445312 80.757812 L 405.667969 80.757812 L 405.667969 98.398438 C 405.386719 101.136719 408.578125 101.550781 408.855469 106.152344 L 408.855469 164.566406 L 408.421875 164.941406 C 405.4375 167.484375 404.484375 171.828125 404.503906 175.878906 C 404.484375 180.441406 405.609375 184.398438 405.609375 184.398438 L 405.886719 185.242188 L 405.15625 185.734375 C 395.828125 192.226562 391.0625 218.128906 385.464844 224.777344 L 385.464844 239.804688 L 384.714844 240.144531 C 384.695312 240.160156 371.78125 245.703125 369.410156 252.398438 C 368.8125 253.925781 368.582031 256.039062 368.582031 258.140625 C 368.582031 262.289062 369.46875 266.363281 369.46875 266.363281 L 369.679688 267.363281 L 368.734375 267.757812 C 358.167969 271.710938 341.191406 319.179688 341.527344 321.90625 L 341.527344 330.542969 L 340.203125 330.667969 L 340.894531 331.308594 L 340.796875 331.453125 C 340.664062 331.664062 340.441406 332.078125 340.203125 332.644531 C 339.714844 333.730469 339.070312 335.363281 338.320312 337.332031 C 336.820312 341.289062 334.910156 346.636719 332.929688 352.140625 C 329.144531 362.484375 325.234375 373.195312 322.640625 377.179688 C 324.390625 379.695312 324.523438 379.675781 324.640625 379.582031 C 324.957031 379.601562 325.945312 379.390625 327.511719 379.390625 C 330.34375 379.484375 331.527344 377.796875 343.785156 371.714844 C 346.429688 370.8125 349.570312 372.617188 358.957031 368.277344 C 360.4375 367.855469 364.230469 360.738281 368.832031 354.070312 C 373.339844 347.65625 379.226562 341.183594 387.136719 340.578125 C 387.625 337.214844 389.652344 330.3125 392.976562 327.066406 L 394.117188 325.980469 L 394.886719 327.324219 C 395.472656 328.378906 395.964844 329.070312 396.578125 329.898438 C 406.734375 325.191406 402.226562 320.214844 407.519531 313.78125 L 407.867188 313.351562 L 416.90625 313.351562 L 416.839844 314.625 C 416.839844 314.625 416.800781 315.894531 416.800781 317.777344 C 416.765625 322.003906 417.082031 329.695312 418.472656 332.921875 Z M 146.316406 355.664062 C 146.296875 359.535156 148.546875 367.265625 148.546875 374.621094 C 148.546875 376.332031 148.449219 378.023438 148.132812 379.675781 C 146.890625 386.226562 142.761719 395.492188 142.636719 395.722656 C 142.636719 395.742188 136.027344 405.253906 133.433594 411.839844 C 130.28125 419.765625 128.984375 433.710938 128.984375 433.710938 L 128.925781 434.441406 L 128.273438 434.757812 C 128.253906 434.777344 114.996094 440.875 107.675781 446.300781 C 101.125 451.105469 94.492188 455.3125 92.917969 459.738281 L 92.667969 460.457031 L 91.957031 460.566406 C 91.957031 460.566406 76.25 462.785156 71.628906 464.589844 C 71.003906 464.808594 70.746094 464.945312 70.765625 464.992188 C 69.863281 466.125 68.871094 466.855469 67.679688 466.894531 C 64.019531 466.203125 63.15625 461.976562 60.695312 462.277344 C 59.746094 462.257812 58.1875 462.839844 55.96875 464.992188 C 54.394531 468.316406 49.589844 468.414062 44.324219 468.566406 C 36.464844 468.566406 27.023438 467.117188 24.917969 466.742188 C 23.820312 467.289062 22.554688 467.328125 21.101562 467.347656 C 17.636719 467.347656 13.160156 466.597656 10.679688 466.625 C 10.082031 466.597656 9.613281 466.664062 9.429688 466.722656 L 8.769531 467.875 L 7.644531 466.839844 C 6.230469 465.578125 4.394531 463.867188 3.808594 463.53125 L 1.765625 462.179688 L 4.039062 461.351562 C 4.039062 461.324219 11.457031 458.445312 13.726562 456.269531 L 13.6875 456.253906 L 13.726562 456.214844 C 13.78125 456.121094 13.859375 455.917969 13.984375 455.6875 C 14.195312 455.160156 14.472656 454.390625 14.789062 453.4375 C 15.378906 451.539062 16.105469 448.933594 16.855469 445.96875 C 18.382812 440.089844 19.980469 432.886719 21.027344 427.476562 C 21.027344 408.769531 22.140625 399.171875 22.140625 389.359375 C 22.140625 384.480469 21.871094 379.503906 21.046875 373.234375 C 20.746094 370.925781 19.75 353.679688 18.230469 341.183594 C 18.230469 320.984375 19.394531 300.257812 19.394531 288.003906 C 19.394531 285.679688 19.335938 283.632812 19.230469 282 L 19.191406 280.820312 L 20.355469 280.722656 C 22.890625 280.519531 23.957031 278.511719 24.21875 277.890625 L 23.488281 261.898438 L 21.027344 256.742188 L 21.363281 233.371094 C 21.796875 229.972656 24.429688 226.46875 24.390625 226.515625 C 24.667969 226.140625 24.9375 223.894531 24.898438 221.636719 C 24.898438 218.542969 24.628906 215.203125 24.523438 214.242188 L 21.027344 208.480469 L 21.027344 127.175781 L 21.535156 126.800781 C 24.582031 124.601562 24.523438 124.601562 24.464844 124.1875 C 24.484375 123.648438 24.234375 122.335938 24.234375 120.039062 C 24.234375 117.714844 24.371094 116.589844 24.371094 116.253906 L 24.292969 116.273438 C 23.976562 115.988281 23.390625 115.449219 22.515625 114.390625 C 21.855469 114.449219 20.824219 114.507812 19.789062 114.5625 C 19.625 114.882812 19.316406 115.277344 18.664062 115.332031 C 17.800781 115.140625 17.617188 114.957031 17.269531 114.640625 L 17.164062 114.640625 C 16.789062 114.640625 16.597656 114.671875 16.164062 114.5625 C 16.109375 114.46875 15.453125 114.621094 15.207031 113.34375 C 15.339844 112.757812 15.492188 112.5 15.65625 112.363281 C 14.945312 111.617188 14.292969 110.886719 14.0625 110.550781 L 3.476562 100.425781 C 2.082031 98.121094 1.390625 97.632812 1.128906 97.476562 C 0.898438 97.429688 -0.261719 96.113281 0.0546875 95.355469 C 0.0546875 94.703125 0.09375 93.78125 0.09375 92.023438 C 0.128906 88.976562 -0.0507812 88.152344 0.753906 86.988281 C 1.445312 86.183594 1.859375 86.183594 3.472656 83.609375 L 3.828125 82.996094 L 20.863281 82.996094 C 23.167969 81.382812 28.050781 80.910156 33.640625 80.082031 C 39.636719 79.335938 45.8125 78.882812 47.898438 78.882812 L 64.789062 79.460938 C 81.820312 79.441406 88.09375 77.808594 97.066406 77.789062 C 101.042969 77.789062 105.53125 78.117188 111.652344 79.105469 L 112.457031 79.21875 L 112.648438 80.007812 C 113.910156 84.964844 118.769531 87.066406 121.152344 89.113281 C 121.585938 89.054688 122.222656 88.996094 123.007812 88.996094 C 125.128906 88.996094 128.378906 89.371094 131.328125 91.378906 C 141.992188 98.640625 147.796875 116.042969 147.851562 125.207031 C 147.851562 134.398438 149.917969 142.957031 149.9375 149.792969 C 149.9375 153.808594 149.167969 157.371094 146.796875 159.667969 L 134.929688 181.882812 C 130.480469 190.21875 119.914062 202.945312 116.332031 207.1875 C 116.570312 207.621094 117.714844 209.179688 119.972656 210.398438 C 122.546875 211.894531 126.3125 213.308594 130.894531 213.777344 C 133.75 214.238281 135.140625 216.613281 135.027344 218.734375 C 134.96875 222.949219 131.703125 227.628906 131.347656 228.078125 C 131.289062 228.097656 131.085938 228.394531 131.085938 229.050781 C 131.066406 229.875 131.421875 231.09375 131.914062 231.980469 C 132.433594 232.917969 133.058594 233.238281 133.09375 233.21875 C 133.09375 233.21875 133.230469 233.273438 133.625 232.691406 L 134.414062 231.414062 L 135.496094 232.46875 C 140.417969 237.289062 141.050781 238.644531 141.164062 239.960938 C 141.261719 240.394531 140.28125 239.546875 144.136719 242.523438 L 144.804688 243.015625 L 144.625 243.820312 C 144.625 243.839844 141.972656 254.578125 141.972656 265.652344 C 141.972656 271.175781 142.636719 276.746094 144.527344 281.039062 C 145.414062 283.671875 150.785156 285.042969 151.300781 289.078125 C 151.300781 289.960938 150.925781 290.769531 150.292969 291.496094 C 150.292969 292.660156 150.332031 295.722656 150.332031 299.007812 C 150.332031 301.121094 150.3125 303.28125 150.292969 305.144531 C 150.292969 305.578125 150.273438 305.972656 150.273438 306.402344 C 150.273438 316.476562 152.148438 326.09375 152.148438 334.890625 C 152.148438 341.777344 150.964844 348.203125 146.691406 353.734375 C 146.515625 353.925781 146.296875 354.578125 146.316406 355.664062 M 102.527344 135.222656 C 102.621094 134.867188 102.304688 134.175781 103.226562 133.6875 L 107.859375 130.421875 C 102.585938 128.636719 98 131.835938 93.550781 122.785156 L 92.089844 122.769531 L 77.949219 124.792969 L 78.8125 122.785156 C 78.949219 122.441406 79.046875 122.085938 79.0625 121.730469 C 78.707031 121.921875 78.277344 122.125 77.863281 122.277344 C 77.105469 124.566406 77.21875 125.640625 77.164062 126.800781 C 77.199219 128.261719 76.316406 129.671875 73.992188 130.953125 L 73.992188 192.023438 C 75.25 191.613281 76.335938 191.457031 77.257812 191.457031 L 77.394531 191.457031 C 79.121094 191.457031 80.371094 192.226562 80.839844 192.527344 C 87.191406 190.613281 84.523438 175.015625 102.640625 172.855469 C 102.621094 171.242188 102.546875 168.636719 102.546875 165.730469 C 102.777344 158.535156 102.527344 149.71875 105.667969 146.261719 C 104.878906 144.03125 102.601562 137.683594 102.527344 135.222656 M 105.140625 352.832031 C 105.214844 350.679688 106.339844 348.777344 106.261719 347.425781 C 106.222656 346.570312 106.082031 346.003906 104.878906 345.15625 L 103.304688 344.195312 L 104.800781 343.128906 C 105.6875 342.476562 105.964844 341.796875 106.003906 340.574219 C 106.117188 336.820312 101.792969 330.183594 101.699219 323.929688 C 101.679688 321.117188 102.71875 318.246094 105.511719 316.066406 C 105.398438 308.574219 104.292969 307.582031 103.226562 306.449219 C 101.871094 305.144531 100.164062 303.261719 100.277344 296.511719 C 100.375 293.015625 103.464844 286.636719 103.410156 282.9375 C 103.371094 281.566406 103.074219 280.988281 102.507812 280.71875 L 101.4375 280.125 L 101.96875 279.066406 C 102.582031 277.886719 102.792969 276.761719 102.792969 275.667969 C 102.8125 271.710938 99.769531 268.292969 99.75 268.292969 L 98 266.34375 L 100.59375 266.21875 C 100.988281 266.199219 101.257812 266.140625 101.382812 266.101562 C 101.257812 265.332031 99.074219 262.972656 98.882812 260.675781 C 98.847656 259.984375 99.21875 259.136719 99.730469 258.859375 C 100.085938 258.492188 100.199219 258.195312 100.199219 257.707031 C 100.429688 255.191406 95.0625 250.128906 95.1875 250.253906 C 89.066406 246.902344 82.042969 240.160156 81.957031 240.082031 L 74.066406 231.9375 C 74.164062 236.085938 74.308594 243.617188 74.308594 250.503906 C 74.308594 255.515625 74.230469 260.183594 73.972656 263.019531 L 73.933594 263.394531 L 73.691406 263.679688 C 72.511719 265.101562 71.945312 268.089844 71.964844 271.429688 C 71.945312 278.097656 73.933594 285.886719 73.933594 285.886719 L 74.007812 286.164062 L 70.628906 302.644531 L 70.011719 302.90625 C 68.417969 303.578125 67.773438 304.480469 67.59375 306.1875 L 67.554688 306.582031 C 67.59375 308.234375 68.359375 309.4375 70.011719 310.125 L 70.78125 310.433594 L 70.78125 370.703125 L 70.464844 371.078125 C 68.792969 372.894531 67.773438 373.285156 67.570312 374.773438 C 67.378906 375.933594 67.246094 376.683594 67.082031 377.230469 C 66.871094 377.550781 67.0625 377.925781 66.574219 378.296875 C 66.648438 381.390625 66.746094 388.507812 66.746094 403.75 C 66.765625 403.75 67.003906 411.597656 67.179688 414.921875 L 67.496094 415.21875 C 67.773438 415.554688 67.773438 415.851562 67.773438 416.003906 C 67.535156 417.445312 65.921875 420 64.171875 423.441406 C 63.347656 424.976562 62.519531 426.492188 61.867188 427.628906 C 64.324219 427.300781 68.089844 426.667969 70.40625 425.78125 L 77.863281 419.03125 L 78.273438 419.011719 C 83.675781 418.914062 90.4375 407.542969 94.964844 404.085938 C 99.546875 400.332031 97.460938 387.347656 99.449219 376.742188 L 99.546875 376.269531 L 99.84375 376.050781 L 99.863281 376.050781 C 99.902344 375.933594 99.996094 375.726562 100.140625 375.464844 C 100.355469 374.9375 100.652344 374.167969 100.949219 373.285156 C 101.570312 371.46875 102.285156 369.03125 102.996094 366.535156 C 104.351562 361.578125 105.550781 356.054688 105.53125 354.574219 L 105.53125 354.558594 C 105.253906 353.992188 105.140625 353.378906 105.140625 352.832031 M 764.710938 407.546875 C 765.296875 408.613281 765.929688 410.152344 765.929688 412.195312 C 765.929688 413.847656 765.554688 415.730469 764.613281 418.09375 C 762.855469 422.125 763.976562 423.269531 756.332031 460.421875 L 756.050781 461.746094 L 754.792969 461.371094 C 754.648438 461.246094 743.160156 457.925781 740.210938 455.160156 C 723.214844 438.628906 718.746094 437.667969 711.582031 437.648438 C 710.207031 437.648438 708.6875 437.648438 707 437.648438 L 706.710938 437.667969 L 705.738281 437.761719 L 705.402344 436.917969 C 705.25 436.503906 705.210938 436.128906 705.210938 435.714844 C 705.304688 429.953125 714.769531 408.371094 716.480469 399.113281 C 717.25 395.234375 717.804688 379.011719 717.804688 368.035156 C 717.804688 363.039062 717.660156 358.984375 717.449219 357.671875 L 717.449219 357.527344 C 717.449219 355.875 715.480469 342.207031 712.332031 329.066406 C 709.4375 315.871094 704.347656 302.769531 701.003906 302.511719 L 699.933594 302.234375 L 700.070312 301.136719 C 701.039062 293.523438 703.125 283.121094 703.105469 279.085938 C 703.144531 278.335938 703.066406 277.960938 703.03125 277.925781 C 698.324219 268.992188 688.839844 251.214844 683.375 248.773438 C 683.566406 250.40625 683.738281 251.742188 683.738281 253.136719 C 683.738281 256.210938 682.832031 259.140625 679.941406 265.257812 C 678.664062 267.8125 676.800781 270.433594 676.859375 272.355469 L 676.875 272.632812 L 676.933594 272.96875 L 676.816406 273.230469 L 676.816406 273.679688 C 676.800781 282.074219 685.023438 349.09375 685.042969 355.367188 L 685.042969 355.5 L 685.121094 356.25 L 684.449219 356.644531 L 684.238281 356.882812 C 684.054688 357.09375 683.804688 357.390625 683.601562 357.765625 C 683.132812 358.476562 682.738281 359.417969 682.738281 360.320312 L 682.777344 360.601562 C 682.582031 361.320312 685.160156 363.117188 685.550781 366.257812 C 685.871094 370.195312 686.195312 374.816406 686.195312 379.539062 C 686.195312 386.386719 685.574219 393.390625 683.324219 398.816406 C 683.738281 405.855469 686.675781 423.441406 686.675781 431.757812 C 686.675781 432.882812 686.640625 433.875 686.476562 434.699219 L 686.4375 434.96875 L 686.265625 435.210938 C 685.160156 436.839844 684.652344 436.898438 683.410156 437.707031 C 683.566406 439.023438 683.921875 440.972656 683.921875 444.074219 C 683.921875 448.328125 683.285156 454.734375 680.894531 464.992188 L 679.941406 469.035156 L 678.53125 465.125 C 671.507812 446.003906 660.527344 434.460938 651.273438 427.023438 C 642.015625 419.253906 634.53125 416.96875 633.886719 412.234375 C 634.039062 412.050781 645.058594 372.597656 649.957031 367.9375 C 650.371094 367.265625 650.667969 365.394531 650.648438 363.289062 C 650.648438 360.285156 650.21875 356.742188 649.882812 354.464844 C 648.941406 353.617188 648.265625 353.023438 647.144531 352.292969 L 646.578125 351.90625 L 646.617188 351.199219 C 646.65625 350.527344 646.65625 340.296875 646.65625 327.160156 C 646.65625 302.195312 646.617188 266.382812 646.617188 262.644531 C 645.433594 260.472656 646.046875 257.191406 645.433594 256.25 L 645.472656 256.230469 L 644.980469 255.914062 L 643.445312 242.246094 C 642.109375 240.296875 641.28125 236.617188 640.773438 236.5625 L 640.21875 236.207031 L 640.199219 235.601562 C 640.199219 235.5625 640.121094 232.191406 640.121094 228.828125 C 640.121094 227.339844 640.121094 225.84375 640.199219 224.640625 C 639.515625 223.460938 639.496094 222.070312 639.179688 220.367188 C 638.9375 218.449219 638.585938 216.363281 638.277344 215.632812 L 638.296875 215.558594 L 637.71875 215.164062 L 637.777344 214.449219 C 637.777344 214.449219 637.777344 214.078125 637.777344 213.375 C 637.816406 211.300781 637.546875 206.644531 636.265625 204.03125 C 635.007812 202.378906 635.355469 200.074219 635.027344 197.011719 C 634.921875 194.3125 634.652344 191.285156 634.394531 190.613281 L 634 190.355469 L 633.828125 173.890625 C 631.183594 171.261719 630.503906 169.761719 630.503906 168.390625 C 630.503906 167.851562 630.597656 167.507812 630.578125 167.382812 C 630.597656 167.363281 630.65625 166.832031 627.9375 164.863281 L 627.503906 164.546875 L 627.449219 164.039062 C 626.957031 160.167969 626.699219 154.695312 626.699219 149.210938 C 626.699219 143.695312 626.957031 138.210938 627.449219 134.339844 L 627.464844 133.929688 L 627.761719 133.632812 C 633.039062 128.472656 647.71875 121.117188 657.488281 107.527344 C 655.011719 106.625 648.4375 104.914062 647.105469 104.65625 C 646.988281 104.75 646.789062 105.011719 646.554688 105.308594 C 646.105469 105.875 645.46875 106.796875 644.210938 107.171875 C 643.089844 107.488281 642.207031 108.015625 640.792969 108.035156 C 639.800781 108.035156 638.804688 107.746094 637.660156 107.074219 L 637.070312 106.738281 L 637.035156 106.078125 C 636.792969 101.035156 631.105469 94.648438 625.167969 89.691406 C 619.691406 85.023438 614.621094 81.816406 612.929688 80.382812 L 601.253906 77.847656 L 601.476562 75.410156 L 647.757812 74.132812 C 651.925781 72.203125 652.789062 71.902344 655.816406 71.960938 C 658.949219 71.789062 659.601562 73.160156 661.234375 75.410156 L 678.09375 75.410156 L 678.285156 75.746094 C 678.472656 75.824219 678.71875 75.9375 679.058594 76.035156 C 679.769531 76.332031 680.785156 76.6875 682.003906 77.082031 C 684.445312 77.925781 687.675781 78.945312 690.882812 79.972656 C 697.175781 81.960938 703.410156 83.824219 703.371094 83.863281 C 704.160156 83.863281 705.226562 83.824219 706.429688 83.824219 C 707.570312 83.824219 708.90625 83.863281 710.296875 84.066406 C 715.832031 84.792969 720.828125 88.40625 724.882812 91.738281 C 728.679688 95.082031 732.28125 98.105469 732.492188 97.855469 L 733.28125 97.855469 L 749.632812 132.375 C 750.140625 133.894531 750.207031 136.46875 750.207031 139.570312 C 750.207031 145.496094 749.757812 152.753906 749.757812 152.753906 L 749.667969 153.359375 L 749.21875 153.699219 C 749.179688 153.699219 748.429688 155.195312 748.019531 156.847656 C 747.507812 158.316406 747.25 159.710938 746.527344 160.796875 C 746.585938 162.609375 746.605469 164.609375 746.605469 166.5 C 746.605469 170.609375 746.527344 174.25 746.472656 174.550781 C 740.484375 198.070312 729.410156 216.972656 708.964844 217.742188 C 708.984375 220.613281 709.058594 222.359375 709.058594 223.539062 C 709.097656 226.019531 708.398438 226.535156 707.035156 227.835938 C 707.332031 227.851562 707.589844 227.851562 707.859375 227.851562 C 710.261719 227.890625 712.289062 226.96875 714.96875 226.921875 C 718.761719 226.921875 722.914062 229.054688 729.800781 237.371094 C 734.402344 239.472656 733.261719 245.121094 733.914062 247.265625 C 734.105469 248.070312 734.25 248.128906 734.480469 248.203125 C 736.9375 249.117188 738.285156 249.644531 739.207031 250.152344 C 740.128906 250.585938 740.820312 251.730469 740.714844 252.496094 C 740.695312 252.949219 740.640625 253.246094 740.675781 253.601562 C 740.675781 254.285156 740.78125 255.308594 741.703125 257.25 C 742.667969 259.710938 742.984375 267.132812 744.183594 267.960938 C 745.460938 270.351562 745.5 277.691406 745.855469 285.507812 C 746.027344 293 746.71875 301.164062 747.171875 301.238281 L 747.171875 301.257812 C 748 301.988281 747.804688 302.671875 748.125 303.5625 C 748.316406 304.601562 748.488281 305.820312 748.769531 307.023438 C 749.21875 309.574219 750.207031 311.113281 750.792969 310.996094 C 750.996094 310.996094 751.425781 310.871094 752.109375 310.457031 L 753.214844 309.757812 L 753.820312 310.890625 C 755.433594 314.042969 759.429688 345.832031 759.902344 348.367188 L 759.980469 348.875 L 759.730469 349.308594 C 758.941406 350.113281 757.761719 359.535156 757.761719 361.054688 C 757.980469 361.410156 759.09375 361.824219 761.027344 362.292969 L 761.519531 362.410156 L 761.777344 362.839844 C 762.996094 364.886719 765.910156 371.246094 766.082031 374.566406 L 766.226562 375.019531 L 765.867188 375.527344 C 764.820312 377.0625 764.628906 377.871094 764.609375 378.792969 C 764.570312 380.523438 765.832031 383.261719 765.832031 389.472656 C 765.832031 393.355469 765.359375 398.558594 763.820312 406.117188 L 763.976562 406.328125 C 764.140625 406.625 764.410156 407.039062 764.710938 407.546875 M 706.335938 178.550781 C 706.335938 175.109375 707.039062 171.613281 707.039062 171.546875 L 707.355469 170.058594 L 708.082031 170.394531 C 708.21875 170.117188 708.382812 169.722656 708.515625 169.328125 C 708.910156 168.484375 708.988281 167.582031 709.699219 166.792969 L 709.738281 160.109375 C 709.738281 160.109375 710.109375 158.765625 710.109375 156.382812 C 710.109375 153.375 709.496094 148.851562 706.75 143.859375 C 706.710938 143.800781 701.871094 136.972656 696.101562 130.125 C 690.4375 123.226562 683.230469 116.476562 680.503906 116.714844 C 679.773438 116.695312 679.121094 116.675781 678.496094 116.675781 L 677.820312 116.675781 L 677.820312 211.109375 C 678.746094 211.1875 680.167969 211.261719 681.617188 211.261719 C 682.835938 211.28125 684.152344 211.203125 685.160156 211.011719 C 690.359375 210.082031 695.863281 206.308594 697.179688 204.558594 C 700.128906 200.917969 704.308594 186.300781 706.472656 180.953125 C 706.355469 180.183594 706.335938 179.375 706.335938 178.550781 M 886.222656 216.679688 C 886.183594 223.632812 885.953125 229.597656 884.964844 232.488281 L 884.832031 232.863281 L 884.515625 233.101562 C 883.648438 233.410156 882.070312 238.921875 880.132812 241.382812 C 880.066406 242.113281 880.046875 242.917969 880.046875 243.726562 C 880.046875 247.539062 880.585938 252.0625 880.585938 256.453125 C 880.585938 260.285156 880.191406 264.019531 878.539062 267.132812 C 875.761719 273.480469 872.273438 276.949219 871.054688 278.101562 L 868.988281 293.839844 C 865.980469 301.589844 867.789062 303.121094 866.636719 305.40625 C 866.847656 308.410156 868.460938 332.394531 868.460938 350.394531 C 868.460938 358.296875 868.160156 364.980469 867.183594 368.765625 C 865 373.816406 864.722656 379.339844 864.722656 385.1875 C 864.722656 386.765625 864.742188 388.347656 864.742188 389.964844 C 864.722656 396.023438 864.5 402.34375 862.070312 408.355469 L 858.71875 426.355469 C 855.929688 434.085938 855.863281 435.757812 852.085938 440.339844 C 850.398438 443.804688 849.667969 444.84375 848.667969 445.554688 C 847.765625 446.207031 847.621094 445.949219 846.023438 447.734375 C 844.613281 451.433594 838.078125 452.457031 830.566406 454.859375 C 822.59375 457.039062 813.484375 459.324219 809.035156 461.746094 C 808.679688 461.84375 808.394531 461.863281 808.117188 461.863281 C 804.734375 461.660156 800.363281 457.769531 798.765625 457.980469 L 798.554688 458.019531 C 797.210938 460.460938 793.65625 460.976562 789.476562 461.976562 C 785.019531 462.859375 779.878906 463.398438 776.632812 463.398438 C 775.152344 463.378906 774.269531 463.378906 773.347656 462.957031 L 771.898438 462.179688 L 773.070312 461.015625 C 777.738281 456.3125 782.472656 448.445312 783.300781 439.082031 C 783.320312 438.589844 783.339844 438.042969 783.339844 437.46875 C 783.367188 430.128906 779.601562 419.988281 779.582031 419.988281 L 779.171875 418.863281 L 780.273438 418.433594 C 784.859375 416.78125 794.484375 412.273438 793.8125 410.566406 C 793.8125 409.613281 793.621094 409.203125 793.570312 409.144531 L 793.4375 409.105469 L 793.121094 409.066406 C 792.511719 409.066406 791.253906 409.105469 790.582031 407.65625 L 786.863281 398.464844 L 780.351562 383.453125 L 786.261719 324.941406 C 778.898438 316.914062 772.070312 293.882812 771.898438 291.671875 L 771.898438 282.171875 C 772.164062 279.425781 768.996094 279.011719 768.707031 274.488281 C 768.707031 274.488281 767.9375 262.992188 767.9375 254.222656 C 767.976562 250.429688 768.015625 247.355469 768.503906 245.414062 C 767.699219 244.664062 767.054688 244.128906 766.066406 243.464844 L 765.460938 243.070312 L 766.777344 220.789062 C 766.066406 219.5 766.027344 217.851562 765.59375 215.746094 C 765.238281 213.433594 764.84375 210.886719 764.46875 209.925781 L 764.515625 209.792969 L 763.941406 209.398438 L 763.941406 144.234375 L 764.515625 143.859375 C 765.535156 143.148438 766.210938 142.515625 767.148438 141.71875 L 767.148438 116.570312 L 767.699219 116.199219 C 768.726562 115.515625 769.40625 114.863281 770.339844 114.074219 L 770.339844 96.179688 C 767.054688 93.03125 742.96875 70.152344 741.84375 68.78125 L 740.25 66.773438 L 758.6875 66.773438 L 759.058594 67.398438 C 759.695312 68.539062 760.261719 69.269531 760.992188 70.25 L 771.789062 70.25 L 771.992188 71.238281 C 771.769531 74.417969 787.160156 76.234375 794.480469 84.042969 L 805 84.042969 L 805.375 84.644531 C 806.464844 86.5 807.460938 87.480469 808.882812 89.226562 L 819.382812 89.226562 L 819.757812 89.84375 C 820.410156 90.984375 820.960938 91.734375 821.6875 92.675781 L 835.378906 92.675781 L 835.734375 93.28125 C 836.390625 94.441406 836.917969 95.191406 837.664062 96.132812 L 852.519531 96.132812 L 852.894531 96.730469 C 857.660156 104.519531 866.988281 109.589844 868.925781 113.25 C 879.796875 136.050781 877.585938 138.039062 881.300781 140.410156 L 881.839844 140.785156 L 880.957031 173.773438 C 881.746094 175.011719 882.070312 176.839844 882.78125 179.027344 C 883.453125 181.382812 884.242188 183.984375 884.617188 184.492188 L 884.984375 184.753906 L 885.03125 185.375 C 885.03125 185.378906 886.222656 202.792969 886.222656 216.679688 M 837.800781 270.925781 C 837.78125 262.050781 842.433594 258.238281 844.066406 257.191406 C 844.632812 253.886719 846.9375 238.347656 851.617188 234.179688 L 851.617188 202.550781 C 849.273438 200.503906 848.257812 196.183594 847.132812 191.832031 C 846.027344 187.25 845.027344 182.296875 844.671875 181.921875 C 840.972656 176.429688 833.257812 174.507812 832.507812 165.96875 C 824.902344 165.144531 823.871094 158.554688 820.90625 159.160156 C 814.800781 159.140625 811.679688 158.6875 807.070312 158.6875 C 805.617188 158.6875 804.023438 158.726562 802.171875 158.84375 L 800.890625 170.808594 L 801.792969 174.9375 C 801.792969 174.9375 803.140625 209.6875 803.140625 222.710938 C 803.121094 223.855469 803.121094 224.757812 803.121094 225.507812 L 803.199219 225.582031 C 803.535156 226.195312 803.910156 226.984375 804.234375 227.742188 C 804.945312 229.320312 805.578125 230.835938 805.617188 230.835938 L 805.675781 231.078125 L 805.675781 231.308594 C 805.417969 235.167969 809.585938 250.582031 811.421875 250.957031 L 812.074219 251.3125 L 811.613281 403.871094 C 816.339844 398.089844 826.964844 383.316406 826.929688 368.507812 C 826.929688 367.976562 826.929688 367.4375 826.929688 366.519531 C 830.511719 354.28125 834.460938 350.191406 835.660156 343.226562 L 835.640625 342.9375 C 835.699219 339.117188 835.585938 280.269531 837.859375 272.5 C 837.839844 271.960938 837.800781 271.433594 837.800781 270.925781 M 295.125 402.832031 L 293.144531 402.042969 C 290.914062 401.160156 289.753906 401.035156 288.457031 401.015625 C 287.8125 401.015625 287.101562 401.082031 286.257812 401.082031 L 285.601562 401.082031 L 285.371094 400.765625 L 284.996094 400.710938 C 284.304688 400.710938 282.789062 400.980469 280.136719 402.3125 L 279.484375 402.648438 L 278.898438 402.234375 C 277.996094 401.515625 272.5 400.863281 266.378906 400.921875 C 256.875 400.882812 244.898438 402.023438 241.6875 403.339844 C 237.144531 407.75 235.921875 408.84375 234.230469 409.042969 L 234.175781 409.042969 C 233.464844 409.042969 232.957031 408.59375 232.859375 408.476562 L 232.859375 408.460938 L 232.898438 408.441406 L 232.859375 408.460938 C 230.8125 407.84375 230.6875 406.230469 228.449219 404.839844 L 227.367188 404.070312 L 228.171875 403.0625 C 237.386719 391.535156 232.246094 395.023438 242.8125 387.945312 C 245.292969 380.40625 245.589844 354.425781 245.523438 346.570312 L 245.523438 343.5625 L 246.0625 343.226562 C 248.972656 341.027344 248.808594 341.027344 248.855469 340.257812 C 248.875 339.710938 248.75 338.742188 248.714844 337.328125 C 248.992188 335.023438 245.628906 333.105469 245.523438 326.964844 C 245.628906 322.671875 246.964844 316.457031 249.757812 313.347656 L 248.714844 176.964844 L 249.183594 176.589844 C 250.210938 175.761719 251 175.261719 251.507812 174.9375 C 251.75 174.792969 251.902344 174.699219 251.976562 174.660156 L 251.941406 174.285156 C 252.035156 173.753906 251.09375 173.574219 249.289062 172.535156 L 248.769531 172.160156 L 244.65625 102.75 C 243.890625 99.714844 241.140625 98.71875 237.914062 97.765625 C 235.292969 96.980469 231.929688 96.277344 231.121094 93.28125 C 228.132812 93.261719 226.933594 93.070312 225.894531 91.945312 C 225.019531 90.929688 224.90625 90.054688 221.878906 87.875 L 220.832031 87.125 L 221.621094 86.125 C 222.800781 84.589844 224.359375 82.621094 224.734375 81.976562 L 225.183594 81.113281 L 226.125 81.382812 C 229.332031 82.3125 244.109375 82.9375 258.042969 82.917969 C 270.828125 82.9375 283.5 82.351562 285.960938 81.402344 L 286.902344 81.027344 L 287.441406 81.957031 C 288.621094 83.945312 289.660156 84.886719 291.3125 86.953125 L 291.59375 87.289062 L 291.59375 93.859375 L 290.6875 94.089844 C 282.898438 96.203125 274.453125 103.378906 274.625 109.339844 C 274.730469 114.078125 275.238281 113.738281 275.578125 114.019531 C 276.519531 114.335938 278.054688 115.785156 277.796875 119.707031 C 277.875 122.789062 276.179688 124.480469 274.941406 125.390625 C 273.644531 126.449219 273.078125 126.707031 273.011719 128.339844 C 273.011719 138.605469 274.46875 166.277344 274.46875 189.730469 C 274.46875 201.082031 274.113281 211.464844 273.117188 218.523438 C 274.191406 219.648438 274.152344 221.242188 274.546875 222.914062 C 274.863281 224.921875 275.179688 227.15625 275.578125 227.945312 L 275.671875 228.148438 L 276.164062 228.433594 L 277.910156 238.570312 L 277.265625 239.019531 C 275.988281 239.902344 275.277344 240.335938 274.296875 241.421875 C 272.480469 243.371094 271.933594 246.28125 271.933594 249.210938 C 271.933594 252.253906 272.5 255.085938 272.519531 256.882812 C 272.480469 257.785156 272.183594 258.457031 272.183594 260.582031 C 272.183594 262.308594 272.402344 264.941406 273.25 268.839844 C 273.625 270.90625 273.230469 275.191406 273.703125 277.457031 C 273.816406 278.207031 273.960938 278.398438 274.019531 278.378906 L 274.527344 278.65625 L 274.605469 279.246094 C 274.921875 281.328125 275.015625 283.46875 275.015625 285.417969 C 275.015625 289.355469 274.625 292.527344 274.605469 292.566406 L 274.527344 293.113281 L 274.058594 293.429688 C 272.800781 294.273438 272.144531 294.765625 271.070312 295.851562 C 268.925781 298.070312 268.351562 299.683594 268.332031 301.554688 C 268.253906 305.351562 271.40625 310.621094 271.425781 319.929688 L 271.425781 321.207031 C 271.695312 323.011719 274.808594 332.058594 275.808594 333.222656 L 276.304688 333.59375 L 274.585938 357.847656 L 274.058594 358.183594 C 272.703125 359.105469 272.011719 359.460938 271.167969 360.546875 C 270.136719 361.804688 269.851562 362.9375 269.8125 364.28125 C 269.8125 366.261719 270.695312 368.679688 271.386719 371.582031 C 274.019531 382.453125 273.117188 376.394531 293.082031 390.789062 L 293.492188 391.089844 Z M 408.328125 472.40625 L 363.574219 472.40625 L 363.230469 471.773438 C 362.574219 470.667969 362.007812 469.925781 361.277344 468.941406 L 350.808594 468.941406 L 350.449219 468.355469 C 348.566406 465.375 347.839844 465.339844 347.183594 465.300781 C 346.773438 465.28125 346.148438 465.445312 345.300781 465.480469 C 343.707031 465.480469 341.871094 464.695312 339.730469 462.035156 L 309.054688 462.035156 C 304.039062 461.746094 302.761719 458.910156 301.878906 457.433594 C 295.515625 456.925781 255.636719 456.847656 234.550781 456.847656 L 220.636719 456.847656 L 220.261719 456.269531 C 219.136719 453.910156 211.171875 451.535156 210.933594 451.671875 L 199.308594 451.671875 C 196.984375 453.1875 180.710938 463.78125 179.355469 468.132812 L 178.960938 469.085938 L 177.980469 468.902344 C 177.960938 468.902344 167.710938 467.210938 159.113281 467.210938 C 154.816406 467.191406 150.886719 467.699219 149.273438 468.75 L 148.167969 469.429688 L 147.554688 468.316406 C 146.8125 467.03125 146.21875 466.308594 144.726562 465.28125 L 143.640625 464.496094 L 144.449219 463.496094 C 146.726562 460.566406 146.515625 462.257812 147.398438 458 L 147.511719 457.398438 L 156.878906 452.421875 C 160.539062 448.800781 160.03125 450.378906 168.160156 442.980469 L 168.160156 428.171875 L 168.707031 427.816406 C 169.53125 427.324219 171.425781 426.222656 171.367188 424.53125 C 171.386719 423.199219 170.4375 422.488281 168.6875 421.210938 L 168.15625 420.835938 L 168.15625 394.519531 L 168.707031 394.144531 C 169.734375 393.453125 170.433594 392.816406 171.367188 392.011719 L 171.367188 380.726562 L 171.875 380.351562 C 174.863281 378.171875 174.621094 378.363281 174.621094 377.777344 C 174.621094 377.347656 174.546875 376.519531 174.546875 375.339844 C 174.566406 371.179688 171.5 368.808594 168.6875 366.820312 L 168.15625 366.445312 L 168.050781 322.523438 L 168.820312 322.207031 C 170.972656 321.179688 170.222656 321.5625 171.316406 319.785156 C 170.75 315.636719 170.558594 311.730469 170.558594 308.335938 C 170.558594 301.335938 171.367188 296.554688 171.386719 296.515625 L 171.460938 295.988281 L 171.894531 295.6875 C 172.914062 295.003906 173.625 294.371094 174.546875 293.585938 L 174.546875 258.933594 L 175.101562 258.578125 C 175.824219 258.203125 178.761719 254.109375 178.636719 251.039062 L 178.636719 250.492188 C 178.445312 247.859375 176.003906 244.726562 175.101562 244.199219 L 174.546875 243.84375 L 174.546875 195.378906 C 173.640625 194.554688 172.96875 193.957031 171.894531 193.25 L 171.367188 192.902344 L 171.367188 166.558594 L 171.875 166.183594 C 174.351562 164.433594 175.429688 162.785156 177.792969 160.585938 C 177.957031 158.75 178.464844 151.96875 178.464844 145.890625 C 178.464844 142.566406 178.28125 139.414062 177.871094 137.601562 C 176.890625 136.738281 176.214844 136.152344 175.101562 135.402344 L 173.996094 134.632812 L 174.824219 133.617188 C 176.214844 131.945312 180.25 121.359375 180.15625 118.316406 L 180.15625 118.070312 C 179.40625 109.175781 174.726562 100.425781 174.621094 100.273438 C 174.488281 99.09375 170.769531 98.304688 168.253906 98.417969 C 167.742188 98.417969 167.3125 98.4375 166.976562 98.4375 L 166.714844 98.949219 L 165.589844 98.320312 C 161.855469 95.507812 166.832031 93.617188 149.5 80.96875 L 148.460938 80.179688 L 149.269531 79.179688 C 151.542969 76.289062 151.3125 77.941406 152.199219 73.667969 L 152.390625 72.6875 L 158.097656 72.6875 L 158.472656 73.300781 C 159.128906 74.4375 159.652344 75.183594 160.402344 76.125 L 186.054688 76.125 L 186.414062 76.722656 C 190.070312 82.617188 192.339844 83.351562 193.789062 83.351562 C 194.855469 83.367188 195.796875 82.839844 197.21875 82.800781 C 197.710938 82.800781 198.277344 82.9375 199.101562 83.53125 C 199.140625 83.53125 209.105469 95.902344 213.253906 98.832031 L 213.765625 99.1875 L 213.765625 131.542969 L 213.234375 131.917969 C 210.929688 133.6875 210.671875 133.726562 210.574219 136.085938 L 210.574219 136.277344 L 210.535156 136.367188 C 210.535156 136.578125 210.816406 138.804688 216.433594 142.867188 L 216.933594 143.222656 L 216.933594 158.332031 L 216.398438 158.726562 C 215.359375 159.417969 214.667969 159.980469 213.765625 160.808594 L 213.765625 228.808594 C 216.636719 231.34375 218.289062 231.46875 220 234.871094 C 221.519531 238.039062 221.816406 246.355469 221.871094 256.703125 C 221.871094 277.214844 220.144531 304.5625 220.144531 304.5625 L 220.09375 305.175781 L 219.605469 305.519531 C 218.53125 306.230469 217.855469 306.808594 216.933594 307.632812 L 216.933594 330.703125 C 217.894531 331.511719 218.71875 332.222656 219.625 332.847656 L 220.035156 333.125 L 220.113281 333.632812 C 220.355469 334.910156 220.394531 337.234375 220.410156 339.960938 C 220.410156 345.359375 220.140625 352.027344 220.140625 352.046875 L 220.09375 353.027344 L 219.113281 353.1875 C 215.195312 353.8125 215.511719 356.386719 213.878906 361.304688 C 216.300781 364.753906 216.992188 364.1875 216.933594 367.363281 L 216.933594 368.394531 C 217.183594 372.261719 216.28125 372.792969 213.765625 375 L 213.765625 389.753906 L 213.234375 390.148438 C 212.148438 390.878906 211.457031 391.445312 210.574219 392.230469 L 210.574219 413.949219 L 210.046875 414.320312 C 208 415.820312 208.078125 416.445312 207.308594 418.84375 C 207.136719 419.390625 207.078125 419.746094 207.078125 419.910156 C 206.183594 420.101562 210.402344 420.140625 210.574219 429.34375 C 216.433594 429.46875 220.785156 430.1875 226.214844 430.1875 C 228.972656 430.1875 232.046875 429.996094 235.765625 429.449219 C 238.414062 425.355469 239.730469 424.90625 244.949219 421.601562 C 245.417969 421.496094 245.929688 421.417969 246.429688 421.417969 C 251.875 421.515625 261.675781 426.375 272.492188 426.355469 C 277.652344 426.355469 282.964844 425.269531 288.054688 422.070312 C 288.75 420.082031 290.757812 419.988281 293.390625 419.296875 C 296.339844 418.730469 300.414062 418.296875 305.371094 417.980469 C 315.207031 417.347656 328.378906 417.136719 341.753906 417.136719 C 370.230469 417.136719 399.65625 418.132812 399.683594 418.132812 L 400.859375 418.152344 L 400.859375 459.027344 L 400.898438 459.011719 C 401.003906 459.203125 401.136719 459.519531 401.289062 459.875 C 401.625 460.644531 402.144531 461.660156 402.730469 462.863281 C 403.914062 465.203125 405.488281 468.132812 407.035156 470.476562 Z M 900 87.816406 C 900 91.8125 898.050781 97.199219 884.8125 97.199219 C 871.535156 97.199219 869.449219 91.8125 869.449219 87.816406 L 869.449219 75.070312 C 869.449219 71.171875 871.535156 65.6875 884.8125 65.6875 C 898.050781 65.6875 900 71.171875 900 75.070312 Z M 897.328125 74.832031 C 897.328125 71.808594 895.253906 68.203125 884.8125 68.203125 C 874.320312 68.203125 872.15625 71.804688 872.15625 74.832031 L 872.15625 88.058594 C 872.15625 91.082031 874.316406 94.761719 884.8125 94.761719 C 895.253906 94.761719 897.328125 91.160156 897.328125 88.113281 Z M 880.792969 84.15625 L 880.792969 90.648438 C 880.792969 91.003906 880.660156 91.300781 880.265625 91.300781 L 878.671875 91.300781 C 878.21875 91.300781 878.085938 91.003906 878.085938 90.648438 L 878.085938 72.824219 C 878.085938 72.390625 878.21875 72.179688 878.671875 72.179688 L 885.503906 72.179688 C 891.007812 72.179688 892.363281 74.832031 892.363281 77.308594 L 892.363281 79.046875 C 892.363281 80.890625 891.480469 82.9375 888.683594 83.78125 L 891.660156 90.648438 C 891.757812 91.003906 891.480469 91.300781 891.066406 91.300781 L 889.394531 91.300781 C 889.039062 91.300781 888.90625 91.003906 888.769531 90.648438 L 886.011719 84.15625 Z M 880.792969 74.339844 L 880.792969 81.996094 L 885.203125 81.996094 C 888.316406 81.996094 889.632812 80.480469 889.632812 78.882812 L 889.632812 77.453125 C 889.632812 75.859375 888.394531 74.339844 885.203125 74.339844 Z M 880.792969 74.339844 " fill-opacity="1" fill-rule="nonzero"/></g></svg>