<svg xmlns="http://www.w3.org/2000/svg" xmlns:xlink="http://www.w3.org/1999/xlink" width="1200" zoomAndPan="magnify" viewBox="0 0 900 599.999999" height="800" preserveAspectRatio="xMidYMid meet" version="1.0"><defs><clipPath id="5ae30e409e"><path d="M 413 215.726562 L 467 215.726562 L 467 247 L 413 247 Z M 413 215.726562 " clip-rule="nonzero"/></clipPath><clipPath id="24c9f5d87d"><path d="M 413 353 L 467 353 L 467 384.476562 L 413 384.476562 Z M 413 353 " clip-rule="nonzero"/></clipPath></defs><path fill="#ffffff" d="M 291.488281 319.300781 L 303.699219 331.527344 L 300.03125 335.535156 C 291.511719 343.324219 280.175781 348.09375 267.742188 348.09375 C 241.3125 348.09375 219.800781 326.554688 219.800781 300.089844 C 219.800781 273.625 241.3125 252.085938 267.742188 252.085938 C 280.039062 252.085938 291.289062 256.765625 299.785156 264.425781 L 343.234375 264.425781 C 329.839844 236.125 301.082031 216.535156 267.742188 216.535156 C 221.65625 216.535156 184.289062 253.945312 184.289062 300.089844 C 184.289062 346.234375 221.65625 383.648438 267.742188 383.648438 C 291.960938 383.648438 313.738281 373.328125 328.96875 356.824219 L 343.324219 371.199219 L 343.324219 319.300781 Z M 291.488281 319.300781 " fill-opacity="1" fill-rule="nonzero"/><path fill="#ffffff" d="M 169.710938 284.21875 L 89.519531 284.21875 L 89.519531 319.570312 L 131.558594 319.570312 C 124.089844 336.363281 107.277344 348.117188 87.777344 348.117188 C 61.34375 348.117188 39.832031 326.578125 39.832031 300.113281 C 39.832031 273.648438 61.34375 252.109375 87.777344 252.109375 C 100.074219 252.109375 111.324219 256.789062 119.796875 264.445312 L 163.222656 264.445312 C 149.851562 236.125 121.117188 216.535156 87.777344 216.535156 C 41.6875 216.535156 4.324219 253.945312 4.324219 300.089844 C 4.324219 346.234375 41.6875 383.648438 87.777344 383.648438 C 127.175781 383.648438 160.136719 356.3125 168.902344 319.546875 L 168.925781 319.546875 C 168.972656 319.390625 168.992188 319.210938 169.039062 319.054688 C 169.304688 317.933594 169.53125 316.816406 169.753906 315.675781 C 169.84375 315.269531 169.910156 314.847656 170 314.441406 C 170.179688 313.367188 170.335938 312.292969 170.492188 311.21875 C 170.671875 309.875 170.828125 308.507812 170.9375 307.144531 C 170.960938 306.742188 171.027344 306.359375 171.050781 305.957031 C 171.183594 304.007812 171.273438 302.039062 171.273438 300.070312 C 171.230469 294.652344 170.691406 289.34375 169.710938 284.21875 Z M 169.710938 284.21875 " fill-opacity="1" fill-rule="nonzero"/><path fill="#ffffff" d="M 510.1875 255 C 503.769531 244.992188 495.269531 236.4375 485.296875 229.96875 L 440.214844 275.105469 L 394.914062 229.765625 C 384.917969 236.191406 376.375 244.699219 369.910156 254.683594 L 415.261719 300.089844 L 369.910156 345.496094 C 376.375 355.484375 384.917969 363.992188 394.914062 370.417969 L 440.214844 325.054688 L 485.296875 370.214844 C 495.269531 363.746094 503.769531 355.191406 510.1875 345.183594 L 465.148438 300.089844 Z M 510.1875 255 " fill-opacity="1" fill-rule="nonzero"/><g clip-path="url(#5ae30e409e)"><path fill="#ffda00" d="M 466.289062 220.496094 C 458.105469 217.429688 449.230469 215.726562 439.949219 215.726562 C 430.667969 215.726562 421.789062 217.429688 413.585938 220.496094 L 439.949219 246.894531 Z M 466.289062 220.496094 " fill-opacity="1" fill-rule="nonzero"/></g><g clip-path="url(#24c9f5d87d)"><path fill="#00abc8" d="M 413.585938 379.6875 C 421.789062 382.777344 430.667969 384.453125 439.949219 384.453125 C 449.226562 384.453125 458.105469 382.753906 466.3125 379.6875 L 439.949219 353.289062 Z M 413.585938 379.6875 " fill-opacity="1" fill-rule="nonzero"/></g><path fill="#f32735" d="M 360.453125 273.714844 C 357.367188 281.933594 355.691406 290.820312 355.691406 300.113281 C 355.691406 309.40625 357.390625 318.292969 360.453125 326.511719 L 386.816406 300.113281 Z M 360.453125 273.714844 " fill-opacity="1" fill-rule="nonzero"/><path fill="#ffffff" d="M 571.253906 235.542969 C 568.503906 232.988281 564.367188 231.355469 559.984375 231.355469 C 552.785156 231.355469 547.867188 236.414062 547.867188 244.074219 C 547.867188 252 553.03125 257.058594 559.984375 257.058594 C 561.75 257.058594 563.453125 256.855469 564.570312 256.410156 L 564.570312 245.527344 L 572.6875 245.527344 L 572.6875 261.269531 C 569.601562 263.238281 564.433594 264.222656 559.851562 264.222656 C 547.460938 264.222656 539.34375 256.476562 539.34375 244.09375 C 539.34375 232.226562 547.730469 223.964844 559.515625 223.964844 C 564.101562 223.964844 568.101562 224.953125 571.234375 226.921875 L 571.234375 235.542969 Z M 571.253906 235.542969 " fill-opacity="1" fill-rule="nonzero"/><path fill="#ffffff" d="M 587.960938 255.289062 L 584.941406 263.550781 L 576.21875 263.550781 L 591.292969 224.59375 L 601.308594 224.59375 L 616.515625 263.550781 L 607.480469 263.550781 L 604.460938 255.289062 Z M 596.277344 232.652344 L 590.441406 248.527344 L 602.046875 248.527344 Z M 596.277344 232.652344 " fill-opacity="1" fill-rule="nonzero"/><path fill="#ffffff" d="M 639.703125 263.550781 L 631.386719 236.324219 L 627.316406 263.550781 L 619.199219 263.550781 L 624.902344 224.59375 L 634.984375 224.59375 L 643.707031 253.117188 L 652.160156 224.59375 L 662.246094 224.59375 L 668.015625 263.550781 L 659.761719 263.550781 L 655.691406 236.324219 L 647.308594 263.550781 Z M 639.703125 263.550781 " fill-opacity="1" fill-rule="nonzero"/><path fill="#ffffff" d="M 674.476562 224.59375 L 682.796875 224.59375 L 682.796875 263.550781 L 674.476562 263.550781 Z M 674.476562 224.59375 " fill-opacity="1" fill-rule="nonzero"/><path fill="#ffffff" d="M 717.523438 250.835938 L 717.523438 224.59375 L 725.503906 224.59375 L 725.503906 263.550781 L 717.65625 263.550781 L 699.566406 237.648438 L 699.566406 263.550781 L 691.582031 263.550781 L 691.582031 224.59375 L 699.96875 224.59375 Z M 717.523438 250.835938 " fill-opacity="1" fill-rule="nonzero"/><path fill="#ffffff" d="M 764.167969 235.542969 C 761.417969 232.988281 757.28125 231.355469 752.898438 231.355469 C 745.699219 231.355469 740.777344 236.414062 740.777344 244.074219 C 740.777344 252 745.945312 257.058594 752.898438 257.058594 C 754.664062 257.058594 756.363281 256.855469 757.484375 256.410156 L 757.484375 245.527344 L 765.601562 245.527344 L 765.601562 261.269531 C 762.515625 263.238281 757.347656 264.222656 752.765625 264.222656 C 740.375 264.222656 732.257812 256.476562 732.257812 244.09375 C 732.257812 232.226562 740.644531 223.964844 752.429688 223.964844 C 757.011719 223.964844 761.015625 224.953125 764.144531 226.921875 L 764.144531 235.542969 Z M 764.167969 235.542969 " fill-opacity="1" fill-rule="nonzero"/><path fill="#ffffff" d="M 570.09375 294.15625 C 567.609375 291.671875 563.941406 290.082031 559.472656 290.082031 C 552.472656 290.082031 547.867188 295.253906 547.867188 302.734375 C 547.867188 310.414062 552.851562 315.382812 559.785156 315.382812 C 564.234375 315.382812 567.453125 314.0625 570.71875 311.375 L 570.71875 319.972656 C 567.117188 322.144531 563.382812 322.859375 559.449219 322.859375 C 547.261719 322.859375 539.34375 314.597656 539.34375 302.734375 C 539.34375 290.800781 547.597656 282.605469 559.449219 282.605469 C 563.382812 282.605469 566.917969 283.386719 570.070312 285.222656 L 570.070312 294.15625 Z M 570.09375 294.15625 " fill-opacity="1" fill-rule="nonzero"/><path fill="#ffffff" d="M 595.628906 282.605469 C 606.898438 282.605469 615.867188 290.867188 615.867188 302.734375 C 615.867188 314.597656 606.898438 322.859375 595.628906 322.859375 C 584.359375 322.859375 575.390625 314.597656 575.390625 302.734375 C 575.390625 290.890625 584.359375 282.605469 595.628906 282.605469 Z M 595.628906 290.082031 C 588.945312 290.082031 583.914062 295.074219 583.914062 302.734375 C 583.914062 310.414062 588.964844 315.382812 595.628906 315.382812 C 602.292969 315.382812 607.347656 310.390625 607.347656 302.734375 C 607.347656 295.074219 602.316406 290.082031 595.628906 290.082031 Z M 595.628906 290.082031 " fill-opacity="1" fill-rule="nonzero"/><path fill="#ffffff" d="M 640.554688 322.234375 L 632.234375 295.007812 L 628.164062 322.234375 L 620.046875 322.234375 L 625.75 283.277344 L 635.835938 283.277344 L 644.554688 311.800781 L 653.007812 283.277344 L 663.09375 283.277344 L 668.863281 322.234375 L 660.613281 322.234375 L 656.542969 295.007812 L 648.15625 322.234375 Z M 640.554688 322.234375 " fill-opacity="1" fill-rule="nonzero"/><path fill="#ffffff" d="M 693.886719 322.234375 L 685.566406 295.007812 L 681.496094 322.234375 L 673.378906 322.234375 L 679.082031 283.277344 L 689.167969 283.277344 L 697.890625 311.800781 L 706.339844 283.277344 L 716.425781 283.277344 L 722.195312 322.234375 L 713.945312 322.234375 L 709.875 295.007812 L 701.488281 322.234375 Z M 693.886719 322.234375 " fill-opacity="1" fill-rule="nonzero"/><path fill="#ffffff" d="M 727.742188 283.277344 L 736.058594 283.277344 L 736.058594 306.898438 C 736.058594 313.859375 739.28125 315.941406 744.3125 315.941406 C 747.195312 315.941406 749.230469 315.675781 751.199219 315.359375 L 751.199219 283.277344 L 759.515625 283.277344 L 759.515625 321.003906 C 756.050781 322.054688 749.164062 322.90625 744.3125 322.90625 C 735.457031 322.90625 727.742188 319.570312 727.742188 308.597656 Z M 727.742188 283.277344 " fill-opacity="1" fill-rule="nonzero"/><path fill="#ffffff" d="M 794.222656 309.515625 L 794.222656 283.277344 L 802.207031 283.277344 L 802.207031 322.234375 L 794.335938 322.234375 L 776.265625 296.328125 L 776.265625 322.234375 L 768.28125 322.234375 L 768.28125 283.277344 L 776.667969 283.277344 Z M 794.222656 309.515625 " fill-opacity="1" fill-rule="nonzero"/><path fill="#ffffff" d="M 811.0625 283.277344 L 819.378906 283.277344 L 819.378906 322.234375 L 811.0625 322.234375 Z M 811.0625 283.277344 " fill-opacity="1" fill-rule="nonzero"/><path fill="#ffffff" d="M 844.917969 322.234375 L 836.730469 322.234375 L 836.730469 290.554688 L 824.746094 290.554688 L 824.746094 283.277344 L 856.902344 283.277344 L 856.902344 290.554688 L 844.917969 290.554688 Z M 844.917969 322.234375 " fill-opacity="1" fill-rule="nonzero"/><path fill="#ffffff" d="M 886.507812 283.277344 L 895.675781 283.277344 L 881.589844 307.75 L 881.589844 322.234375 L 873.335938 322.234375 L 873.335938 307.75 L 859.382812 283.277344 L 868.484375 283.277344 L 877.585938 299.867188 Z M 886.507812 283.277344 " fill-opacity="1" fill-rule="nonzero"/><path fill="#ffffff" d="M 566.671875 373.640625 L 566.671875 380.917969 L 541.449219 380.917969 L 541.449219 341.960938 L 566.269531 341.960938 L 566.269531 349.234375 L 549.632812 349.234375 L 549.632812 357.765625 L 564.90625 357.765625 L 564.90625 364.910156 L 549.632812 364.910156 L 549.632812 373.640625 Z M 566.671875 373.640625 " fill-opacity="1" fill-rule="nonzero"/><path fill="#ffffff" d="M 593.082031 360.765625 L 606.898438 380.894531 L 597.328125 380.894531 L 588.363281 367.371094 L 579.195312 380.894531 L 569.890625 380.894531 L 583.777344 360.699219 L 570.941406 341.9375 L 580.511719 341.9375 L 588.496094 354.140625 L 596.613281 341.9375 L 605.847656 341.9375 Z M 593.082031 360.765625 " fill-opacity="1" fill-rule="nonzero"/><path fill="#ffffff" d="M 619.734375 380.917969 L 611.417969 380.917969 L 611.417969 342.136719 C 614.300781 341.667969 618.820312 341.289062 622.621094 341.289062 C 632.570312 341.289062 638.808594 345.878906 638.808594 355.125 C 638.808594 364.839844 631.542969 368.828125 622.957031 368.828125 C 621.90625 368.828125 620.539062 368.761719 619.734375 368.691406 Z M 619.734375 361.640625 C 620.25 361.707031 621.433594 361.773438 622.417969 361.773438 C 627.472656 361.773438 630.46875 359.738281 630.46875 355.148438 C 630.46875 350.757812 627.382812 348.652344 622.554688 348.652344 C 621.769531 348.652344 620.519531 348.722656 619.734375 348.855469 Z M 619.734375 361.640625 " fill-opacity="1" fill-rule="nonzero"/><path fill="#ffffff" d="M 663.027344 341.289062 C 674.296875 341.289062 683.265625 349.550781 683.265625 361.417969 C 683.265625 373.28125 674.296875 381.542969 663.027344 381.542969 C 651.757812 381.542969 642.789062 373.28125 642.789062 361.417969 C 642.789062 349.550781 651.757812 341.289062 663.027344 341.289062 Z M 663.027344 348.765625 C 656.339844 348.765625 651.308594 353.757812 651.308594 361.417969 C 651.308594 369.09375 656.363281 374.066406 663.027344 374.066406 C 669.691406 374.066406 674.746094 369.074219 674.746094 361.417969 C 674.746094 353.757812 669.714844 348.765625 663.027344 348.765625 Z M 663.027344 348.765625 " fill-opacity="1" fill-rule="nonzero"/></svg>