<svg xmlns="http://www.w3.org/2000/svg" xmlns:xlink="http://www.w3.org/1999/xlink" width="1200" zoomAndPan="magnify" viewBox="0 0 900 599.999999" height="800" preserveAspectRatio="xMidYMid meet" version="1.0"><defs><clipPath id="5a3bcda01a"><path d="M 40.894531 10 L 859.144531 10 L 859.144531 590 L 40.894531 590 Z M 40.894531 10 " clip-rule="nonzero"/></clipPath></defs><g clip-path="url(#5a3bcda01a)"><path fill="#f61c0d" d="M 689.203125 10.519531 L 210.832031 10.519531 C 116.976562 10.519531 40.894531 86.601562 40.894531 180.457031 L 40.894531 419.59375 C 40.894531 513.449219 116.976562 589.53125 210.832031 589.53125 L 689.203125 589.53125 C 783.058594 589.53125 859.144531 513.449219 859.144531 419.59375 L 859.144531 180.457031 C 859.144531 86.601562 783.058594 10.519531 689.203125 10.519531 Z M 574.273438 311.660156 L 350.523438 418.375 C 344.5625 421.21875 337.675781 416.871094 337.675781 410.265625 L 337.675781 190.167969 C 337.675781 183.46875 344.742188 179.128906 350.71875 182.15625 L 574.46875 295.539062 C 581.121094 298.910156 581.003906 308.449219 574.273438 311.660156 Z M 574.273438 311.660156 " fill-opacity="1" fill-rule="nonzero"/></g></svg>